M48
;GenerationSoftware,Autodesk,EAGLE,9.6.2*%
;CreationDate,2025-03-26T21:15:57Z*%
FMAT,2
ICI,OFF
METRIC,TZ,000.000
T7C0.350
T6C0.813
T5C0.900
T4C1.016
T3C1.194
T2C1.200
T1C2.997
%
G90
M71
T1
X1905Y1905
X67945Y52705
X1905Y52705
X67945Y1905
T2
X14224Y27895
X32766Y30435
X14224Y16555
X32766Y27895
X32766Y19095
X32766Y16555
X14224Y19095
X14224Y30435
T3
X6350Y22860
X6350Y17780
T4
X44450Y41275
X46990Y41275
X49530Y41275
X52070Y52070
X52070Y49530
X52070Y46990
X44450Y52070
X44450Y49530
X44450Y46990
X44450Y44450
X41910Y52070
X41910Y49530
X41910Y46990
X24130Y52070
X24130Y49530
X24130Y46990
X24130Y44450
X19050Y52070
X19050Y49530
X19050Y46990
X57150Y46990
X21590Y52070
X21590Y49530
X21590Y46990
X26670Y52070
X26670Y49530
X26670Y46990
X31750Y52070
X31750Y49530
X31750Y46990
X36830Y52070
X36830Y49530
X36830Y46990
X49530Y52070
X49530Y49530
X49530Y46990
X57150Y52070
X57150Y49530
X66040Y13970
X66040Y11430
X34290Y2540
X34290Y5080
X13970Y2540
X13970Y5080
X8890Y2540
X8890Y5080
X11430Y2540
X11430Y5080
X19050Y2540
X19050Y5080
X24130Y2540
X24130Y5080
X66040Y36830
X63500Y36830
X66040Y39370
X63500Y39370
X66040Y41910
X63500Y41910
X13970Y12700
X19050Y12700
X21590Y12700
X24130Y12700
X26670Y12700
X29210Y12700
X34290Y12700
X36830Y12700
X39370Y12700
X41910Y12700
X44450Y12700
X46990Y12700
X49530Y12700
X13970Y38100
X16510Y38100
X19040Y38100
X21590Y38100
X24130Y38100
X26670Y38100
X29210Y38100
X31750Y38100
X34290Y38100
X36830Y38100
X39370Y38100
X41910Y38100
X44450Y38100
X46990Y38100
X49530Y38100
X16510Y12700
X29210Y52070
X31750Y12700
X29210Y46990
X29210Y2540
X29210Y5080
X31750Y2540
X31750Y5080
X39370Y2540
X39370Y5080
X36830Y2540
X36830Y5080
X16510Y2540
X16510Y5080
X26670Y2540
X26670Y5080
X21590Y2540
X21590Y5080
X40640Y17463
X40640Y20003
X40640Y28257
X40640Y30797
X40640Y33338
X29210Y49530
X48260Y2540
X50800Y2540
X53340Y2540
X55880Y2540
X58420Y2540
X60960Y2540
X63500Y2540
X66040Y31750
X66040Y29210
X66040Y26670
X66040Y24130
X66040Y21590
X66040Y19050
X62230Y52070
X62230Y49530
X46990Y52070
X46990Y49530
X46990Y46990
X46990Y44450
X34290Y52070
X34290Y49530
X34290Y46990
X34290Y44450
X39370Y52070
X39370Y49530
X39370Y46990
X13970Y9525
X16510Y9525
X19050Y9525
X21590Y9525
X24130Y9525
X26670Y9525
X29210Y9525
X31750Y9525
X34290Y9525
X36830Y9525
X39370Y9525
X41910Y9525
X44450Y9525
X46990Y9525
X49530Y9525
X13970Y41275
X16510Y41275
X19050Y41275
X21590Y41275
X24130Y41275
X26670Y41275
X29210Y41275
X31750Y41275
X34290Y41275
X36830Y41275
X39370Y41275
X41910Y41275
T5
X14922Y24447
X9525Y48577
X9525Y50165
X9525Y51752
X6667Y52070
X6667Y50482
X16510Y24447
X9627Y16510
T6
X6032Y33655
X8573Y33655
X3492Y33655
T7
X61595Y24460
X28257Y18098
X54927Y16192
X53975Y16192
X29210Y18098
X28257Y17145
X53975Y15240
X53975Y41593
X12065Y34925
X42672Y43180
X52072Y33020
X50811Y30469
X56873Y28486
X57150Y26670
X37465Y18098
X45085Y20638
M30