G04 EAGLE Gerber RS-274X export*
G75*
%MOMM*%
%FSLAX34Y34*%
%LPD*%
%INBottom Copper*%
%IPPOS*%
%AMOC8*
5,1,8,0,0,1.08239X$1,22.5*%
G01*
%ADD10C,1.790700*%
%ADD11C,1.219200*%
%ADD12C,1.524000*%
%ADD13P,1.649562X8X112.500000*%
%ADD14R,1.524000X1.524000*%
%ADD15C,2.000000*%
%ADD16R,2.000000X2.000000*%
%ADD17R,1.168400X1.600200*%
%ADD18C,0.406400*%
%ADD19C,2.032000*%
%ADD20C,1.350000*%
%ADD21C,0.609600*%
%ADD22C,0.705600*%
%ADD23C,0.508000*%

G36*
X75837Y-2538D02*
X75837Y-2538D01*
X75846Y-2539D01*
X76039Y-2518D01*
X76228Y-2499D01*
X76237Y-2497D01*
X76246Y-2496D01*
X76429Y-2438D01*
X76613Y-2381D01*
X76621Y-2377D01*
X76630Y-2374D01*
X76797Y-2282D01*
X76967Y-2189D01*
X76974Y-2184D01*
X76982Y-2179D01*
X77129Y-2055D01*
X77277Y-1932D01*
X77282Y-1925D01*
X77289Y-1919D01*
X77409Y-1767D01*
X77529Y-1618D01*
X77533Y-1610D01*
X77539Y-1603D01*
X77626Y-1430D01*
X77714Y-1261D01*
X77717Y-1252D01*
X77721Y-1244D01*
X77773Y-1058D01*
X77826Y-874D01*
X77827Y-865D01*
X77829Y-856D01*
X77843Y-666D01*
X77859Y-472D01*
X77858Y-464D01*
X77858Y-455D01*
X77834Y-262D01*
X77812Y-73D01*
X77809Y-64D01*
X77808Y-55D01*
X77747Y128D01*
X77687Y310D01*
X77683Y318D01*
X77680Y326D01*
X77584Y493D01*
X77489Y661D01*
X77483Y668D01*
X77479Y675D01*
X77264Y928D01*
X56937Y21255D01*
X55079Y23113D01*
X54228Y25167D01*
X54228Y76433D01*
X55079Y78487D01*
X75501Y98908D01*
X77555Y99759D01*
X129213Y99759D01*
X129235Y99761D01*
X129257Y99760D01*
X129435Y99781D01*
X129613Y99799D01*
X129635Y99806D01*
X129657Y99808D01*
X129827Y99865D01*
X129998Y99917D01*
X130018Y99928D01*
X130039Y99935D01*
X130195Y100024D01*
X130352Y100109D01*
X130369Y100123D01*
X130389Y100134D01*
X130524Y100252D01*
X130661Y100367D01*
X130675Y100384D01*
X130692Y100399D01*
X130802Y100541D01*
X130914Y100681D01*
X130924Y100700D01*
X130938Y100718D01*
X131085Y101004D01*
X133516Y103436D01*
X133533Y103456D01*
X133554Y103474D01*
X133661Y103612D01*
X133771Y103747D01*
X133784Y103771D01*
X133800Y103792D01*
X133878Y103949D01*
X133960Y104103D01*
X133968Y104129D01*
X133980Y104153D01*
X134025Y104321D01*
X134075Y104489D01*
X134077Y104515D01*
X134084Y104541D01*
X134111Y104872D01*
X134111Y117378D01*
X134109Y117404D01*
X134111Y117431D01*
X134089Y117605D01*
X134071Y117779D01*
X134064Y117804D01*
X134060Y117831D01*
X134005Y117996D01*
X133953Y118163D01*
X133940Y118187D01*
X133932Y118212D01*
X133845Y118364D01*
X133761Y118517D01*
X133744Y118538D01*
X133731Y118561D01*
X133516Y118814D01*
X131086Y121244D01*
X129539Y124979D01*
X129539Y129021D01*
X131086Y132756D01*
X133944Y135614D01*
X137679Y137161D01*
X141721Y137161D01*
X145456Y135614D01*
X148314Y132756D01*
X149861Y129021D01*
X149861Y124979D01*
X148314Y121244D01*
X145884Y118814D01*
X145867Y118794D01*
X145846Y118776D01*
X145739Y118638D01*
X145629Y118503D01*
X145616Y118479D01*
X145600Y118458D01*
X145522Y118301D01*
X145440Y118147D01*
X145432Y118122D01*
X145420Y118097D01*
X145375Y117928D01*
X145325Y117761D01*
X145323Y117735D01*
X145316Y117709D01*
X145289Y117378D01*
X145289Y104872D01*
X145291Y104845D01*
X145289Y104819D01*
X145311Y104645D01*
X145329Y104471D01*
X145336Y104446D01*
X145340Y104419D01*
X145396Y104253D01*
X145447Y104087D01*
X145460Y104063D01*
X145468Y104038D01*
X145555Y103886D01*
X145639Y103732D01*
X145656Y103712D01*
X145669Y103689D01*
X145884Y103436D01*
X148314Y101006D01*
X149861Y97271D01*
X149861Y93229D01*
X148314Y89494D01*
X145456Y86636D01*
X141721Y85089D01*
X137679Y85089D01*
X133944Y86636D01*
X132594Y87987D01*
X132573Y88004D01*
X132556Y88024D01*
X132418Y88131D01*
X132282Y88242D01*
X132259Y88254D01*
X132237Y88271D01*
X132081Y88349D01*
X131927Y88431D01*
X131901Y88438D01*
X131877Y88450D01*
X131708Y88496D01*
X131541Y88545D01*
X131514Y88548D01*
X131488Y88555D01*
X131157Y88582D01*
X81823Y88582D01*
X81796Y88579D01*
X81770Y88581D01*
X81596Y88559D01*
X81422Y88542D01*
X81397Y88534D01*
X81370Y88531D01*
X81204Y88475D01*
X81037Y88424D01*
X81014Y88411D01*
X80988Y88402D01*
X80837Y88315D01*
X80683Y88232D01*
X80663Y88215D01*
X80640Y88202D01*
X80387Y87987D01*
X66001Y73601D01*
X65984Y73580D01*
X65963Y73563D01*
X65856Y73425D01*
X65746Y73289D01*
X65733Y73266D01*
X65717Y73245D01*
X65639Y73088D01*
X65557Y72934D01*
X65549Y72908D01*
X65537Y72884D01*
X65492Y72715D01*
X65442Y72548D01*
X65440Y72521D01*
X65433Y72495D01*
X65406Y72165D01*
X65406Y29435D01*
X65408Y29409D01*
X65406Y29382D01*
X65428Y29208D01*
X65446Y29035D01*
X65453Y29009D01*
X65457Y28983D01*
X65512Y28817D01*
X65564Y28650D01*
X65577Y28626D01*
X65585Y28601D01*
X65672Y28449D01*
X65756Y28296D01*
X65773Y28275D01*
X65786Y28252D01*
X66001Y27999D01*
X85149Y8851D01*
X85170Y8834D01*
X85187Y8813D01*
X85325Y8706D01*
X85461Y8596D01*
X85484Y8583D01*
X85505Y8567D01*
X85662Y8489D01*
X85816Y8407D01*
X85842Y8399D01*
X85866Y8387D01*
X86035Y8342D01*
X86202Y8292D01*
X86229Y8290D01*
X86255Y8283D01*
X86585Y8256D01*
X482111Y8256D01*
X482137Y8258D01*
X482164Y8256D01*
X482338Y8278D01*
X482511Y8296D01*
X482537Y8303D01*
X482563Y8307D01*
X482729Y8362D01*
X482896Y8414D01*
X482920Y8427D01*
X482945Y8435D01*
X483096Y8522D01*
X483250Y8606D01*
X483271Y8623D01*
X483294Y8636D01*
X483547Y8851D01*
X486745Y12049D01*
X486852Y12179D01*
X486963Y12306D01*
X486979Y12335D01*
X487000Y12360D01*
X487079Y12509D01*
X487163Y12655D01*
X487173Y12687D01*
X487189Y12716D01*
X487237Y12877D01*
X487290Y13037D01*
X487294Y13070D01*
X487304Y13102D01*
X487319Y13270D01*
X487339Y13436D01*
X487337Y13469D01*
X487340Y13503D01*
X487322Y13671D01*
X487309Y13838D01*
X487300Y13870D01*
X487297Y13903D01*
X487246Y14064D01*
X487200Y14226D01*
X487185Y14255D01*
X487175Y14287D01*
X487094Y14434D01*
X487017Y14584D01*
X486996Y14610D01*
X486980Y14639D01*
X486871Y14768D01*
X486767Y14899D01*
X486741Y14921D01*
X486720Y14946D01*
X486588Y15051D01*
X486459Y15159D01*
X486430Y15175D01*
X486404Y15196D01*
X486254Y15272D01*
X486106Y15353D01*
X486075Y15363D01*
X486045Y15378D01*
X485882Y15424D01*
X485722Y15474D01*
X485689Y15477D01*
X485657Y15486D01*
X485489Y15499D01*
X485322Y15516D01*
X485285Y15513D01*
X485255Y15516D01*
X485170Y15505D01*
X485139Y15503D01*
X485139Y22861D01*
X492500Y22861D01*
X492499Y22841D01*
X492484Y22673D01*
X492487Y22640D01*
X492485Y22607D01*
X492509Y22441D01*
X492527Y22273D01*
X492537Y22241D01*
X492542Y22208D01*
X492598Y22049D01*
X492649Y21889D01*
X492665Y21860D01*
X492676Y21829D01*
X492762Y21684D01*
X492843Y21537D01*
X492865Y21512D01*
X492882Y21483D01*
X492995Y21358D01*
X493104Y21230D01*
X493130Y21209D01*
X493152Y21185D01*
X493288Y21085D01*
X493420Y20980D01*
X493450Y20965D01*
X493476Y20946D01*
X493629Y20874D01*
X493779Y20798D01*
X493811Y20789D01*
X493841Y20775D01*
X494005Y20735D01*
X494167Y20690D01*
X494200Y20688D01*
X494232Y20680D01*
X494400Y20673D01*
X494568Y20661D01*
X494601Y20665D01*
X494635Y20663D01*
X494800Y20690D01*
X494968Y20711D01*
X494999Y20722D01*
X495032Y20727D01*
X495190Y20786D01*
X495349Y20839D01*
X495378Y20856D01*
X495409Y20868D01*
X495553Y20956D01*
X495698Y21040D01*
X495727Y21064D01*
X495752Y21080D01*
X495815Y21139D01*
X495951Y21255D01*
X497244Y22548D01*
X497261Y22569D01*
X497282Y22586D01*
X497389Y22724D01*
X497499Y22860D01*
X497512Y22883D01*
X497528Y22904D01*
X497606Y23061D01*
X497688Y23215D01*
X497696Y23241D01*
X497708Y23265D01*
X497753Y23434D01*
X497803Y23601D01*
X497805Y23628D01*
X497812Y23654D01*
X497839Y23984D01*
X497839Y27421D01*
X499386Y31156D01*
X502244Y34014D01*
X505979Y35561D01*
X510021Y35561D01*
X513756Y34014D01*
X516614Y31156D01*
X518161Y27421D01*
X518161Y23379D01*
X516614Y19644D01*
X513756Y16786D01*
X510021Y15239D01*
X506584Y15239D01*
X506558Y15237D01*
X506531Y15239D01*
X506357Y15217D01*
X506184Y15199D01*
X506158Y15192D01*
X506132Y15188D01*
X505966Y15133D01*
X505799Y15081D01*
X505775Y15068D01*
X505750Y15060D01*
X505599Y14973D01*
X505445Y14889D01*
X505424Y14872D01*
X505401Y14859D01*
X505148Y14644D01*
X491432Y928D01*
X491426Y921D01*
X491419Y916D01*
X491299Y766D01*
X491177Y617D01*
X491173Y609D01*
X491167Y602D01*
X491079Y432D01*
X490988Y261D01*
X490986Y253D01*
X490982Y245D01*
X490928Y60D01*
X490873Y-125D01*
X490873Y-134D01*
X490870Y-142D01*
X490855Y-334D01*
X490837Y-526D01*
X490838Y-535D01*
X490837Y-544D01*
X490860Y-733D01*
X490880Y-926D01*
X490883Y-935D01*
X490884Y-943D01*
X490944Y-1125D01*
X491002Y-1310D01*
X491006Y-1318D01*
X491009Y-1326D01*
X491104Y-1495D01*
X491197Y-1662D01*
X491203Y-1669D01*
X491207Y-1677D01*
X491333Y-1823D01*
X491457Y-1969D01*
X491464Y-1975D01*
X491470Y-1982D01*
X491622Y-2099D01*
X491773Y-2219D01*
X491781Y-2223D01*
X491788Y-2228D01*
X491960Y-2314D01*
X492132Y-2401D01*
X492141Y-2404D01*
X492149Y-2408D01*
X492335Y-2458D01*
X492520Y-2509D01*
X492529Y-2510D01*
X492538Y-2512D01*
X492868Y-2539D01*
X672241Y-2539D01*
X672246Y-2539D01*
X672250Y-2539D01*
X672444Y-2519D01*
X672642Y-2499D01*
X672646Y-2498D01*
X672651Y-2498D01*
X672838Y-2439D01*
X673027Y-2381D01*
X673031Y-2379D01*
X673035Y-2378D01*
X673209Y-2282D01*
X673381Y-2189D01*
X673384Y-2187D01*
X673388Y-2184D01*
X673541Y-2056D01*
X673690Y-1932D01*
X673693Y-1928D01*
X673696Y-1925D01*
X673821Y-1769D01*
X673942Y-1618D01*
X673944Y-1614D01*
X673947Y-1611D01*
X674040Y-1430D01*
X674128Y-1261D01*
X674129Y-1256D01*
X674131Y-1252D01*
X674185Y-1062D01*
X674239Y-874D01*
X674240Y-869D01*
X674241Y-865D01*
X674256Y-672D01*
X674272Y-472D01*
X674272Y-468D01*
X674272Y-464D01*
X674248Y-270D01*
X674225Y-73D01*
X674224Y-68D01*
X674223Y-64D01*
X674162Y121D01*
X674100Y310D01*
X674098Y314D01*
X674097Y318D01*
X674000Y487D01*
X673902Y661D01*
X673899Y664D01*
X673897Y668D01*
X673768Y817D01*
X673639Y966D01*
X673636Y968D01*
X673633Y972D01*
X673474Y1094D01*
X673321Y1212D01*
X673317Y1214D01*
X673314Y1217D01*
X673018Y1369D01*
X668803Y3115D01*
X663515Y8403D01*
X660653Y15311D01*
X660653Y22789D01*
X663515Y29697D01*
X668803Y34985D01*
X675711Y37847D01*
X683189Y37847D01*
X690097Y34985D01*
X695385Y29697D01*
X697131Y25482D01*
X697133Y25478D01*
X697135Y25473D01*
X697228Y25301D01*
X697322Y25127D01*
X697324Y25123D01*
X697327Y25119D01*
X697451Y24971D01*
X697578Y24816D01*
X697581Y24813D01*
X697584Y24810D01*
X697737Y24687D01*
X697891Y24563D01*
X697895Y24561D01*
X697898Y24558D01*
X698073Y24467D01*
X698247Y24376D01*
X698251Y24374D01*
X698255Y24372D01*
X698445Y24318D01*
X698634Y24262D01*
X698638Y24262D01*
X698642Y24261D01*
X698840Y24245D01*
X699035Y24228D01*
X699039Y24228D01*
X699044Y24228D01*
X699241Y24251D01*
X699435Y24273D01*
X699439Y24274D01*
X699443Y24275D01*
X699632Y24336D01*
X699818Y24396D01*
X699822Y24398D01*
X699826Y24400D01*
X699999Y24497D01*
X700170Y24592D01*
X700173Y24595D01*
X700177Y24598D01*
X700326Y24726D01*
X700475Y24854D01*
X700478Y24858D01*
X700482Y24861D01*
X700601Y25015D01*
X700724Y25171D01*
X700726Y25175D01*
X700728Y25179D01*
X700816Y25355D01*
X700904Y25531D01*
X700906Y25535D01*
X700908Y25539D01*
X700959Y25732D01*
X701011Y25919D01*
X701011Y25924D01*
X701012Y25928D01*
X701039Y26259D01*
X701039Y519841D01*
X701039Y519846D01*
X701039Y519850D01*
X701019Y520044D01*
X700999Y520242D01*
X700998Y520246D01*
X700998Y520250D01*
X700940Y520436D01*
X700881Y520627D01*
X700879Y520631D01*
X700878Y520635D01*
X700784Y520806D01*
X700689Y520981D01*
X700687Y520984D01*
X700684Y520988D01*
X700557Y521139D01*
X700432Y521290D01*
X700428Y521293D01*
X700425Y521296D01*
X700271Y521419D01*
X700118Y521542D01*
X700114Y521544D01*
X700111Y521547D01*
X699936Y521637D01*
X699761Y521728D01*
X699756Y521729D01*
X699752Y521731D01*
X699565Y521784D01*
X699374Y521839D01*
X699369Y521840D01*
X699365Y521841D01*
X699172Y521856D01*
X698972Y521872D01*
X698968Y521872D01*
X698964Y521872D01*
X698771Y521848D01*
X698573Y521825D01*
X698568Y521824D01*
X698564Y521823D01*
X698381Y521763D01*
X698190Y521700D01*
X698186Y521698D01*
X698182Y521697D01*
X698013Y521601D01*
X697839Y521502D01*
X697836Y521500D01*
X697832Y521497D01*
X697683Y521367D01*
X697535Y521239D01*
X697532Y521236D01*
X697528Y521233D01*
X697408Y521076D01*
X697288Y520921D01*
X697286Y520917D01*
X697283Y520914D01*
X697131Y520618D01*
X695385Y516403D01*
X690097Y511115D01*
X683189Y508253D01*
X675711Y508253D01*
X668803Y511115D01*
X663515Y516403D01*
X660653Y523311D01*
X660653Y530789D01*
X663515Y537697D01*
X668803Y542985D01*
X673018Y544731D01*
X673022Y544733D01*
X673027Y544735D01*
X673199Y544828D01*
X673373Y544922D01*
X673377Y544924D01*
X673381Y544927D01*
X673529Y545051D01*
X673684Y545178D01*
X673687Y545181D01*
X673690Y545184D01*
X673813Y545337D01*
X673937Y545491D01*
X673939Y545495D01*
X673942Y545498D01*
X674033Y545673D01*
X674124Y545847D01*
X674126Y545851D01*
X674128Y545855D01*
X674182Y546045D01*
X674238Y546234D01*
X674238Y546238D01*
X674239Y546242D01*
X674255Y546440D01*
X674272Y546635D01*
X674272Y546639D01*
X674272Y546644D01*
X674249Y546841D01*
X674227Y547035D01*
X674226Y547039D01*
X674225Y547043D01*
X674164Y547232D01*
X674104Y547418D01*
X674102Y547422D01*
X674100Y547426D01*
X674003Y547599D01*
X673908Y547770D01*
X673905Y547773D01*
X673902Y547777D01*
X673774Y547926D01*
X673646Y548075D01*
X673642Y548078D01*
X673639Y548082D01*
X673485Y548201D01*
X673329Y548324D01*
X673325Y548326D01*
X673321Y548328D01*
X673145Y548416D01*
X672969Y548504D01*
X672965Y548506D01*
X672961Y548508D01*
X672768Y548559D01*
X672581Y548611D01*
X672576Y548611D01*
X672572Y548612D01*
X672241Y548639D01*
X26259Y548639D01*
X26254Y548639D01*
X26250Y548639D01*
X26056Y548619D01*
X25858Y548599D01*
X25854Y548598D01*
X25850Y548598D01*
X25664Y548540D01*
X25473Y548481D01*
X25469Y548479D01*
X25465Y548478D01*
X25294Y548384D01*
X25119Y548289D01*
X25116Y548287D01*
X25112Y548284D01*
X24960Y548157D01*
X24810Y548032D01*
X24807Y548028D01*
X24804Y548025D01*
X24681Y547871D01*
X24558Y547718D01*
X24556Y547714D01*
X24553Y547711D01*
X24463Y547536D01*
X24372Y547361D01*
X24371Y547356D01*
X24369Y547352D01*
X24316Y547165D01*
X24261Y546974D01*
X24260Y546969D01*
X24259Y546965D01*
X24244Y546772D01*
X24228Y546572D01*
X24228Y546568D01*
X24228Y546564D01*
X24252Y546371D01*
X24275Y546173D01*
X24276Y546168D01*
X24277Y546164D01*
X24337Y545981D01*
X24400Y545790D01*
X24402Y545786D01*
X24403Y545782D01*
X24499Y545613D01*
X24598Y545439D01*
X24600Y545436D01*
X24603Y545432D01*
X24733Y545283D01*
X24861Y545135D01*
X24864Y545132D01*
X24867Y545128D01*
X25024Y545008D01*
X25179Y544888D01*
X25183Y544886D01*
X25186Y544883D01*
X25482Y544731D01*
X29697Y542985D01*
X34985Y537697D01*
X37847Y530789D01*
X37847Y523311D01*
X34985Y516403D01*
X29697Y511115D01*
X22789Y508253D01*
X15311Y508253D01*
X8403Y511115D01*
X3115Y516403D01*
X1369Y520618D01*
X1367Y520622D01*
X1365Y520627D01*
X1272Y520799D01*
X1178Y520973D01*
X1176Y520977D01*
X1173Y520981D01*
X1050Y521129D01*
X922Y521284D01*
X919Y521287D01*
X916Y521290D01*
X763Y521413D01*
X609Y521537D01*
X605Y521539D01*
X602Y521542D01*
X429Y521632D01*
X253Y521724D01*
X249Y521726D01*
X245Y521728D01*
X56Y521782D01*
X-134Y521838D01*
X-138Y521838D01*
X-142Y521839D01*
X-340Y521855D01*
X-535Y521872D01*
X-539Y521872D01*
X-544Y521872D01*
X-738Y521849D01*
X-935Y521827D01*
X-939Y521826D01*
X-943Y521825D01*
X-1129Y521765D01*
X-1318Y521704D01*
X-1322Y521702D01*
X-1326Y521700D01*
X-1498Y521604D01*
X-1670Y521508D01*
X-1673Y521505D01*
X-1677Y521502D01*
X-1825Y521374D01*
X-1975Y521246D01*
X-1978Y521242D01*
X-1982Y521239D01*
X-2102Y521085D01*
X-2224Y520929D01*
X-2226Y520925D01*
X-2228Y520921D01*
X-2317Y520743D01*
X-2404Y520569D01*
X-2406Y520565D01*
X-2408Y520561D01*
X-2459Y520369D01*
X-2511Y520181D01*
X-2511Y520176D01*
X-2512Y520172D01*
X-2539Y519841D01*
X-2539Y26259D01*
X-2539Y26254D01*
X-2539Y26250D01*
X-2519Y26052D01*
X-2499Y25858D01*
X-2498Y25854D01*
X-2498Y25849D01*
X-2439Y25662D01*
X-2381Y25473D01*
X-2379Y25469D01*
X-2378Y25465D01*
X-2282Y25291D01*
X-2189Y25119D01*
X-2187Y25116D01*
X-2184Y25112D01*
X-2056Y24959D01*
X-1932Y24810D01*
X-1928Y24807D01*
X-1925Y24804D01*
X-1769Y24679D01*
X-1618Y24558D01*
X-1614Y24556D01*
X-1611Y24553D01*
X-1430Y24460D01*
X-1261Y24372D01*
X-1256Y24371D01*
X-1252Y24369D01*
X-1062Y24315D01*
X-874Y24261D01*
X-869Y24260D01*
X-865Y24259D01*
X-672Y24244D01*
X-472Y24228D01*
X-468Y24228D01*
X-464Y24228D01*
X-270Y24252D01*
X-73Y24275D01*
X-68Y24276D01*
X-64Y24277D01*
X121Y24338D01*
X310Y24400D01*
X314Y24402D01*
X318Y24403D01*
X487Y24500D01*
X661Y24598D01*
X664Y24601D01*
X668Y24603D01*
X817Y24732D01*
X966Y24861D01*
X968Y24864D01*
X972Y24867D01*
X1094Y25026D01*
X1212Y25179D01*
X1214Y25183D01*
X1217Y25186D01*
X1369Y25482D01*
X3115Y29697D01*
X8403Y34985D01*
X15311Y37847D01*
X22789Y37847D01*
X29697Y34985D01*
X34985Y29697D01*
X37847Y22789D01*
X37847Y15311D01*
X34985Y8403D01*
X29697Y3115D01*
X25482Y1369D01*
X25478Y1367D01*
X25473Y1365D01*
X25301Y1272D01*
X25127Y1178D01*
X25123Y1176D01*
X25119Y1173D01*
X24971Y1049D01*
X24816Y922D01*
X24813Y919D01*
X24810Y916D01*
X24686Y761D01*
X24563Y609D01*
X24561Y605D01*
X24558Y602D01*
X24468Y429D01*
X24376Y253D01*
X24374Y249D01*
X24372Y245D01*
X24318Y56D01*
X24262Y-134D01*
X24262Y-138D01*
X24261Y-142D01*
X24245Y-340D01*
X24228Y-535D01*
X24228Y-539D01*
X24228Y-544D01*
X24251Y-738D01*
X24273Y-935D01*
X24274Y-939D01*
X24275Y-943D01*
X24335Y-1129D01*
X24396Y-1318D01*
X24398Y-1322D01*
X24400Y-1326D01*
X24496Y-1498D01*
X24592Y-1670D01*
X24595Y-1673D01*
X24598Y-1677D01*
X24726Y-1825D01*
X24854Y-1975D01*
X24858Y-1978D01*
X24861Y-1982D01*
X25015Y-2102D01*
X25171Y-2224D01*
X25175Y-2226D01*
X25179Y-2228D01*
X25357Y-2317D01*
X25531Y-2404D01*
X25535Y-2406D01*
X25539Y-2408D01*
X25731Y-2459D01*
X25919Y-2511D01*
X25924Y-2511D01*
X25928Y-2512D01*
X26259Y-2539D01*
X75828Y-2539D01*
X75837Y-2538D01*
G37*
%LPC*%
G36*
X373443Y174906D02*
X373443Y174906D01*
X371212Y175830D01*
X369505Y177537D01*
X368581Y179768D01*
X368581Y182182D01*
X369505Y184413D01*
X371212Y186120D01*
X371998Y186445D01*
X372025Y186460D01*
X372055Y186470D01*
X372203Y186555D01*
X372353Y186635D01*
X372377Y186655D01*
X372404Y186671D01*
X372657Y186885D01*
X377483Y191712D01*
X377500Y191733D01*
X377521Y191750D01*
X377627Y191888D01*
X377738Y192024D01*
X377751Y192047D01*
X377767Y192068D01*
X377845Y192224D01*
X377927Y192379D01*
X377935Y192405D01*
X377947Y192429D01*
X377992Y192598D01*
X378042Y192765D01*
X378044Y192792D01*
X378051Y192818D01*
X378078Y193148D01*
X378078Y206608D01*
X378929Y208662D01*
X432057Y261789D01*
X432057Y261790D01*
X492025Y321758D01*
X494079Y322609D01*
X514830Y322609D01*
X514839Y322610D01*
X514848Y322609D01*
X515040Y322630D01*
X515231Y322649D01*
X515239Y322651D01*
X515248Y322652D01*
X515430Y322710D01*
X515615Y322767D01*
X515623Y322771D01*
X515632Y322774D01*
X515800Y322867D01*
X515970Y322959D01*
X515976Y322964D01*
X515984Y322969D01*
X516132Y323094D01*
X516279Y323216D01*
X516284Y323223D01*
X516291Y323229D01*
X516411Y323381D01*
X516531Y323530D01*
X516535Y323538D01*
X516541Y323545D01*
X516629Y323718D01*
X516717Y323887D01*
X516719Y323896D01*
X516723Y323904D01*
X516775Y324089D01*
X516828Y324274D01*
X516829Y324283D01*
X516831Y324292D01*
X516845Y324484D01*
X516861Y324676D01*
X516860Y324684D01*
X516861Y324693D01*
X516836Y324884D01*
X516814Y325075D01*
X516811Y325084D01*
X516810Y325093D01*
X516749Y325274D01*
X516689Y325458D01*
X516685Y325466D01*
X516682Y325474D01*
X516586Y325642D01*
X516491Y325809D01*
X516485Y325816D01*
X516481Y325823D01*
X516266Y326076D01*
X515580Y326762D01*
X514656Y328993D01*
X514656Y331407D01*
X515580Y333638D01*
X517287Y335345D01*
X518030Y335653D01*
X518058Y335667D01*
X518087Y335677D01*
X518235Y335762D01*
X518385Y335843D01*
X518409Y335863D01*
X518436Y335878D01*
X518689Y336093D01*
X631834Y449238D01*
X633888Y450089D01*
X661141Y450089D01*
X663195Y449238D01*
X681521Y430912D01*
X682372Y428858D01*
X682372Y408971D01*
X681521Y406917D01*
X671156Y396552D01*
X671139Y396531D01*
X671118Y396514D01*
X671011Y396376D01*
X670901Y396240D01*
X670888Y396217D01*
X670872Y396196D01*
X670794Y396039D01*
X670712Y395885D01*
X670704Y395859D01*
X670692Y395835D01*
X670647Y395666D01*
X670597Y395499D01*
X670595Y395472D01*
X670588Y395446D01*
X670561Y395116D01*
X670561Y389491D01*
X664609Y383539D01*
X656191Y383539D01*
X650239Y389491D01*
X650239Y397909D01*
X656191Y403861D01*
X661816Y403861D01*
X661842Y403863D01*
X661869Y403861D01*
X662043Y403883D01*
X662216Y403901D01*
X662242Y403908D01*
X662268Y403912D01*
X662434Y403968D01*
X662601Y404019D01*
X662625Y404031D01*
X662650Y404040D01*
X662802Y404127D01*
X662955Y404211D01*
X662976Y404228D01*
X662999Y404241D01*
X663252Y404456D01*
X664268Y405472D01*
X664274Y405479D01*
X664281Y405484D01*
X664400Y405633D01*
X664523Y405783D01*
X664527Y405791D01*
X664533Y405798D01*
X664621Y405968D01*
X664712Y406139D01*
X664714Y406148D01*
X664718Y406155D01*
X664771Y406340D01*
X664827Y406525D01*
X664827Y406534D01*
X664830Y406542D01*
X664845Y406733D01*
X664863Y406926D01*
X664862Y406935D01*
X664863Y406944D01*
X664841Y407132D01*
X664820Y407326D01*
X664817Y407335D01*
X664816Y407343D01*
X664756Y407526D01*
X664698Y407710D01*
X664694Y407718D01*
X664691Y407726D01*
X664597Y407893D01*
X664503Y408062D01*
X664497Y408069D01*
X664493Y408077D01*
X664368Y408221D01*
X664243Y408369D01*
X664236Y408375D01*
X664230Y408382D01*
X664078Y408499D01*
X663927Y408619D01*
X663919Y408623D01*
X663912Y408628D01*
X663740Y408714D01*
X663568Y408801D01*
X663559Y408804D01*
X663551Y408808D01*
X663366Y408857D01*
X663180Y408909D01*
X663171Y408910D01*
X663162Y408912D01*
X662832Y408939D01*
X656191Y408939D01*
X650239Y414891D01*
X650239Y423309D01*
X656191Y429261D01*
X662461Y429261D01*
X662469Y429262D01*
X662478Y429261D01*
X662670Y429282D01*
X662861Y429301D01*
X662870Y429303D01*
X662879Y429304D01*
X663061Y429362D01*
X663246Y429419D01*
X663254Y429423D01*
X663263Y429426D01*
X663431Y429519D01*
X663600Y429611D01*
X663607Y429616D01*
X663615Y429621D01*
X663762Y429745D01*
X663909Y429868D01*
X663915Y429875D01*
X663922Y429881D01*
X664040Y430031D01*
X664162Y430182D01*
X664166Y430190D01*
X664171Y430197D01*
X664259Y430370D01*
X664347Y430539D01*
X664350Y430548D01*
X664354Y430556D01*
X664406Y430742D01*
X664459Y430926D01*
X664459Y430935D01*
X664462Y430944D01*
X664476Y431137D01*
X664492Y431328D01*
X664491Y431336D01*
X664491Y431345D01*
X664467Y431538D01*
X664445Y431727D01*
X664442Y431736D01*
X664441Y431745D01*
X664379Y431928D01*
X664320Y432110D01*
X664315Y432118D01*
X664313Y432126D01*
X664217Y432293D01*
X664122Y432461D01*
X664116Y432468D01*
X664112Y432475D01*
X663897Y432728D01*
X658309Y438316D01*
X658288Y438333D01*
X658271Y438354D01*
X658133Y438461D01*
X657997Y438571D01*
X657974Y438584D01*
X657953Y438600D01*
X657796Y438678D01*
X657642Y438760D01*
X657616Y438768D01*
X657592Y438780D01*
X657423Y438825D01*
X657256Y438875D01*
X657229Y438877D01*
X657203Y438884D01*
X656873Y438911D01*
X638156Y438911D01*
X638130Y438909D01*
X638103Y438911D01*
X637929Y438889D01*
X637756Y438871D01*
X637730Y438864D01*
X637704Y438860D01*
X637538Y438805D01*
X637371Y438753D01*
X637347Y438740D01*
X637322Y438732D01*
X637171Y438645D01*
X637017Y438561D01*
X636996Y438544D01*
X636973Y438531D01*
X636720Y438316D01*
X631132Y432728D01*
X631126Y432721D01*
X631119Y432716D01*
X630999Y432566D01*
X630877Y432417D01*
X630873Y432409D01*
X630867Y432402D01*
X630779Y432232D01*
X630688Y432061D01*
X630686Y432052D01*
X630682Y432045D01*
X630628Y431860D01*
X630573Y431675D01*
X630573Y431666D01*
X630570Y431658D01*
X630555Y431466D01*
X630537Y431274D01*
X630538Y431265D01*
X630537Y431256D01*
X630560Y431067D01*
X630580Y430874D01*
X630583Y430865D01*
X630584Y430857D01*
X630644Y430675D01*
X630702Y430490D01*
X630706Y430482D01*
X630709Y430474D01*
X630805Y430304D01*
X630897Y430138D01*
X630903Y430131D01*
X630907Y430123D01*
X631033Y429977D01*
X631157Y429831D01*
X631164Y429825D01*
X631170Y429818D01*
X631322Y429701D01*
X631473Y429581D01*
X631481Y429577D01*
X631488Y429572D01*
X631660Y429486D01*
X631832Y429399D01*
X631841Y429396D01*
X631849Y429392D01*
X632035Y429342D01*
X632220Y429291D01*
X632229Y429290D01*
X632238Y429288D01*
X632568Y429261D01*
X639209Y429261D01*
X645161Y423309D01*
X645161Y414891D01*
X639209Y408939D01*
X630791Y408939D01*
X628441Y411290D01*
X628427Y411301D01*
X628416Y411315D01*
X628271Y411428D01*
X628129Y411545D01*
X628114Y411553D01*
X628100Y411564D01*
X627935Y411648D01*
X627774Y411733D01*
X627757Y411738D01*
X627741Y411747D01*
X627563Y411796D01*
X627388Y411848D01*
X627370Y411850D01*
X627353Y411855D01*
X627170Y411868D01*
X626987Y411885D01*
X626969Y411883D01*
X626951Y411884D01*
X626769Y411861D01*
X626587Y411841D01*
X626570Y411836D01*
X626552Y411833D01*
X626378Y411775D01*
X626203Y411720D01*
X626187Y411711D01*
X626170Y411705D01*
X626011Y411613D01*
X625850Y411525D01*
X625837Y411513D01*
X625821Y411504D01*
X625568Y411290D01*
X617035Y402756D01*
X617029Y402749D01*
X617022Y402744D01*
X616902Y402594D01*
X616780Y402445D01*
X616776Y402437D01*
X616770Y402430D01*
X616681Y402259D01*
X616591Y402089D01*
X616589Y402081D01*
X616585Y402073D01*
X616531Y401887D01*
X616476Y401703D01*
X616476Y401694D01*
X616473Y401686D01*
X616458Y401494D01*
X616440Y401302D01*
X616441Y401293D01*
X616440Y401284D01*
X616463Y401095D01*
X616483Y400902D01*
X616486Y400893D01*
X616487Y400885D01*
X616547Y400703D01*
X616605Y400518D01*
X616609Y400510D01*
X616612Y400502D01*
X616707Y400333D01*
X616800Y400166D01*
X616806Y400159D01*
X616810Y400151D01*
X616936Y400005D01*
X617060Y399859D01*
X617067Y399853D01*
X617073Y399846D01*
X617225Y399729D01*
X617376Y399609D01*
X617384Y399605D01*
X617391Y399600D01*
X617563Y399514D01*
X617735Y399427D01*
X617744Y399424D01*
X617752Y399420D01*
X617938Y399370D01*
X618123Y399319D01*
X618132Y399318D01*
X618141Y399316D01*
X618471Y399289D01*
X625378Y399289D01*
X625404Y399291D01*
X625431Y399289D01*
X625605Y399311D01*
X625779Y399329D01*
X625804Y399336D01*
X625831Y399340D01*
X625996Y399395D01*
X626163Y399447D01*
X626187Y399460D01*
X626212Y399468D01*
X626364Y399555D01*
X626517Y399639D01*
X626538Y399656D01*
X626561Y399669D01*
X626814Y399884D01*
X630791Y403861D01*
X639209Y403861D01*
X645161Y397909D01*
X645161Y389491D01*
X639209Y383539D01*
X630791Y383539D01*
X626814Y387516D01*
X626794Y387533D01*
X626776Y387554D01*
X626638Y387661D01*
X626503Y387771D01*
X626479Y387784D01*
X626458Y387800D01*
X626301Y387878D01*
X626147Y387960D01*
X626122Y387968D01*
X626097Y387980D01*
X625928Y388025D01*
X625761Y388075D01*
X625735Y388077D01*
X625709Y388084D01*
X625378Y388111D01*
X619323Y388111D01*
X619297Y388109D01*
X619270Y388111D01*
X619096Y388089D01*
X618923Y388071D01*
X618897Y388064D01*
X618871Y388060D01*
X618705Y388005D01*
X618538Y387953D01*
X618514Y387940D01*
X618489Y387932D01*
X618337Y387845D01*
X618184Y387761D01*
X618163Y387744D01*
X618140Y387731D01*
X617887Y387516D01*
X530842Y300471D01*
X528788Y299620D01*
X512128Y299620D01*
X512097Y299617D01*
X512066Y299619D01*
X511897Y299597D01*
X511727Y299580D01*
X511697Y299571D01*
X511666Y299567D01*
X511350Y299466D01*
X509316Y298623D01*
X506901Y298623D01*
X504671Y299547D01*
X502964Y301254D01*
X502040Y303484D01*
X502040Y305899D01*
X502994Y308203D01*
X503053Y308275D01*
X503057Y308283D01*
X503063Y308290D01*
X503151Y308460D01*
X503242Y308631D01*
X503244Y308639D01*
X503249Y308647D01*
X503302Y308832D01*
X503357Y309017D01*
X503357Y309026D01*
X503360Y309034D01*
X503376Y309226D01*
X503393Y309418D01*
X503392Y309427D01*
X503393Y309436D01*
X503371Y309626D01*
X503350Y309818D01*
X503347Y309826D01*
X503346Y309835D01*
X503286Y310018D01*
X503228Y310202D01*
X503224Y310210D01*
X503221Y310218D01*
X503126Y310386D01*
X503034Y310554D01*
X503028Y310561D01*
X503023Y310569D01*
X502897Y310715D01*
X502773Y310861D01*
X502766Y310867D01*
X502760Y310874D01*
X502608Y310992D01*
X502457Y311111D01*
X502449Y311115D01*
X502442Y311120D01*
X502269Y311206D01*
X502098Y311293D01*
X502090Y311296D01*
X502081Y311300D01*
X501895Y311350D01*
X501710Y311401D01*
X501701Y311402D01*
X501693Y311404D01*
X501362Y311431D01*
X498347Y311431D01*
X498321Y311429D01*
X498294Y311431D01*
X498120Y311409D01*
X497947Y311391D01*
X497921Y311384D01*
X497895Y311380D01*
X497729Y311325D01*
X497562Y311273D01*
X497538Y311260D01*
X497513Y311252D01*
X497361Y311165D01*
X497208Y311081D01*
X497187Y311064D01*
X497164Y311051D01*
X496911Y310836D01*
X451897Y265822D01*
X451891Y265815D01*
X451885Y265810D01*
X451764Y265660D01*
X451642Y265511D01*
X451638Y265503D01*
X451632Y265496D01*
X451543Y265325D01*
X451453Y265155D01*
X451451Y265147D01*
X451447Y265139D01*
X451393Y264953D01*
X451339Y264769D01*
X451338Y264760D01*
X451335Y264752D01*
X451320Y264560D01*
X451302Y264368D01*
X451303Y264359D01*
X451302Y264350D01*
X451325Y264161D01*
X451346Y263968D01*
X451348Y263959D01*
X451349Y263951D01*
X451409Y263769D01*
X451467Y263584D01*
X451471Y263576D01*
X451474Y263568D01*
X451569Y263399D01*
X451662Y263232D01*
X451668Y263225D01*
X451672Y263217D01*
X451798Y263071D01*
X451922Y262925D01*
X451929Y262919D01*
X451935Y262912D01*
X452087Y262795D01*
X452238Y262675D01*
X452246Y262671D01*
X452253Y262666D01*
X452425Y262580D01*
X452597Y262493D01*
X452606Y262490D01*
X452614Y262486D01*
X452800Y262436D01*
X452985Y262385D01*
X452994Y262384D01*
X453003Y262382D01*
X453333Y262355D01*
X525588Y262355D01*
X527642Y261504D01*
X567062Y222084D01*
X567083Y222067D01*
X567100Y222046D01*
X567238Y221939D01*
X567374Y221829D01*
X567397Y221816D01*
X567418Y221800D01*
X567575Y221722D01*
X567729Y221640D01*
X567755Y221632D01*
X567779Y221620D01*
X567948Y221575D01*
X568115Y221525D01*
X568142Y221523D01*
X568168Y221516D01*
X568498Y221489D01*
X583946Y221489D01*
X583964Y221491D01*
X583982Y221489D01*
X584164Y221510D01*
X584347Y221529D01*
X584364Y221534D01*
X584381Y221536D01*
X584556Y221593D01*
X584732Y221647D01*
X584747Y221655D01*
X584764Y221661D01*
X584924Y221751D01*
X585086Y221839D01*
X585099Y221850D01*
X585115Y221859D01*
X585254Y221979D01*
X585395Y222096D01*
X585406Y222110D01*
X585420Y222122D01*
X585532Y222267D01*
X585647Y222410D01*
X585655Y222426D01*
X585666Y222440D01*
X585748Y222605D01*
X585833Y222767D01*
X585838Y222784D01*
X585846Y222800D01*
X585893Y222979D01*
X585944Y223154D01*
X585946Y223172D01*
X585950Y223189D01*
X585977Y223520D01*
X585977Y224953D01*
X587466Y226442D01*
X601980Y226442D01*
X601998Y226444D01*
X602016Y226442D01*
X602198Y226463D01*
X602381Y226482D01*
X602398Y226487D01*
X602415Y226489D01*
X602590Y226546D01*
X602766Y226600D01*
X602781Y226608D01*
X602798Y226614D01*
X602958Y226704D01*
X603120Y226792D01*
X603133Y226803D01*
X603149Y226812D01*
X603288Y226932D01*
X603429Y227049D01*
X603440Y227063D01*
X603454Y227075D01*
X603566Y227220D01*
X603681Y227363D01*
X603689Y227379D01*
X603700Y227393D01*
X603782Y227558D01*
X603867Y227720D01*
X603872Y227737D01*
X603880Y227753D01*
X603927Y227932D01*
X603978Y228107D01*
X603980Y228125D01*
X603984Y228142D01*
X604011Y228473D01*
X604011Y229712D01*
X604862Y231766D01*
X610498Y237402D01*
X610567Y237430D01*
X610579Y237437D01*
X610592Y237441D01*
X610756Y237532D01*
X610922Y237621D01*
X610932Y237629D01*
X610944Y237636D01*
X611088Y237758D01*
X611232Y237877D01*
X611241Y237887D01*
X611251Y237896D01*
X611368Y238044D01*
X611486Y238190D01*
X611492Y238201D01*
X611501Y238212D01*
X611586Y238380D01*
X611673Y238546D01*
X611677Y238559D01*
X611683Y238571D01*
X611734Y238753D01*
X611786Y238933D01*
X611787Y238946D01*
X611791Y238959D01*
X611805Y239148D01*
X611821Y239334D01*
X611819Y239347D01*
X611820Y239360D01*
X611797Y239548D01*
X611776Y239734D01*
X611772Y239747D01*
X611770Y239760D01*
X611710Y239938D01*
X611653Y240117D01*
X611646Y240129D01*
X611642Y240142D01*
X611547Y240305D01*
X611456Y240469D01*
X611448Y240479D01*
X611441Y240490D01*
X611226Y240743D01*
X610805Y241164D01*
X609881Y243395D01*
X609881Y245809D01*
X610805Y248040D01*
X612512Y249747D01*
X613474Y250145D01*
X613479Y250148D01*
X613484Y250149D01*
X613655Y250242D01*
X613829Y250335D01*
X613833Y250339D01*
X613837Y250341D01*
X614096Y250549D01*
X616312Y252654D01*
X616335Y252681D01*
X616362Y252703D01*
X616466Y252833D01*
X616575Y252959D01*
X616592Y252990D01*
X616614Y253017D01*
X616691Y253164D01*
X616773Y253310D01*
X616783Y253343D01*
X616800Y253374D01*
X616845Y253534D01*
X616897Y253693D01*
X616901Y253728D01*
X616911Y253761D01*
X616925Y253927D01*
X616944Y254093D01*
X616941Y254128D01*
X616944Y254163D01*
X616924Y254328D01*
X616911Y254494D01*
X616901Y254528D01*
X616897Y254562D01*
X616845Y254721D01*
X616799Y254881D01*
X616783Y254912D01*
X616772Y254945D01*
X616690Y255090D01*
X616613Y255238D01*
X616591Y255265D01*
X616574Y255296D01*
X616465Y255422D01*
X616361Y255552D01*
X616334Y255574D01*
X616311Y255601D01*
X616179Y255703D01*
X616051Y255809D01*
X616020Y255826D01*
X615993Y255847D01*
X615844Y255921D01*
X615697Y256001D01*
X615664Y256011D01*
X615632Y256027D01*
X615471Y256070D01*
X615312Y256119D01*
X615277Y256122D01*
X615244Y256131D01*
X614913Y256158D01*
X587466Y256158D01*
X585977Y257647D01*
X585977Y259080D01*
X585975Y259098D01*
X585977Y259116D01*
X585956Y259298D01*
X585937Y259481D01*
X585932Y259498D01*
X585930Y259515D01*
X585873Y259690D01*
X585819Y259866D01*
X585811Y259881D01*
X585805Y259898D01*
X585715Y260058D01*
X585627Y260220D01*
X585616Y260233D01*
X585607Y260249D01*
X585487Y260388D01*
X585370Y260529D01*
X585356Y260540D01*
X585344Y260554D01*
X585199Y260666D01*
X585056Y260781D01*
X585040Y260789D01*
X585026Y260800D01*
X584861Y260882D01*
X584699Y260967D01*
X584682Y260972D01*
X584666Y260980D01*
X584487Y261027D01*
X584312Y261078D01*
X584294Y261080D01*
X584277Y261084D01*
X583946Y261111D01*
X574270Y261111D01*
X574239Y261108D01*
X574208Y261110D01*
X574039Y261088D01*
X573869Y261071D01*
X573840Y261062D01*
X573809Y261058D01*
X573493Y260957D01*
X572707Y260631D01*
X570293Y260631D01*
X568062Y261555D01*
X566355Y263262D01*
X565431Y265493D01*
X565431Y267907D01*
X566355Y270138D01*
X568062Y271845D01*
X568848Y272170D01*
X568875Y272185D01*
X568905Y272195D01*
X569053Y272280D01*
X569203Y272360D01*
X569227Y272380D01*
X569254Y272396D01*
X569507Y272610D01*
X572537Y275640D01*
X572540Y275644D01*
X572543Y275647D01*
X572667Y275799D01*
X572792Y275952D01*
X572794Y275956D01*
X572797Y275959D01*
X572886Y276130D01*
X572980Y276308D01*
X572982Y276312D01*
X572984Y276316D01*
X573039Y276505D01*
X573095Y276693D01*
X573096Y276698D01*
X573097Y276702D01*
X573113Y276894D01*
X573132Y277094D01*
X573131Y277099D01*
X573131Y277103D01*
X573110Y277293D01*
X573088Y277495D01*
X573087Y277499D01*
X573086Y277503D01*
X573027Y277688D01*
X572967Y277879D01*
X572964Y277883D01*
X572963Y277887D01*
X572867Y278060D01*
X572772Y278231D01*
X572769Y278234D01*
X572767Y278238D01*
X572638Y278389D01*
X572511Y278538D01*
X572508Y278541D01*
X572505Y278544D01*
X572348Y278667D01*
X572195Y278787D01*
X572191Y278789D01*
X572188Y278792D01*
X572011Y278881D01*
X571836Y278970D01*
X571832Y278971D01*
X571828Y278973D01*
X571640Y279025D01*
X571449Y279078D01*
X571444Y279078D01*
X571440Y279079D01*
X571248Y279093D01*
X571047Y279107D01*
X571042Y279107D01*
X571038Y279107D01*
X570848Y279082D01*
X570648Y279057D01*
X570643Y279055D01*
X570639Y279055D01*
X570323Y278953D01*
X569934Y278792D01*
X567520Y278792D01*
X565290Y279716D01*
X563582Y281423D01*
X562658Y283654D01*
X562658Y286137D01*
X562698Y286268D01*
X562701Y286299D01*
X562709Y286329D01*
X562736Y286660D01*
X562736Y286862D01*
X563587Y288916D01*
X628816Y354145D01*
X628833Y354166D01*
X628854Y354183D01*
X628961Y354321D01*
X629071Y354457D01*
X629084Y354480D01*
X629100Y354501D01*
X629178Y354658D01*
X629260Y354812D01*
X629268Y354838D01*
X629280Y354862D01*
X629325Y355031D01*
X629375Y355198D01*
X629377Y355225D01*
X629384Y355251D01*
X629411Y355581D01*
X629411Y358678D01*
X629409Y358704D01*
X629411Y358731D01*
X629389Y358905D01*
X629371Y359079D01*
X629364Y359104D01*
X629360Y359131D01*
X629305Y359296D01*
X629253Y359463D01*
X629240Y359487D01*
X629232Y359512D01*
X629145Y359664D01*
X629061Y359817D01*
X629044Y359838D01*
X629031Y359861D01*
X628816Y360114D01*
X624839Y364091D01*
X624839Y372509D01*
X630791Y378461D01*
X639209Y378461D01*
X645161Y372509D01*
X645161Y364091D01*
X641184Y360114D01*
X641167Y360094D01*
X641146Y360076D01*
X641039Y359938D01*
X640929Y359803D01*
X640916Y359779D01*
X640900Y359758D01*
X640822Y359601D01*
X640740Y359447D01*
X640732Y359422D01*
X640720Y359397D01*
X640675Y359228D01*
X640625Y359061D01*
X640623Y359035D01*
X640616Y359009D01*
X640589Y358678D01*
X640589Y351313D01*
X639738Y349259D01*
X575391Y284912D01*
X575374Y284891D01*
X575354Y284874D01*
X575247Y284736D01*
X575136Y284601D01*
X575123Y284577D01*
X575107Y284556D01*
X575029Y284399D01*
X574947Y284245D01*
X574940Y284219D01*
X574928Y284195D01*
X574882Y284026D01*
X574832Y283859D01*
X574830Y283832D01*
X574823Y283807D01*
X574814Y283698D01*
X574635Y283265D01*
X574634Y283261D01*
X574632Y283257D01*
X574575Y283067D01*
X574518Y282880D01*
X574518Y282875D01*
X574517Y282871D01*
X574499Y282670D01*
X574480Y282479D01*
X574481Y282475D01*
X574480Y282470D01*
X574502Y282270D01*
X574522Y282079D01*
X574523Y282074D01*
X574524Y282070D01*
X574584Y281880D01*
X574642Y281694D01*
X574644Y281690D01*
X574645Y281686D01*
X574741Y281512D01*
X574835Y281341D01*
X574838Y281338D01*
X574840Y281334D01*
X574968Y281183D01*
X575094Y281033D01*
X575098Y281030D01*
X575101Y281027D01*
X575255Y280904D01*
X575409Y280782D01*
X575413Y280780D01*
X575416Y280777D01*
X575592Y280688D01*
X575767Y280598D01*
X575771Y280597D01*
X575775Y280595D01*
X575965Y280542D01*
X576154Y280488D01*
X576159Y280488D01*
X576163Y280487D01*
X576364Y280472D01*
X576556Y280457D01*
X576560Y280458D01*
X576565Y280457D01*
X576764Y280482D01*
X576956Y280506D01*
X576960Y280507D01*
X576964Y280508D01*
X577152Y280571D01*
X577338Y280632D01*
X577342Y280634D01*
X577346Y280636D01*
X577518Y280735D01*
X577688Y280832D01*
X577691Y280835D01*
X577695Y280837D01*
X577948Y281051D01*
X654177Y357281D01*
X654188Y357295D01*
X654202Y357306D01*
X654316Y357450D01*
X654432Y357592D01*
X654441Y357608D01*
X654452Y357622D01*
X654535Y357785D01*
X654621Y357948D01*
X654626Y357965D01*
X654634Y357981D01*
X654683Y358159D01*
X654736Y358334D01*
X654737Y358352D01*
X654742Y358369D01*
X654755Y358552D01*
X654772Y358735D01*
X654770Y358753D01*
X654771Y358770D01*
X654748Y358952D01*
X654729Y359135D01*
X654723Y359152D01*
X654721Y359170D01*
X654663Y359343D01*
X654607Y359519D01*
X654598Y359535D01*
X654593Y359552D01*
X654501Y359711D01*
X654412Y359871D01*
X654401Y359885D01*
X654392Y359900D01*
X654177Y360153D01*
X650239Y364091D01*
X650239Y372509D01*
X656191Y378461D01*
X664609Y378461D01*
X670561Y372509D01*
X670561Y364091D01*
X666584Y360114D01*
X666567Y360094D01*
X666546Y360076D01*
X666439Y359938D01*
X666329Y359803D01*
X666316Y359779D01*
X666300Y359758D01*
X666222Y359601D01*
X666140Y359447D01*
X666132Y359422D01*
X666120Y359397D01*
X666075Y359228D01*
X666025Y359061D01*
X666023Y359035D01*
X666016Y359009D01*
X665989Y358678D01*
X665989Y354488D01*
X665138Y352434D01*
X593413Y280709D01*
X593407Y280702D01*
X593400Y280697D01*
X593280Y280547D01*
X593158Y280398D01*
X593154Y280390D01*
X593148Y280383D01*
X593059Y280212D01*
X592969Y280042D01*
X592967Y280034D01*
X592963Y280026D01*
X592909Y279840D01*
X592854Y279656D01*
X592854Y279647D01*
X592851Y279639D01*
X592836Y279447D01*
X592818Y279255D01*
X592819Y279246D01*
X592818Y279237D01*
X592841Y279048D01*
X592861Y278855D01*
X592864Y278846D01*
X592865Y278838D01*
X592925Y278656D01*
X592983Y278471D01*
X592987Y278463D01*
X592990Y278455D01*
X593085Y278286D01*
X593178Y278119D01*
X593184Y278112D01*
X593188Y278104D01*
X593314Y277958D01*
X593438Y277812D01*
X593445Y277806D01*
X593451Y277799D01*
X593603Y277682D01*
X593754Y277562D01*
X593762Y277558D01*
X593769Y277553D01*
X593941Y277467D01*
X594113Y277380D01*
X594122Y277377D01*
X594130Y277373D01*
X594316Y277323D01*
X594501Y277272D01*
X594510Y277271D01*
X594519Y277269D01*
X594849Y277242D01*
X601980Y277242D01*
X601998Y277244D01*
X602016Y277242D01*
X602198Y277263D01*
X602381Y277282D01*
X602398Y277287D01*
X602415Y277289D01*
X602590Y277346D01*
X602766Y277400D01*
X602781Y277408D01*
X602798Y277414D01*
X602958Y277504D01*
X603120Y277592D01*
X603133Y277603D01*
X603149Y277612D01*
X603288Y277732D01*
X603429Y277849D01*
X603440Y277863D01*
X603454Y277875D01*
X603566Y278020D01*
X603681Y278163D01*
X603689Y278179D01*
X603700Y278193D01*
X603782Y278358D01*
X603867Y278520D01*
X603872Y278537D01*
X603880Y278553D01*
X603927Y278732D01*
X603978Y278907D01*
X603980Y278925D01*
X603984Y278942D01*
X604011Y279273D01*
X604011Y280512D01*
X604862Y282566D01*
X644534Y322238D01*
X645454Y322619D01*
X646588Y323089D01*
X650778Y323089D01*
X650805Y323091D01*
X650831Y323089D01*
X651005Y323111D01*
X651179Y323129D01*
X651204Y323136D01*
X651231Y323140D01*
X651396Y323195D01*
X651563Y323247D01*
X651587Y323260D01*
X651612Y323268D01*
X651764Y323355D01*
X651918Y323439D01*
X651938Y323456D01*
X651961Y323469D01*
X652214Y323684D01*
X654644Y326114D01*
X658379Y327661D01*
X662421Y327661D01*
X666156Y326114D01*
X669014Y323256D01*
X670561Y319521D01*
X670561Y315479D01*
X669014Y311744D01*
X666156Y308886D01*
X662421Y307339D01*
X658379Y307339D01*
X654644Y308886D01*
X652253Y311277D01*
X652240Y311288D01*
X652228Y311302D01*
X652084Y311416D01*
X651942Y311532D01*
X651926Y311541D01*
X651912Y311552D01*
X651748Y311635D01*
X651586Y311721D01*
X651569Y311726D01*
X651553Y311734D01*
X651376Y311783D01*
X651200Y311836D01*
X651183Y311837D01*
X651165Y311842D01*
X650982Y311855D01*
X650799Y311872D01*
X650782Y311870D01*
X650764Y311871D01*
X650582Y311848D01*
X650399Y311829D01*
X650382Y311823D01*
X650364Y311821D01*
X650191Y311763D01*
X650015Y311707D01*
X650000Y311698D01*
X649983Y311693D01*
X649823Y311601D01*
X649663Y311512D01*
X649649Y311501D01*
X649634Y311492D01*
X649381Y311277D01*
X618813Y280709D01*
X618807Y280702D01*
X618800Y280697D01*
X618680Y280547D01*
X618558Y280398D01*
X618554Y280390D01*
X618548Y280383D01*
X618459Y280212D01*
X618369Y280042D01*
X618367Y280034D01*
X618363Y280026D01*
X618309Y279840D01*
X618254Y279656D01*
X618254Y279647D01*
X618251Y279639D01*
X618236Y279447D01*
X618218Y279255D01*
X618219Y279246D01*
X618218Y279237D01*
X618241Y279048D01*
X618261Y278855D01*
X618264Y278846D01*
X618265Y278838D01*
X618325Y278656D01*
X618383Y278471D01*
X618387Y278463D01*
X618390Y278455D01*
X618485Y278286D01*
X618578Y278119D01*
X618584Y278112D01*
X618588Y278104D01*
X618714Y277958D01*
X618838Y277812D01*
X618845Y277806D01*
X618851Y277799D01*
X619003Y277682D01*
X619154Y277562D01*
X619162Y277558D01*
X619169Y277553D01*
X619341Y277467D01*
X619513Y277380D01*
X619522Y277377D01*
X619530Y277373D01*
X619716Y277323D01*
X619901Y277272D01*
X619910Y277271D01*
X619919Y277269D01*
X620249Y277242D01*
X631734Y277242D01*
X633223Y275753D01*
X633223Y257647D01*
X631427Y255851D01*
X631364Y255818D01*
X631358Y255812D01*
X631351Y255808D01*
X631203Y255685D01*
X631053Y255562D01*
X631048Y255556D01*
X631041Y255551D01*
X630921Y255401D01*
X630798Y255251D01*
X630794Y255243D01*
X630789Y255237D01*
X630701Y255067D01*
X630610Y254895D01*
X630607Y254887D01*
X630604Y254880D01*
X630550Y254694D01*
X630495Y254509D01*
X630494Y254500D01*
X630492Y254493D01*
X630488Y254442D01*
X630460Y254179D01*
X630429Y253002D01*
X630431Y252979D01*
X630429Y252950D01*
X630429Y251861D01*
X629987Y250867D01*
X629979Y250845D01*
X629966Y250819D01*
X629549Y249813D01*
X628761Y249063D01*
X628745Y249046D01*
X628723Y249027D01*
X627932Y248236D01*
X627931Y248235D01*
X627927Y248232D01*
X627922Y248230D01*
X627664Y248021D01*
X621829Y242478D01*
X621791Y242435D01*
X621748Y242397D01*
X621660Y242282D01*
X621566Y242173D01*
X621537Y242123D01*
X621503Y242078D01*
X621407Y241891D01*
X621368Y241822D01*
X621362Y241804D01*
X621351Y241783D01*
X621052Y241061D01*
X621048Y241048D01*
X621042Y241037D01*
X620990Y240856D01*
X620936Y240676D01*
X620934Y240663D01*
X620931Y240650D01*
X620915Y240461D01*
X620898Y240275D01*
X620899Y240262D01*
X620898Y240248D01*
X620920Y240062D01*
X620939Y239875D01*
X620943Y239862D01*
X620945Y239849D01*
X621003Y239669D01*
X621059Y239490D01*
X621065Y239479D01*
X621070Y239466D01*
X621163Y239301D01*
X621252Y239137D01*
X621261Y239127D01*
X621267Y239115D01*
X621390Y238973D01*
X621511Y238829D01*
X621522Y238821D01*
X621531Y238810D01*
X621678Y238696D01*
X621826Y238578D01*
X621838Y238572D01*
X621849Y238564D01*
X622017Y238480D01*
X622184Y238394D01*
X622197Y238390D01*
X622209Y238384D01*
X622392Y238335D01*
X622572Y238284D01*
X622585Y238283D01*
X622598Y238280D01*
X622929Y238253D01*
X623208Y238253D01*
X623234Y238255D01*
X623261Y238253D01*
X623435Y238275D01*
X623608Y238293D01*
X623634Y238300D01*
X623660Y238304D01*
X623826Y238359D01*
X623993Y238411D01*
X624017Y238424D01*
X624042Y238432D01*
X624194Y238519D01*
X624347Y238603D01*
X624368Y238620D01*
X624391Y238633D01*
X624644Y238848D01*
X649644Y263848D01*
X649661Y263869D01*
X649682Y263886D01*
X649789Y264024D01*
X649899Y264160D01*
X649912Y264183D01*
X649928Y264204D01*
X650006Y264361D01*
X650088Y264515D01*
X650096Y264541D01*
X650108Y264565D01*
X650153Y264734D01*
X650203Y264901D01*
X650205Y264928D01*
X650212Y264954D01*
X650239Y265284D01*
X650239Y268721D01*
X651786Y272456D01*
X654644Y275314D01*
X658379Y276861D01*
X662421Y276861D01*
X666156Y275314D01*
X669014Y272456D01*
X670561Y268721D01*
X670561Y264679D01*
X669014Y260944D01*
X666156Y258086D01*
X662421Y256539D01*
X658984Y256539D01*
X658958Y256537D01*
X658931Y256539D01*
X658757Y256517D01*
X658584Y256499D01*
X658558Y256492D01*
X658532Y256488D01*
X658366Y256432D01*
X658199Y256381D01*
X658175Y256369D01*
X658150Y256360D01*
X657998Y256273D01*
X657845Y256189D01*
X657824Y256172D01*
X657801Y256159D01*
X657548Y255944D01*
X656527Y254924D01*
X656524Y254919D01*
X656519Y254916D01*
X656398Y254766D01*
X656272Y254612D01*
X656270Y254607D01*
X656266Y254603D01*
X656176Y254431D01*
X656084Y254256D01*
X656082Y254251D01*
X656079Y254246D01*
X656025Y254060D01*
X655969Y253871D01*
X655968Y253865D01*
X655967Y253860D01*
X655950Y253667D01*
X655932Y253470D01*
X655933Y253464D01*
X655933Y253458D01*
X655954Y253268D01*
X655976Y253069D01*
X655978Y253064D01*
X655978Y253058D01*
X656038Y252873D01*
X656097Y252685D01*
X656100Y252681D01*
X656102Y252675D01*
X656197Y252505D01*
X656292Y252333D01*
X656296Y252329D01*
X656298Y252324D01*
X656426Y252176D01*
X656553Y252026D01*
X656557Y252023D01*
X656561Y252018D01*
X656716Y251897D01*
X656869Y251777D01*
X656874Y251774D01*
X656878Y251771D01*
X657051Y251684D01*
X657227Y251594D01*
X657233Y251593D01*
X657238Y251590D01*
X657424Y251539D01*
X657615Y251486D01*
X657621Y251486D01*
X657626Y251484D01*
X657819Y251471D01*
X658017Y251457D01*
X658023Y251457D01*
X658028Y251457D01*
X658056Y251461D01*
X662421Y251461D01*
X666156Y249914D01*
X669014Y247056D01*
X670561Y243321D01*
X670561Y239279D01*
X669014Y235544D01*
X666156Y232686D01*
X662421Y231139D01*
X658379Y231139D01*
X654644Y232686D01*
X651786Y235544D01*
X650239Y239279D01*
X650239Y243694D01*
X650244Y243743D01*
X650243Y243749D01*
X650244Y243754D01*
X650223Y243951D01*
X650203Y244144D01*
X650201Y244149D01*
X650200Y244154D01*
X650141Y244344D01*
X650083Y244528D01*
X650081Y244533D01*
X650079Y244538D01*
X649985Y244709D01*
X649890Y244881D01*
X649887Y244886D01*
X649884Y244891D01*
X649758Y245039D01*
X649632Y245190D01*
X649627Y245193D01*
X649624Y245198D01*
X649470Y245319D01*
X649317Y245441D01*
X649312Y245444D01*
X649308Y245447D01*
X649134Y245536D01*
X648959Y245626D01*
X648954Y245627D01*
X648949Y245630D01*
X648761Y245682D01*
X648572Y245736D01*
X648566Y245736D01*
X648561Y245738D01*
X648365Y245752D01*
X648171Y245767D01*
X648165Y245767D01*
X648159Y245767D01*
X647963Y245742D01*
X647771Y245719D01*
X647766Y245717D01*
X647760Y245717D01*
X647574Y245654D01*
X647388Y245593D01*
X647384Y245590D01*
X647378Y245588D01*
X647208Y245491D01*
X647038Y245394D01*
X647034Y245390D01*
X647029Y245387D01*
X646776Y245173D01*
X631326Y229723D01*
X631315Y229709D01*
X631301Y229697D01*
X631187Y229553D01*
X631071Y229411D01*
X631063Y229395D01*
X631052Y229381D01*
X630968Y229217D01*
X630883Y229055D01*
X630877Y229038D01*
X630869Y229022D01*
X630820Y228845D01*
X630768Y228669D01*
X630766Y228652D01*
X630761Y228634D01*
X630748Y228451D01*
X630731Y228268D01*
X630733Y228251D01*
X630732Y228233D01*
X630755Y228051D01*
X630775Y227868D01*
X630780Y227851D01*
X630782Y227833D01*
X630841Y227660D01*
X630896Y227484D01*
X630905Y227469D01*
X630911Y227452D01*
X631002Y227293D01*
X631091Y227132D01*
X631103Y227118D01*
X631112Y227103D01*
X631326Y226850D01*
X633223Y224953D01*
X633223Y223520D01*
X633225Y223502D01*
X633223Y223484D01*
X633244Y223302D01*
X633263Y223119D01*
X633268Y223102D01*
X633270Y223085D01*
X633327Y222910D01*
X633381Y222734D01*
X633389Y222719D01*
X633395Y222702D01*
X633485Y222542D01*
X633573Y222380D01*
X633584Y222367D01*
X633593Y222351D01*
X633713Y222212D01*
X633830Y222071D01*
X633844Y222060D01*
X633856Y222046D01*
X634001Y221934D01*
X634144Y221819D01*
X634160Y221811D01*
X634174Y221800D01*
X634339Y221718D01*
X634501Y221633D01*
X634518Y221628D01*
X634534Y221620D01*
X634713Y221573D01*
X634888Y221522D01*
X634906Y221520D01*
X634923Y221516D01*
X635254Y221489D01*
X650778Y221489D01*
X650804Y221491D01*
X650831Y221489D01*
X651005Y221511D01*
X651179Y221529D01*
X651204Y221536D01*
X651231Y221540D01*
X651396Y221595D01*
X651563Y221647D01*
X651587Y221660D01*
X651612Y221668D01*
X651764Y221755D01*
X651917Y221839D01*
X651938Y221856D01*
X651961Y221869D01*
X652214Y222084D01*
X654644Y224514D01*
X658379Y226061D01*
X662421Y226061D01*
X666156Y224514D01*
X669014Y221656D01*
X670561Y217921D01*
X670561Y213879D01*
X669014Y210144D01*
X666156Y207286D01*
X662421Y205739D01*
X658379Y205739D01*
X654644Y207286D01*
X652214Y209716D01*
X652194Y209733D01*
X652176Y209754D01*
X652038Y209861D01*
X651903Y209971D01*
X651879Y209984D01*
X651858Y210000D01*
X651701Y210078D01*
X651547Y210160D01*
X651522Y210168D01*
X651497Y210180D01*
X651328Y210225D01*
X651161Y210275D01*
X651135Y210277D01*
X651109Y210284D01*
X650778Y210311D01*
X635254Y210311D01*
X635236Y210309D01*
X635218Y210311D01*
X635036Y210290D01*
X634853Y210271D01*
X634836Y210266D01*
X634819Y210264D01*
X634644Y210207D01*
X634468Y210153D01*
X634453Y210145D01*
X634436Y210139D01*
X634276Y210049D01*
X634114Y209961D01*
X634101Y209950D01*
X634085Y209941D01*
X633946Y209821D01*
X633805Y209704D01*
X633794Y209690D01*
X633780Y209678D01*
X633668Y209533D01*
X633553Y209390D01*
X633545Y209374D01*
X633534Y209360D01*
X633452Y209195D01*
X633367Y209033D01*
X633362Y209016D01*
X633354Y209000D01*
X633306Y208821D01*
X633256Y208646D01*
X633254Y208628D01*
X633250Y208611D01*
X633223Y208280D01*
X633223Y206847D01*
X631734Y205358D01*
X587466Y205358D01*
X585977Y206847D01*
X585977Y208280D01*
X585975Y208298D01*
X585977Y208316D01*
X585956Y208498D01*
X585937Y208681D01*
X585932Y208698D01*
X585930Y208715D01*
X585873Y208890D01*
X585819Y209066D01*
X585811Y209081D01*
X585805Y209098D01*
X585715Y209258D01*
X585627Y209420D01*
X585616Y209433D01*
X585607Y209449D01*
X585487Y209588D01*
X585370Y209729D01*
X585356Y209740D01*
X585344Y209754D01*
X585199Y209866D01*
X585056Y209981D01*
X585040Y209989D01*
X585026Y210000D01*
X584861Y210082D01*
X584699Y210167D01*
X584682Y210172D01*
X584666Y210180D01*
X584487Y210227D01*
X584312Y210278D01*
X584294Y210280D01*
X584277Y210284D01*
X583946Y210311D01*
X564230Y210311D01*
X562176Y211162D01*
X522756Y250582D01*
X522735Y250599D01*
X522718Y250620D01*
X522580Y250727D01*
X522444Y250837D01*
X522421Y250850D01*
X522400Y250866D01*
X522243Y250944D01*
X522089Y251026D01*
X522063Y251034D01*
X522039Y251046D01*
X521870Y251091D01*
X521703Y251141D01*
X521676Y251143D01*
X521650Y251150D01*
X521320Y251177D01*
X438093Y251177D01*
X438067Y251175D01*
X438040Y251177D01*
X437866Y251155D01*
X437693Y251137D01*
X437667Y251130D01*
X437641Y251126D01*
X437475Y251071D01*
X437308Y251019D01*
X437284Y251006D01*
X437259Y250998D01*
X437107Y250911D01*
X436954Y250827D01*
X436933Y250810D01*
X436910Y250797D01*
X436657Y250582D01*
X389851Y203776D01*
X389834Y203755D01*
X389813Y203738D01*
X389706Y203600D01*
X389596Y203464D01*
X389583Y203441D01*
X389567Y203420D01*
X389489Y203263D01*
X389407Y203109D01*
X389399Y203083D01*
X389387Y203059D01*
X389342Y202890D01*
X389292Y202723D01*
X389290Y202696D01*
X389283Y202670D01*
X389256Y202340D01*
X389256Y188880D01*
X388405Y186826D01*
X386547Y184968D01*
X380560Y178982D01*
X380541Y178958D01*
X380517Y178937D01*
X380413Y178802D01*
X380305Y178670D01*
X380291Y178643D01*
X380272Y178618D01*
X380120Y178323D01*
X379795Y177537D01*
X378088Y175830D01*
X375857Y174906D01*
X373443Y174906D01*
G37*
%LPD*%
%LPC*%
G36*
X575505Y2031D02*
X575505Y2031D01*
X573824Y2727D01*
X561907Y14644D01*
X561887Y14661D01*
X561869Y14682D01*
X561731Y14789D01*
X561596Y14899D01*
X561572Y14912D01*
X561551Y14928D01*
X561394Y15006D01*
X561240Y15088D01*
X561215Y15096D01*
X561190Y15108D01*
X561021Y15153D01*
X560854Y15203D01*
X560828Y15205D01*
X560802Y15212D01*
X560471Y15239D01*
X556779Y15239D01*
X553044Y16786D01*
X550186Y19644D01*
X548639Y23379D01*
X548639Y27421D01*
X550186Y31156D01*
X553044Y34014D01*
X555834Y35169D01*
X555846Y35176D01*
X555859Y35180D01*
X556023Y35271D01*
X556189Y35360D01*
X556199Y35368D01*
X556211Y35375D01*
X556355Y35496D01*
X556499Y35616D01*
X556508Y35626D01*
X556518Y35635D01*
X556635Y35783D01*
X556753Y35929D01*
X556759Y35940D01*
X556768Y35951D01*
X556853Y36119D01*
X556940Y36285D01*
X556944Y36298D01*
X556950Y36310D01*
X557001Y36492D01*
X557053Y36672D01*
X557054Y36685D01*
X557058Y36698D01*
X557072Y36886D01*
X557088Y37073D01*
X557086Y37086D01*
X557087Y37099D01*
X557064Y37286D01*
X557043Y37473D01*
X557039Y37485D01*
X557037Y37499D01*
X556977Y37678D01*
X556919Y37856D01*
X556913Y37868D01*
X556909Y37880D01*
X556815Y38044D01*
X556723Y38208D01*
X556714Y38218D01*
X556708Y38229D01*
X556493Y38482D01*
X540072Y54903D01*
X540051Y54920D01*
X540034Y54941D01*
X539896Y55048D01*
X539760Y55158D01*
X539737Y55171D01*
X539716Y55187D01*
X539559Y55265D01*
X539405Y55347D01*
X539379Y55355D01*
X539355Y55367D01*
X539186Y55412D01*
X539019Y55462D01*
X538992Y55464D01*
X538966Y55471D01*
X538636Y55498D01*
X520522Y55498D01*
X520498Y55496D01*
X520475Y55498D01*
X520298Y55476D01*
X520121Y55458D01*
X520099Y55451D01*
X520075Y55449D01*
X519907Y55392D01*
X519736Y55340D01*
X519716Y55329D01*
X519693Y55321D01*
X519539Y55233D01*
X519382Y55148D01*
X519364Y55133D01*
X519344Y55122D01*
X519209Y55004D01*
X519073Y54891D01*
X519058Y54872D01*
X519040Y54857D01*
X518932Y54715D01*
X518821Y54577D01*
X518810Y54556D01*
X518795Y54537D01*
X518717Y54377D01*
X518635Y54220D01*
X518629Y54197D01*
X518618Y54176D01*
X518573Y54004D01*
X518524Y53833D01*
X518522Y53809D01*
X518516Y53786D01*
X518506Y53609D01*
X518491Y53431D01*
X518494Y53408D01*
X518492Y53384D01*
X518517Y53208D01*
X518538Y53032D01*
X518545Y53009D01*
X518549Y52986D01*
X518608Y52818D01*
X518663Y52649D01*
X518674Y52628D01*
X518682Y52606D01*
X518773Y52453D01*
X518861Y52298D01*
X518876Y52280D01*
X518888Y52260D01*
X519107Y52010D01*
X535680Y35911D01*
X535693Y35900D01*
X535704Y35887D01*
X535814Y35803D01*
X536219Y35397D01*
X536243Y35378D01*
X536264Y35354D01*
X536399Y35250D01*
X536531Y35142D01*
X536558Y35128D01*
X536583Y35109D01*
X536878Y34957D01*
X539156Y34014D01*
X542014Y31156D01*
X543561Y27421D01*
X543561Y23379D01*
X542014Y19644D01*
X539156Y16786D01*
X535421Y15239D01*
X531379Y15239D01*
X527644Y16786D01*
X524786Y19644D01*
X523239Y23379D01*
X523239Y27421D01*
X524813Y31220D01*
X524896Y31322D01*
X524911Y31351D01*
X524931Y31377D01*
X525006Y31528D01*
X525085Y31678D01*
X525094Y31709D01*
X525109Y31738D01*
X525151Y31901D01*
X525200Y32063D01*
X525203Y32096D01*
X525211Y32128D01*
X525221Y32296D01*
X525236Y32464D01*
X525233Y32497D01*
X525234Y32530D01*
X525211Y32696D01*
X525193Y32865D01*
X525183Y32896D01*
X525178Y32928D01*
X525122Y33088D01*
X525071Y33249D01*
X525055Y33277D01*
X525045Y33308D01*
X524958Y33453D01*
X524876Y33601D01*
X524855Y33626D01*
X524839Y33654D01*
X524620Y33904D01*
X509911Y48193D01*
X509901Y48200D01*
X509894Y48210D01*
X509744Y48325D01*
X509596Y48444D01*
X509585Y48449D01*
X509575Y48456D01*
X509406Y48541D01*
X509237Y48627D01*
X509226Y48630D01*
X509215Y48636D01*
X509032Y48685D01*
X508850Y48736D01*
X508838Y48737D01*
X508826Y48740D01*
X508495Y48767D01*
X408932Y48767D01*
X407252Y49463D01*
X407204Y49511D01*
X407194Y49520D01*
X407185Y49530D01*
X407038Y49647D01*
X406893Y49766D01*
X406881Y49772D01*
X406870Y49781D01*
X406703Y49867D01*
X406537Y49955D01*
X406524Y49959D01*
X406512Y49965D01*
X406331Y50016D01*
X406151Y50070D01*
X406138Y50071D01*
X406125Y50074D01*
X405938Y50089D01*
X405750Y50106D01*
X405736Y50104D01*
X405723Y50106D01*
X405538Y50083D01*
X405350Y50063D01*
X405337Y50058D01*
X405324Y50057D01*
X405145Y49998D01*
X404966Y49941D01*
X404954Y49935D01*
X404941Y49930D01*
X404778Y49837D01*
X404614Y49746D01*
X404603Y49738D01*
X404592Y49731D01*
X404450Y49607D01*
X404307Y49486D01*
X404298Y49475D01*
X404288Y49466D01*
X404173Y49317D01*
X404057Y49170D01*
X404051Y49158D01*
X404043Y49147D01*
X403891Y48852D01*
X402314Y45044D01*
X399456Y42186D01*
X395721Y40639D01*
X391679Y40639D01*
X387944Y42186D01*
X385086Y45044D01*
X383539Y48779D01*
X383539Y52821D01*
X385087Y56558D01*
X385203Y56701D01*
X385325Y56851D01*
X385329Y56859D01*
X385335Y56866D01*
X385423Y57036D01*
X385513Y57206D01*
X385516Y57215D01*
X385520Y57223D01*
X385573Y57407D01*
X385628Y57592D01*
X385629Y57601D01*
X385632Y57610D01*
X385647Y57801D01*
X385665Y57993D01*
X385664Y58002D01*
X385664Y58011D01*
X385642Y58202D01*
X385621Y58393D01*
X385619Y58402D01*
X385618Y58411D01*
X385558Y58594D01*
X385500Y58777D01*
X385495Y58785D01*
X385493Y58794D01*
X385397Y58962D01*
X385305Y59130D01*
X385299Y59136D01*
X385295Y59144D01*
X385169Y59290D01*
X385045Y59437D01*
X385037Y59442D01*
X385032Y59449D01*
X384880Y59567D01*
X384729Y59686D01*
X384721Y59690D01*
X384714Y59696D01*
X384542Y59781D01*
X384370Y59869D01*
X384361Y59871D01*
X384353Y59875D01*
X384166Y59925D01*
X383982Y59977D01*
X383973Y59977D01*
X383964Y59980D01*
X383633Y60007D01*
X378367Y60007D01*
X378357Y60006D01*
X378349Y60007D01*
X378157Y59986D01*
X377966Y59967D01*
X377957Y59964D01*
X377948Y59963D01*
X377765Y59905D01*
X377581Y59849D01*
X377573Y59844D01*
X377565Y59842D01*
X377396Y59749D01*
X377227Y59657D01*
X377220Y59651D01*
X377212Y59647D01*
X377065Y59522D01*
X376918Y59399D01*
X376912Y59392D01*
X376905Y59386D01*
X376785Y59235D01*
X376665Y59085D01*
X376661Y59078D01*
X376656Y59070D01*
X376568Y58899D01*
X376480Y58728D01*
X376477Y58720D01*
X376473Y58711D01*
X376422Y58527D01*
X376368Y58341D01*
X376368Y58332D01*
X376365Y58324D01*
X376351Y58132D01*
X376336Y57940D01*
X376337Y57931D01*
X376336Y57922D01*
X376360Y57730D01*
X376382Y57540D01*
X376385Y57532D01*
X376386Y57523D01*
X376448Y57340D01*
X376507Y57157D01*
X376512Y57149D01*
X376515Y57141D01*
X376610Y56975D01*
X376705Y56807D01*
X376711Y56800D01*
X376716Y56792D01*
X376911Y56561D01*
X378461Y52821D01*
X378461Y48779D01*
X376914Y45044D01*
X374056Y42186D01*
X370321Y40639D01*
X366279Y40639D01*
X362544Y42186D01*
X359686Y45044D01*
X358139Y48779D01*
X358139Y52821D01*
X359687Y56558D01*
X359803Y56701D01*
X359925Y56851D01*
X359929Y56859D01*
X359935Y56866D01*
X360023Y57036D01*
X360113Y57206D01*
X360116Y57215D01*
X360120Y57223D01*
X360173Y57407D01*
X360228Y57592D01*
X360229Y57601D01*
X360232Y57610D01*
X360247Y57801D01*
X360265Y57993D01*
X360264Y58002D01*
X360264Y58011D01*
X360242Y58202D01*
X360221Y58393D01*
X360219Y58402D01*
X360218Y58411D01*
X360158Y58594D01*
X360100Y58777D01*
X360095Y58785D01*
X360093Y58794D01*
X359997Y58962D01*
X359905Y59130D01*
X359899Y59136D01*
X359895Y59144D01*
X359769Y59290D01*
X359645Y59437D01*
X359637Y59442D01*
X359632Y59449D01*
X359480Y59567D01*
X359329Y59686D01*
X359321Y59690D01*
X359314Y59696D01*
X359142Y59781D01*
X358970Y59869D01*
X358961Y59871D01*
X358953Y59875D01*
X358766Y59925D01*
X358582Y59977D01*
X358573Y59977D01*
X358564Y59980D01*
X358233Y60007D01*
X352967Y60007D01*
X352957Y60006D01*
X352949Y60007D01*
X352757Y59986D01*
X352566Y59967D01*
X352557Y59964D01*
X352548Y59963D01*
X352365Y59905D01*
X352181Y59849D01*
X352173Y59844D01*
X352165Y59842D01*
X351996Y59749D01*
X351827Y59657D01*
X351820Y59651D01*
X351812Y59647D01*
X351665Y59522D01*
X351518Y59399D01*
X351512Y59392D01*
X351505Y59386D01*
X351385Y59235D01*
X351265Y59085D01*
X351261Y59078D01*
X351256Y59070D01*
X351168Y58899D01*
X351080Y58728D01*
X351077Y58720D01*
X351073Y58711D01*
X351022Y58527D01*
X350968Y58341D01*
X350968Y58332D01*
X350965Y58324D01*
X350951Y58132D01*
X350936Y57940D01*
X350937Y57931D01*
X350936Y57922D01*
X350960Y57730D01*
X350982Y57540D01*
X350985Y57532D01*
X350986Y57523D01*
X351048Y57340D01*
X351107Y57157D01*
X351112Y57149D01*
X351115Y57141D01*
X351210Y56975D01*
X351305Y56807D01*
X351311Y56800D01*
X351316Y56792D01*
X351511Y56561D01*
X353061Y52821D01*
X353061Y48779D01*
X351514Y45044D01*
X348656Y42186D01*
X344921Y40639D01*
X340879Y40639D01*
X337144Y42186D01*
X334286Y45044D01*
X332739Y48779D01*
X332739Y52821D01*
X334286Y56556D01*
X337144Y59414D01*
X337782Y59678D01*
X337798Y59686D01*
X337815Y59692D01*
X337975Y59781D01*
X338137Y59868D01*
X338151Y59880D01*
X338166Y59888D01*
X338306Y60008D01*
X338447Y60125D01*
X338459Y60138D01*
X338472Y60150D01*
X338585Y60295D01*
X338701Y60437D01*
X338709Y60453D01*
X338720Y60467D01*
X338803Y60631D01*
X338888Y60794D01*
X338893Y60811D01*
X338901Y60827D01*
X338950Y61004D01*
X339001Y61180D01*
X339003Y61198D01*
X339008Y61215D01*
X339020Y61398D01*
X339036Y61581D01*
X339034Y61599D01*
X339035Y61617D01*
X339011Y61798D01*
X338991Y61981D01*
X338985Y61999D01*
X338983Y62016D01*
X338881Y62332D01*
X338327Y63670D01*
X338327Y64662D01*
X338326Y64671D01*
X338327Y64680D01*
X338307Y64869D01*
X338287Y65062D01*
X338285Y65071D01*
X338284Y65080D01*
X338226Y65262D01*
X338169Y65447D01*
X338165Y65455D01*
X338162Y65464D01*
X338069Y65632D01*
X337977Y65801D01*
X337972Y65808D01*
X337967Y65816D01*
X337842Y65964D01*
X337720Y66111D01*
X337713Y66116D01*
X337707Y66123D01*
X337555Y66243D01*
X337406Y66363D01*
X337398Y66367D01*
X337391Y66373D01*
X337219Y66460D01*
X337049Y66548D01*
X337040Y66551D01*
X337032Y66555D01*
X336846Y66607D01*
X336662Y66660D01*
X336653Y66661D01*
X336644Y66663D01*
X336452Y66677D01*
X336260Y66693D01*
X336252Y66692D01*
X336243Y66692D01*
X336050Y66668D01*
X335861Y66646D01*
X335852Y66643D01*
X335843Y66642D01*
X335660Y66580D01*
X335478Y66521D01*
X335470Y66516D01*
X335462Y66514D01*
X335296Y66418D01*
X335127Y66323D01*
X335120Y66317D01*
X335113Y66313D01*
X334860Y66098D01*
X333366Y64604D01*
X331312Y63753D01*
X322991Y63753D01*
X322986Y63753D01*
X322982Y63753D01*
X322788Y63733D01*
X322590Y63713D01*
X322586Y63712D01*
X322582Y63712D01*
X322394Y63653D01*
X322205Y63595D01*
X322202Y63593D01*
X322197Y63592D01*
X322023Y63496D01*
X321851Y63403D01*
X321848Y63401D01*
X321844Y63398D01*
X321691Y63270D01*
X321542Y63146D01*
X321539Y63142D01*
X321536Y63139D01*
X321412Y62984D01*
X321290Y62832D01*
X321288Y62828D01*
X321285Y62824D01*
X321193Y62646D01*
X321104Y62475D01*
X321103Y62470D01*
X321101Y62466D01*
X321046Y62273D01*
X320993Y62088D01*
X320993Y62083D01*
X320991Y62079D01*
X320976Y61882D01*
X320960Y61686D01*
X320961Y61682D01*
X320960Y61678D01*
X320984Y61484D01*
X321007Y61287D01*
X321008Y61282D01*
X321009Y61278D01*
X321070Y61092D01*
X321132Y60904D01*
X321134Y60900D01*
X321135Y60896D01*
X321232Y60727D01*
X321330Y60553D01*
X321333Y60550D01*
X321335Y60546D01*
X321467Y60394D01*
X321593Y60249D01*
X321596Y60246D01*
X321599Y60242D01*
X321757Y60121D01*
X321911Y60002D01*
X321915Y60000D01*
X321919Y59997D01*
X322214Y59845D01*
X323256Y59414D01*
X326114Y56556D01*
X327661Y52821D01*
X327661Y48779D01*
X326114Y45044D01*
X323256Y42186D01*
X319521Y40639D01*
X315479Y40639D01*
X311744Y42186D01*
X308886Y45044D01*
X307339Y48779D01*
X307339Y52821D01*
X308886Y56556D01*
X311744Y59414D01*
X312786Y59845D01*
X312790Y59847D01*
X312795Y59849D01*
X312967Y59942D01*
X313141Y60036D01*
X313145Y60038D01*
X313149Y60041D01*
X313299Y60166D01*
X313452Y60292D01*
X313454Y60295D01*
X313458Y60298D01*
X313579Y60449D01*
X313705Y60605D01*
X313707Y60609D01*
X313710Y60612D01*
X313799Y60784D01*
X313892Y60961D01*
X313894Y60965D01*
X313896Y60969D01*
X313950Y61157D01*
X314005Y61348D01*
X314006Y61352D01*
X314007Y61356D01*
X314023Y61554D01*
X314040Y61749D01*
X314040Y61753D01*
X314040Y61758D01*
X314017Y61953D01*
X313995Y62149D01*
X313994Y62153D01*
X313993Y62157D01*
X313932Y62345D01*
X313872Y62532D01*
X313870Y62536D01*
X313868Y62540D01*
X313771Y62713D01*
X313675Y62884D01*
X313672Y62887D01*
X313670Y62891D01*
X313542Y63039D01*
X313414Y63189D01*
X313410Y63192D01*
X313407Y63196D01*
X313252Y63316D01*
X313097Y63438D01*
X313093Y63440D01*
X313089Y63442D01*
X312913Y63530D01*
X312737Y63618D01*
X312733Y63620D01*
X312728Y63622D01*
X312537Y63673D01*
X312348Y63725D01*
X312344Y63725D01*
X312340Y63726D01*
X312009Y63753D01*
X299720Y63753D01*
X299702Y63751D01*
X299684Y63753D01*
X299502Y63732D01*
X299319Y63713D01*
X299302Y63708D01*
X299285Y63706D01*
X299110Y63649D01*
X298934Y63595D01*
X298919Y63587D01*
X298902Y63581D01*
X298742Y63491D01*
X298580Y63403D01*
X298567Y63392D01*
X298551Y63383D01*
X298412Y63263D01*
X298271Y63146D01*
X298260Y63132D01*
X298246Y63120D01*
X298134Y62975D01*
X298019Y62832D01*
X298011Y62816D01*
X298000Y62802D01*
X297918Y62637D01*
X297833Y62475D01*
X297828Y62458D01*
X297820Y62442D01*
X297773Y62263D01*
X297722Y62088D01*
X297720Y62070D01*
X297716Y62053D01*
X297689Y61722D01*
X297689Y60422D01*
X297690Y60408D01*
X297689Y60394D01*
X297690Y60382D01*
X297689Y60369D01*
X297711Y60195D01*
X297729Y60021D01*
X297735Y60000D01*
X297736Y59994D01*
X297737Y59990D01*
X297740Y59969D01*
X297796Y59803D01*
X297847Y59637D01*
X297860Y59613D01*
X297868Y59588D01*
X297955Y59436D01*
X298039Y59282D01*
X298056Y59262D01*
X298069Y59239D01*
X298284Y58986D01*
X300714Y56556D01*
X302261Y52821D01*
X302261Y48779D01*
X300714Y45044D01*
X297856Y42186D01*
X294121Y40639D01*
X290079Y40639D01*
X286344Y42186D01*
X283486Y45044D01*
X281939Y48779D01*
X281939Y52821D01*
X283486Y56556D01*
X285916Y58986D01*
X285933Y59006D01*
X285954Y59024D01*
X286061Y59162D01*
X286171Y59297D01*
X286184Y59321D01*
X286200Y59342D01*
X286278Y59499D01*
X286360Y59653D01*
X286368Y59679D01*
X286380Y59703D01*
X286425Y59872D01*
X286475Y60039D01*
X286477Y60059D01*
X286478Y60064D01*
X286479Y60071D01*
X286484Y60091D01*
X286511Y60422D01*
X286511Y70454D01*
X287362Y72508D01*
X288934Y74080D01*
X290988Y74931D01*
X323088Y74931D01*
X323106Y74933D01*
X323124Y74931D01*
X323306Y74952D01*
X323489Y74971D01*
X323506Y74976D01*
X323523Y74978D01*
X323698Y75035D01*
X323874Y75089D01*
X323889Y75097D01*
X323906Y75103D01*
X324066Y75193D01*
X324228Y75281D01*
X324241Y75292D01*
X324257Y75301D01*
X324396Y75421D01*
X324537Y75538D01*
X324548Y75552D01*
X324562Y75564D01*
X324674Y75709D01*
X324789Y75852D01*
X324797Y75868D01*
X324808Y75882D01*
X324890Y76047D01*
X324975Y76209D01*
X324980Y76226D01*
X324988Y76242D01*
X325035Y76421D01*
X325086Y76596D01*
X325088Y76614D01*
X325092Y76631D01*
X325119Y76962D01*
X325119Y84368D01*
X325118Y84382D01*
X325119Y84395D01*
X325098Y84581D01*
X325079Y84769D01*
X325075Y84782D01*
X325074Y84795D01*
X325016Y84974D01*
X324961Y85154D01*
X324955Y85165D01*
X324951Y85178D01*
X324859Y85343D01*
X324769Y85508D01*
X324761Y85518D01*
X324754Y85530D01*
X324632Y85673D01*
X324512Y85817D01*
X324501Y85825D01*
X324493Y85836D01*
X324344Y85952D01*
X324198Y86069D01*
X324186Y86075D01*
X324176Y86084D01*
X324007Y86168D01*
X323841Y86255D01*
X323828Y86259D01*
X323816Y86265D01*
X323635Y86314D01*
X323454Y86366D01*
X323440Y86367D01*
X323427Y86371D01*
X323239Y86384D01*
X323052Y86399D01*
X323039Y86398D01*
X323026Y86398D01*
X322838Y86374D01*
X322653Y86352D01*
X322640Y86348D01*
X322627Y86346D01*
X322311Y86245D01*
X319521Y85089D01*
X315479Y85089D01*
X311744Y86636D01*
X308886Y89494D01*
X307339Y93229D01*
X307339Y97271D01*
X308886Y101006D01*
X311744Y103864D01*
X315479Y105411D01*
X319521Y105411D01*
X322311Y104255D01*
X322324Y104251D01*
X322335Y104245D01*
X322515Y104193D01*
X322696Y104139D01*
X322709Y104137D01*
X322722Y104134D01*
X322910Y104118D01*
X323097Y104101D01*
X323110Y104102D01*
X323124Y104101D01*
X323310Y104123D01*
X323497Y104142D01*
X323510Y104146D01*
X323523Y104148D01*
X323702Y104206D01*
X323882Y104262D01*
X323893Y104269D01*
X323906Y104273D01*
X324070Y104365D01*
X324235Y104455D01*
X324245Y104464D01*
X324257Y104471D01*
X324399Y104593D01*
X324543Y104715D01*
X324551Y104725D01*
X324562Y104734D01*
X324676Y104882D01*
X324794Y105029D01*
X324800Y105041D01*
X324808Y105052D01*
X324892Y105220D01*
X324978Y105387D01*
X324982Y105400D01*
X324988Y105412D01*
X325037Y105595D01*
X325088Y105775D01*
X325089Y105788D01*
X325092Y105801D01*
X325119Y106132D01*
X325119Y116118D01*
X325118Y116132D01*
X325119Y116145D01*
X325098Y116331D01*
X325079Y116519D01*
X325075Y116532D01*
X325074Y116545D01*
X325016Y116724D01*
X324961Y116904D01*
X324955Y116915D01*
X324951Y116928D01*
X324859Y117093D01*
X324769Y117258D01*
X324761Y117268D01*
X324754Y117280D01*
X324632Y117423D01*
X324512Y117567D01*
X324501Y117575D01*
X324493Y117586D01*
X324344Y117702D01*
X324198Y117819D01*
X324186Y117825D01*
X324176Y117834D01*
X324007Y117918D01*
X323841Y118005D01*
X323828Y118009D01*
X323816Y118015D01*
X323635Y118064D01*
X323454Y118116D01*
X323440Y118117D01*
X323427Y118121D01*
X323239Y118134D01*
X323052Y118149D01*
X323039Y118148D01*
X323026Y118148D01*
X322838Y118124D01*
X322653Y118102D01*
X322640Y118098D01*
X322627Y118096D01*
X322311Y117995D01*
X319521Y116839D01*
X315479Y116839D01*
X311744Y118386D01*
X308886Y121244D01*
X307339Y124979D01*
X307339Y129021D01*
X308886Y132756D01*
X311744Y135614D01*
X315479Y137161D01*
X319521Y137161D01*
X323186Y135642D01*
X323208Y135636D01*
X323228Y135626D01*
X323400Y135578D01*
X323572Y135526D01*
X323594Y135524D01*
X323616Y135518D01*
X323795Y135505D01*
X323973Y135488D01*
X323995Y135490D01*
X324017Y135489D01*
X324195Y135511D01*
X324373Y135529D01*
X324395Y135536D01*
X324417Y135539D01*
X324586Y135596D01*
X324758Y135649D01*
X324777Y135660D01*
X324798Y135667D01*
X324953Y135756D01*
X325111Y135843D01*
X325128Y135857D01*
X325147Y135868D01*
X325400Y136083D01*
X337438Y148121D01*
X339507Y148978D01*
X339579Y148972D01*
X368827Y148972D01*
X368853Y148974D01*
X368880Y148972D01*
X369054Y148994D01*
X369227Y149012D01*
X369253Y149019D01*
X369279Y149023D01*
X369445Y149078D01*
X369612Y149130D01*
X369636Y149143D01*
X369661Y149151D01*
X369813Y149238D01*
X369966Y149322D01*
X369987Y149339D01*
X370010Y149352D01*
X370263Y149567D01*
X373072Y152375D01*
X375126Y153226D01*
X430231Y153226D01*
X430258Y153229D01*
X430284Y153227D01*
X430458Y153249D01*
X430632Y153266D01*
X430657Y153274D01*
X430684Y153277D01*
X430850Y153333D01*
X431017Y153384D01*
X431040Y153397D01*
X431066Y153406D01*
X431217Y153493D01*
X431371Y153576D01*
X431391Y153593D01*
X431414Y153606D01*
X431667Y153821D01*
X444666Y166820D01*
X444683Y166841D01*
X444704Y166858D01*
X444811Y166996D01*
X444921Y167132D01*
X444934Y167155D01*
X444950Y167176D01*
X445028Y167333D01*
X445110Y167487D01*
X445118Y167513D01*
X445130Y167537D01*
X445175Y167706D01*
X445225Y167873D01*
X445227Y167900D01*
X445234Y167926D01*
X445261Y168256D01*
X445261Y203605D01*
X445258Y203636D01*
X445260Y203667D01*
X445238Y203836D01*
X445221Y204006D01*
X445212Y204035D01*
X445208Y204066D01*
X445107Y204382D01*
X444781Y205168D01*
X444781Y207582D01*
X445705Y209813D01*
X447412Y211520D01*
X449643Y212444D01*
X452057Y212444D01*
X454288Y211520D01*
X455995Y209813D01*
X456919Y207582D01*
X456919Y205168D01*
X456593Y204382D01*
X456584Y204353D01*
X456570Y204325D01*
X456526Y204159D01*
X456477Y203997D01*
X456474Y203966D01*
X456466Y203936D01*
X456439Y203605D01*
X456439Y163988D01*
X455588Y161934D01*
X436553Y142900D01*
X434499Y142049D01*
X379394Y142049D01*
X379367Y142046D01*
X379341Y142048D01*
X379167Y142026D01*
X378993Y142009D01*
X378968Y142001D01*
X378941Y141998D01*
X378775Y141942D01*
X378608Y141891D01*
X378585Y141878D01*
X378559Y141869D01*
X378408Y141782D01*
X378254Y141699D01*
X378234Y141682D01*
X378211Y141669D01*
X377958Y141454D01*
X375149Y138645D01*
X375041Y138600D01*
X375029Y138594D01*
X375016Y138590D01*
X374852Y138499D01*
X374686Y138410D01*
X374676Y138402D01*
X374664Y138395D01*
X374521Y138274D01*
X374376Y138154D01*
X374367Y138143D01*
X374357Y138135D01*
X374241Y137988D01*
X374122Y137841D01*
X374116Y137829D01*
X374107Y137819D01*
X374022Y137652D01*
X373935Y137485D01*
X373931Y137472D01*
X373925Y137460D01*
X373874Y137278D01*
X373822Y137098D01*
X373821Y137085D01*
X373817Y137072D01*
X373803Y136883D01*
X373787Y136697D01*
X373789Y136684D01*
X373788Y136670D01*
X373811Y136483D01*
X373832Y136297D01*
X373836Y136284D01*
X373838Y136271D01*
X373898Y136093D01*
X373955Y135914D01*
X373962Y135902D01*
X373966Y135889D01*
X374060Y135727D01*
X374152Y135562D01*
X374161Y135552D01*
X374167Y135540D01*
X374382Y135287D01*
X376914Y132756D01*
X378461Y129021D01*
X378461Y124979D01*
X376914Y121244D01*
X374044Y118375D01*
X373930Y118310D01*
X373772Y118226D01*
X373755Y118211D01*
X373735Y118200D01*
X373600Y118083D01*
X373462Y117969D01*
X373447Y117952D01*
X373430Y117937D01*
X373321Y117796D01*
X373208Y117657D01*
X373197Y117637D01*
X373184Y117619D01*
X373104Y117459D01*
X373021Y117300D01*
X373014Y117279D01*
X373004Y117258D01*
X372958Y117085D01*
X372908Y116914D01*
X372906Y116891D01*
X372900Y116870D01*
X372873Y116539D01*
X372873Y105711D01*
X372875Y105689D01*
X372873Y105666D01*
X372895Y105489D01*
X372913Y105310D01*
X372919Y105289D01*
X372922Y105267D01*
X372978Y105096D01*
X373031Y104925D01*
X373041Y104906D01*
X373048Y104885D01*
X373137Y104729D01*
X373223Y104571D01*
X373237Y104554D01*
X373248Y104535D01*
X373366Y104400D01*
X373480Y104262D01*
X373498Y104248D01*
X373512Y104231D01*
X373654Y104122D01*
X373794Y104010D01*
X373814Y104000D01*
X373832Y103986D01*
X374041Y103878D01*
X376914Y101006D01*
X378461Y97271D01*
X378461Y93229D01*
X376914Y89494D01*
X374044Y86625D01*
X373930Y86560D01*
X373772Y86476D01*
X373755Y86461D01*
X373735Y86450D01*
X373600Y86333D01*
X373462Y86219D01*
X373447Y86202D01*
X373430Y86187D01*
X373321Y86046D01*
X373208Y85907D01*
X373197Y85887D01*
X373184Y85869D01*
X373104Y85709D01*
X373021Y85550D01*
X373014Y85529D01*
X373004Y85508D01*
X372958Y85335D01*
X372908Y85164D01*
X372906Y85141D01*
X372900Y85120D01*
X372873Y84789D01*
X372873Y81724D01*
X372875Y81707D01*
X372873Y81689D01*
X372894Y81507D01*
X372913Y81324D01*
X372918Y81307D01*
X372920Y81289D01*
X372977Y81115D01*
X373031Y80939D01*
X373039Y80923D01*
X373045Y80906D01*
X373135Y80746D01*
X373223Y80585D01*
X373234Y80571D01*
X373243Y80556D01*
X373363Y80416D01*
X373480Y80276D01*
X373494Y80264D01*
X373506Y80251D01*
X373651Y80138D01*
X373794Y80023D01*
X373810Y80015D01*
X373824Y80004D01*
X373989Y79922D01*
X374151Y79838D01*
X374168Y79833D01*
X374184Y79825D01*
X374363Y79777D01*
X374538Y79726D01*
X374556Y79725D01*
X374573Y79720D01*
X374904Y79693D01*
X397886Y79693D01*
X397895Y79694D01*
X397904Y79693D01*
X398096Y79714D01*
X398287Y79733D01*
X398295Y79736D01*
X398304Y79737D01*
X398486Y79794D01*
X398672Y79851D01*
X398680Y79856D01*
X398688Y79858D01*
X398856Y79951D01*
X399026Y80043D01*
X399032Y80049D01*
X399040Y80053D01*
X399188Y80178D01*
X399335Y80301D01*
X399340Y80308D01*
X399347Y80314D01*
X399467Y80465D01*
X399587Y80615D01*
X399591Y80622D01*
X399597Y80629D01*
X399684Y80802D01*
X399773Y80972D01*
X399775Y80980D01*
X399779Y80988D01*
X399831Y81174D01*
X399884Y81359D01*
X399885Y81368D01*
X399887Y81376D01*
X399901Y81569D01*
X399917Y81760D01*
X399916Y81769D01*
X399917Y81778D01*
X399892Y81971D01*
X399870Y82160D01*
X399867Y82168D01*
X399866Y82177D01*
X399805Y82360D01*
X399745Y82543D01*
X399741Y82551D01*
X399738Y82559D01*
X399643Y82724D01*
X399547Y82893D01*
X399542Y82900D01*
X399537Y82908D01*
X399322Y83161D01*
X397864Y84620D01*
X397846Y84634D01*
X397832Y84651D01*
X397690Y84761D01*
X397552Y84875D01*
X397532Y84885D01*
X397515Y84899D01*
X397355Y84979D01*
X397196Y85063D01*
X397175Y85070D01*
X397155Y85080D01*
X396982Y85127D01*
X396811Y85178D01*
X396788Y85180D01*
X396767Y85186D01*
X396589Y85198D01*
X396410Y85214D01*
X396387Y85212D01*
X396365Y85213D01*
X396188Y85190D01*
X396009Y85171D01*
X395988Y85164D01*
X395966Y85161D01*
X395742Y85089D01*
X391679Y85089D01*
X387944Y86636D01*
X385086Y89494D01*
X383539Y93229D01*
X383539Y97271D01*
X385086Y101006D01*
X387944Y103864D01*
X391679Y105411D01*
X395721Y105411D01*
X399456Y103864D01*
X402314Y101006D01*
X403861Y97271D01*
X403861Y93212D01*
X403825Y93085D01*
X403774Y92915D01*
X403772Y92893D01*
X403766Y92871D01*
X403752Y92691D01*
X403736Y92514D01*
X403738Y92492D01*
X403736Y92469D01*
X403759Y92291D01*
X403777Y92113D01*
X403784Y92092D01*
X403787Y92070D01*
X403844Y91900D01*
X403897Y91729D01*
X403908Y91709D01*
X403915Y91688D01*
X404004Y91533D01*
X404090Y91376D01*
X404105Y91359D01*
X404116Y91339D01*
X404330Y91086D01*
X406492Y88924D01*
X406496Y88922D01*
X406499Y88918D01*
X406652Y88793D01*
X406804Y88669D01*
X406808Y88667D01*
X406811Y88664D01*
X406989Y88571D01*
X407160Y88481D01*
X407164Y88479D01*
X407168Y88477D01*
X407358Y88422D01*
X407546Y88366D01*
X407550Y88365D01*
X407554Y88364D01*
X407746Y88348D01*
X407946Y88329D01*
X407951Y88330D01*
X407955Y88330D01*
X408146Y88351D01*
X408347Y88373D01*
X408351Y88374D01*
X408355Y88375D01*
X408541Y88434D01*
X408731Y88494D01*
X408734Y88497D01*
X408739Y88498D01*
X408910Y88593D01*
X409083Y88689D01*
X409086Y88692D01*
X409090Y88694D01*
X409238Y88821D01*
X409390Y88950D01*
X409393Y88953D01*
X409396Y88956D01*
X409518Y89112D01*
X409640Y89266D01*
X409642Y89270D01*
X409644Y89273D01*
X409733Y89450D01*
X409822Y89625D01*
X409823Y89629D01*
X409825Y89633D01*
X409877Y89823D01*
X409930Y90012D01*
X409930Y90017D01*
X409931Y90021D01*
X409945Y90217D01*
X409959Y90414D01*
X409959Y90418D01*
X409959Y90423D01*
X409933Y90619D01*
X409909Y90813D01*
X409907Y90818D01*
X409907Y90822D01*
X409805Y91138D01*
X408939Y93229D01*
X408939Y97271D01*
X410486Y101006D01*
X413344Y103864D01*
X417079Y105411D01*
X421121Y105411D01*
X424856Y103864D01*
X427714Y101006D01*
X429261Y97271D01*
X429261Y93229D01*
X427714Y89494D01*
X424856Y86636D01*
X421121Y85089D01*
X417079Y85089D01*
X414988Y85955D01*
X414984Y85957D01*
X414980Y85959D01*
X414795Y86014D01*
X414603Y86072D01*
X414598Y86072D01*
X414594Y86074D01*
X414396Y86091D01*
X414202Y86110D01*
X414197Y86110D01*
X414193Y86110D01*
X413994Y86088D01*
X413801Y86068D01*
X413797Y86067D01*
X413793Y86067D01*
X413606Y86007D01*
X413417Y85948D01*
X413413Y85946D01*
X413409Y85945D01*
X413240Y85851D01*
X413064Y85755D01*
X413060Y85752D01*
X413056Y85750D01*
X412906Y85623D01*
X412756Y85496D01*
X412753Y85493D01*
X412749Y85490D01*
X412627Y85335D01*
X412505Y85181D01*
X412503Y85177D01*
X412500Y85174D01*
X412408Y84994D01*
X412321Y84823D01*
X412320Y84819D01*
X412317Y84815D01*
X412264Y84623D01*
X412211Y84436D01*
X412211Y84431D01*
X412209Y84427D01*
X412194Y84221D01*
X412180Y84034D01*
X412180Y84030D01*
X412180Y84025D01*
X412205Y83827D01*
X412229Y83635D01*
X412230Y83630D01*
X412231Y83626D01*
X412293Y83441D01*
X412355Y83252D01*
X412357Y83248D01*
X412359Y83244D01*
X412457Y83073D01*
X412555Y82903D01*
X412557Y82899D01*
X412560Y82895D01*
X412774Y82642D01*
X423574Y71843D01*
X423595Y71826D01*
X423612Y71805D01*
X423750Y71698D01*
X423886Y71588D01*
X423909Y71575D01*
X423930Y71559D01*
X424087Y71481D01*
X424241Y71399D01*
X424267Y71391D01*
X424291Y71379D01*
X424460Y71334D01*
X424627Y71284D01*
X424654Y71282D01*
X424680Y71275D01*
X425010Y71248D01*
X489467Y71248D01*
X489480Y71249D01*
X489494Y71248D01*
X489680Y71269D01*
X489868Y71288D01*
X489880Y71292D01*
X489894Y71293D01*
X490072Y71350D01*
X490253Y71406D01*
X490264Y71412D01*
X490277Y71416D01*
X490441Y71508D01*
X490607Y71598D01*
X490617Y71606D01*
X490629Y71613D01*
X490772Y71736D01*
X490916Y71855D01*
X490924Y71866D01*
X490934Y71874D01*
X491051Y72023D01*
X491168Y72169D01*
X491174Y72181D01*
X491183Y72191D01*
X491268Y72361D01*
X491354Y72526D01*
X491357Y72539D01*
X491363Y72551D01*
X491413Y72733D01*
X491465Y72913D01*
X491466Y72927D01*
X491470Y72940D01*
X491483Y73126D01*
X491498Y73315D01*
X491496Y73328D01*
X491497Y73341D01*
X491473Y73528D01*
X491451Y73714D01*
X491447Y73727D01*
X491445Y73740D01*
X491344Y74056D01*
X490727Y75544D01*
X490727Y84789D01*
X490725Y84811D01*
X490727Y84833D01*
X490705Y85011D01*
X490687Y85190D01*
X490681Y85211D01*
X490678Y85233D01*
X490622Y85403D01*
X490569Y85574D01*
X490559Y85594D01*
X490552Y85615D01*
X490463Y85771D01*
X490377Y85929D01*
X490363Y85946D01*
X490352Y85965D01*
X490234Y86100D01*
X490120Y86238D01*
X490102Y86252D01*
X490088Y86269D01*
X489945Y86378D01*
X489806Y86490D01*
X489786Y86500D01*
X489769Y86514D01*
X489559Y86622D01*
X486686Y89494D01*
X485139Y93229D01*
X485139Y97271D01*
X486686Y101006D01*
X489556Y103875D01*
X489670Y103940D01*
X489828Y104025D01*
X489845Y104039D01*
X489865Y104050D01*
X490000Y104167D01*
X490139Y104281D01*
X490153Y104298D01*
X490170Y104313D01*
X490279Y104454D01*
X490392Y104594D01*
X490403Y104613D01*
X490416Y104631D01*
X490496Y104791D01*
X490579Y104950D01*
X490586Y104972D01*
X490596Y104992D01*
X490642Y105165D01*
X490692Y105337D01*
X490694Y105359D01*
X490700Y105380D01*
X490727Y105711D01*
X490727Y116539D01*
X490725Y116561D01*
X490727Y116584D01*
X490705Y116761D01*
X490687Y116940D01*
X490681Y116961D01*
X490678Y116983D01*
X490622Y117153D01*
X490569Y117325D01*
X490559Y117344D01*
X490552Y117365D01*
X490463Y117521D01*
X490377Y117679D01*
X490363Y117696D01*
X490352Y117715D01*
X490234Y117850D01*
X490120Y117988D01*
X490102Y118002D01*
X490088Y118019D01*
X489946Y118128D01*
X489806Y118240D01*
X489786Y118250D01*
X489768Y118264D01*
X489559Y118372D01*
X486686Y121244D01*
X485139Y124979D01*
X485139Y129021D01*
X486686Y132756D01*
X489544Y135614D01*
X493279Y137161D01*
X497321Y137161D01*
X501056Y135614D01*
X503914Y132756D01*
X505461Y129021D01*
X505461Y124979D01*
X503914Y121244D01*
X501044Y118375D01*
X500930Y118310D01*
X500772Y118226D01*
X500755Y118211D01*
X500735Y118200D01*
X500600Y118083D01*
X500462Y117969D01*
X500447Y117952D01*
X500430Y117937D01*
X500321Y117796D01*
X500208Y117657D01*
X500197Y117637D01*
X500184Y117619D01*
X500104Y117459D01*
X500021Y117300D01*
X500014Y117279D01*
X500004Y117258D01*
X499958Y117085D01*
X499908Y116914D01*
X499906Y116891D01*
X499900Y116870D01*
X499873Y116539D01*
X499873Y105711D01*
X499875Y105689D01*
X499873Y105667D01*
X499895Y105489D01*
X499913Y105310D01*
X499919Y105289D01*
X499922Y105267D01*
X499978Y105096D01*
X500031Y104926D01*
X500041Y104906D01*
X500048Y104885D01*
X500137Y104729D01*
X500223Y104571D01*
X500237Y104554D01*
X500248Y104535D01*
X500366Y104400D01*
X500480Y104262D01*
X500498Y104248D01*
X500512Y104231D01*
X500655Y104122D01*
X500794Y104010D01*
X500814Y104000D01*
X500831Y103986D01*
X501041Y103878D01*
X503914Y101006D01*
X505461Y97271D01*
X505461Y93229D01*
X503914Y89494D01*
X501044Y86625D01*
X500930Y86560D01*
X500772Y86475D01*
X500755Y86461D01*
X500735Y86450D01*
X500600Y86333D01*
X500461Y86219D01*
X500447Y86202D01*
X500430Y86187D01*
X500321Y86046D01*
X500208Y85906D01*
X500197Y85887D01*
X500184Y85869D01*
X500104Y85709D01*
X500021Y85550D01*
X500014Y85528D01*
X500004Y85508D01*
X499958Y85335D01*
X499908Y85163D01*
X499906Y85141D01*
X499900Y85120D01*
X499873Y84789D01*
X499873Y83058D01*
X499875Y83040D01*
X499873Y83022D01*
X499894Y82840D01*
X499913Y82657D01*
X499918Y82640D01*
X499920Y82623D01*
X499977Y82448D01*
X500031Y82272D01*
X500039Y82257D01*
X500045Y82240D01*
X500135Y82080D01*
X500223Y81918D01*
X500234Y81905D01*
X500243Y81889D01*
X500363Y81750D01*
X500480Y81609D01*
X500494Y81598D01*
X500506Y81584D01*
X500651Y81472D01*
X500794Y81357D01*
X500810Y81349D01*
X500824Y81338D01*
X500989Y81256D01*
X501151Y81171D01*
X501168Y81166D01*
X501184Y81158D01*
X501363Y81111D01*
X501538Y81060D01*
X501556Y81058D01*
X501573Y81054D01*
X501904Y81027D01*
X559270Y81027D01*
X560951Y80331D01*
X598522Y42760D01*
X598542Y42743D01*
X598560Y42722D01*
X598698Y42615D01*
X598833Y42505D01*
X598857Y42492D01*
X598878Y42476D01*
X599035Y42398D01*
X599189Y42316D01*
X599214Y42308D01*
X599238Y42296D01*
X599408Y42251D01*
X599575Y42201D01*
X599601Y42199D01*
X599627Y42192D01*
X599958Y42165D01*
X615560Y42165D01*
X617240Y41469D01*
X618812Y39897D01*
X625533Y33175D01*
X625547Y33164D01*
X625559Y33151D01*
X625703Y33037D01*
X625845Y32920D01*
X625861Y32912D01*
X625875Y32901D01*
X626039Y32818D01*
X626201Y32732D01*
X626218Y32727D01*
X626234Y32719D01*
X626411Y32669D01*
X626587Y32617D01*
X626604Y32615D01*
X626622Y32611D01*
X626805Y32597D01*
X626988Y32581D01*
X627005Y32583D01*
X627023Y32581D01*
X627205Y32604D01*
X627388Y32624D01*
X627405Y32629D01*
X627422Y32632D01*
X627596Y32690D01*
X627772Y32746D01*
X627787Y32754D01*
X627804Y32760D01*
X627964Y32852D01*
X628124Y32940D01*
X628137Y32952D01*
X628153Y32961D01*
X628349Y33127D01*
X629675Y34090D01*
X631100Y34816D01*
X632461Y35259D01*
X632461Y25908D01*
X632462Y25890D01*
X632461Y25873D01*
X632482Y25690D01*
X632501Y25508D01*
X632506Y25491D01*
X632508Y25473D01*
X632533Y25395D01*
X632494Y25258D01*
X632492Y25240D01*
X632488Y25223D01*
X632461Y24892D01*
X632461Y15541D01*
X631100Y15984D01*
X629675Y16710D01*
X628374Y17655D01*
X628237Y17763D01*
X628095Y17880D01*
X628079Y17888D01*
X628065Y17899D01*
X627900Y17983D01*
X627739Y18068D01*
X627722Y18073D01*
X627706Y18081D01*
X627528Y18131D01*
X627353Y18183D01*
X627335Y18185D01*
X627318Y18189D01*
X627135Y18203D01*
X626952Y18219D01*
X626934Y18217D01*
X626916Y18219D01*
X626734Y18196D01*
X626552Y18176D01*
X626535Y18171D01*
X626517Y18168D01*
X626343Y18110D01*
X626168Y18054D01*
X626152Y18046D01*
X626135Y18040D01*
X625976Y17948D01*
X625816Y17860D01*
X625802Y17848D01*
X625786Y17839D01*
X625533Y17625D01*
X612208Y4299D01*
X610636Y2727D01*
X608956Y2031D01*
X575505Y2031D01*
G37*
%LPD*%
%LPC*%
G36*
X316608Y153009D02*
X316608Y153009D01*
X315119Y154498D01*
X315119Y176602D01*
X315331Y176814D01*
X315333Y176816D01*
X315335Y176818D01*
X315344Y176829D01*
X315355Y176839D01*
X315469Y176983D01*
X315586Y177125D01*
X315594Y177141D01*
X315605Y177155D01*
X315688Y177318D01*
X315774Y177481D01*
X315779Y177498D01*
X315787Y177514D01*
X315837Y177691D01*
X315889Y177867D01*
X315891Y177885D01*
X315895Y177902D01*
X315909Y178085D01*
X315925Y178268D01*
X315923Y178285D01*
X315925Y178303D01*
X315902Y178485D01*
X315882Y178668D01*
X315877Y178685D01*
X315874Y178703D01*
X315816Y178877D01*
X315761Y179052D01*
X315752Y179067D01*
X315746Y179084D01*
X315654Y179244D01*
X315566Y179404D01*
X315554Y179418D01*
X315545Y179433D01*
X315331Y179686D01*
X315119Y179898D01*
X315119Y184955D01*
X315100Y185145D01*
X315082Y185343D01*
X315080Y185349D01*
X315079Y185355D01*
X315022Y185541D01*
X314966Y185729D01*
X314963Y185734D01*
X314961Y185740D01*
X314868Y185913D01*
X314776Y186084D01*
X314772Y186089D01*
X314769Y186094D01*
X314743Y186126D01*
X314570Y186344D01*
X272593Y231132D01*
X272549Y231171D01*
X272509Y231217D01*
X272397Y231304D01*
X272290Y231397D01*
X272239Y231427D01*
X272191Y231463D01*
X272064Y231527D01*
X271941Y231597D01*
X271884Y231616D01*
X271831Y231643D01*
X271693Y231680D01*
X271559Y231724D01*
X271500Y231732D01*
X271442Y231747D01*
X271240Y231764D01*
X271159Y231774D01*
X271138Y231772D01*
X271111Y231774D01*
X146699Y231774D01*
X142031Y233708D01*
X138458Y237281D01*
X136524Y241949D01*
X136524Y247001D01*
X138458Y251669D01*
X142031Y255242D01*
X142864Y255588D01*
X146699Y257176D01*
X274812Y257176D01*
X275012Y257196D01*
X275209Y257215D01*
X275211Y257215D01*
X275212Y257216D01*
X275227Y257220D01*
X275339Y257252D01*
X277668Y257177D01*
X277697Y257179D01*
X277734Y257176D01*
X280075Y257176D01*
X280258Y257120D01*
X280260Y257120D01*
X280262Y257119D01*
X280276Y257118D01*
X280393Y257104D01*
X282516Y256144D01*
X282543Y256134D01*
X282576Y256118D01*
X284739Y255222D01*
X284887Y255100D01*
X284889Y255099D01*
X284890Y255098D01*
X284903Y255091D01*
X285006Y255034D01*
X286599Y253334D01*
X286621Y253315D01*
X286644Y253287D01*
X288300Y251631D01*
X288390Y251462D01*
X288392Y251461D01*
X288392Y251459D01*
X288402Y251448D01*
X288597Y251203D01*
X332712Y204133D01*
X332756Y204094D01*
X332795Y204048D01*
X332908Y203961D01*
X333015Y203868D01*
X333066Y203838D01*
X333114Y203802D01*
X333241Y203738D01*
X333364Y203668D01*
X333421Y203649D01*
X333474Y203622D01*
X333611Y203585D01*
X333746Y203541D01*
X333805Y203533D01*
X333863Y203518D01*
X334065Y203501D01*
X334146Y203491D01*
X334167Y203493D01*
X334194Y203491D01*
X338712Y203491D01*
X340201Y202002D01*
X340201Y194058D01*
X340221Y193855D01*
X340240Y193661D01*
X340240Y193659D01*
X340241Y193657D01*
X340245Y193643D01*
X340331Y193342D01*
X340436Y193064D01*
X340269Y187923D01*
X340253Y187874D01*
X340245Y187810D01*
X340228Y187748D01*
X340212Y187558D01*
X340202Y187474D01*
X340203Y187449D01*
X340201Y187417D01*
X340201Y179898D01*
X339989Y179686D01*
X339978Y179672D01*
X339965Y179661D01*
X339850Y179517D01*
X339734Y179375D01*
X339726Y179359D01*
X339715Y179345D01*
X339631Y179181D01*
X339546Y179019D01*
X339541Y179002D01*
X339533Y178986D01*
X339483Y178808D01*
X339431Y178633D01*
X339429Y178615D01*
X339425Y178598D01*
X339411Y178415D01*
X339395Y178232D01*
X339397Y178214D01*
X339395Y178197D01*
X339418Y178015D01*
X339438Y177832D01*
X339443Y177815D01*
X339446Y177797D01*
X339504Y177624D01*
X339559Y177448D01*
X339568Y177432D01*
X339574Y177416D01*
X339666Y177256D01*
X339754Y177096D01*
X339766Y177082D01*
X339775Y177067D01*
X339989Y176814D01*
X340201Y176602D01*
X340201Y154498D01*
X338712Y153009D01*
X316608Y153009D01*
G37*
%LPD*%
%LPC*%
G36*
X90384Y153563D02*
X90384Y153563D01*
X86417Y156692D01*
X83949Y161101D01*
X83357Y166119D01*
X83730Y167442D01*
X83745Y167527D01*
X83770Y167611D01*
X83780Y167725D01*
X83800Y167838D01*
X83798Y167925D01*
X83806Y168012D01*
X83794Y168126D01*
X83791Y168241D01*
X83772Y168325D01*
X83763Y168412D01*
X83728Y168522D01*
X83703Y168634D01*
X83668Y168713D01*
X83641Y168796D01*
X83586Y168896D01*
X83539Y169001D01*
X83489Y169072D01*
X83447Y169148D01*
X83372Y169235D01*
X83306Y169329D01*
X83242Y169389D01*
X83186Y169455D01*
X83096Y169526D01*
X83012Y169605D01*
X82938Y169651D01*
X82870Y169705D01*
X82768Y169757D01*
X82670Y169817D01*
X82589Y169848D01*
X82511Y169887D01*
X82400Y169918D01*
X82293Y169958D01*
X82207Y169972D01*
X82123Y169995D01*
X82008Y170003D01*
X81895Y170021D01*
X81809Y170018D01*
X81722Y170024D01*
X81608Y170010D01*
X81493Y170005D01*
X81409Y169985D01*
X81322Y169974D01*
X81213Y169937D01*
X81102Y169910D01*
X81023Y169873D01*
X80941Y169846D01*
X80841Y169788D01*
X80737Y169740D01*
X80667Y169688D01*
X80592Y169645D01*
X80481Y169551D01*
X80413Y169501D01*
X80383Y169468D01*
X80339Y169430D01*
X78964Y168056D01*
X74740Y166306D01*
X52260Y166306D01*
X48036Y168056D01*
X44802Y171289D01*
X43052Y175514D01*
X43052Y180086D01*
X44802Y184311D01*
X48036Y187544D01*
X52260Y189294D01*
X74740Y189294D01*
X78964Y187544D01*
X82198Y184311D01*
X83948Y180086D01*
X83948Y175846D01*
X83960Y175719D01*
X83964Y175590D01*
X83980Y175519D01*
X83988Y175446D01*
X84025Y175323D01*
X84054Y175198D01*
X84084Y175131D01*
X84106Y175061D01*
X84167Y174948D01*
X84220Y174831D01*
X84263Y174771D01*
X84298Y174707D01*
X84380Y174608D01*
X84454Y174504D01*
X84508Y174454D01*
X84555Y174397D01*
X84655Y174317D01*
X84749Y174230D01*
X84812Y174191D01*
X84869Y174145D01*
X84983Y174086D01*
X85092Y174019D01*
X85161Y173993D01*
X85226Y173960D01*
X85349Y173924D01*
X85470Y173880D01*
X85543Y173868D01*
X85613Y173848D01*
X85741Y173838D01*
X85868Y173818D01*
X85941Y173821D01*
X86015Y173815D01*
X86142Y173830D01*
X86270Y173836D01*
X86341Y173854D01*
X86414Y173862D01*
X86536Y173902D01*
X86661Y173933D01*
X86727Y173964D01*
X86797Y173987D01*
X86909Y174050D01*
X87025Y174105D01*
X87084Y174149D01*
X87148Y174185D01*
X87245Y174269D01*
X87348Y174345D01*
X87406Y174408D01*
X87452Y174448D01*
X87498Y174507D01*
X87574Y174588D01*
X87858Y174949D01*
X92267Y177417D01*
X96561Y177924D01*
X96672Y177948D01*
X96784Y177963D01*
X96884Y177995D01*
X96954Y178010D01*
X97014Y178037D01*
X97100Y178064D01*
X97550Y178251D01*
X99209Y178251D01*
X99295Y178259D01*
X99447Y178265D01*
X101095Y178459D01*
X101564Y178327D01*
X101675Y178307D01*
X101785Y178278D01*
X101889Y178269D01*
X101960Y178257D01*
X102025Y178258D01*
X102116Y178251D01*
X127508Y178251D01*
X127526Y178253D01*
X127544Y178251D01*
X127726Y178272D01*
X127909Y178291D01*
X127926Y178296D01*
X127943Y178298D01*
X128118Y178355D01*
X128294Y178409D01*
X128309Y178417D01*
X128326Y178423D01*
X128486Y178513D01*
X128648Y178601D01*
X128661Y178612D01*
X128677Y178621D01*
X128816Y178741D01*
X128957Y178858D01*
X128968Y178872D01*
X128982Y178884D01*
X129094Y179029D01*
X129209Y179172D01*
X129217Y179188D01*
X129228Y179202D01*
X129310Y179367D01*
X129395Y179529D01*
X129400Y179546D01*
X129408Y179562D01*
X129455Y179741D01*
X129506Y179916D01*
X129508Y179934D01*
X129512Y179951D01*
X129539Y180282D01*
X129539Y193476D01*
X129545Y193489D01*
X129554Y193519D01*
X129568Y193547D01*
X129612Y193712D01*
X129661Y193875D01*
X129664Y193906D01*
X129672Y193936D01*
X129699Y194267D01*
X129699Y202002D01*
X131188Y203491D01*
X138923Y203491D01*
X138955Y203494D01*
X138986Y203492D01*
X139154Y203514D01*
X139324Y203531D01*
X139354Y203540D01*
X139385Y203544D01*
X139701Y203645D01*
X139714Y203651D01*
X144766Y203651D01*
X144779Y203645D01*
X144809Y203636D01*
X144837Y203622D01*
X145002Y203578D01*
X145165Y203529D01*
X145196Y203526D01*
X145226Y203518D01*
X145557Y203491D01*
X153292Y203491D01*
X154781Y202002D01*
X154781Y194267D01*
X154784Y194235D01*
X154782Y194204D01*
X154804Y194036D01*
X154821Y193866D01*
X154830Y193836D01*
X154834Y193805D01*
X154935Y193489D01*
X154941Y193476D01*
X154941Y163024D01*
X154935Y163011D01*
X154926Y162981D01*
X154912Y162953D01*
X154868Y162788D01*
X154819Y162625D01*
X154816Y162594D01*
X154808Y162564D01*
X154781Y162233D01*
X154781Y154498D01*
X153292Y153009D01*
X145557Y153009D01*
X145525Y153006D01*
X145494Y153008D01*
X145326Y152986D01*
X145156Y152969D01*
X145126Y152960D01*
X145095Y152956D01*
X144779Y152855D01*
X144766Y152849D01*
X100943Y152849D01*
X100857Y152841D01*
X100705Y152835D01*
X95247Y152191D01*
X90384Y153563D01*
G37*
%LPD*%
%LPC*%
G36*
X188479Y116839D02*
X188479Y116839D01*
X184744Y118386D01*
X181886Y121244D01*
X180339Y124979D01*
X180339Y129021D01*
X181886Y132756D01*
X184996Y135865D01*
X185007Y135879D01*
X185020Y135890D01*
X185134Y136035D01*
X185251Y136177D01*
X185259Y136192D01*
X185270Y136206D01*
X185354Y136371D01*
X185439Y136532D01*
X185444Y136549D01*
X185452Y136565D01*
X185502Y136743D01*
X185554Y136918D01*
X185556Y136936D01*
X185560Y136953D01*
X185574Y137136D01*
X185590Y137319D01*
X185589Y137337D01*
X185590Y137355D01*
X185567Y137537D01*
X185547Y137719D01*
X185542Y137736D01*
X185539Y137754D01*
X185481Y137928D01*
X185426Y138103D01*
X185417Y138119D01*
X185411Y138136D01*
X185319Y138295D01*
X185231Y138456D01*
X185219Y138469D01*
X185210Y138485D01*
X184996Y138738D01*
X162795Y160938D01*
X161223Y162510D01*
X160527Y164190D01*
X160527Y206815D01*
X160525Y206841D01*
X160527Y206868D01*
X160505Y207042D01*
X160487Y207215D01*
X160480Y207241D01*
X160476Y207267D01*
X160421Y207433D01*
X160369Y207600D01*
X160356Y207624D01*
X160348Y207649D01*
X160261Y207801D01*
X160177Y207954D01*
X160160Y207975D01*
X160147Y207998D01*
X159932Y208251D01*
X151101Y217082D01*
X151080Y217099D01*
X151063Y217120D01*
X150925Y217227D01*
X150789Y217337D01*
X150766Y217350D01*
X150745Y217366D01*
X150588Y217444D01*
X150434Y217526D01*
X150408Y217534D01*
X150384Y217546D01*
X150215Y217591D01*
X150048Y217641D01*
X150021Y217643D01*
X149995Y217650D01*
X149665Y217677D01*
X132440Y217677D01*
X130760Y218373D01*
X116773Y232360D01*
X116077Y234040D01*
X116077Y344399D01*
X116075Y344425D01*
X116077Y344452D01*
X116055Y344626D01*
X116037Y344800D01*
X116030Y344825D01*
X116026Y344852D01*
X115971Y345017D01*
X115919Y345184D01*
X115906Y345208D01*
X115898Y345233D01*
X115811Y345385D01*
X115727Y345538D01*
X115710Y345559D01*
X115697Y345582D01*
X115508Y345804D01*
X114581Y348043D01*
X114581Y350457D01*
X115505Y352688D01*
X117212Y354395D01*
X119443Y355319D01*
X121857Y355319D01*
X124088Y354395D01*
X125795Y352688D01*
X126719Y350457D01*
X126719Y348043D01*
X125793Y345808D01*
X125780Y345797D01*
X125673Y345659D01*
X125563Y345524D01*
X125550Y345500D01*
X125534Y345479D01*
X125456Y345322D01*
X125374Y345168D01*
X125366Y345142D01*
X125354Y345118D01*
X125309Y344949D01*
X125259Y344782D01*
X125257Y344755D01*
X125250Y344730D01*
X125223Y344399D01*
X125223Y237685D01*
X125225Y237659D01*
X125223Y237632D01*
X125245Y237458D01*
X125263Y237285D01*
X125270Y237259D01*
X125274Y237233D01*
X125329Y237067D01*
X125381Y236900D01*
X125394Y236876D01*
X125402Y236851D01*
X125489Y236699D01*
X125573Y236546D01*
X125590Y236525D01*
X125603Y236502D01*
X125818Y236249D01*
X134649Y227418D01*
X134670Y227401D01*
X134687Y227380D01*
X134825Y227273D01*
X134961Y227163D01*
X134984Y227150D01*
X135005Y227134D01*
X135162Y227056D01*
X135316Y226974D01*
X135342Y226966D01*
X135366Y226954D01*
X135535Y226909D01*
X135702Y226859D01*
X135729Y226857D01*
X135755Y226850D01*
X136085Y226823D01*
X153310Y226823D01*
X154990Y226127D01*
X168977Y212140D01*
X169673Y210460D01*
X169673Y167835D01*
X169675Y167809D01*
X169673Y167782D01*
X169695Y167608D01*
X169713Y167435D01*
X169720Y167409D01*
X169724Y167383D01*
X169779Y167217D01*
X169831Y167050D01*
X169844Y167026D01*
X169852Y167001D01*
X169939Y166849D01*
X170023Y166696D01*
X170040Y166675D01*
X170053Y166652D01*
X170268Y166399D01*
X194377Y142290D01*
X195073Y140610D01*
X195073Y137461D01*
X195075Y137439D01*
X195073Y137417D01*
X195095Y137239D01*
X195113Y137060D01*
X195119Y137039D01*
X195122Y137017D01*
X195178Y136846D01*
X195231Y136676D01*
X195241Y136656D01*
X195248Y136635D01*
X195337Y136479D01*
X195423Y136321D01*
X195437Y136304D01*
X195448Y136285D01*
X195566Y136150D01*
X195680Y136012D01*
X195698Y135998D01*
X195712Y135981D01*
X195855Y135872D01*
X195994Y135760D01*
X196014Y135750D01*
X196031Y135736D01*
X196241Y135628D01*
X199114Y132756D01*
X200661Y129021D01*
X200661Y124979D01*
X199114Y121244D01*
X196256Y118386D01*
X192521Y116839D01*
X188479Y116839D01*
G37*
%LPD*%
%LPC*%
G36*
X425513Y425731D02*
X425513Y425731D01*
X423282Y426655D01*
X421575Y428362D01*
X420651Y430593D01*
X420651Y433007D01*
X421575Y435238D01*
X423282Y436945D01*
X425513Y437869D01*
X427927Y437869D01*
X430162Y436943D01*
X430173Y436930D01*
X430311Y436823D01*
X430446Y436713D01*
X430470Y436700D01*
X430491Y436684D01*
X430648Y436606D01*
X430802Y436524D01*
X430828Y436516D01*
X430852Y436504D01*
X431021Y436459D01*
X431188Y436409D01*
X431215Y436407D01*
X431240Y436400D01*
X431571Y436373D01*
X433829Y436373D01*
X433842Y436374D01*
X433855Y436373D01*
X434042Y436394D01*
X434229Y436413D01*
X434242Y436417D01*
X434255Y436418D01*
X434433Y436475D01*
X434614Y436531D01*
X434626Y436537D01*
X434639Y436541D01*
X434802Y436633D01*
X434968Y436723D01*
X434978Y436731D01*
X434990Y436738D01*
X435133Y436860D01*
X435277Y436980D01*
X435286Y436991D01*
X435296Y436999D01*
X435412Y437148D01*
X435530Y437294D01*
X435536Y437306D01*
X435544Y437316D01*
X435629Y437486D01*
X435715Y437651D01*
X435719Y437664D01*
X435725Y437676D01*
X435774Y437857D01*
X435827Y438038D01*
X435828Y438052D01*
X435831Y438065D01*
X435844Y438252D01*
X435860Y438440D01*
X435858Y438453D01*
X435859Y438466D01*
X435834Y438654D01*
X435813Y438839D01*
X435808Y438852D01*
X435807Y438865D01*
X435705Y439181D01*
X434339Y442479D01*
X434339Y446538D01*
X434375Y446664D01*
X434426Y446835D01*
X434428Y446858D01*
X434434Y446879D01*
X434448Y447059D01*
X434464Y447236D01*
X434462Y447258D01*
X434464Y447281D01*
X434441Y447459D01*
X434423Y447637D01*
X434416Y447658D01*
X434413Y447680D01*
X434356Y447849D01*
X434303Y448021D01*
X434292Y448041D01*
X434285Y448062D01*
X434196Y448217D01*
X434110Y448374D01*
X434095Y448391D01*
X434084Y448411D01*
X433870Y448664D01*
X423264Y459270D01*
X423246Y459284D01*
X423232Y459301D01*
X423091Y459411D01*
X422952Y459525D01*
X422933Y459535D01*
X422915Y459549D01*
X422754Y459630D01*
X422596Y459713D01*
X422575Y459720D01*
X422555Y459730D01*
X422382Y459777D01*
X422211Y459828D01*
X422188Y459830D01*
X422167Y459836D01*
X421989Y459848D01*
X421810Y459864D01*
X421787Y459862D01*
X421765Y459863D01*
X421588Y459840D01*
X421409Y459821D01*
X421388Y459814D01*
X421366Y459811D01*
X421142Y459739D01*
X417079Y459739D01*
X413344Y461286D01*
X410486Y464144D01*
X408939Y467879D01*
X408939Y471921D01*
X410486Y475656D01*
X413344Y478514D01*
X417079Y480061D01*
X421121Y480061D01*
X424856Y478514D01*
X427714Y475656D01*
X429261Y471921D01*
X429261Y467862D01*
X429225Y467735D01*
X429174Y467565D01*
X429172Y467543D01*
X429166Y467521D01*
X429152Y467341D01*
X429136Y467164D01*
X429138Y467142D01*
X429136Y467119D01*
X429159Y466941D01*
X429177Y466763D01*
X429184Y466742D01*
X429187Y466720D01*
X429244Y466550D01*
X429297Y466379D01*
X429308Y466359D01*
X429315Y466338D01*
X429404Y466183D01*
X429490Y466026D01*
X429505Y466009D01*
X429516Y465989D01*
X429730Y465736D01*
X431892Y463574D01*
X431896Y463572D01*
X431899Y463568D01*
X432052Y463443D01*
X432204Y463319D01*
X432208Y463317D01*
X432211Y463314D01*
X432389Y463221D01*
X432560Y463131D01*
X432564Y463129D01*
X432568Y463127D01*
X432758Y463072D01*
X432946Y463016D01*
X432950Y463015D01*
X432954Y463014D01*
X433146Y462998D01*
X433346Y462979D01*
X433351Y462980D01*
X433355Y462980D01*
X433546Y463001D01*
X433747Y463023D01*
X433751Y463024D01*
X433755Y463025D01*
X433941Y463084D01*
X434131Y463144D01*
X434134Y463147D01*
X434139Y463148D01*
X434310Y463243D01*
X434483Y463339D01*
X434486Y463342D01*
X434490Y463344D01*
X434638Y463471D01*
X434790Y463600D01*
X434793Y463603D01*
X434796Y463606D01*
X434918Y463762D01*
X435040Y463916D01*
X435042Y463920D01*
X435044Y463923D01*
X435133Y464100D01*
X435222Y464275D01*
X435223Y464279D01*
X435225Y464283D01*
X435277Y464473D01*
X435330Y464662D01*
X435330Y464667D01*
X435331Y464671D01*
X435345Y464867D01*
X435359Y465064D01*
X435359Y465068D01*
X435359Y465073D01*
X435333Y465269D01*
X435309Y465463D01*
X435307Y465468D01*
X435307Y465472D01*
X435205Y465788D01*
X434339Y467879D01*
X434339Y471921D01*
X435886Y475656D01*
X438744Y478514D01*
X442479Y480061D01*
X446521Y480061D01*
X450256Y478514D01*
X453114Y475656D01*
X454661Y471921D01*
X454661Y467879D01*
X453795Y465788D01*
X453793Y465784D01*
X453791Y465780D01*
X453734Y465588D01*
X453678Y465403D01*
X453678Y465398D01*
X453676Y465394D01*
X453658Y465191D01*
X453640Y465002D01*
X453640Y464998D01*
X453640Y464993D01*
X453662Y464794D01*
X453682Y464601D01*
X453683Y464597D01*
X453683Y464593D01*
X453744Y464402D01*
X453802Y464217D01*
X453804Y464213D01*
X453805Y464209D01*
X453901Y464035D01*
X453995Y463864D01*
X453998Y463860D01*
X454000Y463856D01*
X454127Y463707D01*
X454254Y463556D01*
X454257Y463553D01*
X454260Y463549D01*
X454414Y463428D01*
X454569Y463305D01*
X454573Y463303D01*
X454576Y463300D01*
X454752Y463211D01*
X454927Y463121D01*
X454931Y463120D01*
X454935Y463118D01*
X455127Y463064D01*
X455314Y463011D01*
X455319Y463011D01*
X455323Y463010D01*
X455524Y462995D01*
X455716Y462980D01*
X455720Y462980D01*
X455725Y462980D01*
X455923Y463005D01*
X456115Y463029D01*
X456120Y463030D01*
X456124Y463031D01*
X456310Y463093D01*
X456498Y463155D01*
X456501Y463157D01*
X456506Y463159D01*
X456678Y463258D01*
X456847Y463355D01*
X456851Y463357D01*
X456855Y463360D01*
X457108Y463574D01*
X459270Y465736D01*
X459284Y465754D01*
X459301Y465768D01*
X459411Y465909D01*
X459525Y466048D01*
X459535Y466067D01*
X459549Y466085D01*
X459630Y466246D01*
X459713Y466404D01*
X459720Y466425D01*
X459730Y466445D01*
X459777Y466618D01*
X459828Y466789D01*
X459830Y466812D01*
X459836Y466833D01*
X459848Y467011D01*
X459864Y467190D01*
X459862Y467213D01*
X459863Y467235D01*
X459840Y467412D01*
X459821Y467591D01*
X459814Y467612D01*
X459811Y467634D01*
X459739Y467858D01*
X459739Y471921D01*
X461286Y475656D01*
X464144Y478514D01*
X467879Y480061D01*
X471921Y480061D01*
X475656Y478514D01*
X478514Y475656D01*
X480061Y471921D01*
X480061Y467879D01*
X478514Y464144D01*
X475656Y461286D01*
X471921Y459739D01*
X467862Y459739D01*
X467736Y459775D01*
X467565Y459826D01*
X467542Y459828D01*
X467521Y459834D01*
X467341Y459848D01*
X467164Y459864D01*
X467142Y459862D01*
X467119Y459864D01*
X466941Y459841D01*
X466763Y459823D01*
X466742Y459816D01*
X466720Y459813D01*
X466551Y459756D01*
X466379Y459703D01*
X466359Y459692D01*
X466338Y459685D01*
X466183Y459596D01*
X466026Y459510D01*
X466009Y459495D01*
X465989Y459484D01*
X465736Y459270D01*
X463574Y457108D01*
X463572Y457104D01*
X463568Y457101D01*
X463443Y456948D01*
X463319Y456796D01*
X463317Y456792D01*
X463314Y456789D01*
X463221Y456611D01*
X463131Y456440D01*
X463129Y456436D01*
X463127Y456432D01*
X463071Y456241D01*
X463016Y456054D01*
X463016Y456050D01*
X463014Y456046D01*
X462998Y455853D01*
X462980Y455653D01*
X462980Y455649D01*
X462980Y455645D01*
X463001Y455455D01*
X463023Y455253D01*
X463024Y455249D01*
X463025Y455245D01*
X463084Y455062D01*
X463144Y454869D01*
X463147Y454865D01*
X463148Y454861D01*
X463245Y454688D01*
X463339Y454517D01*
X463342Y454514D01*
X463344Y454510D01*
X463474Y454358D01*
X463600Y454210D01*
X463603Y454207D01*
X463606Y454204D01*
X463762Y454082D01*
X463916Y453960D01*
X463920Y453958D01*
X463923Y453956D01*
X464100Y453867D01*
X464275Y453778D01*
X464279Y453777D01*
X464283Y453775D01*
X464473Y453723D01*
X464662Y453670D01*
X464667Y453670D01*
X464671Y453669D01*
X464864Y453655D01*
X465064Y453641D01*
X465069Y453641D01*
X465073Y453641D01*
X465266Y453666D01*
X465463Y453691D01*
X465468Y453693D01*
X465472Y453693D01*
X465788Y453795D01*
X467879Y454661D01*
X471921Y454661D01*
X475656Y453114D01*
X478514Y450256D01*
X480061Y446521D01*
X480061Y442479D01*
X478514Y438744D01*
X475656Y435886D01*
X471921Y434339D01*
X467879Y434339D01*
X464121Y435896D01*
X464041Y435959D01*
X463899Y436076D01*
X463883Y436084D01*
X463869Y436095D01*
X463706Y436178D01*
X463543Y436264D01*
X463526Y436269D01*
X463510Y436277D01*
X463333Y436327D01*
X463157Y436379D01*
X463139Y436381D01*
X463122Y436385D01*
X462939Y436399D01*
X462756Y436415D01*
X462738Y436414D01*
X462720Y436415D01*
X462538Y436392D01*
X462356Y436372D01*
X462339Y436367D01*
X462321Y436364D01*
X462146Y436306D01*
X461972Y436251D01*
X461956Y436242D01*
X461939Y436236D01*
X461780Y436144D01*
X461620Y436056D01*
X461606Y436044D01*
X461590Y436035D01*
X461337Y435821D01*
X453440Y427923D01*
X451760Y427227D01*
X431571Y427227D01*
X431545Y427225D01*
X431518Y427227D01*
X431344Y427205D01*
X431170Y427187D01*
X431145Y427180D01*
X431118Y427176D01*
X430953Y427121D01*
X430786Y427069D01*
X430762Y427056D01*
X430737Y427048D01*
X430585Y426961D01*
X430432Y426877D01*
X430411Y426860D01*
X430388Y426847D01*
X430166Y426658D01*
X427927Y425731D01*
X425513Y425731D01*
G37*
%LPD*%
%LPC*%
G36*
X404379Y272414D02*
X404379Y272414D01*
X400644Y273961D01*
X397786Y276819D01*
X396239Y280554D01*
X396239Y284613D01*
X396275Y284739D01*
X396326Y284910D01*
X396328Y284933D01*
X396334Y284954D01*
X396347Y285133D01*
X396364Y285311D01*
X396362Y285333D01*
X396364Y285356D01*
X396341Y285534D01*
X396323Y285712D01*
X396316Y285733D01*
X396313Y285755D01*
X396256Y285924D01*
X396203Y286096D01*
X396192Y286116D01*
X396185Y286137D01*
X396096Y286292D01*
X396010Y286449D01*
X395995Y286466D01*
X395984Y286486D01*
X395770Y286739D01*
X390331Y292177D01*
X389635Y293857D01*
X389635Y321872D01*
X390331Y323553D01*
X391903Y325125D01*
X395834Y329055D01*
X395848Y329073D01*
X395865Y329087D01*
X395976Y329228D01*
X396089Y329367D01*
X396100Y329387D01*
X396113Y329404D01*
X396194Y329565D01*
X396278Y329723D01*
X396284Y329744D01*
X396294Y329764D01*
X396342Y329937D01*
X396393Y330109D01*
X396395Y330131D01*
X396400Y330152D01*
X396413Y330330D01*
X396429Y330510D01*
X396427Y330532D01*
X396428Y330554D01*
X396405Y330730D01*
X396386Y330910D01*
X396379Y330931D01*
X396376Y330953D01*
X396274Y331269D01*
X396239Y331354D01*
X396239Y335396D01*
X397786Y339131D01*
X400644Y341989D01*
X404379Y343536D01*
X408421Y343536D01*
X412156Y341989D01*
X415014Y339131D01*
X416561Y335396D01*
X416561Y331354D01*
X415014Y327619D01*
X412156Y324761D01*
X408421Y323214D01*
X404295Y323214D01*
X404221Y323237D01*
X404198Y323239D01*
X404177Y323245D01*
X403997Y323258D01*
X403820Y323275D01*
X403798Y323273D01*
X403775Y323274D01*
X403596Y323252D01*
X403419Y323233D01*
X403398Y323227D01*
X403376Y323224D01*
X403205Y323167D01*
X403035Y323113D01*
X403015Y323103D01*
X402994Y323096D01*
X402838Y323006D01*
X402682Y322920D01*
X402665Y322906D01*
X402645Y322895D01*
X402392Y322680D01*
X400489Y320777D01*
X400409Y320679D01*
X400322Y320588D01*
X400282Y320524D01*
X400234Y320465D01*
X400175Y320354D01*
X400107Y320247D01*
X400081Y320176D01*
X400045Y320110D01*
X400009Y319989D01*
X399964Y319870D01*
X399952Y319796D01*
X399930Y319724D01*
X399919Y319598D01*
X399898Y319473D01*
X399901Y319398D01*
X399894Y319323D01*
X399908Y319197D01*
X399912Y319071D01*
X399929Y318998D01*
X399937Y318922D01*
X399976Y318802D01*
X400005Y318679D01*
X400036Y318611D01*
X400059Y318539D01*
X400120Y318428D01*
X400173Y318313D01*
X400217Y318252D01*
X400254Y318186D01*
X400336Y318090D01*
X400410Y317988D01*
X400465Y317937D01*
X400514Y317879D01*
X400614Y317801D01*
X400706Y317716D01*
X400771Y317676D01*
X400830Y317630D01*
X400943Y317572D01*
X401051Y317507D01*
X401122Y317481D01*
X401189Y317447D01*
X401311Y317413D01*
X401430Y317371D01*
X401504Y317360D01*
X401577Y317339D01*
X401703Y317330D01*
X401828Y317312D01*
X401903Y317315D01*
X401979Y317310D01*
X402104Y317326D01*
X402230Y317332D01*
X402315Y317352D01*
X402378Y317360D01*
X402448Y317384D01*
X402553Y317409D01*
X403861Y317834D01*
X403861Y308483D01*
X403862Y308465D01*
X403861Y308448D01*
X403882Y308265D01*
X403901Y308083D01*
X403906Y308066D01*
X403908Y308048D01*
X403933Y307970D01*
X403894Y307833D01*
X403892Y307815D01*
X403888Y307798D01*
X403861Y307467D01*
X403861Y298116D01*
X402500Y298559D01*
X402475Y298571D01*
X402397Y298602D01*
X402322Y298641D01*
X402210Y298675D01*
X402100Y298717D01*
X402017Y298732D01*
X401936Y298756D01*
X401819Y298767D01*
X401704Y298787D01*
X401620Y298785D01*
X401535Y298792D01*
X401419Y298780D01*
X401301Y298777D01*
X401219Y298758D01*
X401135Y298749D01*
X401023Y298713D01*
X400909Y298687D01*
X400832Y298653D01*
X400751Y298627D01*
X400649Y298571D01*
X400541Y298522D01*
X400473Y298473D01*
X400399Y298433D01*
X400309Y298357D01*
X400214Y298288D01*
X400156Y298227D01*
X400092Y298172D01*
X400019Y298080D01*
X399939Y297994D01*
X399895Y297922D01*
X399842Y297856D01*
X399789Y297751D01*
X399728Y297652D01*
X399698Y297572D01*
X399660Y297497D01*
X399629Y297384D01*
X399588Y297274D01*
X399575Y297191D01*
X399552Y297109D01*
X399544Y296992D01*
X399525Y296876D01*
X399529Y296792D01*
X399523Y296708D01*
X399537Y296591D01*
X399542Y296474D01*
X399563Y296392D01*
X399573Y296308D01*
X399611Y296197D01*
X399639Y296083D01*
X399674Y296007D01*
X399701Y295927D01*
X399760Y295825D01*
X399810Y295719D01*
X399860Y295651D01*
X399902Y295578D01*
X399999Y295464D01*
X400050Y295395D01*
X400081Y295367D01*
X400117Y295325D01*
X402236Y293205D01*
X402254Y293191D01*
X402268Y293174D01*
X402409Y293064D01*
X402548Y292950D01*
X402568Y292940D01*
X402585Y292926D01*
X402745Y292846D01*
X402904Y292762D01*
X402925Y292755D01*
X402945Y292745D01*
X403118Y292698D01*
X403289Y292647D01*
X403312Y292645D01*
X403333Y292639D01*
X403511Y292627D01*
X403690Y292611D01*
X403713Y292613D01*
X403735Y292612D01*
X403912Y292635D01*
X404091Y292654D01*
X404112Y292661D01*
X404134Y292664D01*
X404358Y292736D01*
X408421Y292736D01*
X412156Y291189D01*
X415014Y288331D01*
X416561Y284596D01*
X416561Y280554D01*
X415014Y276819D01*
X412156Y273961D01*
X408421Y272414D01*
X404379Y272414D01*
G37*
%LPD*%
%LPC*%
G36*
X58607Y321817D02*
X58607Y321817D01*
X55433Y323132D01*
X53003Y325562D01*
X51688Y328736D01*
X51688Y344364D01*
X53003Y347538D01*
X55433Y349968D01*
X58607Y351283D01*
X62043Y351283D01*
X65217Y349968D01*
X67647Y347538D01*
X68962Y344364D01*
X68962Y328736D01*
X67647Y325562D01*
X65217Y323132D01*
X62043Y321817D01*
X58607Y321817D01*
G37*
%LPD*%
%LPC*%
G36*
X84007Y321817D02*
X84007Y321817D01*
X80833Y323132D01*
X78403Y325562D01*
X77088Y328736D01*
X77088Y344364D01*
X78403Y347538D01*
X80833Y349968D01*
X84007Y351283D01*
X87443Y351283D01*
X90617Y349968D01*
X93047Y347538D01*
X94362Y344364D01*
X94362Y328736D01*
X93047Y325562D01*
X90617Y323132D01*
X87443Y321817D01*
X84007Y321817D01*
G37*
%LPD*%
%LPC*%
G36*
X620279Y510539D02*
X620279Y510539D01*
X616544Y512086D01*
X613686Y514944D01*
X612139Y518679D01*
X612139Y522721D01*
X613686Y526456D01*
X616544Y529314D01*
X620279Y530861D01*
X624321Y530861D01*
X628056Y529314D01*
X630914Y526456D01*
X632461Y522721D01*
X632461Y518679D01*
X630914Y514944D01*
X628056Y512086D01*
X624321Y510539D01*
X620279Y510539D01*
G37*
%LPD*%
%LPC*%
G36*
X442479Y402589D02*
X442479Y402589D01*
X438744Y404136D01*
X435886Y406994D01*
X434339Y410729D01*
X434339Y414771D01*
X435886Y418506D01*
X438744Y421364D01*
X442479Y422911D01*
X446521Y422911D01*
X450256Y421364D01*
X453114Y418506D01*
X454661Y414771D01*
X454661Y410729D01*
X453114Y406994D01*
X450256Y404136D01*
X446521Y402589D01*
X442479Y402589D01*
G37*
%LPD*%
%LPC*%
G36*
X239279Y40639D02*
X239279Y40639D01*
X235544Y42186D01*
X232686Y45044D01*
X231139Y48779D01*
X231139Y52821D01*
X232686Y56556D01*
X235544Y59414D01*
X239279Y60961D01*
X243321Y60961D01*
X247056Y59414D01*
X249914Y56556D01*
X251461Y52821D01*
X251461Y48779D01*
X249914Y45044D01*
X247056Y42186D01*
X243321Y40639D01*
X239279Y40639D01*
G37*
%LPD*%
%LPC*%
G36*
X213879Y40639D02*
X213879Y40639D01*
X210144Y42186D01*
X207286Y45044D01*
X205739Y48779D01*
X205739Y52821D01*
X207286Y56556D01*
X210144Y59414D01*
X213879Y60961D01*
X217921Y60961D01*
X221656Y59414D01*
X224514Y56556D01*
X226061Y52821D01*
X226061Y48779D01*
X224514Y45044D01*
X221656Y42186D01*
X217921Y40639D01*
X213879Y40639D01*
G37*
%LPD*%
%LPC*%
G36*
X658379Y180339D02*
X658379Y180339D01*
X654644Y181886D01*
X651786Y184744D01*
X650239Y188479D01*
X650239Y192521D01*
X651786Y196256D01*
X654644Y199114D01*
X658379Y200661D01*
X662421Y200661D01*
X666156Y199114D01*
X669014Y196256D01*
X670561Y192521D01*
X670561Y188479D01*
X669014Y184744D01*
X666156Y181886D01*
X662421Y180339D01*
X658379Y180339D01*
G37*
%LPD*%
%LPC*%
G36*
X417079Y402589D02*
X417079Y402589D01*
X413344Y404136D01*
X410486Y406994D01*
X408939Y410729D01*
X408939Y414771D01*
X410486Y418506D01*
X413344Y421364D01*
X417079Y422911D01*
X421121Y422911D01*
X424856Y421364D01*
X427714Y418506D01*
X429261Y414771D01*
X429261Y410729D01*
X427714Y406994D01*
X424856Y404136D01*
X421121Y402589D01*
X417079Y402589D01*
G37*
%LPD*%
%LPC*%
G36*
X404379Y189864D02*
X404379Y189864D01*
X400644Y191411D01*
X397786Y194269D01*
X396239Y198004D01*
X396239Y202046D01*
X397786Y205781D01*
X400644Y208639D01*
X404379Y210186D01*
X408421Y210186D01*
X412156Y208639D01*
X415014Y205781D01*
X416561Y202046D01*
X416561Y198004D01*
X415014Y194269D01*
X412156Y191411D01*
X408421Y189864D01*
X404379Y189864D01*
G37*
%LPD*%
%LPC*%
G36*
X391679Y402589D02*
X391679Y402589D01*
X387944Y404136D01*
X385086Y406994D01*
X383539Y410729D01*
X383539Y414771D01*
X385086Y418506D01*
X387944Y421364D01*
X391679Y422911D01*
X395721Y422911D01*
X399456Y421364D01*
X402314Y418506D01*
X403861Y414771D01*
X403861Y410729D01*
X402314Y406994D01*
X399456Y404136D01*
X395721Y402589D01*
X391679Y402589D01*
G37*
%LPD*%
%LPC*%
G36*
X366279Y402589D02*
X366279Y402589D01*
X362544Y404136D01*
X359686Y406994D01*
X358139Y410729D01*
X358139Y414771D01*
X359686Y418506D01*
X362544Y421364D01*
X366279Y422911D01*
X370321Y422911D01*
X374056Y421364D01*
X376914Y418506D01*
X378461Y414771D01*
X378461Y410729D01*
X376914Y406994D01*
X374056Y404136D01*
X370321Y402589D01*
X366279Y402589D01*
G37*
%LPD*%
%LPC*%
G36*
X340879Y402589D02*
X340879Y402589D01*
X337144Y404136D01*
X334286Y406994D01*
X332739Y410729D01*
X332739Y414771D01*
X334286Y418506D01*
X337144Y421364D01*
X340879Y422911D01*
X344921Y422911D01*
X348656Y421364D01*
X351514Y418506D01*
X353061Y414771D01*
X353061Y410729D01*
X351514Y406994D01*
X348656Y404136D01*
X344921Y402589D01*
X340879Y402589D01*
G37*
%LPD*%
%LPC*%
G36*
X163079Y40639D02*
X163079Y40639D01*
X159344Y42186D01*
X156486Y45044D01*
X154939Y48779D01*
X154939Y52821D01*
X156486Y56556D01*
X159344Y59414D01*
X163079Y60961D01*
X167121Y60961D01*
X170856Y59414D01*
X173714Y56556D01*
X175261Y52821D01*
X175261Y48779D01*
X173714Y45044D01*
X170856Y42186D01*
X167121Y40639D01*
X163079Y40639D01*
G37*
%LPD*%
%LPC*%
G36*
X315479Y402589D02*
X315479Y402589D01*
X311744Y404136D01*
X308886Y406994D01*
X307339Y410729D01*
X307339Y414771D01*
X308886Y418506D01*
X311744Y421364D01*
X315479Y422911D01*
X319521Y422911D01*
X323256Y421364D01*
X326114Y418506D01*
X327661Y414771D01*
X327661Y410729D01*
X326114Y406994D01*
X323256Y404136D01*
X319521Y402589D01*
X315479Y402589D01*
G37*
%LPD*%
%LPC*%
G36*
X137679Y40639D02*
X137679Y40639D01*
X133944Y42186D01*
X131086Y45044D01*
X129539Y48779D01*
X129539Y52821D01*
X131086Y56556D01*
X133944Y59414D01*
X137679Y60961D01*
X141721Y60961D01*
X145456Y59414D01*
X148314Y56556D01*
X149861Y52821D01*
X149861Y48779D01*
X148314Y45044D01*
X145456Y42186D01*
X141721Y40639D01*
X137679Y40639D01*
G37*
%LPD*%
%LPC*%
G36*
X315479Y485139D02*
X315479Y485139D01*
X311744Y486686D01*
X308886Y489544D01*
X307339Y493279D01*
X307339Y497321D01*
X308886Y501056D01*
X311744Y503914D01*
X315479Y505461D01*
X319521Y505461D01*
X323256Y503914D01*
X326114Y501056D01*
X327661Y497321D01*
X327661Y493279D01*
X326114Y489544D01*
X323256Y486686D01*
X319521Y485139D01*
X315479Y485139D01*
G37*
%LPD*%
%LPC*%
G36*
X290079Y402589D02*
X290079Y402589D01*
X286344Y404136D01*
X283486Y406994D01*
X281939Y410729D01*
X281939Y414771D01*
X283486Y418506D01*
X286344Y421364D01*
X290079Y422911D01*
X294121Y422911D01*
X297856Y421364D01*
X300714Y418506D01*
X302261Y414771D01*
X302261Y410729D01*
X300714Y406994D01*
X297856Y404136D01*
X294121Y402589D01*
X290079Y402589D01*
G37*
%LPD*%
%LPC*%
G36*
X112279Y40639D02*
X112279Y40639D01*
X108544Y42186D01*
X105686Y45044D01*
X104139Y48779D01*
X104139Y52821D01*
X105686Y56556D01*
X108544Y59414D01*
X112279Y60961D01*
X116321Y60961D01*
X120056Y59414D01*
X122914Y56556D01*
X124461Y52821D01*
X124461Y48779D01*
X122914Y45044D01*
X120056Y42186D01*
X116321Y40639D01*
X112279Y40639D01*
G37*
%LPD*%
%LPC*%
G36*
X264679Y402589D02*
X264679Y402589D01*
X260944Y404136D01*
X258086Y406994D01*
X256539Y410729D01*
X256539Y414771D01*
X258086Y418506D01*
X260944Y421364D01*
X264679Y422911D01*
X268721Y422911D01*
X272456Y421364D01*
X275314Y418506D01*
X276861Y414771D01*
X276861Y410729D01*
X275314Y406994D01*
X272456Y404136D01*
X268721Y402589D01*
X264679Y402589D01*
G37*
%LPD*%
%LPC*%
G36*
X239279Y402589D02*
X239279Y402589D01*
X235544Y404136D01*
X232686Y406994D01*
X231139Y410729D01*
X231139Y414771D01*
X232686Y418506D01*
X235544Y421364D01*
X239279Y422911D01*
X243321Y422911D01*
X247056Y421364D01*
X249914Y418506D01*
X251461Y414771D01*
X251461Y410729D01*
X249914Y406994D01*
X247056Y404136D01*
X243321Y402589D01*
X239279Y402589D01*
G37*
%LPD*%
%LPC*%
G36*
X239279Y15239D02*
X239279Y15239D01*
X235544Y16786D01*
X232686Y19644D01*
X231139Y23379D01*
X231139Y27421D01*
X232686Y31156D01*
X235544Y34014D01*
X239279Y35561D01*
X243321Y35561D01*
X247056Y34014D01*
X249914Y31156D01*
X251461Y27421D01*
X251461Y23379D01*
X249914Y19644D01*
X247056Y16786D01*
X243321Y15239D01*
X239279Y15239D01*
G37*
%LPD*%
%LPC*%
G36*
X213879Y402589D02*
X213879Y402589D01*
X210144Y404136D01*
X207286Y406994D01*
X205739Y410729D01*
X205739Y414771D01*
X207286Y418506D01*
X210144Y421364D01*
X213879Y422911D01*
X217921Y422911D01*
X221656Y421364D01*
X224514Y418506D01*
X226061Y414771D01*
X226061Y410729D01*
X224514Y406994D01*
X221656Y404136D01*
X217921Y402589D01*
X213879Y402589D01*
G37*
%LPD*%
%LPC*%
G36*
X264679Y15239D02*
X264679Y15239D01*
X260944Y16786D01*
X258086Y19644D01*
X256539Y23379D01*
X256539Y27421D01*
X258086Y31156D01*
X260944Y34014D01*
X264679Y35561D01*
X268721Y35561D01*
X272456Y34014D01*
X275314Y31156D01*
X276861Y27421D01*
X276861Y23379D01*
X275314Y19644D01*
X272456Y16786D01*
X268721Y15239D01*
X264679Y15239D01*
G37*
%LPD*%
%LPC*%
G36*
X188479Y402589D02*
X188479Y402589D01*
X184744Y404136D01*
X181886Y406994D01*
X180339Y410729D01*
X180339Y414771D01*
X181886Y418506D01*
X184744Y421364D01*
X188479Y422911D01*
X192521Y422911D01*
X196256Y421364D01*
X199114Y418506D01*
X200661Y414771D01*
X200661Y410729D01*
X199114Y406994D01*
X196256Y404136D01*
X192521Y402589D01*
X188479Y402589D01*
G37*
%LPD*%
%LPC*%
G36*
X290079Y15239D02*
X290079Y15239D01*
X286344Y16786D01*
X283486Y19644D01*
X281939Y23379D01*
X281939Y27421D01*
X283486Y31156D01*
X286344Y34014D01*
X290079Y35561D01*
X294121Y35561D01*
X297856Y34014D01*
X300714Y31156D01*
X302261Y27421D01*
X302261Y23379D01*
X300714Y19644D01*
X297856Y16786D01*
X294121Y15239D01*
X290079Y15239D01*
G37*
%LPD*%
%LPC*%
G36*
X315479Y459739D02*
X315479Y459739D01*
X311744Y461286D01*
X308886Y464144D01*
X307339Y467879D01*
X307339Y471921D01*
X308886Y475656D01*
X311744Y478514D01*
X315479Y480061D01*
X319521Y480061D01*
X323256Y478514D01*
X326114Y475656D01*
X327661Y471921D01*
X327661Y467879D01*
X326114Y464144D01*
X323256Y461286D01*
X319521Y459739D01*
X315479Y459739D01*
G37*
%LPD*%
%LPC*%
G36*
X137679Y402589D02*
X137679Y402589D01*
X133944Y404136D01*
X131086Y406994D01*
X129539Y410729D01*
X129539Y414771D01*
X131086Y418506D01*
X133944Y421364D01*
X137679Y422911D01*
X141721Y422911D01*
X145456Y421364D01*
X148314Y418506D01*
X149861Y414771D01*
X149861Y410729D01*
X148314Y406994D01*
X145456Y404136D01*
X141721Y402589D01*
X137679Y402589D01*
G37*
%LPD*%
%LPC*%
G36*
X493279Y402589D02*
X493279Y402589D01*
X489544Y404136D01*
X486686Y406994D01*
X485139Y410729D01*
X485139Y414771D01*
X486686Y418506D01*
X489544Y421364D01*
X493279Y422911D01*
X497321Y422911D01*
X501056Y421364D01*
X503914Y418506D01*
X505461Y414771D01*
X505461Y410729D01*
X503914Y406994D01*
X501056Y404136D01*
X497321Y402589D01*
X493279Y402589D01*
G37*
%LPD*%
%LPC*%
G36*
X366279Y15239D02*
X366279Y15239D01*
X362544Y16786D01*
X359686Y19644D01*
X358139Y23379D01*
X358139Y27421D01*
X359686Y31156D01*
X362544Y34014D01*
X366279Y35561D01*
X370321Y35561D01*
X374056Y34014D01*
X376914Y31156D01*
X378461Y27421D01*
X378461Y23379D01*
X376914Y19644D01*
X374056Y16786D01*
X370321Y15239D01*
X366279Y15239D01*
G37*
%LPD*%
%LPC*%
G36*
X467879Y402589D02*
X467879Y402589D01*
X464144Y404136D01*
X461286Y406994D01*
X459739Y410729D01*
X459739Y414771D01*
X461286Y418506D01*
X464144Y421364D01*
X467879Y422911D01*
X471921Y422911D01*
X475656Y421364D01*
X478514Y418506D01*
X480061Y414771D01*
X480061Y410729D01*
X478514Y406994D01*
X475656Y404136D01*
X471921Y402589D01*
X467879Y402589D01*
G37*
%LPD*%
%LPC*%
G36*
X315479Y15239D02*
X315479Y15239D01*
X311744Y16786D01*
X308886Y19644D01*
X307339Y23379D01*
X307339Y27421D01*
X308886Y31156D01*
X311744Y34014D01*
X315479Y35561D01*
X319521Y35561D01*
X323256Y34014D01*
X326114Y31156D01*
X327661Y27421D01*
X327661Y23379D01*
X326114Y19644D01*
X323256Y16786D01*
X319521Y15239D01*
X315479Y15239D01*
G37*
%LPD*%
%LPC*%
G36*
X340879Y15239D02*
X340879Y15239D01*
X337144Y16786D01*
X334286Y19644D01*
X332739Y23379D01*
X332739Y27421D01*
X334286Y31156D01*
X337144Y34014D01*
X340879Y35561D01*
X344921Y35561D01*
X348656Y34014D01*
X351514Y31156D01*
X353061Y27421D01*
X353061Y23379D01*
X351514Y19644D01*
X348656Y16786D01*
X344921Y15239D01*
X340879Y15239D01*
G37*
%LPD*%
%LPC*%
G36*
X213879Y15239D02*
X213879Y15239D01*
X210144Y16786D01*
X207286Y19644D01*
X205739Y23379D01*
X205739Y27421D01*
X207286Y31156D01*
X210144Y34014D01*
X213879Y35561D01*
X217921Y35561D01*
X221656Y34014D01*
X224514Y31156D01*
X226061Y27421D01*
X226061Y23379D01*
X224514Y19644D01*
X221656Y16786D01*
X217921Y15239D01*
X213879Y15239D01*
G37*
%LPD*%
%LPC*%
G36*
X188479Y15239D02*
X188479Y15239D01*
X184744Y16786D01*
X181886Y19644D01*
X180339Y23379D01*
X180339Y27421D01*
X181886Y31156D01*
X184744Y34014D01*
X188479Y35561D01*
X192521Y35561D01*
X196256Y34014D01*
X199114Y31156D01*
X200661Y27421D01*
X200661Y23379D01*
X199114Y19644D01*
X196256Y16786D01*
X192521Y15239D01*
X188479Y15239D01*
G37*
%LPD*%
%LPC*%
G36*
X658379Y281939D02*
X658379Y281939D01*
X654644Y283486D01*
X651786Y286344D01*
X650239Y290079D01*
X650239Y294121D01*
X651786Y297856D01*
X654644Y300714D01*
X658379Y302261D01*
X662421Y302261D01*
X666156Y300714D01*
X669014Y297856D01*
X670561Y294121D01*
X670561Y290079D01*
X669014Y286344D01*
X666156Y283486D01*
X662421Y281939D01*
X658379Y281939D01*
G37*
%LPD*%
%LPC*%
G36*
X163079Y15239D02*
X163079Y15239D01*
X159344Y16786D01*
X156486Y19644D01*
X154939Y23379D01*
X154939Y27421D01*
X156486Y31156D01*
X159344Y34014D01*
X163079Y35561D01*
X167121Y35561D01*
X170856Y34014D01*
X173714Y31156D01*
X175261Y27421D01*
X175261Y23379D01*
X173714Y19644D01*
X170856Y16786D01*
X167121Y15239D01*
X163079Y15239D01*
G37*
%LPD*%
%LPC*%
G36*
X137679Y15239D02*
X137679Y15239D01*
X133944Y16786D01*
X131086Y19644D01*
X129539Y23379D01*
X129539Y27421D01*
X131086Y31156D01*
X133944Y34014D01*
X137679Y35561D01*
X141721Y35561D01*
X145456Y34014D01*
X148314Y31156D01*
X149861Y27421D01*
X149861Y23379D01*
X148314Y19644D01*
X145456Y16786D01*
X141721Y15239D01*
X137679Y15239D01*
G37*
%LPD*%
%LPC*%
G36*
X112279Y15239D02*
X112279Y15239D01*
X108544Y16786D01*
X105686Y19644D01*
X104139Y23379D01*
X104139Y27421D01*
X105686Y31156D01*
X108544Y34014D01*
X112279Y35561D01*
X116321Y35561D01*
X120056Y34014D01*
X122914Y31156D01*
X124461Y27421D01*
X124461Y23379D01*
X122914Y19644D01*
X120056Y16786D01*
X116321Y15239D01*
X112279Y15239D01*
G37*
%LPD*%
%LPC*%
G36*
X86879Y15239D02*
X86879Y15239D01*
X83144Y16786D01*
X80286Y19644D01*
X78739Y23379D01*
X78739Y27421D01*
X80286Y31156D01*
X83144Y34014D01*
X86879Y35561D01*
X90921Y35561D01*
X94656Y34014D01*
X97514Y31156D01*
X99061Y27421D01*
X99061Y23379D01*
X97514Y19644D01*
X94656Y16786D01*
X90921Y15239D01*
X86879Y15239D01*
G37*
%LPD*%
%LPC*%
G36*
X391679Y15239D02*
X391679Y15239D01*
X387944Y16786D01*
X385086Y19644D01*
X383539Y23379D01*
X383539Y27421D01*
X385086Y31156D01*
X387944Y34014D01*
X391679Y35561D01*
X395721Y35561D01*
X399456Y34014D01*
X402314Y31156D01*
X403861Y27421D01*
X403861Y23379D01*
X402314Y19644D01*
X399456Y16786D01*
X395721Y15239D01*
X391679Y15239D01*
G37*
%LPD*%
%LPC*%
G36*
X137679Y370839D02*
X137679Y370839D01*
X133944Y372386D01*
X131086Y375244D01*
X129539Y378979D01*
X129539Y383021D01*
X131086Y386756D01*
X133944Y389614D01*
X137679Y391161D01*
X141721Y391161D01*
X145456Y389614D01*
X148314Y386756D01*
X149861Y383021D01*
X149861Y378979D01*
X148314Y375244D01*
X145456Y372386D01*
X141721Y370839D01*
X137679Y370839D01*
G37*
%LPD*%
%LPC*%
G36*
X188379Y370839D02*
X188379Y370839D01*
X184644Y372386D01*
X181786Y375244D01*
X180239Y378979D01*
X180239Y383021D01*
X181786Y386756D01*
X184644Y389614D01*
X188379Y391161D01*
X192421Y391161D01*
X196156Y389614D01*
X199014Y386756D01*
X200561Y383021D01*
X200561Y378979D01*
X199014Y375244D01*
X196156Y372386D01*
X192421Y370839D01*
X188379Y370839D01*
G37*
%LPD*%
%LPC*%
G36*
X213879Y370839D02*
X213879Y370839D01*
X210144Y372386D01*
X207286Y375244D01*
X205739Y378979D01*
X205739Y383021D01*
X207286Y386756D01*
X210144Y389614D01*
X213879Y391161D01*
X217921Y391161D01*
X221656Y389614D01*
X224514Y386756D01*
X226061Y383021D01*
X226061Y378979D01*
X224514Y375244D01*
X221656Y372386D01*
X217921Y370839D01*
X213879Y370839D01*
G37*
%LPD*%
%LPC*%
G36*
X239279Y370839D02*
X239279Y370839D01*
X235544Y372386D01*
X232686Y375244D01*
X231139Y378979D01*
X231139Y383021D01*
X232686Y386756D01*
X235544Y389614D01*
X239279Y391161D01*
X243321Y391161D01*
X247056Y389614D01*
X249914Y386756D01*
X251461Y383021D01*
X251461Y378979D01*
X249914Y375244D01*
X247056Y372386D01*
X243321Y370839D01*
X239279Y370839D01*
G37*
%LPD*%
%LPC*%
G36*
X264679Y370839D02*
X264679Y370839D01*
X260944Y372386D01*
X258086Y375244D01*
X256539Y378979D01*
X256539Y383021D01*
X258086Y386756D01*
X260944Y389614D01*
X264679Y391161D01*
X268721Y391161D01*
X272456Y389614D01*
X275314Y386756D01*
X276861Y383021D01*
X276861Y378979D01*
X275314Y375244D01*
X272456Y372386D01*
X268721Y370839D01*
X264679Y370839D01*
G37*
%LPD*%
%LPC*%
G36*
X290079Y370839D02*
X290079Y370839D01*
X286344Y372386D01*
X283486Y375244D01*
X281939Y378979D01*
X281939Y383021D01*
X283486Y386756D01*
X286344Y389614D01*
X290079Y391161D01*
X294121Y391161D01*
X297856Y389614D01*
X300714Y386756D01*
X302261Y383021D01*
X302261Y378979D01*
X300714Y375244D01*
X297856Y372386D01*
X294121Y370839D01*
X290079Y370839D01*
G37*
%LPD*%
%LPC*%
G36*
X315479Y370839D02*
X315479Y370839D01*
X311744Y372386D01*
X308886Y375244D01*
X307339Y378979D01*
X307339Y383021D01*
X308886Y386756D01*
X311744Y389614D01*
X315479Y391161D01*
X319521Y391161D01*
X323256Y389614D01*
X326114Y386756D01*
X327661Y383021D01*
X327661Y378979D01*
X326114Y375244D01*
X323256Y372386D01*
X319521Y370839D01*
X315479Y370839D01*
G37*
%LPD*%
%LPC*%
G36*
X340879Y370839D02*
X340879Y370839D01*
X337144Y372386D01*
X334286Y375244D01*
X332739Y378979D01*
X332739Y383021D01*
X334286Y386756D01*
X337144Y389614D01*
X340879Y391161D01*
X344921Y391161D01*
X348656Y389614D01*
X351514Y386756D01*
X353061Y383021D01*
X353061Y378979D01*
X351514Y375244D01*
X348656Y372386D01*
X344921Y370839D01*
X340879Y370839D01*
G37*
%LPD*%
%LPC*%
G36*
X366279Y370839D02*
X366279Y370839D01*
X362544Y372386D01*
X359686Y375244D01*
X358139Y378979D01*
X358139Y383021D01*
X359686Y386756D01*
X362544Y389614D01*
X366279Y391161D01*
X370321Y391161D01*
X374056Y389614D01*
X376914Y386756D01*
X378461Y383021D01*
X378461Y378979D01*
X376914Y375244D01*
X374056Y372386D01*
X370321Y370839D01*
X366279Y370839D01*
G37*
%LPD*%
%LPC*%
G36*
X391679Y370839D02*
X391679Y370839D01*
X387944Y372386D01*
X385086Y375244D01*
X383539Y378979D01*
X383539Y383021D01*
X385086Y386756D01*
X387944Y389614D01*
X391679Y391161D01*
X395721Y391161D01*
X399456Y389614D01*
X402314Y386756D01*
X403861Y383021D01*
X403861Y378979D01*
X402314Y375244D01*
X399456Y372386D01*
X395721Y370839D01*
X391679Y370839D01*
G37*
%LPD*%
%LPC*%
G36*
X417079Y370839D02*
X417079Y370839D01*
X413344Y372386D01*
X410486Y375244D01*
X408939Y378979D01*
X408939Y383021D01*
X410486Y386756D01*
X413344Y389614D01*
X417079Y391161D01*
X421121Y391161D01*
X424856Y389614D01*
X427714Y386756D01*
X429261Y383021D01*
X429261Y378979D01*
X427714Y375244D01*
X424856Y372386D01*
X421121Y370839D01*
X417079Y370839D01*
G37*
%LPD*%
%LPC*%
G36*
X442479Y370839D02*
X442479Y370839D01*
X438744Y372386D01*
X435886Y375244D01*
X434339Y378979D01*
X434339Y383021D01*
X435886Y386756D01*
X438744Y389614D01*
X442479Y391161D01*
X446521Y391161D01*
X450256Y389614D01*
X453114Y386756D01*
X454661Y383021D01*
X454661Y378979D01*
X453114Y375244D01*
X450256Y372386D01*
X446521Y370839D01*
X442479Y370839D01*
G37*
%LPD*%
%LPC*%
G36*
X467879Y370839D02*
X467879Y370839D01*
X464144Y372386D01*
X461286Y375244D01*
X459739Y378979D01*
X459739Y383021D01*
X461286Y386756D01*
X464144Y389614D01*
X467879Y391161D01*
X471921Y391161D01*
X475656Y389614D01*
X478514Y386756D01*
X480061Y383021D01*
X480061Y378979D01*
X478514Y375244D01*
X475656Y372386D01*
X471921Y370839D01*
X467879Y370839D01*
G37*
%LPD*%
%LPC*%
G36*
X493279Y370839D02*
X493279Y370839D01*
X489544Y372386D01*
X486686Y375244D01*
X485139Y378979D01*
X485139Y383021D01*
X486686Y386756D01*
X489544Y389614D01*
X493279Y391161D01*
X497321Y391161D01*
X501056Y389614D01*
X503914Y386756D01*
X505461Y383021D01*
X505461Y378979D01*
X503914Y375244D01*
X501056Y372386D01*
X497321Y370839D01*
X493279Y370839D01*
G37*
%LPD*%
%LPC*%
G36*
X264679Y485139D02*
X264679Y485139D01*
X260944Y486686D01*
X258086Y489544D01*
X256539Y493279D01*
X256539Y497321D01*
X258086Y501056D01*
X260944Y503914D01*
X264679Y505461D01*
X268721Y505461D01*
X272456Y503914D01*
X275314Y501056D01*
X276861Y497321D01*
X276861Y493279D01*
X275314Y489544D01*
X272456Y486686D01*
X268721Y485139D01*
X264679Y485139D01*
G37*
%LPD*%
%LPC*%
G36*
X569479Y485139D02*
X569479Y485139D01*
X565744Y486686D01*
X562886Y489544D01*
X561339Y493279D01*
X561339Y497321D01*
X562886Y501056D01*
X565744Y503914D01*
X569479Y505461D01*
X573521Y505461D01*
X577256Y503914D01*
X580114Y501056D01*
X581661Y497321D01*
X581661Y493279D01*
X580114Y489544D01*
X577256Y486686D01*
X573521Y485139D01*
X569479Y485139D01*
G37*
%LPD*%
%LPC*%
G36*
X239279Y485139D02*
X239279Y485139D01*
X235544Y486686D01*
X232686Y489544D01*
X231139Y493279D01*
X231139Y497321D01*
X232686Y501056D01*
X235544Y503914D01*
X239279Y505461D01*
X243321Y505461D01*
X247056Y503914D01*
X249914Y501056D01*
X251461Y497321D01*
X251461Y493279D01*
X249914Y489544D01*
X247056Y486686D01*
X243321Y485139D01*
X239279Y485139D01*
G37*
%LPD*%
%LPC*%
G36*
X620279Y485139D02*
X620279Y485139D01*
X616544Y486686D01*
X613686Y489544D01*
X612139Y493279D01*
X612139Y497321D01*
X613686Y501056D01*
X616544Y503914D01*
X620279Y505461D01*
X624321Y505461D01*
X628056Y503914D01*
X630914Y501056D01*
X632461Y497321D01*
X632461Y493279D01*
X630914Y489544D01*
X628056Y486686D01*
X624321Y485139D01*
X620279Y485139D01*
G37*
%LPD*%
%LPC*%
G36*
X391679Y485139D02*
X391679Y485139D01*
X387944Y486686D01*
X385086Y489544D01*
X383539Y493279D01*
X383539Y497321D01*
X385086Y501056D01*
X387944Y503914D01*
X391679Y505461D01*
X395721Y505461D01*
X399456Y503914D01*
X402314Y501056D01*
X403861Y497321D01*
X403861Y493279D01*
X402314Y489544D01*
X399456Y486686D01*
X395721Y485139D01*
X391679Y485139D01*
G37*
%LPD*%
%LPC*%
G36*
X188479Y40639D02*
X188479Y40639D01*
X184744Y42186D01*
X181886Y45044D01*
X180339Y48779D01*
X180339Y52821D01*
X181886Y56556D01*
X184744Y59414D01*
X188479Y60961D01*
X192521Y60961D01*
X196256Y59414D01*
X199114Y56556D01*
X200661Y52821D01*
X200661Y48779D01*
X199114Y45044D01*
X196256Y42186D01*
X192521Y40639D01*
X188479Y40639D01*
G37*
%LPD*%
%LPC*%
G36*
X340879Y485139D02*
X340879Y485139D01*
X337144Y486686D01*
X334286Y489544D01*
X332739Y493279D01*
X332739Y497321D01*
X334286Y501056D01*
X337144Y503914D01*
X340879Y505461D01*
X344921Y505461D01*
X348656Y503914D01*
X351514Y501056D01*
X353061Y497321D01*
X353061Y493279D01*
X351514Y489544D01*
X348656Y486686D01*
X344921Y485139D01*
X340879Y485139D01*
G37*
%LPD*%
%LPC*%
G36*
X290079Y485139D02*
X290079Y485139D01*
X286344Y486686D01*
X283486Y489544D01*
X281939Y493279D01*
X281939Y497321D01*
X283486Y501056D01*
X286344Y503914D01*
X290079Y505461D01*
X294121Y505461D01*
X297856Y503914D01*
X300714Y501056D01*
X302261Y497321D01*
X302261Y493279D01*
X300714Y489544D01*
X297856Y486686D01*
X294121Y485139D01*
X290079Y485139D01*
G37*
%LPD*%
%LPC*%
G36*
X366279Y485139D02*
X366279Y485139D01*
X362544Y486686D01*
X359686Y489544D01*
X358139Y493279D01*
X358139Y497321D01*
X359686Y501056D01*
X362544Y503914D01*
X366279Y505461D01*
X370321Y505461D01*
X374056Y503914D01*
X376914Y501056D01*
X378461Y497321D01*
X378461Y493279D01*
X376914Y489544D01*
X374056Y486686D01*
X370321Y485139D01*
X366279Y485139D01*
G37*
%LPD*%
%LPC*%
G36*
X188479Y485139D02*
X188479Y485139D01*
X184744Y486686D01*
X181886Y489544D01*
X180339Y493279D01*
X180339Y497321D01*
X181886Y501056D01*
X184744Y503914D01*
X188479Y505461D01*
X192521Y505461D01*
X196256Y503914D01*
X199114Y501056D01*
X200661Y497321D01*
X200661Y493279D01*
X199114Y489544D01*
X196256Y486686D01*
X192521Y485139D01*
X188479Y485139D01*
G37*
%LPD*%
%LPC*%
G36*
X213879Y485139D02*
X213879Y485139D01*
X210144Y486686D01*
X207286Y489544D01*
X205739Y493279D01*
X205739Y497321D01*
X207286Y501056D01*
X210144Y503914D01*
X213879Y505461D01*
X217921Y505461D01*
X221656Y503914D01*
X224514Y501056D01*
X226061Y497321D01*
X226061Y493279D01*
X224514Y489544D01*
X221656Y486686D01*
X217921Y485139D01*
X213879Y485139D01*
G37*
%LPD*%
%LPC*%
G36*
X417079Y485139D02*
X417079Y485139D01*
X413344Y486686D01*
X410486Y489544D01*
X408939Y493279D01*
X408939Y497321D01*
X410486Y501056D01*
X413344Y503914D01*
X417079Y505461D01*
X421121Y505461D01*
X424856Y503914D01*
X427714Y501056D01*
X429261Y497321D01*
X429261Y493279D01*
X427714Y489544D01*
X424856Y486686D01*
X421121Y485139D01*
X417079Y485139D01*
G37*
%LPD*%
%LPC*%
G36*
X442479Y485139D02*
X442479Y485139D01*
X438744Y486686D01*
X435886Y489544D01*
X434339Y493279D01*
X434339Y497321D01*
X435886Y501056D01*
X438744Y503914D01*
X442479Y505461D01*
X446521Y505461D01*
X450256Y503914D01*
X453114Y501056D01*
X454661Y497321D01*
X454661Y493279D01*
X453114Y489544D01*
X450256Y486686D01*
X446521Y485139D01*
X442479Y485139D01*
G37*
%LPD*%
%LPC*%
G36*
X493279Y485139D02*
X493279Y485139D01*
X489544Y486686D01*
X486686Y489544D01*
X485139Y493279D01*
X485139Y497321D01*
X486686Y501056D01*
X489544Y503914D01*
X493279Y505461D01*
X497321Y505461D01*
X501056Y503914D01*
X503914Y501056D01*
X505461Y497321D01*
X505461Y493279D01*
X503914Y489544D01*
X501056Y486686D01*
X497321Y485139D01*
X493279Y485139D01*
G37*
%LPD*%
%LPC*%
G36*
X518679Y485139D02*
X518679Y485139D01*
X514944Y486686D01*
X512086Y489544D01*
X510539Y493279D01*
X510539Y497321D01*
X512086Y501056D01*
X514944Y503914D01*
X518679Y505461D01*
X522721Y505461D01*
X526456Y503914D01*
X529314Y501056D01*
X530861Y497321D01*
X530861Y493279D01*
X529314Y489544D01*
X526456Y486686D01*
X522721Y485139D01*
X518679Y485139D01*
G37*
%LPD*%
%LPC*%
G36*
X467879Y485139D02*
X467879Y485139D01*
X464144Y486686D01*
X461286Y489544D01*
X459739Y493279D01*
X459739Y497321D01*
X461286Y501056D01*
X464144Y503914D01*
X467879Y505461D01*
X471921Y505461D01*
X475656Y503914D01*
X478514Y501056D01*
X480061Y497321D01*
X480061Y493279D01*
X478514Y489544D01*
X475656Y486686D01*
X471921Y485139D01*
X467879Y485139D01*
G37*
%LPD*%
%LPC*%
G36*
X493279Y459739D02*
X493279Y459739D01*
X489544Y461286D01*
X486686Y464144D01*
X485139Y467879D01*
X485139Y471921D01*
X486686Y475656D01*
X489544Y478514D01*
X493279Y480061D01*
X497321Y480061D01*
X501056Y478514D01*
X503914Y475656D01*
X505461Y471921D01*
X505461Y467879D01*
X503914Y464144D01*
X501056Y461286D01*
X497321Y459739D01*
X493279Y459739D01*
G37*
%LPD*%
%LPC*%
G36*
X340879Y459739D02*
X340879Y459739D01*
X337144Y461286D01*
X334286Y464144D01*
X332739Y467879D01*
X332739Y471921D01*
X334286Y475656D01*
X337144Y478514D01*
X340879Y480061D01*
X344921Y480061D01*
X348656Y478514D01*
X351514Y475656D01*
X353061Y471921D01*
X353061Y467879D01*
X351514Y464144D01*
X348656Y461286D01*
X344921Y459739D01*
X340879Y459739D01*
G37*
%LPD*%
%LPC*%
G36*
X264679Y459739D02*
X264679Y459739D01*
X260944Y461286D01*
X258086Y464144D01*
X256539Y467879D01*
X256539Y471921D01*
X258086Y475656D01*
X260944Y478514D01*
X264679Y480061D01*
X268721Y480061D01*
X272456Y478514D01*
X275314Y475656D01*
X276861Y471921D01*
X276861Y467879D01*
X275314Y464144D01*
X272456Y461286D01*
X268721Y459739D01*
X264679Y459739D01*
G37*
%LPD*%
%LPC*%
G36*
X239279Y459739D02*
X239279Y459739D01*
X235544Y461286D01*
X232686Y464144D01*
X231139Y467879D01*
X231139Y471921D01*
X232686Y475656D01*
X235544Y478514D01*
X239279Y480061D01*
X243321Y480061D01*
X247056Y478514D01*
X249914Y475656D01*
X251461Y471921D01*
X251461Y467879D01*
X249914Y464144D01*
X247056Y461286D01*
X243321Y459739D01*
X239279Y459739D01*
G37*
%LPD*%
%LPC*%
G36*
X518679Y459739D02*
X518679Y459739D01*
X514944Y461286D01*
X512086Y464144D01*
X510539Y467879D01*
X510539Y471921D01*
X512086Y475656D01*
X514944Y478514D01*
X518679Y480061D01*
X522721Y480061D01*
X526456Y478514D01*
X529314Y475656D01*
X530861Y471921D01*
X530861Y467879D01*
X529314Y464144D01*
X526456Y461286D01*
X522721Y459739D01*
X518679Y459739D01*
G37*
%LPD*%
%LPC*%
G36*
X290079Y459739D02*
X290079Y459739D01*
X286344Y461286D01*
X283486Y464144D01*
X281939Y467879D01*
X281939Y471921D01*
X283486Y475656D01*
X286344Y478514D01*
X290079Y480061D01*
X294121Y480061D01*
X297856Y478514D01*
X300714Y475656D01*
X302261Y471921D01*
X302261Y467879D01*
X300714Y464144D01*
X297856Y461286D01*
X294121Y459739D01*
X290079Y459739D01*
G37*
%LPD*%
%LPC*%
G36*
X569479Y459739D02*
X569479Y459739D01*
X565744Y461286D01*
X562886Y464144D01*
X561339Y467879D01*
X561339Y471921D01*
X562886Y475656D01*
X565744Y478514D01*
X569479Y480061D01*
X573521Y480061D01*
X577256Y478514D01*
X580114Y475656D01*
X581661Y471921D01*
X581661Y467879D01*
X580114Y464144D01*
X577256Y461286D01*
X573521Y459739D01*
X569479Y459739D01*
G37*
%LPD*%
%LPC*%
G36*
X213879Y459739D02*
X213879Y459739D01*
X210144Y461286D01*
X207286Y464144D01*
X205739Y467879D01*
X205739Y471921D01*
X207286Y475656D01*
X210144Y478514D01*
X213879Y480061D01*
X217921Y480061D01*
X221656Y478514D01*
X224514Y475656D01*
X226061Y471921D01*
X226061Y467879D01*
X224514Y464144D01*
X221656Y461286D01*
X217921Y459739D01*
X213879Y459739D01*
G37*
%LPD*%
%LPC*%
G36*
X188479Y459739D02*
X188479Y459739D01*
X184744Y461286D01*
X181886Y464144D01*
X180339Y467879D01*
X180339Y471921D01*
X181886Y475656D01*
X184744Y478514D01*
X188479Y480061D01*
X192521Y480061D01*
X196256Y478514D01*
X199114Y475656D01*
X200661Y471921D01*
X200661Y467879D01*
X199114Y464144D01*
X196256Y461286D01*
X192521Y459739D01*
X188479Y459739D01*
G37*
%LPD*%
%LPC*%
G36*
X391679Y459739D02*
X391679Y459739D01*
X387944Y461286D01*
X385086Y464144D01*
X383539Y467879D01*
X383539Y471921D01*
X385086Y475656D01*
X387944Y478514D01*
X391679Y480061D01*
X395721Y480061D01*
X399456Y478514D01*
X402314Y475656D01*
X403861Y471921D01*
X403861Y467879D01*
X402314Y464144D01*
X399456Y461286D01*
X395721Y459739D01*
X391679Y459739D01*
G37*
%LPD*%
%LPC*%
G36*
X366279Y459739D02*
X366279Y459739D01*
X362544Y461286D01*
X359686Y464144D01*
X358139Y467879D01*
X358139Y471921D01*
X359686Y475656D01*
X362544Y478514D01*
X366279Y480061D01*
X370321Y480061D01*
X374056Y478514D01*
X376914Y475656D01*
X378461Y471921D01*
X378461Y467879D01*
X376914Y464144D01*
X374056Y461286D01*
X370321Y459739D01*
X366279Y459739D01*
G37*
%LPD*%
%LPC*%
G36*
X340879Y434339D02*
X340879Y434339D01*
X337144Y435886D01*
X334286Y438744D01*
X332739Y442479D01*
X332739Y446521D01*
X334286Y450256D01*
X337144Y453114D01*
X340879Y454661D01*
X344921Y454661D01*
X348656Y453114D01*
X351514Y450256D01*
X353061Y446521D01*
X353061Y442479D01*
X351514Y438744D01*
X348656Y435886D01*
X344921Y434339D01*
X340879Y434339D01*
G37*
%LPD*%
%LPC*%
G36*
X239279Y434339D02*
X239279Y434339D01*
X235544Y435886D01*
X232686Y438744D01*
X231139Y442479D01*
X231139Y446521D01*
X232686Y450256D01*
X235544Y453114D01*
X239279Y454661D01*
X243321Y454661D01*
X247056Y453114D01*
X249914Y450256D01*
X251461Y446521D01*
X251461Y442479D01*
X249914Y438744D01*
X247056Y435886D01*
X243321Y434339D01*
X239279Y434339D01*
G37*
%LPD*%
%LPC*%
G36*
X658379Y129539D02*
X658379Y129539D01*
X654644Y131086D01*
X651786Y133944D01*
X650239Y137679D01*
X650239Y141721D01*
X651786Y145456D01*
X654644Y148314D01*
X658379Y149861D01*
X662421Y149861D01*
X666156Y148314D01*
X669014Y145456D01*
X670561Y141721D01*
X670561Y137679D01*
X669014Y133944D01*
X666156Y131086D01*
X662421Y129539D01*
X658379Y129539D01*
G37*
%LPD*%
%LPC*%
G36*
X391679Y116839D02*
X391679Y116839D01*
X387944Y118386D01*
X385086Y121244D01*
X383539Y124979D01*
X383539Y129021D01*
X385086Y132756D01*
X387944Y135614D01*
X391679Y137161D01*
X395721Y137161D01*
X399456Y135614D01*
X402314Y132756D01*
X403861Y129021D01*
X403861Y124979D01*
X402314Y121244D01*
X399456Y118386D01*
X395721Y116839D01*
X391679Y116839D01*
G37*
%LPD*%
%LPC*%
G36*
X213879Y116839D02*
X213879Y116839D01*
X210144Y118386D01*
X207286Y121244D01*
X205739Y124979D01*
X205739Y129021D01*
X207286Y132756D01*
X210144Y135614D01*
X213879Y137161D01*
X217921Y137161D01*
X221656Y135614D01*
X224514Y132756D01*
X226061Y129021D01*
X226061Y124979D01*
X224514Y121244D01*
X221656Y118386D01*
X217921Y116839D01*
X213879Y116839D01*
G37*
%LPD*%
%LPC*%
G36*
X290079Y116839D02*
X290079Y116839D01*
X286344Y118386D01*
X283486Y121244D01*
X281939Y124979D01*
X281939Y129021D01*
X283486Y132756D01*
X286344Y135614D01*
X290079Y137161D01*
X294121Y137161D01*
X297856Y135614D01*
X300714Y132756D01*
X302261Y129021D01*
X302261Y124979D01*
X300714Y121244D01*
X297856Y118386D01*
X294121Y116839D01*
X290079Y116839D01*
G37*
%LPD*%
%LPC*%
G36*
X442479Y116839D02*
X442479Y116839D01*
X438744Y118386D01*
X435886Y121244D01*
X434339Y124979D01*
X434339Y129021D01*
X435886Y132756D01*
X438744Y135614D01*
X442479Y137161D01*
X446521Y137161D01*
X450256Y135614D01*
X453114Y132756D01*
X454661Y129021D01*
X454661Y124979D01*
X453114Y121244D01*
X450256Y118386D01*
X446521Y116839D01*
X442479Y116839D01*
G37*
%LPD*%
%LPC*%
G36*
X239279Y116839D02*
X239279Y116839D01*
X235544Y118386D01*
X232686Y121244D01*
X231139Y124979D01*
X231139Y129021D01*
X232686Y132756D01*
X235544Y135614D01*
X239279Y137161D01*
X243321Y137161D01*
X247056Y135614D01*
X249914Y132756D01*
X251461Y129021D01*
X251461Y124979D01*
X249914Y121244D01*
X247056Y118386D01*
X243321Y116839D01*
X239279Y116839D01*
G37*
%LPD*%
%LPC*%
G36*
X417079Y116839D02*
X417079Y116839D01*
X413344Y118386D01*
X410486Y121244D01*
X408939Y124979D01*
X408939Y129021D01*
X410486Y132756D01*
X413344Y135614D01*
X417079Y137161D01*
X421121Y137161D01*
X424856Y135614D01*
X427714Y132756D01*
X429261Y129021D01*
X429261Y124979D01*
X427714Y121244D01*
X424856Y118386D01*
X421121Y116839D01*
X417079Y116839D01*
G37*
%LPD*%
%LPC*%
G36*
X264679Y116839D02*
X264679Y116839D01*
X260944Y118386D01*
X258086Y121244D01*
X256539Y124979D01*
X256539Y129021D01*
X258086Y132756D01*
X260944Y135614D01*
X264679Y137161D01*
X268721Y137161D01*
X272456Y135614D01*
X275314Y132756D01*
X276861Y129021D01*
X276861Y124979D01*
X275314Y121244D01*
X272456Y118386D01*
X268721Y116839D01*
X264679Y116839D01*
G37*
%LPD*%
%LPC*%
G36*
X467879Y116839D02*
X467879Y116839D01*
X464144Y118386D01*
X461286Y121244D01*
X459739Y124979D01*
X459739Y129021D01*
X461286Y132756D01*
X464144Y135614D01*
X467879Y137161D01*
X471921Y137161D01*
X475656Y135614D01*
X478514Y132756D01*
X480061Y129021D01*
X480061Y124979D01*
X478514Y121244D01*
X475656Y118386D01*
X471921Y116839D01*
X467879Y116839D01*
G37*
%LPD*%
%LPC*%
G36*
X658379Y104139D02*
X658379Y104139D01*
X654644Y105686D01*
X651786Y108544D01*
X650239Y112279D01*
X650239Y116321D01*
X651786Y120056D01*
X654644Y122914D01*
X658379Y124461D01*
X662421Y124461D01*
X666156Y122914D01*
X669014Y120056D01*
X670561Y116321D01*
X670561Y112279D01*
X669014Y108544D01*
X666156Y105686D01*
X662421Y104139D01*
X658379Y104139D01*
G37*
%LPD*%
%LPC*%
G36*
X442479Y85089D02*
X442479Y85089D01*
X438744Y86636D01*
X435886Y89494D01*
X434339Y93229D01*
X434339Y97271D01*
X435886Y101006D01*
X438744Y103864D01*
X442479Y105411D01*
X446521Y105411D01*
X450256Y103864D01*
X453114Y101006D01*
X454661Y97271D01*
X454661Y93229D01*
X453114Y89494D01*
X450256Y86636D01*
X446521Y85089D01*
X442479Y85089D01*
G37*
%LPD*%
%LPC*%
G36*
X264679Y85089D02*
X264679Y85089D01*
X260944Y86636D01*
X258086Y89494D01*
X256539Y93229D01*
X256539Y97271D01*
X258086Y101006D01*
X260944Y103864D01*
X264679Y105411D01*
X268721Y105411D01*
X272456Y103864D01*
X275314Y101006D01*
X276861Y97271D01*
X276861Y93229D01*
X275314Y89494D01*
X272456Y86636D01*
X268721Y85089D01*
X264679Y85089D01*
G37*
%LPD*%
%LPC*%
G36*
X188479Y85089D02*
X188479Y85089D01*
X184744Y86636D01*
X181886Y89494D01*
X180339Y93229D01*
X180339Y97271D01*
X181886Y101006D01*
X184744Y103864D01*
X188479Y105411D01*
X192521Y105411D01*
X196256Y103864D01*
X199114Y101006D01*
X200661Y97271D01*
X200661Y93229D01*
X199114Y89494D01*
X196256Y86636D01*
X192521Y85089D01*
X188479Y85089D01*
G37*
%LPD*%
%LPC*%
G36*
X213879Y85089D02*
X213879Y85089D01*
X210144Y86636D01*
X207286Y89494D01*
X205739Y93229D01*
X205739Y97271D01*
X207286Y101006D01*
X210144Y103864D01*
X213879Y105411D01*
X217921Y105411D01*
X221656Y103864D01*
X224514Y101006D01*
X226061Y97271D01*
X226061Y93229D01*
X224514Y89494D01*
X221656Y86636D01*
X217921Y85089D01*
X213879Y85089D01*
G37*
%LPD*%
%LPC*%
G36*
X239279Y85089D02*
X239279Y85089D01*
X235544Y86636D01*
X232686Y89494D01*
X231139Y93229D01*
X231139Y97271D01*
X232686Y101006D01*
X235544Y103864D01*
X239279Y105411D01*
X243321Y105411D01*
X247056Y103864D01*
X249914Y101006D01*
X251461Y97271D01*
X251461Y93229D01*
X249914Y89494D01*
X247056Y86636D01*
X243321Y85089D01*
X239279Y85089D01*
G37*
%LPD*%
%LPC*%
G36*
X290079Y85089D02*
X290079Y85089D01*
X286344Y86636D01*
X283486Y89494D01*
X281939Y93229D01*
X281939Y97271D01*
X283486Y101006D01*
X286344Y103864D01*
X290079Y105411D01*
X294121Y105411D01*
X297856Y103864D01*
X300714Y101006D01*
X302261Y97271D01*
X302261Y93229D01*
X300714Y89494D01*
X297856Y86636D01*
X294121Y85089D01*
X290079Y85089D01*
G37*
%LPD*%
%LPC*%
G36*
X467879Y85089D02*
X467879Y85089D01*
X464144Y86636D01*
X461286Y89494D01*
X459739Y93229D01*
X459739Y97271D01*
X461286Y101006D01*
X464144Y103864D01*
X467879Y105411D01*
X471921Y105411D01*
X475656Y103864D01*
X478514Y101006D01*
X480061Y97271D01*
X480061Y93229D01*
X478514Y89494D01*
X475656Y86636D01*
X471921Y85089D01*
X467879Y85089D01*
G37*
%LPD*%
%LPC*%
G36*
X86879Y40639D02*
X86879Y40639D01*
X83144Y42186D01*
X80286Y45044D01*
X78739Y48779D01*
X78739Y52821D01*
X80286Y56556D01*
X83144Y59414D01*
X86879Y60961D01*
X90921Y60961D01*
X94656Y59414D01*
X97514Y56556D01*
X99061Y52821D01*
X99061Y48779D01*
X97514Y45044D01*
X94656Y42186D01*
X90921Y40639D01*
X86879Y40639D01*
G37*
%LPD*%
%LPC*%
G36*
X264679Y40639D02*
X264679Y40639D01*
X260944Y42186D01*
X258086Y45044D01*
X256539Y48779D01*
X256539Y52821D01*
X258086Y56556D01*
X260944Y59414D01*
X264679Y60961D01*
X268721Y60961D01*
X272456Y59414D01*
X275314Y56556D01*
X276861Y52821D01*
X276861Y48779D01*
X275314Y45044D01*
X272456Y42186D01*
X268721Y40639D01*
X264679Y40639D01*
G37*
%LPD*%
%LPC*%
G36*
X66484Y231584D02*
X66484Y231584D01*
X66484Y240094D01*
X73358Y240094D01*
X75145Y239811D01*
X76866Y239252D01*
X78478Y238431D01*
X79941Y237367D01*
X81221Y236088D01*
X82284Y234624D01*
X83106Y233012D01*
X83570Y231584D01*
X66484Y231584D01*
G37*
%LPD*%
%LPC*%
G36*
X43430Y231584D02*
X43430Y231584D01*
X43894Y233012D01*
X44716Y234624D01*
X45779Y236088D01*
X47059Y237367D01*
X48522Y238431D01*
X50134Y239252D01*
X51855Y239811D01*
X53642Y240094D01*
X60516Y240094D01*
X60516Y231584D01*
X43430Y231584D01*
G37*
%LPD*%
%LPC*%
G36*
X66484Y217106D02*
X66484Y217106D01*
X66484Y225616D01*
X83570Y225616D01*
X83106Y224188D01*
X82284Y222576D01*
X81221Y221112D01*
X79941Y219833D01*
X78478Y218769D01*
X76866Y217948D01*
X75145Y217389D01*
X73358Y217106D01*
X66484Y217106D01*
G37*
%LPD*%
%LPC*%
G36*
X53642Y217106D02*
X53642Y217106D01*
X51855Y217389D01*
X50134Y217948D01*
X48522Y218769D01*
X47059Y219833D01*
X45779Y221112D01*
X44716Y222576D01*
X43894Y224188D01*
X43430Y225616D01*
X60516Y225616D01*
X60516Y217106D01*
X53642Y217106D01*
G37*
%LPD*%
%LPC*%
G36*
X145239Y281949D02*
X145239Y281949D01*
X145239Y301351D01*
X154452Y301351D01*
X153862Y299536D01*
X152966Y297777D01*
X151806Y296180D01*
X150410Y294784D01*
X148813Y293624D01*
X148490Y293460D01*
X148447Y293432D01*
X148400Y293411D01*
X148278Y293324D01*
X148151Y293242D01*
X148115Y293207D01*
X148073Y293177D01*
X147970Y293067D01*
X147862Y292962D01*
X147833Y292920D01*
X147798Y292883D01*
X147719Y292755D01*
X147634Y292631D01*
X147613Y292584D01*
X147587Y292540D01*
X147534Y292399D01*
X147475Y292261D01*
X147465Y292211D01*
X147447Y292163D01*
X147424Y292014D01*
X147393Y291867D01*
X147392Y291816D01*
X147384Y291765D01*
X147391Y291614D01*
X147390Y291464D01*
X147399Y291414D01*
X147402Y291363D01*
X147438Y291217D01*
X147466Y291069D01*
X147486Y291021D01*
X147498Y290972D01*
X147562Y290835D01*
X147619Y290696D01*
X147647Y290654D01*
X147669Y290607D01*
X147759Y290487D01*
X147842Y290361D01*
X147878Y290325D01*
X147909Y290284D01*
X148021Y290183D01*
X148127Y290077D01*
X148170Y290049D01*
X148208Y290014D01*
X148405Y289893D01*
X148463Y289854D01*
X148476Y289849D01*
X148490Y289840D01*
X148813Y289676D01*
X150410Y288516D01*
X151806Y287120D01*
X152966Y285523D01*
X153862Y283764D01*
X154452Y281949D01*
X145239Y281949D01*
G37*
%LPD*%
%LPC*%
G36*
X330659Y281949D02*
X330659Y281949D01*
X330659Y301351D01*
X339872Y301351D01*
X339282Y299536D01*
X338386Y297777D01*
X337226Y296180D01*
X335830Y294784D01*
X334233Y293624D01*
X333910Y293460D01*
X333867Y293432D01*
X333820Y293411D01*
X333698Y293324D01*
X333571Y293243D01*
X333535Y293207D01*
X333493Y293177D01*
X333390Y293067D01*
X333282Y292963D01*
X333253Y292920D01*
X333218Y292883D01*
X333139Y292755D01*
X333054Y292631D01*
X333034Y292584D01*
X333007Y292540D01*
X332954Y292399D01*
X332895Y292261D01*
X332885Y292211D01*
X332867Y292163D01*
X332844Y292014D01*
X332813Y291867D01*
X332812Y291816D01*
X332804Y291765D01*
X332811Y291615D01*
X332810Y291464D01*
X332819Y291414D01*
X332822Y291363D01*
X332857Y291216D01*
X332886Y291069D01*
X332905Y291022D01*
X332918Y290972D01*
X332982Y290835D01*
X333039Y290696D01*
X333067Y290654D01*
X333089Y290607D01*
X333179Y290487D01*
X333262Y290361D01*
X333298Y290325D01*
X333329Y290284D01*
X333441Y290183D01*
X333547Y290077D01*
X333590Y290049D01*
X333628Y290014D01*
X333825Y289893D01*
X333883Y289854D01*
X333895Y289849D01*
X333910Y289840D01*
X334233Y289676D01*
X335830Y288516D01*
X337226Y287120D01*
X338386Y285523D01*
X339282Y283764D01*
X339872Y281949D01*
X330659Y281949D01*
G37*
%LPD*%
%LPC*%
G36*
X315448Y281949D02*
X315448Y281949D01*
X316038Y283764D01*
X316934Y285523D01*
X318094Y287120D01*
X319490Y288516D01*
X321087Y289676D01*
X321410Y289840D01*
X321453Y289868D01*
X321500Y289889D01*
X321622Y289976D01*
X321749Y290058D01*
X321785Y290093D01*
X321827Y290123D01*
X321930Y290233D01*
X322038Y290338D01*
X322067Y290380D01*
X322102Y290417D01*
X322181Y290545D01*
X322266Y290669D01*
X322287Y290716D01*
X322313Y290760D01*
X322366Y290901D01*
X322425Y291039D01*
X322435Y291089D01*
X322453Y291137D01*
X322477Y291286D01*
X322507Y291433D01*
X322508Y291484D01*
X322516Y291535D01*
X322509Y291685D01*
X322510Y291836D01*
X322501Y291886D01*
X322498Y291937D01*
X322462Y292084D01*
X322434Y292231D01*
X322415Y292279D01*
X322402Y292328D01*
X322338Y292464D01*
X322281Y292604D01*
X322253Y292646D01*
X322231Y292693D01*
X322141Y292813D01*
X322058Y292939D01*
X322022Y292975D01*
X321991Y293016D01*
X321879Y293117D01*
X321773Y293223D01*
X321730Y293251D01*
X321692Y293286D01*
X321496Y293407D01*
X321437Y293446D01*
X321424Y293451D01*
X321410Y293460D01*
X321087Y293624D01*
X319490Y294784D01*
X318094Y296180D01*
X316934Y297777D01*
X316038Y299536D01*
X315448Y301351D01*
X324661Y301351D01*
X324661Y281949D01*
X315448Y281949D01*
G37*
%LPD*%
%LPC*%
G36*
X130028Y281949D02*
X130028Y281949D01*
X130618Y283764D01*
X131514Y285523D01*
X132674Y287120D01*
X134070Y288516D01*
X135667Y289676D01*
X135990Y289840D01*
X136033Y289868D01*
X136080Y289889D01*
X136202Y289976D01*
X136329Y290057D01*
X136365Y290093D01*
X136407Y290123D01*
X136510Y290233D01*
X136618Y290337D01*
X136647Y290380D01*
X136682Y290417D01*
X136761Y290545D01*
X136846Y290669D01*
X136866Y290716D01*
X136893Y290760D01*
X136946Y290901D01*
X137005Y291039D01*
X137015Y291089D01*
X137033Y291137D01*
X137056Y291286D01*
X137087Y291433D01*
X137088Y291484D01*
X137096Y291535D01*
X137089Y291685D01*
X137090Y291836D01*
X137081Y291886D01*
X137078Y291937D01*
X137043Y292084D01*
X137014Y292231D01*
X136995Y292278D01*
X136982Y292328D01*
X136918Y292465D01*
X136861Y292604D01*
X136833Y292646D01*
X136811Y292693D01*
X136721Y292813D01*
X136638Y292939D01*
X136602Y292975D01*
X136571Y293016D01*
X136459Y293117D01*
X136353Y293223D01*
X136310Y293251D01*
X136272Y293286D01*
X136075Y293407D01*
X136017Y293446D01*
X136005Y293451D01*
X135990Y293460D01*
X135667Y293624D01*
X134070Y294784D01*
X132674Y296180D01*
X131514Y297777D01*
X130618Y299536D01*
X130028Y301351D01*
X139241Y301351D01*
X139241Y281949D01*
X130028Y281949D01*
G37*
%LPD*%
%LPC*%
G36*
X36956Y338581D02*
X36956Y338581D01*
X36956Y351067D01*
X38240Y350650D01*
X39452Y350033D01*
X40551Y349234D01*
X41513Y348272D01*
X42312Y347173D01*
X42929Y345961D01*
X43349Y344669D01*
X43562Y343326D01*
X43562Y338581D01*
X36956Y338581D01*
G37*
%LPD*%
%LPC*%
G36*
X36956Y334519D02*
X36956Y334519D01*
X43562Y334519D01*
X43562Y329774D01*
X43349Y328431D01*
X42929Y327139D01*
X42312Y325927D01*
X41513Y324828D01*
X40551Y323866D01*
X39452Y323067D01*
X38240Y322450D01*
X36956Y322033D01*
X36956Y334519D01*
G37*
%LPD*%
%LPC*%
G36*
X26288Y338581D02*
X26288Y338581D01*
X26288Y343326D01*
X26501Y344669D01*
X26921Y345961D01*
X27538Y347173D01*
X28337Y348272D01*
X29299Y349234D01*
X30398Y350033D01*
X31610Y350650D01*
X32894Y351067D01*
X32894Y338581D01*
X26288Y338581D01*
G37*
%LPD*%
%LPC*%
G36*
X31610Y322450D02*
X31610Y322450D01*
X30398Y323067D01*
X29299Y323866D01*
X28337Y324828D01*
X27538Y325927D01*
X26921Y327139D01*
X26501Y328431D01*
X26288Y329774D01*
X26288Y334519D01*
X32894Y334519D01*
X32894Y322033D01*
X31610Y322450D01*
G37*
%LPD*%
%LPC*%
G36*
X145239Y307349D02*
X145239Y307349D01*
X145239Y316562D01*
X147054Y315972D01*
X148813Y315076D01*
X150410Y313916D01*
X151806Y312520D01*
X152966Y310923D01*
X153862Y309164D01*
X154452Y307349D01*
X145239Y307349D01*
G37*
%LPD*%
%LPC*%
G36*
X330659Y307349D02*
X330659Y307349D01*
X330659Y316562D01*
X332474Y315972D01*
X334233Y315076D01*
X335830Y313916D01*
X337226Y312520D01*
X338386Y310923D01*
X339282Y309164D01*
X339872Y307349D01*
X330659Y307349D01*
G37*
%LPD*%
%LPC*%
G36*
X145239Y275951D02*
X145239Y275951D01*
X154452Y275951D01*
X153862Y274136D01*
X152966Y272377D01*
X151806Y270780D01*
X150410Y269384D01*
X148813Y268224D01*
X147054Y267328D01*
X145239Y266738D01*
X145239Y275951D01*
G37*
%LPD*%
%LPC*%
G36*
X330659Y275951D02*
X330659Y275951D01*
X339872Y275951D01*
X339282Y274136D01*
X338386Y272377D01*
X337226Y270780D01*
X335830Y269384D01*
X334233Y268224D01*
X332474Y267328D01*
X330659Y266738D01*
X330659Y275951D01*
G37*
%LPD*%
%LPC*%
G36*
X130028Y307349D02*
X130028Y307349D01*
X130618Y309164D01*
X131514Y310923D01*
X132674Y312520D01*
X134070Y313916D01*
X135667Y315076D01*
X137426Y315972D01*
X139241Y316562D01*
X139241Y307349D01*
X130028Y307349D01*
G37*
%LPD*%
%LPC*%
G36*
X315448Y307349D02*
X315448Y307349D01*
X316038Y309164D01*
X316934Y310923D01*
X318094Y312520D01*
X319490Y313916D01*
X321087Y315076D01*
X322846Y315972D01*
X324661Y316562D01*
X324661Y307349D01*
X315448Y307349D01*
G37*
%LPD*%
%LPC*%
G36*
X137426Y267328D02*
X137426Y267328D01*
X135667Y268224D01*
X134070Y269384D01*
X132674Y270780D01*
X131514Y272377D01*
X130618Y274136D01*
X130028Y275951D01*
X139241Y275951D01*
X139241Y266738D01*
X137426Y267328D01*
G37*
%LPD*%
%LPC*%
G36*
X322846Y267328D02*
X322846Y267328D01*
X321087Y268224D01*
X319490Y269384D01*
X318094Y270780D01*
X316934Y272377D01*
X316038Y274136D01*
X315448Y275951D01*
X324661Y275951D01*
X324661Y266738D01*
X322846Y267328D01*
G37*
%LPD*%
%LPC*%
G36*
X408939Y177164D02*
X408939Y177164D01*
X408939Y184786D01*
X414355Y184786D01*
X415001Y184613D01*
X415580Y184278D01*
X416053Y183805D01*
X416388Y183226D01*
X416561Y182580D01*
X416561Y177164D01*
X408939Y177164D01*
G37*
%LPD*%
%LPC*%
G36*
X396239Y177164D02*
X396239Y177164D01*
X396239Y182580D01*
X396412Y183226D01*
X396747Y183805D01*
X397220Y184278D01*
X397799Y184613D01*
X398445Y184786D01*
X403861Y184786D01*
X403861Y177164D01*
X396239Y177164D01*
G37*
%LPD*%
%LPC*%
G36*
X408939Y164464D02*
X408939Y164464D01*
X408939Y172086D01*
X416561Y172086D01*
X416561Y166670D01*
X416388Y166024D01*
X416053Y165445D01*
X415580Y164972D01*
X415001Y164637D01*
X414355Y164464D01*
X408939Y164464D01*
G37*
%LPD*%
%LPC*%
G36*
X398445Y164464D02*
X398445Y164464D01*
X397799Y164637D01*
X397220Y164972D01*
X396747Y165445D01*
X396412Y166024D01*
X396239Y166670D01*
X396239Y172086D01*
X403861Y172086D01*
X403861Y164464D01*
X398445Y164464D01*
G37*
%LPD*%
%LPC*%
G36*
X320039Y523239D02*
X320039Y523239D01*
X320039Y530559D01*
X321400Y530116D01*
X322825Y529390D01*
X324119Y528450D01*
X325250Y527319D01*
X326190Y526025D01*
X326916Y524600D01*
X327359Y523239D01*
X320039Y523239D01*
G37*
%LPD*%
%LPC*%
G36*
X218439Y523239D02*
X218439Y523239D01*
X218439Y530559D01*
X219800Y530116D01*
X221225Y529390D01*
X222519Y528450D01*
X223650Y527319D01*
X224590Y526025D01*
X225316Y524600D01*
X225759Y523239D01*
X218439Y523239D01*
G37*
%LPD*%
%LPC*%
G36*
X243839Y523239D02*
X243839Y523239D01*
X243839Y530559D01*
X245200Y530116D01*
X246625Y529390D01*
X247919Y528450D01*
X249050Y527319D01*
X249990Y526025D01*
X250716Y524600D01*
X251159Y523239D01*
X243839Y523239D01*
G37*
%LPD*%
%LPC*%
G36*
X269239Y523239D02*
X269239Y523239D01*
X269239Y530559D01*
X270600Y530116D01*
X272025Y529390D01*
X273319Y528450D01*
X274450Y527319D01*
X275390Y526025D01*
X276116Y524600D01*
X276559Y523239D01*
X269239Y523239D01*
G37*
%LPD*%
%LPC*%
G36*
X193039Y523239D02*
X193039Y523239D01*
X193039Y530559D01*
X194400Y530116D01*
X195825Y529390D01*
X197119Y528450D01*
X198250Y527319D01*
X199190Y526025D01*
X199916Y524600D01*
X200359Y523239D01*
X193039Y523239D01*
G37*
%LPD*%
%LPC*%
G36*
X294639Y523239D02*
X294639Y523239D01*
X294639Y530559D01*
X296000Y530116D01*
X297425Y529390D01*
X298719Y528450D01*
X299850Y527319D01*
X300790Y526025D01*
X301516Y524600D01*
X301959Y523239D01*
X294639Y523239D01*
G37*
%LPD*%
%LPC*%
G36*
X345439Y523239D02*
X345439Y523239D01*
X345439Y530559D01*
X346800Y530116D01*
X348225Y529390D01*
X349519Y528450D01*
X350650Y527319D01*
X351590Y526025D01*
X352316Y524600D01*
X352759Y523239D01*
X345439Y523239D01*
G37*
%LPD*%
%LPC*%
G36*
X370839Y523239D02*
X370839Y523239D01*
X370839Y530559D01*
X372200Y530116D01*
X373625Y529390D01*
X374919Y528450D01*
X376050Y527319D01*
X376990Y526025D01*
X377716Y524600D01*
X378159Y523239D01*
X370839Y523239D01*
G37*
%LPD*%
%LPC*%
G36*
X396239Y523239D02*
X396239Y523239D01*
X396239Y530559D01*
X397600Y530116D01*
X399025Y529390D01*
X400319Y528450D01*
X401450Y527319D01*
X402390Y526025D01*
X403116Y524600D01*
X403559Y523239D01*
X396239Y523239D01*
G37*
%LPD*%
%LPC*%
G36*
X167639Y129539D02*
X167639Y129539D01*
X167639Y136859D01*
X169000Y136416D01*
X170425Y135690D01*
X171719Y134750D01*
X172850Y133619D01*
X173790Y132325D01*
X174516Y130900D01*
X174959Y129539D01*
X167639Y129539D01*
G37*
%LPD*%
%LPC*%
G36*
X574039Y523239D02*
X574039Y523239D01*
X574039Y530559D01*
X575400Y530116D01*
X576825Y529390D01*
X578119Y528450D01*
X579250Y527319D01*
X580190Y526025D01*
X580916Y524600D01*
X581359Y523239D01*
X574039Y523239D01*
G37*
%LPD*%
%LPC*%
G36*
X447039Y523239D02*
X447039Y523239D01*
X447039Y530559D01*
X448400Y530116D01*
X449825Y529390D01*
X451119Y528450D01*
X452250Y527319D01*
X453190Y526025D01*
X453916Y524600D01*
X454359Y523239D01*
X447039Y523239D01*
G37*
%LPD*%
%LPC*%
G36*
X472439Y523239D02*
X472439Y523239D01*
X472439Y530559D01*
X473800Y530116D01*
X475225Y529390D01*
X476519Y528450D01*
X477650Y527319D01*
X478590Y526025D01*
X479316Y524600D01*
X479759Y523239D01*
X472439Y523239D01*
G37*
%LPD*%
%LPC*%
G36*
X421639Y523239D02*
X421639Y523239D01*
X421639Y530559D01*
X423000Y530116D01*
X424425Y529390D01*
X425719Y528450D01*
X426850Y527319D01*
X427790Y526025D01*
X428516Y524600D01*
X428959Y523239D01*
X421639Y523239D01*
G37*
%LPD*%
%LPC*%
G36*
X167639Y415289D02*
X167639Y415289D01*
X167639Y422609D01*
X169000Y422166D01*
X170425Y421440D01*
X171719Y420500D01*
X172850Y419369D01*
X173790Y418075D01*
X174516Y416650D01*
X174959Y415289D01*
X167639Y415289D01*
G37*
%LPD*%
%LPC*%
G36*
X167639Y383539D02*
X167639Y383539D01*
X167639Y390859D01*
X169000Y390416D01*
X170425Y389690D01*
X171719Y388750D01*
X172850Y387619D01*
X173790Y386325D01*
X174516Y384900D01*
X174959Y383539D01*
X167639Y383539D01*
G37*
%LPD*%
%LPC*%
G36*
X408939Y310514D02*
X408939Y310514D01*
X408939Y317834D01*
X410300Y317391D01*
X411725Y316665D01*
X413019Y315725D01*
X414150Y314594D01*
X415090Y313300D01*
X415816Y311875D01*
X416259Y310514D01*
X408939Y310514D01*
G37*
%LPD*%
%LPC*%
G36*
X497839Y523239D02*
X497839Y523239D01*
X497839Y530559D01*
X499200Y530116D01*
X500625Y529390D01*
X501919Y528450D01*
X503050Y527319D01*
X503990Y526025D01*
X504716Y524600D01*
X505159Y523239D01*
X497839Y523239D01*
G37*
%LPD*%
%LPC*%
G36*
X167639Y97789D02*
X167639Y97789D01*
X167639Y105109D01*
X169000Y104666D01*
X170425Y103940D01*
X171719Y103000D01*
X172850Y101869D01*
X173790Y100575D01*
X174516Y99150D01*
X174959Y97789D01*
X167639Y97789D01*
G37*
%LPD*%
%LPC*%
G36*
X523239Y523239D02*
X523239Y523239D01*
X523239Y530559D01*
X524600Y530116D01*
X526025Y529390D01*
X527319Y528450D01*
X528450Y527319D01*
X529390Y526025D01*
X530116Y524600D01*
X530559Y523239D01*
X523239Y523239D01*
G37*
%LPD*%
%LPC*%
G36*
X485139Y27939D02*
X485139Y27939D01*
X485139Y35259D01*
X486500Y34816D01*
X487925Y34090D01*
X489219Y33150D01*
X490350Y32019D01*
X491290Y30725D01*
X492016Y29300D01*
X492459Y27939D01*
X485139Y27939D01*
G37*
%LPD*%
%LPC*%
G36*
X637539Y27939D02*
X637539Y27939D01*
X637539Y35259D01*
X638900Y34816D01*
X640325Y34090D01*
X641619Y33150D01*
X642750Y32019D01*
X643690Y30725D01*
X644416Y29300D01*
X644859Y27939D01*
X637539Y27939D01*
G37*
%LPD*%
%LPC*%
G36*
X383841Y523239D02*
X383841Y523239D01*
X384284Y524600D01*
X385010Y526025D01*
X385950Y527319D01*
X387081Y528450D01*
X388375Y529390D01*
X389800Y530116D01*
X391161Y530559D01*
X391161Y523239D01*
X383841Y523239D01*
G37*
%LPD*%
%LPC*%
G36*
X256841Y523239D02*
X256841Y523239D01*
X257284Y524600D01*
X258010Y526025D01*
X258950Y527319D01*
X260081Y528450D01*
X261375Y529390D01*
X262800Y530116D01*
X264161Y530559D01*
X264161Y523239D01*
X256841Y523239D01*
G37*
%LPD*%
%LPC*%
G36*
X206041Y523239D02*
X206041Y523239D01*
X206484Y524600D01*
X207210Y526025D01*
X208150Y527319D01*
X209281Y528450D01*
X210575Y529390D01*
X212000Y530116D01*
X213361Y530559D01*
X213361Y523239D01*
X206041Y523239D01*
G37*
%LPD*%
%LPC*%
G36*
X180641Y523239D02*
X180641Y523239D01*
X181084Y524600D01*
X181810Y526025D01*
X182750Y527319D01*
X183881Y528450D01*
X185175Y529390D01*
X186600Y530116D01*
X187961Y530559D01*
X187961Y523239D01*
X180641Y523239D01*
G37*
%LPD*%
%LPC*%
G36*
X561641Y523239D02*
X561641Y523239D01*
X562084Y524600D01*
X562810Y526025D01*
X563750Y527319D01*
X564881Y528450D01*
X566175Y529390D01*
X567600Y530116D01*
X568961Y530559D01*
X568961Y523239D01*
X561641Y523239D01*
G37*
%LPD*%
%LPC*%
G36*
X510841Y523239D02*
X510841Y523239D01*
X511284Y524600D01*
X512010Y526025D01*
X512950Y527319D01*
X514081Y528450D01*
X515375Y529390D01*
X516800Y530116D01*
X518161Y530559D01*
X518161Y523239D01*
X510841Y523239D01*
G37*
%LPD*%
%LPC*%
G36*
X333041Y523239D02*
X333041Y523239D01*
X333484Y524600D01*
X334210Y526025D01*
X335150Y527319D01*
X336281Y528450D01*
X337575Y529390D01*
X339000Y530116D01*
X340361Y530559D01*
X340361Y523239D01*
X333041Y523239D01*
G37*
%LPD*%
%LPC*%
G36*
X231441Y523239D02*
X231441Y523239D01*
X231884Y524600D01*
X232610Y526025D01*
X233550Y527319D01*
X234681Y528450D01*
X235975Y529390D01*
X237400Y530116D01*
X238761Y530559D01*
X238761Y523239D01*
X231441Y523239D01*
G37*
%LPD*%
%LPC*%
G36*
X218439Y518161D02*
X218439Y518161D01*
X225759Y518161D01*
X225316Y516800D01*
X224590Y515375D01*
X223650Y514081D01*
X222519Y512950D01*
X221225Y512010D01*
X219800Y511284D01*
X218439Y510841D01*
X218439Y518161D01*
G37*
%LPD*%
%LPC*%
G36*
X193039Y518161D02*
X193039Y518161D01*
X200359Y518161D01*
X199916Y516800D01*
X199190Y515375D01*
X198250Y514081D01*
X197119Y512950D01*
X195825Y512010D01*
X194400Y511284D01*
X193039Y510841D01*
X193039Y518161D01*
G37*
%LPD*%
%LPC*%
G36*
X243839Y518161D02*
X243839Y518161D01*
X251159Y518161D01*
X250716Y516800D01*
X249990Y515375D01*
X249050Y514081D01*
X247919Y512950D01*
X246625Y512010D01*
X245200Y511284D01*
X243839Y510841D01*
X243839Y518161D01*
G37*
%LPD*%
%LPC*%
G36*
X460041Y523239D02*
X460041Y523239D01*
X460484Y524600D01*
X461210Y526025D01*
X462150Y527319D01*
X463281Y528450D01*
X464575Y529390D01*
X466000Y530116D01*
X467361Y530559D01*
X467361Y523239D01*
X460041Y523239D01*
G37*
%LPD*%
%LPC*%
G36*
X269239Y518161D02*
X269239Y518161D01*
X276559Y518161D01*
X276116Y516800D01*
X275390Y515375D01*
X274450Y514081D01*
X273319Y512950D01*
X272025Y512010D01*
X270600Y511284D01*
X269239Y510841D01*
X269239Y518161D01*
G37*
%LPD*%
%LPC*%
G36*
X409241Y523239D02*
X409241Y523239D01*
X409684Y524600D01*
X410410Y526025D01*
X411350Y527319D01*
X412481Y528450D01*
X413775Y529390D01*
X415200Y530116D01*
X416561Y530559D01*
X416561Y523239D01*
X409241Y523239D01*
G37*
%LPD*%
%LPC*%
G36*
X294639Y518161D02*
X294639Y518161D01*
X301959Y518161D01*
X301516Y516800D01*
X300790Y515375D01*
X299850Y514081D01*
X298719Y512950D01*
X297425Y512010D01*
X296000Y511284D01*
X294639Y510841D01*
X294639Y518161D01*
G37*
%LPD*%
%LPC*%
G36*
X307641Y523239D02*
X307641Y523239D01*
X308084Y524600D01*
X308810Y526025D01*
X309750Y527319D01*
X310881Y528450D01*
X312175Y529390D01*
X313600Y530116D01*
X314961Y530559D01*
X314961Y523239D01*
X307641Y523239D01*
G37*
%LPD*%
%LPC*%
G36*
X358441Y523239D02*
X358441Y523239D01*
X358884Y524600D01*
X359610Y526025D01*
X360550Y527319D01*
X361681Y528450D01*
X362975Y529390D01*
X364400Y530116D01*
X365761Y530559D01*
X365761Y523239D01*
X358441Y523239D01*
G37*
%LPD*%
%LPC*%
G36*
X345439Y518161D02*
X345439Y518161D01*
X352759Y518161D01*
X352316Y516800D01*
X351590Y515375D01*
X350650Y514081D01*
X349519Y512950D01*
X348225Y512010D01*
X346800Y511284D01*
X345439Y510841D01*
X345439Y518161D01*
G37*
%LPD*%
%LPC*%
G36*
X434641Y523239D02*
X434641Y523239D01*
X435084Y524600D01*
X435810Y526025D01*
X436750Y527319D01*
X437881Y528450D01*
X439175Y529390D01*
X440600Y530116D01*
X441961Y530559D01*
X441961Y523239D01*
X434641Y523239D01*
G37*
%LPD*%
%LPC*%
G36*
X370839Y518161D02*
X370839Y518161D01*
X378159Y518161D01*
X377716Y516800D01*
X376990Y515375D01*
X376050Y514081D01*
X374919Y512950D01*
X373625Y512010D01*
X372200Y511284D01*
X370839Y510841D01*
X370839Y518161D01*
G37*
%LPD*%
%LPC*%
G36*
X155241Y129539D02*
X155241Y129539D01*
X155684Y130900D01*
X156410Y132325D01*
X157350Y133619D01*
X158481Y134750D01*
X159775Y135690D01*
X161200Y136416D01*
X162561Y136859D01*
X162561Y129539D01*
X155241Y129539D01*
G37*
%LPD*%
%LPC*%
G36*
X472741Y27939D02*
X472741Y27939D01*
X473184Y29300D01*
X473910Y30725D01*
X474850Y32019D01*
X475981Y33150D01*
X477275Y34090D01*
X478700Y34816D01*
X480061Y35259D01*
X480061Y27939D01*
X472741Y27939D01*
G37*
%LPD*%
%LPC*%
G36*
X282241Y523239D02*
X282241Y523239D01*
X282684Y524600D01*
X283410Y526025D01*
X284350Y527319D01*
X285481Y528450D01*
X286775Y529390D01*
X288200Y530116D01*
X289561Y530559D01*
X289561Y523239D01*
X282241Y523239D01*
G37*
%LPD*%
%LPC*%
G36*
X167639Y124461D02*
X167639Y124461D01*
X174959Y124461D01*
X174516Y123100D01*
X173790Y121675D01*
X172850Y120381D01*
X171719Y119250D01*
X170425Y118310D01*
X169000Y117584D01*
X167639Y117141D01*
X167639Y124461D01*
G37*
%LPD*%
%LPC*%
G36*
X485441Y523239D02*
X485441Y523239D01*
X485884Y524600D01*
X486610Y526025D01*
X487550Y527319D01*
X488681Y528450D01*
X489975Y529390D01*
X491400Y530116D01*
X492761Y530559D01*
X492761Y523239D01*
X485441Y523239D01*
G37*
%LPD*%
%LPC*%
G36*
X155241Y383539D02*
X155241Y383539D01*
X155684Y384900D01*
X156410Y386325D01*
X157350Y387619D01*
X158481Y388750D01*
X159775Y389690D01*
X161200Y390416D01*
X162561Y390859D01*
X162561Y383539D01*
X155241Y383539D01*
G37*
%LPD*%
%LPC*%
G36*
X167639Y410211D02*
X167639Y410211D01*
X174959Y410211D01*
X174516Y408850D01*
X173790Y407425D01*
X172850Y406131D01*
X171719Y405000D01*
X170425Y404060D01*
X169000Y403334D01*
X167639Y402891D01*
X167639Y410211D01*
G37*
%LPD*%
%LPC*%
G36*
X167639Y378461D02*
X167639Y378461D01*
X174959Y378461D01*
X174516Y377100D01*
X173790Y375675D01*
X172850Y374381D01*
X171719Y373250D01*
X170425Y372310D01*
X169000Y371584D01*
X167639Y371141D01*
X167639Y378461D01*
G37*
%LPD*%
%LPC*%
G36*
X637539Y22861D02*
X637539Y22861D01*
X644859Y22861D01*
X644416Y21500D01*
X643690Y20075D01*
X642750Y18781D01*
X641619Y17650D01*
X640325Y16710D01*
X638900Y15984D01*
X637539Y15541D01*
X637539Y22861D01*
G37*
%LPD*%
%LPC*%
G36*
X396239Y518161D02*
X396239Y518161D01*
X403559Y518161D01*
X403116Y516800D01*
X402390Y515375D01*
X401450Y514081D01*
X400319Y512950D01*
X399025Y512010D01*
X397600Y511284D01*
X396239Y510841D01*
X396239Y518161D01*
G37*
%LPD*%
%LPC*%
G36*
X155241Y415289D02*
X155241Y415289D01*
X155684Y416650D01*
X156410Y418075D01*
X157350Y419369D01*
X158481Y420500D01*
X159775Y421440D01*
X161200Y422166D01*
X162561Y422609D01*
X162561Y415289D01*
X155241Y415289D01*
G37*
%LPD*%
%LPC*%
G36*
X421639Y518161D02*
X421639Y518161D01*
X428959Y518161D01*
X428516Y516800D01*
X427790Y515375D01*
X426850Y514081D01*
X425719Y512950D01*
X424425Y512010D01*
X423000Y511284D01*
X421639Y510841D01*
X421639Y518161D01*
G37*
%LPD*%
%LPC*%
G36*
X155241Y97789D02*
X155241Y97789D01*
X155684Y99150D01*
X156410Y100575D01*
X157350Y101869D01*
X158481Y103000D01*
X159775Y103940D01*
X161200Y104666D01*
X162561Y105109D01*
X162561Y97789D01*
X155241Y97789D01*
G37*
%LPD*%
%LPC*%
G36*
X167639Y92711D02*
X167639Y92711D01*
X174959Y92711D01*
X174516Y91350D01*
X173790Y89925D01*
X172850Y88631D01*
X171719Y87500D01*
X170425Y86560D01*
X169000Y85834D01*
X167639Y85391D01*
X167639Y92711D01*
G37*
%LPD*%
%LPC*%
G36*
X447039Y518161D02*
X447039Y518161D01*
X454359Y518161D01*
X453916Y516800D01*
X453190Y515375D01*
X452250Y514081D01*
X451119Y512950D01*
X449825Y512010D01*
X448400Y511284D01*
X447039Y510841D01*
X447039Y518161D01*
G37*
%LPD*%
%LPC*%
G36*
X472439Y518161D02*
X472439Y518161D01*
X479759Y518161D01*
X479316Y516800D01*
X478590Y515375D01*
X477650Y514081D01*
X476519Y512950D01*
X475225Y512010D01*
X473800Y511284D01*
X472439Y510841D01*
X472439Y518161D01*
G37*
%LPD*%
%LPC*%
G36*
X320039Y518161D02*
X320039Y518161D01*
X327359Y518161D01*
X326916Y516800D01*
X326190Y515375D01*
X325250Y514081D01*
X324119Y512950D01*
X322825Y512010D01*
X321400Y511284D01*
X320039Y510841D01*
X320039Y518161D01*
G37*
%LPD*%
%LPC*%
G36*
X523239Y518161D02*
X523239Y518161D01*
X530559Y518161D01*
X530116Y516800D01*
X529390Y515375D01*
X528450Y514081D01*
X527319Y512950D01*
X526025Y512010D01*
X524600Y511284D01*
X523239Y510841D01*
X523239Y518161D01*
G37*
%LPD*%
%LPC*%
G36*
X408939Y305436D02*
X408939Y305436D01*
X416259Y305436D01*
X415816Y304075D01*
X415090Y302650D01*
X414150Y301356D01*
X413019Y300225D01*
X411725Y299285D01*
X410300Y298559D01*
X408939Y298116D01*
X408939Y305436D01*
G37*
%LPD*%
%LPC*%
G36*
X574039Y518161D02*
X574039Y518161D01*
X581359Y518161D01*
X580916Y516800D01*
X580190Y515375D01*
X579250Y514081D01*
X578119Y512950D01*
X576825Y512010D01*
X575400Y511284D01*
X574039Y510841D01*
X574039Y518161D01*
G37*
%LPD*%
%LPC*%
G36*
X497839Y518161D02*
X497839Y518161D01*
X505159Y518161D01*
X504716Y516800D01*
X503990Y515375D01*
X503050Y514081D01*
X501919Y512950D01*
X500625Y512010D01*
X499200Y511284D01*
X497839Y510841D01*
X497839Y518161D01*
G37*
%LPD*%
%LPC*%
G36*
X237400Y511284D02*
X237400Y511284D01*
X235975Y512010D01*
X234681Y512950D01*
X233550Y514081D01*
X232610Y515375D01*
X231884Y516800D01*
X231441Y518161D01*
X238761Y518161D01*
X238761Y510841D01*
X237400Y511284D01*
G37*
%LPD*%
%LPC*%
G36*
X262800Y511284D02*
X262800Y511284D01*
X261375Y512010D01*
X260081Y512950D01*
X258950Y514081D01*
X258010Y515375D01*
X257284Y516800D01*
X256841Y518161D01*
X264161Y518161D01*
X264161Y510841D01*
X262800Y511284D01*
G37*
%LPD*%
%LPC*%
G36*
X288200Y511284D02*
X288200Y511284D01*
X286775Y512010D01*
X285481Y512950D01*
X284350Y514081D01*
X283410Y515375D01*
X282684Y516800D01*
X282241Y518161D01*
X289561Y518161D01*
X289561Y510841D01*
X288200Y511284D01*
G37*
%LPD*%
%LPC*%
G36*
X313600Y511284D02*
X313600Y511284D01*
X312175Y512010D01*
X310881Y512950D01*
X309750Y514081D01*
X308810Y515375D01*
X308084Y516800D01*
X307641Y518161D01*
X314961Y518161D01*
X314961Y510841D01*
X313600Y511284D01*
G37*
%LPD*%
%LPC*%
G36*
X567600Y511284D02*
X567600Y511284D01*
X566175Y512010D01*
X564881Y512950D01*
X563750Y514081D01*
X562810Y515375D01*
X562084Y516800D01*
X561641Y518161D01*
X568961Y518161D01*
X568961Y510841D01*
X567600Y511284D01*
G37*
%LPD*%
%LPC*%
G36*
X364400Y511284D02*
X364400Y511284D01*
X362975Y512010D01*
X361681Y512950D01*
X360550Y514081D01*
X359610Y515375D01*
X358884Y516800D01*
X358441Y518161D01*
X365761Y518161D01*
X365761Y510841D01*
X364400Y511284D01*
G37*
%LPD*%
%LPC*%
G36*
X389800Y511284D02*
X389800Y511284D01*
X388375Y512010D01*
X387081Y512950D01*
X385950Y514081D01*
X385010Y515375D01*
X384284Y516800D01*
X383841Y518161D01*
X391161Y518161D01*
X391161Y510841D01*
X389800Y511284D01*
G37*
%LPD*%
%LPC*%
G36*
X161200Y117584D02*
X161200Y117584D01*
X159775Y118310D01*
X158481Y119250D01*
X157350Y120381D01*
X156410Y121675D01*
X155684Y123100D01*
X155241Y124461D01*
X162561Y124461D01*
X162561Y117141D01*
X161200Y117584D01*
G37*
%LPD*%
%LPC*%
G36*
X339000Y511284D02*
X339000Y511284D01*
X337575Y512010D01*
X336281Y512950D01*
X335150Y514081D01*
X334210Y515375D01*
X333484Y516800D01*
X333041Y518161D01*
X340361Y518161D01*
X340361Y510841D01*
X339000Y511284D01*
G37*
%LPD*%
%LPC*%
G36*
X161200Y371584D02*
X161200Y371584D01*
X159775Y372310D01*
X158481Y373250D01*
X157350Y374381D01*
X156410Y375675D01*
X155684Y377100D01*
X155241Y378461D01*
X162561Y378461D01*
X162561Y371141D01*
X161200Y371584D01*
G37*
%LPD*%
%LPC*%
G36*
X161200Y85834D02*
X161200Y85834D01*
X159775Y86560D01*
X158481Y87500D01*
X157350Y88631D01*
X156410Y89925D01*
X155684Y91350D01*
X155241Y92711D01*
X162561Y92711D01*
X162561Y85391D01*
X161200Y85834D01*
G37*
%LPD*%
%LPC*%
G36*
X516800Y511284D02*
X516800Y511284D01*
X515375Y512010D01*
X514081Y512950D01*
X512950Y514081D01*
X512010Y515375D01*
X511284Y516800D01*
X510841Y518161D01*
X518161Y518161D01*
X518161Y510841D01*
X516800Y511284D01*
G37*
%LPD*%
%LPC*%
G36*
X415200Y511284D02*
X415200Y511284D01*
X413775Y512010D01*
X412481Y512950D01*
X411350Y514081D01*
X410410Y515375D01*
X409684Y516800D01*
X409241Y518161D01*
X416561Y518161D01*
X416561Y510841D01*
X415200Y511284D01*
G37*
%LPD*%
%LPC*%
G36*
X466000Y511284D02*
X466000Y511284D01*
X464575Y512010D01*
X463281Y512950D01*
X462150Y514081D01*
X461210Y515375D01*
X460484Y516800D01*
X460041Y518161D01*
X467361Y518161D01*
X467361Y510841D01*
X466000Y511284D01*
G37*
%LPD*%
%LPC*%
G36*
X440600Y511284D02*
X440600Y511284D01*
X439175Y512010D01*
X437881Y512950D01*
X436750Y514081D01*
X435810Y515375D01*
X435084Y516800D01*
X434641Y518161D01*
X441961Y518161D01*
X441961Y510841D01*
X440600Y511284D01*
G37*
%LPD*%
%LPC*%
G36*
X161200Y403334D02*
X161200Y403334D01*
X159775Y404060D01*
X158481Y405000D01*
X157350Y406131D01*
X156410Y407425D01*
X155684Y408850D01*
X155241Y410211D01*
X162561Y410211D01*
X162561Y402891D01*
X161200Y403334D01*
G37*
%LPD*%
%LPC*%
G36*
X186600Y511284D02*
X186600Y511284D01*
X185175Y512010D01*
X183881Y512950D01*
X182750Y514081D01*
X181810Y515375D01*
X181084Y516800D01*
X180641Y518161D01*
X187961Y518161D01*
X187961Y510841D01*
X186600Y511284D01*
G37*
%LPD*%
%LPC*%
G36*
X491400Y511284D02*
X491400Y511284D01*
X489975Y512010D01*
X488681Y512950D01*
X487550Y514081D01*
X486610Y515375D01*
X485884Y516800D01*
X485441Y518161D01*
X492761Y518161D01*
X492761Y510841D01*
X491400Y511284D01*
G37*
%LPD*%
%LPC*%
G36*
X478700Y15984D02*
X478700Y15984D01*
X477275Y16710D01*
X475981Y17650D01*
X474850Y18781D01*
X473910Y20075D01*
X473184Y21500D01*
X472741Y22861D01*
X480061Y22861D01*
X480061Y15541D01*
X478700Y15984D01*
G37*
%LPD*%
%LPC*%
G36*
X212000Y511284D02*
X212000Y511284D01*
X210575Y512010D01*
X209281Y512950D01*
X208150Y514081D01*
X207210Y515375D01*
X206484Y516800D01*
X206041Y518161D01*
X213361Y518161D01*
X213361Y510841D01*
X212000Y511284D01*
G37*
%LPD*%
D10*
X54547Y228600D02*
X72454Y228600D01*
X72454Y177800D02*
X54547Y177800D01*
D11*
X34925Y330454D02*
X34925Y342646D01*
X85725Y342646D02*
X85725Y330454D01*
X60325Y330454D02*
X60325Y342646D01*
D12*
X215900Y520700D03*
X215900Y495300D03*
X215900Y469900D03*
X266700Y520700D03*
X266700Y495300D03*
X266700Y469900D03*
X317500Y520700D03*
X317500Y495300D03*
X317500Y469900D03*
X368300Y520700D03*
X368300Y495300D03*
X368300Y469900D03*
X495300Y520700D03*
X495300Y495300D03*
X495300Y469900D03*
X571500Y520700D03*
X571500Y495300D03*
X571500Y469900D03*
X660400Y139700D03*
X660400Y114300D03*
X342900Y25400D03*
X342900Y50800D03*
X139700Y25400D03*
X139700Y50800D03*
X88900Y25400D03*
X88900Y50800D03*
X114300Y25400D03*
X114300Y50800D03*
X190500Y25400D03*
X190500Y50800D03*
X241300Y25400D03*
X241300Y50800D03*
D13*
X660400Y368300D03*
X635000Y368300D03*
X660400Y393700D03*
X635000Y393700D03*
X660400Y419100D03*
X635000Y419100D03*
D12*
X139700Y127000D03*
X190500Y127000D03*
X215900Y127000D03*
X241300Y127000D03*
X266700Y127000D03*
X292100Y127000D03*
X317500Y127000D03*
X342900Y127000D03*
X368300Y127000D03*
X393700Y127000D03*
X419100Y127000D03*
X444500Y127000D03*
X469900Y127000D03*
X495300Y127000D03*
X139700Y381000D03*
X165100Y381000D03*
X190400Y381000D03*
X215900Y381000D03*
X241300Y381000D03*
X266700Y381000D03*
X292100Y381000D03*
X317500Y381000D03*
X342900Y381000D03*
X368300Y381000D03*
X393700Y381000D03*
X419100Y381000D03*
X444500Y381000D03*
X469900Y381000D03*
X495300Y381000D03*
X165100Y127000D03*
X292100Y520700D03*
X292100Y495300D03*
X292100Y469900D03*
X292100Y25400D03*
X292100Y50800D03*
X317500Y25400D03*
X317500Y50800D03*
X393700Y25400D03*
X393700Y50800D03*
X368300Y25400D03*
X368300Y50800D03*
X165100Y25400D03*
X165100Y50800D03*
X266700Y25400D03*
X266700Y50800D03*
X215900Y25400D03*
X215900Y50800D03*
D14*
X406400Y174625D03*
D12*
X406400Y200025D03*
X406400Y282575D03*
X406400Y307975D03*
X406400Y333375D03*
D15*
X142240Y304350D03*
D16*
X142240Y165550D03*
D15*
X327660Y304350D03*
X142240Y278950D03*
X327660Y278950D03*
D16*
X142240Y190950D03*
X327660Y165550D03*
X327660Y190950D03*
D12*
X482600Y25400D03*
X508000Y25400D03*
X533400Y25400D03*
X558800Y25400D03*
X584200Y25400D03*
X609600Y25400D03*
X635000Y25400D03*
D17*
X594360Y266700D03*
X609600Y266700D03*
X624840Y266700D03*
D18*
X622300Y266700D02*
X609600Y266700D01*
D17*
X594360Y215900D03*
X609600Y215900D03*
X624840Y215900D03*
D18*
X622300Y215900D02*
X609600Y215900D01*
D12*
X660400Y317500D03*
X660400Y292100D03*
X660400Y266700D03*
X660400Y241300D03*
X660400Y215900D03*
X660400Y190500D03*
X622300Y520700D03*
X622300Y495300D03*
X469900Y520700D03*
X469900Y495300D03*
X469900Y469900D03*
X469900Y444500D03*
X342900Y520700D03*
X342900Y495300D03*
X342900Y469900D03*
X342900Y444500D03*
X393700Y520700D03*
X393700Y495300D03*
X393700Y469900D03*
X139700Y95250D03*
X165100Y95250D03*
X190500Y95250D03*
X215900Y95250D03*
X241300Y95250D03*
X266700Y95250D03*
X292100Y95250D03*
X317500Y95250D03*
X342900Y95250D03*
X368300Y95250D03*
X393700Y95250D03*
X419100Y95250D03*
X444500Y95250D03*
X469900Y95250D03*
X495300Y95250D03*
X139700Y412750D03*
X165100Y412750D03*
X190500Y412750D03*
X215900Y412750D03*
X241300Y412750D03*
X266700Y412750D03*
X292100Y412750D03*
X317500Y412750D03*
X342900Y412750D03*
X368300Y412750D03*
X393700Y412750D03*
X419100Y412750D03*
X444500Y412750D03*
X469900Y412750D03*
X495300Y412750D03*
X520700Y520700D03*
X520700Y495300D03*
X520700Y469900D03*
X444500Y520700D03*
X444500Y495300D03*
X444500Y469900D03*
X444500Y444500D03*
X419100Y520700D03*
X419100Y495300D03*
X419100Y469900D03*
X241300Y520700D03*
X241300Y495300D03*
X241300Y469900D03*
X241300Y444500D03*
X190500Y520700D03*
X190500Y495300D03*
X190500Y469900D03*
D18*
X406400Y333375D02*
X406400Y333155D01*
X394208Y320963D01*
X394208Y294767D02*
X406400Y282575D01*
X394208Y294767D02*
X394208Y320963D01*
D19*
X277495Y244475D02*
X327660Y190950D01*
X277495Y244475D02*
X165100Y244475D01*
D20*
X165100Y244475D03*
X149225Y244475D03*
D19*
X165100Y244475D01*
D21*
X624840Y215900D02*
X660400Y215900D01*
X624840Y253048D02*
X624840Y266700D01*
X624840Y253048D02*
X615950Y244602D01*
D22*
X615950Y244602D03*
X282575Y180975D03*
X549275Y161925D03*
X539750Y161925D03*
X292100Y180975D03*
X282575Y171450D03*
X539750Y152400D03*
X539750Y415925D03*
D20*
X95250Y485775D03*
X95250Y501650D03*
X95250Y517525D03*
X66675Y520700D03*
X66675Y504825D03*
D18*
X621792Y30450D02*
X621792Y20350D01*
X608046Y6604D01*
X576414Y6604D01*
X558800Y24218D01*
X495300Y76454D02*
X495300Y127000D01*
X495300Y76454D02*
X558361Y76454D01*
X614650Y37592D02*
X621792Y30450D01*
X614650Y37592D02*
X597223Y37592D01*
X558361Y76454D01*
X558800Y25400D02*
X558800Y24218D01*
X398140Y75121D02*
X368300Y75121D01*
X398140Y75121D02*
X413190Y60071D01*
X572008Y20350D02*
X579150Y13208D01*
X598775Y13208D01*
X368300Y75121D02*
X368300Y127000D01*
X413190Y60071D02*
X541371Y60071D01*
X572008Y29434D01*
X572008Y20350D01*
X598775Y13208D02*
X609600Y24033D01*
X609600Y25400D01*
X190500Y127000D02*
X190500Y139700D01*
X165100Y165100D01*
X165100Y209550D01*
X152400Y222250D01*
X133350Y222250D01*
X120650Y234950D01*
X120650Y349250D01*
D22*
X120650Y349250D03*
D18*
X342900Y95250D02*
X342900Y64580D01*
X398602Y64580D01*
X409842Y53340D02*
X511175Y53340D01*
X533400Y31750D01*
X533400Y25400D01*
X409842Y53340D02*
X398602Y64580D01*
X558800Y66675D02*
X584200Y41275D01*
X558800Y66675D02*
X422275Y66675D01*
X584200Y41275D02*
X584200Y25400D01*
X422275Y66675D02*
X393700Y95250D01*
X444500Y444500D02*
X419100Y469900D01*
D22*
X426720Y431800D03*
D18*
X450850Y431800D01*
X457200Y438150D01*
X457200Y457200D01*
X469900Y469900D01*
D21*
X520700Y330200D02*
X635000Y444500D01*
X676783Y410083D02*
X660400Y393700D01*
X676783Y410083D02*
X676783Y427746D01*
X520725Y330200D02*
X520700Y330200D01*
D22*
X520725Y330200D03*
D21*
X635000Y444500D02*
X660029Y444500D01*
X676783Y427746D01*
X635000Y393700D02*
X616167Y393700D01*
X527676Y305209D01*
X508409Y305209D01*
X508000Y304800D01*
X508109Y304692D01*
D22*
X508109Y304692D03*
D21*
X635000Y352425D02*
X635000Y368300D01*
X635000Y352425D02*
X568325Y285750D01*
X568325Y285263D01*
X568727Y284861D01*
D22*
X568727Y284861D03*
D21*
X660400Y355600D02*
X660400Y368300D01*
X660400Y355600D02*
X571500Y266700D01*
D22*
X571500Y266700D03*
D21*
X594360Y266700D01*
D22*
X450850Y206375D03*
D21*
X450850Y165100D01*
X330200Y69342D02*
X292100Y69342D01*
X292100Y50800D01*
X330200Y132979D02*
X340604Y143383D01*
D23*
X330200Y132979D02*
X330200Y69342D01*
D21*
X433388Y147638D02*
X450850Y165100D01*
X433388Y147638D02*
X376238Y147638D01*
X371983Y143383D02*
X340604Y143383D01*
X371983Y143383D02*
X376238Y147638D01*
X78667Y94171D02*
X59817Y75321D01*
X59817Y26279D02*
X83429Y2667D01*
X59817Y26279D02*
X59817Y75321D01*
X139700Y94171D02*
X139700Y127000D01*
X139700Y94171D02*
X78667Y94171D01*
X485267Y2667D02*
X508000Y25400D01*
X485267Y2667D02*
X83429Y2667D01*
D22*
X374650Y180975D03*
D21*
X383667Y189992D01*
X383667Y205496D01*
X565342Y215900D02*
X594360Y215900D01*
X565342Y215900D02*
X524476Y256766D01*
X434937Y256766D02*
X383667Y205496D01*
X434937Y256766D02*
X524476Y256766D01*
X625475Y419100D02*
X635000Y419100D01*
X625475Y419100D02*
X523395Y317020D01*
X495191Y317020D01*
X434937Y256766D01*
D19*
X142240Y190950D02*
X142240Y165550D01*
D20*
X96266Y165100D03*
D19*
X100076Y165550D02*
X142240Y165550D01*
X100076Y165550D02*
X96266Y165100D01*
D21*
X609600Y266700D02*
X609600Y279400D01*
X647700Y317500D01*
X660400Y317500D01*
X613664Y232664D02*
X609600Y228600D01*
X609600Y215900D01*
X613664Y232664D02*
X626364Y232664D01*
X660400Y266700D01*
M02*
