G04 EAGLE Gerber RS-274X export*
G75*
%MOMM*%
%FSLAX34Y34*%
%LPD*%
%INSilkscreen Top*%
%IPPOS*%
%AMOC8*
5,1,8,0,0,1.08239X$1,22.5*%
G01*
%ADD10C,0.076200*%
%ADD11C,0.050800*%
%ADD12C,0.203200*%
%ADD13C,0.152400*%
%ADD14C,0.127000*%
%ADD15C,0.304800*%
%ADD16C,0.101600*%
%ADD17C,0.254000*%

G36*
X587278Y349463D02*
X587278Y349463D01*
X587310Y349461D01*
X587361Y349483D01*
X587416Y349495D01*
X587440Y349516D01*
X587470Y349528D01*
X587506Y349570D01*
X587549Y349605D01*
X587562Y349635D01*
X587583Y349659D01*
X587604Y349728D01*
X587620Y349764D01*
X587620Y349779D01*
X587625Y349798D01*
X588419Y357617D01*
X590893Y358409D01*
X590916Y358422D01*
X590951Y358433D01*
X593261Y359622D01*
X599352Y354655D01*
X599380Y354641D01*
X599404Y354620D01*
X599457Y354604D01*
X599507Y354579D01*
X599539Y354579D01*
X599570Y354570D01*
X599625Y354580D01*
X599681Y354580D01*
X599709Y354595D01*
X599741Y354600D01*
X599800Y354640D01*
X599836Y354658D01*
X599845Y354670D01*
X599861Y354681D01*
X604169Y358989D01*
X604186Y359016D01*
X604210Y359037D01*
X604231Y359089D01*
X604260Y359136D01*
X604263Y359168D01*
X604275Y359198D01*
X604272Y359253D01*
X604277Y359309D01*
X604265Y359339D01*
X604263Y359371D01*
X604229Y359434D01*
X604215Y359471D01*
X604204Y359481D01*
X604195Y359498D01*
X599228Y365589D01*
X600418Y367898D01*
X600434Y367962D01*
X600457Y368025D01*
X600455Y368046D01*
X600460Y368066D01*
X600446Y368131D01*
X600439Y368197D01*
X600428Y368215D01*
X600423Y368235D01*
X600382Y368287D01*
X600346Y368343D01*
X600327Y368356D01*
X600315Y368371D01*
X600281Y368387D01*
X600226Y368423D01*
X591564Y372011D01*
X591531Y372017D01*
X591502Y372031D01*
X591447Y372030D01*
X591393Y372039D01*
X591361Y372030D01*
X591329Y372030D01*
X591280Y372005D01*
X591227Y371989D01*
X591203Y371966D01*
X591174Y371952D01*
X591129Y371897D01*
X591101Y371870D01*
X591095Y371855D01*
X591083Y371839D01*
X590378Y370521D01*
X589454Y369395D01*
X588328Y368471D01*
X587044Y367785D01*
X585650Y367362D01*
X584201Y367219D01*
X582682Y367376D01*
X581229Y367839D01*
X579900Y368590D01*
X578753Y369596D01*
X577836Y370815D01*
X577186Y372196D01*
X576833Y373680D01*
X576790Y375205D01*
X577060Y376707D01*
X577630Y378122D01*
X578478Y379390D01*
X579567Y380459D01*
X580851Y381283D01*
X582277Y381827D01*
X583783Y382069D01*
X585307Y381997D01*
X586785Y381616D01*
X588153Y380942D01*
X589355Y380002D01*
X590339Y378836D01*
X591084Y377459D01*
X591105Y377436D01*
X591118Y377407D01*
X591161Y377371D01*
X591198Y377330D01*
X591228Y377318D01*
X591252Y377298D01*
X591307Y377285D01*
X591359Y377264D01*
X591391Y377267D01*
X591422Y377260D01*
X591493Y377274D01*
X591532Y377277D01*
X591545Y377285D01*
X591564Y377289D01*
X600226Y380877D01*
X600280Y380916D01*
X600337Y380948D01*
X600349Y380965D01*
X600366Y380978D01*
X600398Y381036D01*
X600435Y381091D01*
X600438Y381112D01*
X600448Y381131D01*
X600450Y381197D01*
X600459Y381263D01*
X600452Y381286D01*
X600453Y381304D01*
X600436Y381339D01*
X600418Y381402D01*
X599228Y383711D01*
X604195Y389802D01*
X604209Y389830D01*
X604230Y389854D01*
X604246Y389907D01*
X604271Y389957D01*
X604271Y389989D01*
X604280Y390020D01*
X604270Y390075D01*
X604270Y390131D01*
X604255Y390159D01*
X604250Y390191D01*
X604210Y390250D01*
X604192Y390286D01*
X604180Y390295D01*
X604169Y390311D01*
X599861Y394619D01*
X599834Y394636D01*
X599813Y394660D01*
X599761Y394681D01*
X599714Y394710D01*
X599682Y394713D01*
X599652Y394725D01*
X599597Y394722D01*
X599541Y394727D01*
X599511Y394715D01*
X599479Y394713D01*
X599416Y394679D01*
X599379Y394665D01*
X599369Y394654D01*
X599352Y394645D01*
X593261Y389678D01*
X590951Y390867D01*
X590939Y390870D01*
X590932Y390875D01*
X590917Y390878D01*
X590893Y390891D01*
X588419Y391683D01*
X587625Y399502D01*
X587615Y399533D01*
X587614Y399565D01*
X587587Y399614D01*
X587569Y399666D01*
X587546Y399689D01*
X587531Y399717D01*
X587485Y399749D01*
X587446Y399788D01*
X587415Y399798D01*
X587389Y399817D01*
X587319Y399830D01*
X587281Y399843D01*
X587266Y399841D01*
X587247Y399844D01*
X581153Y399844D01*
X581122Y399837D01*
X581090Y399839D01*
X581039Y399817D01*
X580984Y399805D01*
X580960Y399784D01*
X580930Y399772D01*
X580894Y399730D01*
X580851Y399695D01*
X580838Y399665D01*
X580817Y399641D01*
X580796Y399572D01*
X580780Y399536D01*
X580780Y399521D01*
X580775Y399502D01*
X579981Y391683D01*
X577507Y390891D01*
X577484Y390878D01*
X577449Y390867D01*
X575139Y389678D01*
X569048Y394645D01*
X569020Y394659D01*
X568996Y394680D01*
X568943Y394696D01*
X568893Y394721D01*
X568861Y394721D01*
X568830Y394730D01*
X568775Y394720D01*
X568719Y394720D01*
X568691Y394705D01*
X568659Y394700D01*
X568600Y394660D01*
X568565Y394642D01*
X568555Y394630D01*
X568539Y394619D01*
X564231Y390311D01*
X564214Y390284D01*
X564190Y390263D01*
X564169Y390211D01*
X564140Y390164D01*
X564137Y390132D01*
X564125Y390102D01*
X564129Y390047D01*
X564123Y389991D01*
X564135Y389961D01*
X564137Y389929D01*
X564171Y389866D01*
X564185Y389829D01*
X564196Y389819D01*
X564205Y389802D01*
X569172Y383711D01*
X567983Y381401D01*
X567976Y381375D01*
X567959Y381343D01*
X567167Y378869D01*
X559348Y378075D01*
X559317Y378065D01*
X559285Y378064D01*
X559236Y378037D01*
X559184Y378019D01*
X559161Y377996D01*
X559133Y377981D01*
X559101Y377935D01*
X559062Y377896D01*
X559052Y377865D01*
X559033Y377839D01*
X559020Y377769D01*
X559007Y377731D01*
X559009Y377716D01*
X559006Y377697D01*
X559006Y371603D01*
X559013Y371572D01*
X559011Y371540D01*
X559033Y371489D01*
X559045Y371434D01*
X559066Y371410D01*
X559078Y371380D01*
X559120Y371344D01*
X559155Y371301D01*
X559185Y371288D01*
X559209Y371267D01*
X559278Y371246D01*
X559314Y371230D01*
X559329Y371230D01*
X559348Y371225D01*
X567167Y370431D01*
X567959Y367957D01*
X567972Y367934D01*
X567983Y367899D01*
X569172Y365589D01*
X564205Y359498D01*
X564191Y359470D01*
X564170Y359446D01*
X564154Y359393D01*
X564129Y359343D01*
X564129Y359311D01*
X564120Y359280D01*
X564130Y359225D01*
X564130Y359169D01*
X564145Y359141D01*
X564150Y359109D01*
X564190Y359050D01*
X564208Y359015D01*
X564220Y359005D01*
X564231Y358989D01*
X568539Y354681D01*
X568566Y354664D01*
X568587Y354640D01*
X568639Y354619D01*
X568686Y354590D01*
X568718Y354587D01*
X568748Y354575D01*
X568803Y354579D01*
X568859Y354573D01*
X568889Y354585D01*
X568921Y354587D01*
X568984Y354621D01*
X569021Y354635D01*
X569031Y354646D01*
X569048Y354655D01*
X575139Y359622D01*
X577449Y358433D01*
X577475Y358426D01*
X577507Y358409D01*
X579981Y357617D01*
X580775Y349798D01*
X580785Y349767D01*
X580786Y349735D01*
X580813Y349686D01*
X580831Y349634D01*
X580854Y349611D01*
X580869Y349583D01*
X580915Y349551D01*
X580954Y349512D01*
X580985Y349502D01*
X581011Y349483D01*
X581081Y349470D01*
X581119Y349457D01*
X581134Y349459D01*
X581153Y349456D01*
X587247Y349456D01*
X587278Y349463D01*
G37*
D10*
X689689Y111091D02*
X688461Y109862D01*
X688461Y107405D01*
X689689Y106176D01*
X690918Y106176D01*
X692147Y107405D01*
X692147Y109862D01*
X693376Y111091D01*
X694604Y111091D01*
X695833Y109862D01*
X695833Y107405D01*
X694604Y106176D01*
X695833Y113660D02*
X688461Y113660D01*
X690918Y114889D02*
X692147Y113660D01*
X690918Y114889D02*
X690918Y117346D01*
X692147Y118575D01*
X695833Y118575D01*
X690918Y122373D02*
X690918Y124830D01*
X692147Y126059D01*
X695833Y126059D01*
X695833Y122373D01*
X694604Y121144D01*
X693376Y122373D01*
X693376Y126059D01*
X695833Y128628D02*
X688461Y128628D01*
X693376Y128628D02*
X695833Y132315D01*
X693376Y128628D02*
X690918Y132315D01*
X695833Y136094D02*
X695833Y138551D01*
X695833Y136094D02*
X694604Y134865D01*
X692147Y134865D01*
X690918Y136094D01*
X690918Y138551D01*
X692147Y139780D01*
X693376Y139780D01*
X693376Y134865D01*
X695833Y142349D02*
X690918Y142349D01*
X693376Y142349D02*
X690918Y144807D01*
X690918Y146035D01*
X688461Y361026D02*
X695833Y361026D01*
X688461Y361026D02*
X688461Y364712D01*
X689689Y365941D01*
X692147Y365941D01*
X693376Y364712D01*
X693376Y361026D01*
X693376Y363483D02*
X695833Y365941D01*
X695833Y369739D02*
X695833Y372196D01*
X695833Y369739D02*
X694604Y368510D01*
X692147Y368510D01*
X690918Y369739D01*
X690918Y372196D01*
X692147Y373425D01*
X693376Y373425D01*
X693376Y368510D01*
X690918Y377223D02*
X690918Y379680D01*
X692147Y380909D01*
X695833Y380909D01*
X695833Y377223D01*
X694604Y375994D01*
X693376Y377223D01*
X693376Y380909D01*
X695833Y383478D02*
X690918Y383478D01*
X693376Y383478D02*
X690918Y385936D01*
X690918Y387165D01*
X688461Y389715D02*
X688461Y390944D01*
X695833Y390944D01*
X695833Y389715D02*
X695833Y392173D01*
X690918Y394705D02*
X690918Y395933D01*
X695833Y395933D01*
X695833Y394705D02*
X695833Y397162D01*
X688461Y395933D02*
X687232Y395933D01*
X698290Y402152D02*
X698290Y403380D01*
X697062Y404609D01*
X690918Y404609D01*
X690918Y400923D01*
X692147Y399694D01*
X694604Y399694D01*
X695833Y400923D01*
X695833Y404609D01*
X695833Y407178D02*
X688461Y407178D01*
X690918Y408407D02*
X692147Y407178D01*
X690918Y408407D02*
X690918Y410864D01*
X692147Y412093D01*
X695833Y412093D01*
X694604Y415891D02*
X689689Y415891D01*
X694604Y415891D02*
X695833Y417120D01*
X690918Y417120D02*
X690918Y414662D01*
X695833Y419652D02*
X695833Y423338D01*
X694604Y424567D01*
X693376Y423338D01*
X693376Y420881D01*
X692147Y419652D01*
X690918Y420881D01*
X690918Y424567D01*
X688461Y188234D02*
X695833Y188234D01*
X688461Y185776D02*
X688461Y190691D01*
X690918Y193260D02*
X695833Y193260D01*
X690918Y193260D02*
X688461Y195718D01*
X690918Y198175D01*
X695833Y198175D01*
X692147Y198175D02*
X692147Y193260D01*
X695833Y200745D02*
X688461Y200745D01*
X690918Y203202D01*
X688461Y205659D01*
X695833Y205659D01*
X695833Y208229D02*
X695833Y210686D01*
X695833Y209457D02*
X688461Y209457D01*
X688461Y208229D02*
X688461Y210686D01*
X688461Y213218D02*
X689689Y213218D01*
X692147Y215676D01*
X689689Y218133D01*
X688461Y218133D01*
X692147Y215676D02*
X695833Y215676D01*
X695833Y220702D02*
X690918Y220702D01*
X688461Y223160D01*
X690918Y225617D01*
X695833Y225617D01*
X692147Y225617D02*
X692147Y220702D01*
X689689Y236899D02*
X694604Y236899D01*
X695833Y238128D01*
X690918Y238128D02*
X690918Y235671D01*
X690918Y240660D02*
X695833Y240660D01*
X693376Y240660D02*
X690918Y243117D01*
X690918Y244346D01*
X690918Y248126D02*
X690918Y250583D01*
X692147Y251812D01*
X695833Y251812D01*
X695833Y248126D01*
X694604Y246897D01*
X693376Y248126D01*
X693376Y251812D01*
X690918Y254381D02*
X690918Y255610D01*
X695833Y255610D01*
X695833Y256838D02*
X695833Y254381D01*
X688461Y255610D02*
X687232Y255610D01*
X688461Y259370D02*
X688461Y260599D01*
X695833Y260599D01*
X695833Y259370D02*
X695833Y261828D01*
X695833Y265589D02*
X695833Y268046D01*
X695833Y265589D02*
X694604Y264360D01*
X692147Y264360D01*
X690918Y265589D01*
X690918Y268046D01*
X692147Y269275D01*
X693376Y269275D01*
X693376Y264360D01*
X695833Y271844D02*
X690918Y271844D01*
X690918Y274301D02*
X693376Y271844D01*
X690918Y274301D02*
X690918Y275530D01*
X688461Y285565D02*
X688461Y290480D01*
X688461Y285565D02*
X692147Y285565D01*
X690918Y288022D01*
X690918Y289251D01*
X692147Y290480D01*
X694604Y290480D01*
X695833Y289251D01*
X695833Y286794D01*
X694604Y285565D01*
X689689Y295507D02*
X688461Y297964D01*
X689689Y295507D02*
X692147Y293049D01*
X694604Y293049D01*
X695833Y294278D01*
X695833Y296735D01*
X694604Y297964D01*
X693376Y297964D01*
X692147Y296735D01*
X692147Y293049D01*
X688461Y300533D02*
X688461Y305448D01*
X688461Y300533D02*
X692147Y300533D01*
X690918Y302991D01*
X690918Y304219D01*
X692147Y305448D01*
X694604Y305448D01*
X695833Y304219D01*
X695833Y301762D01*
X694604Y300533D01*
X694604Y308017D02*
X689689Y308017D01*
X688461Y309246D01*
X688461Y311704D01*
X689689Y312932D01*
X694604Y312932D01*
X695833Y311704D01*
X695833Y309246D01*
X694604Y308017D01*
X689689Y312932D01*
X695833Y315502D02*
X695833Y320416D01*
X695833Y315502D02*
X690918Y320416D01*
X689689Y320416D01*
X688461Y319188D01*
X688461Y316730D01*
X689689Y315502D01*
X542411Y463988D02*
X543639Y465217D01*
X542411Y463988D02*
X542411Y461531D01*
X543639Y460302D01*
X544868Y460302D01*
X546097Y461531D01*
X546097Y463988D01*
X547326Y465217D01*
X548554Y465217D01*
X549783Y463988D01*
X549783Y461531D01*
X548554Y460302D01*
X544868Y467786D02*
X544868Y469015D01*
X549783Y469015D01*
X549783Y467786D02*
X549783Y470244D01*
X542411Y469015D02*
X541182Y469015D01*
X552240Y475233D02*
X552240Y476462D01*
X551012Y477691D01*
X544868Y477691D01*
X544868Y474004D01*
X546097Y472776D01*
X548554Y472776D01*
X549783Y474004D01*
X549783Y477691D01*
X546097Y488197D02*
X546097Y493112D01*
X548554Y490654D02*
X543639Y490654D01*
X542411Y495681D02*
X547326Y495681D01*
X549783Y498138D01*
X547326Y500596D01*
X542411Y500596D01*
X542411Y513541D02*
X543639Y514770D01*
X542411Y513541D02*
X542411Y511083D01*
X543639Y509855D01*
X548554Y509855D01*
X549783Y511083D01*
X549783Y513541D01*
X548554Y514770D01*
X546097Y514770D01*
X546097Y512312D01*
X549783Y517339D02*
X542411Y517339D01*
X549783Y522254D01*
X542411Y522254D01*
X542411Y524823D02*
X549783Y524823D01*
X549783Y528509D01*
X548554Y529738D01*
X543639Y529738D01*
X542411Y528509D01*
X542411Y524823D01*
X22939Y267120D02*
X21711Y265891D01*
X21711Y263433D01*
X22939Y262205D01*
X27854Y262205D01*
X29083Y263433D01*
X29083Y265891D01*
X27854Y267120D01*
X25397Y267120D01*
X25397Y264662D01*
X29083Y269689D02*
X21711Y269689D01*
X29083Y274604D01*
X21711Y274604D01*
X21711Y277173D02*
X29083Y277173D01*
X29083Y280859D01*
X27854Y282088D01*
X22939Y282088D01*
X21711Y280859D01*
X21711Y277173D01*
X21711Y104797D02*
X21711Y99883D01*
X21711Y104797D02*
X22939Y104797D01*
X27854Y99883D01*
X29083Y99883D01*
X25397Y107367D02*
X25397Y112282D01*
X24168Y114851D02*
X21711Y117308D01*
X29083Y117308D01*
X29083Y114851D02*
X29083Y119766D01*
X29083Y122335D02*
X29083Y127250D01*
X29083Y122335D02*
X24168Y127250D01*
X22939Y127250D01*
X21711Y126021D01*
X21711Y123564D01*
X22939Y122335D01*
X27854Y129819D02*
X29083Y129819D01*
X27854Y129819D02*
X27854Y131048D01*
X29083Y131048D01*
X29083Y129819D01*
X22939Y136019D02*
X21711Y138476D01*
X22939Y136019D02*
X25397Y133561D01*
X27854Y133561D01*
X29083Y134790D01*
X29083Y137247D01*
X27854Y138476D01*
X26626Y138476D01*
X25397Y137247D01*
X25397Y133561D01*
X26626Y141045D02*
X21711Y141045D01*
X26626Y141045D02*
X29083Y143503D01*
X26626Y145960D01*
X21711Y145960D01*
X20276Y366526D02*
X15361Y366526D01*
X20276Y366526D02*
X22733Y368983D01*
X20276Y371441D01*
X15361Y371441D01*
X22733Y375239D02*
X22733Y377696D01*
X21504Y378925D01*
X19047Y378925D01*
X17818Y377696D01*
X17818Y375239D01*
X19047Y374010D01*
X21504Y374010D01*
X22733Y375239D01*
X15361Y381494D02*
X15361Y382723D01*
X22733Y382723D01*
X22733Y381494D02*
X22733Y383952D01*
X21504Y386484D02*
X17818Y386484D01*
X21504Y386484D02*
X22733Y387712D01*
X22733Y391399D01*
X17818Y391399D01*
X17818Y393968D02*
X22733Y393968D01*
X17818Y393968D02*
X17818Y395197D01*
X19047Y396425D01*
X22733Y396425D01*
X19047Y396425D02*
X17818Y397654D01*
X19047Y398883D01*
X22733Y398883D01*
X22733Y402681D02*
X22733Y405138D01*
X22733Y402681D02*
X21504Y401452D01*
X19047Y401452D01*
X17818Y402681D01*
X17818Y405138D01*
X19047Y406367D01*
X20276Y406367D01*
X20276Y401452D01*
X675761Y315312D02*
X675761Y310397D01*
X679447Y310397D01*
X678218Y312854D01*
X678218Y314083D01*
X679447Y315312D01*
X681904Y315312D01*
X683133Y314083D01*
X683133Y311626D01*
X681904Y310397D01*
X680676Y317881D02*
X675761Y317881D01*
X680676Y317881D02*
X683133Y320338D01*
X680676Y322796D01*
X675761Y322796D01*
X675761Y264512D02*
X675761Y259597D01*
X679447Y259597D01*
X678218Y262054D01*
X678218Y263283D01*
X679447Y264512D01*
X681904Y264512D01*
X683133Y263283D01*
X683133Y260826D01*
X681904Y259597D01*
X680676Y267081D02*
X675761Y267081D01*
X680676Y267081D02*
X683133Y269538D01*
X680676Y271996D01*
X675761Y271996D01*
X675761Y213712D02*
X675761Y208797D01*
X679447Y208797D01*
X678218Y211254D01*
X678218Y212483D01*
X679447Y213712D01*
X681904Y213712D01*
X683133Y212483D01*
X683133Y210026D01*
X681904Y208797D01*
X680676Y216281D02*
X675761Y216281D01*
X680676Y216281D02*
X683133Y218738D01*
X680676Y221196D01*
X675761Y221196D01*
X675761Y185854D02*
X683133Y185854D01*
X675761Y183397D02*
X675761Y188312D01*
X675761Y190881D02*
X683133Y190881D01*
X683133Y195796D01*
X683133Y235444D02*
X683133Y237902D01*
X683133Y236673D02*
X675761Y236673D01*
X675761Y235444D02*
X675761Y237902D01*
X675761Y240434D02*
X683133Y240434D01*
X675761Y240434D02*
X675761Y244120D01*
X676989Y245349D01*
X679447Y245349D01*
X680676Y244120D01*
X680676Y240434D01*
X680676Y242891D02*
X683133Y245349D01*
X683133Y286244D02*
X683133Y288702D01*
X683133Y287473D02*
X675761Y287473D01*
X675761Y286244D02*
X675761Y288702D01*
X675761Y291234D02*
X683133Y291234D01*
X683133Y296149D01*
X683133Y389054D02*
X675761Y389054D01*
X675761Y386597D02*
X675761Y391512D01*
X675761Y394081D02*
X683133Y394081D01*
X683133Y398996D01*
X683133Y357455D02*
X675761Y357455D01*
X675761Y361141D01*
X676989Y362370D01*
X679447Y362370D01*
X680676Y361141D01*
X680676Y357455D01*
X680676Y359912D02*
X683133Y362370D01*
X675761Y364939D02*
X675761Y369854D01*
X675761Y364939D02*
X683133Y364939D01*
X683133Y369854D01*
X679447Y367396D02*
X679447Y364939D01*
X680676Y372423D02*
X675761Y372423D01*
X680676Y372423D02*
X683133Y374881D01*
X680676Y377338D01*
X675761Y377338D01*
X675761Y411997D02*
X675761Y416912D01*
X675761Y411997D02*
X679447Y411997D01*
X678218Y414454D01*
X678218Y415683D01*
X679447Y416912D01*
X681904Y416912D01*
X683133Y415683D01*
X683133Y413226D01*
X681904Y411997D01*
X680676Y419481D02*
X675761Y419481D01*
X680676Y419481D02*
X683133Y421938D01*
X680676Y424396D01*
X675761Y424396D01*
X241833Y8811D02*
X240604Y10039D01*
X238147Y10039D01*
X236918Y8811D01*
X236918Y7582D01*
X238147Y6353D01*
X240604Y6353D01*
X241833Y5124D01*
X241833Y3896D01*
X240604Y2667D01*
X238147Y2667D01*
X236918Y3896D01*
X244402Y2667D02*
X246860Y2667D01*
X245631Y2667D02*
X245631Y10039D01*
X244402Y10039D02*
X246860Y10039D01*
X249392Y10039D02*
X249392Y2667D01*
X253078Y2667D01*
X254306Y3896D01*
X254306Y8811D01*
X253078Y10039D01*
X249392Y10039D01*
X256876Y10039D02*
X261791Y10039D01*
X256876Y10039D02*
X256876Y2667D01*
X261791Y2667D01*
X259333Y6353D02*
X256876Y6353D01*
X264360Y10039D02*
X264360Y2667D01*
X269275Y2667D01*
X675761Y132597D02*
X675761Y137512D01*
X675761Y132597D02*
X679447Y132597D01*
X678218Y135054D01*
X678218Y136283D01*
X679447Y137512D01*
X681904Y137512D01*
X683133Y136283D01*
X683133Y133826D01*
X681904Y132597D01*
X680676Y140081D02*
X675761Y140081D01*
X680676Y140081D02*
X683133Y142538D01*
X680676Y144996D01*
X675761Y144996D01*
X391512Y8811D02*
X390283Y10039D01*
X387826Y10039D01*
X386597Y8811D01*
X386597Y3896D01*
X387826Y2667D01*
X390283Y2667D01*
X391512Y3896D01*
X394081Y2667D02*
X394081Y10039D01*
X394081Y2667D02*
X398996Y2667D01*
X222670Y542211D02*
X221441Y543439D01*
X218983Y543439D01*
X217755Y542211D01*
X217755Y537296D01*
X218983Y536067D01*
X221441Y536067D01*
X222670Y537296D01*
X225239Y536067D02*
X225239Y543439D01*
X225239Y539753D02*
X230154Y539753D01*
X230154Y543439D02*
X230154Y536067D01*
X232723Y540982D02*
X235180Y543439D01*
X235180Y536067D01*
X232723Y536067D02*
X237638Y536067D01*
X272241Y543439D02*
X273470Y542211D01*
X272241Y543439D02*
X269783Y543439D01*
X268555Y542211D01*
X268555Y537296D01*
X269783Y536067D01*
X272241Y536067D01*
X273470Y537296D01*
X276039Y536067D02*
X276039Y543439D01*
X276039Y539753D02*
X280954Y539753D01*
X280954Y543439D02*
X280954Y536067D01*
X283523Y536067D02*
X288438Y536067D01*
X283523Y536067D02*
X288438Y540982D01*
X288438Y542211D01*
X287209Y543439D01*
X284752Y543439D01*
X283523Y542211D01*
X323041Y543439D02*
X324270Y542211D01*
X323041Y543439D02*
X320583Y543439D01*
X319355Y542211D01*
X319355Y537296D01*
X320583Y536067D01*
X323041Y536067D01*
X324270Y537296D01*
X326839Y536067D02*
X326839Y543439D01*
X326839Y539753D02*
X331754Y539753D01*
X331754Y543439D02*
X331754Y536067D01*
X334323Y542211D02*
X335552Y543439D01*
X338009Y543439D01*
X339238Y542211D01*
X339238Y540982D01*
X338009Y539753D01*
X336780Y539753D01*
X338009Y539753D02*
X339238Y538524D01*
X339238Y537296D01*
X338009Y536067D01*
X335552Y536067D01*
X334323Y537296D01*
X373841Y543439D02*
X375070Y542211D01*
X373841Y543439D02*
X371383Y543439D01*
X370155Y542211D01*
X370155Y537296D01*
X371383Y536067D01*
X373841Y536067D01*
X375070Y537296D01*
X377639Y536067D02*
X377639Y543439D01*
X377639Y539753D02*
X382554Y539753D01*
X382554Y543439D02*
X382554Y536067D01*
X388809Y536067D02*
X388809Y543439D01*
X385123Y539753D01*
X390038Y539753D01*
X420955Y543439D02*
X425870Y543439D01*
X420955Y543439D02*
X420955Y536067D01*
X425870Y536067D01*
X423412Y539753D02*
X420955Y539753D01*
X432125Y543439D02*
X433354Y542211D01*
X432125Y543439D02*
X429668Y543439D01*
X428439Y542211D01*
X428439Y540982D01*
X429668Y539753D01*
X432125Y539753D01*
X433354Y538524D01*
X433354Y537296D01*
X432125Y536067D01*
X429668Y536067D01*
X428439Y537296D01*
X439609Y543439D02*
X440838Y542211D01*
X439609Y543439D02*
X437152Y543439D01*
X435923Y542211D01*
X435923Y537296D01*
X437152Y536067D01*
X439609Y536067D01*
X440838Y537296D01*
X564397Y536067D02*
X564397Y543439D01*
X568083Y543439D01*
X569312Y542211D01*
X569312Y539753D01*
X568083Y538524D01*
X564397Y538524D01*
X566854Y538524D02*
X569312Y536067D01*
X576796Y536067D02*
X571881Y543439D01*
X576796Y543439D02*
X571881Y536067D01*
X488160Y536067D02*
X485702Y536067D01*
X486931Y536067D02*
X486931Y543439D01*
X485702Y543439D02*
X488160Y543439D01*
X490692Y543439D02*
X490692Y536067D01*
X495606Y536067D02*
X490692Y543439D01*
X495606Y543439D02*
X495606Y536067D01*
X498176Y536067D02*
X503091Y536067D01*
X498176Y536067D02*
X503091Y540982D01*
X503091Y542211D01*
X501862Y543439D01*
X499404Y543439D01*
X498176Y542211D01*
X462760Y536067D02*
X460302Y536067D01*
X461531Y536067D02*
X461531Y543439D01*
X460302Y543439D02*
X462760Y543439D01*
X465292Y543439D02*
X465292Y536067D01*
X470206Y536067D02*
X465292Y543439D01*
X470206Y543439D02*
X470206Y536067D01*
X472776Y540982D02*
X475233Y543439D01*
X475233Y536067D01*
X472776Y536067D02*
X477691Y536067D01*
X140081Y10039D02*
X140081Y2667D01*
X140081Y10039D02*
X144996Y10039D01*
X142538Y6353D02*
X140081Y6353D01*
X148794Y10039D02*
X151251Y10039D01*
X148794Y10039D02*
X147565Y8811D01*
X147565Y3896D01*
X148794Y2667D01*
X151251Y2667D01*
X152480Y3896D01*
X152480Y8811D01*
X151251Y10039D01*
X158735Y10039D02*
X159964Y8811D01*
X158735Y10039D02*
X156278Y10039D01*
X155049Y8811D01*
X155049Y3896D01*
X156278Y2667D01*
X158735Y2667D01*
X159964Y3896D01*
X159964Y6353D01*
X157507Y6353D01*
X162533Y10039D02*
X162533Y2667D01*
X167448Y2667D01*
D11*
X348991Y213850D02*
X354584Y213850D01*
X348991Y211986D02*
X348991Y215714D01*
X348991Y217599D02*
X354584Y217599D01*
X351788Y217599D02*
X350856Y218531D01*
X350856Y220395D01*
X351788Y221327D01*
X354584Y221327D01*
X354584Y224144D02*
X354584Y226008D01*
X354584Y224144D02*
X353652Y223212D01*
X351788Y223212D01*
X350856Y224144D01*
X350856Y226008D01*
X351788Y226941D01*
X352720Y226941D01*
X352720Y223212D01*
X354584Y228825D02*
X348991Y228825D01*
X354584Y228825D02*
X354584Y231621D01*
X353652Y232554D01*
X349923Y232554D01*
X348991Y231621D01*
X348991Y228825D01*
X354584Y234438D02*
X354584Y236302D01*
X354584Y235370D02*
X348991Y235370D01*
X348991Y234438D02*
X348991Y236302D01*
X348991Y238180D02*
X349923Y238180D01*
X351788Y240045D01*
X349923Y241909D01*
X348991Y241909D01*
X351788Y240045D02*
X354584Y240045D01*
X348991Y246590D02*
X349923Y247522D01*
X348991Y246590D02*
X348991Y244725D01*
X349923Y243793D01*
X353652Y243793D01*
X354584Y244725D01*
X354584Y246590D01*
X353652Y247522D01*
X351788Y247522D01*
X351788Y245658D01*
X350856Y249406D02*
X353652Y249406D01*
X354584Y250339D01*
X354584Y253135D01*
X350856Y253135D01*
X350856Y255020D02*
X353652Y255020D01*
X354584Y255952D01*
X354584Y258748D01*
X355516Y258748D02*
X350856Y258748D01*
X355516Y258748D02*
X356448Y257816D01*
X356448Y256884D01*
X353652Y260633D02*
X354584Y261565D01*
X354584Y263429D01*
X353652Y264361D01*
X349923Y264361D01*
X348991Y263429D01*
X348991Y261565D01*
X349923Y260633D01*
X350856Y260633D01*
X351788Y261565D01*
X351788Y264361D01*
X353652Y266246D02*
X354584Y267178D01*
X354584Y269042D01*
X353652Y269974D01*
X349923Y269974D01*
X348991Y269042D01*
X348991Y267178D01*
X349923Y266246D01*
X350856Y266246D01*
X351788Y267178D01*
X351788Y269974D01*
X353652Y271859D02*
X354584Y272791D01*
X354584Y274655D01*
X353652Y275587D01*
X349923Y275587D01*
X348991Y274655D01*
X348991Y272791D01*
X349923Y271859D01*
X350856Y271859D01*
X351788Y272791D01*
X351788Y275587D01*
X358135Y226005D02*
X358135Y222277D01*
X363728Y222277D01*
X363728Y226005D01*
X360932Y224141D02*
X360932Y222277D01*
X358135Y230686D02*
X359067Y231618D01*
X358135Y230686D02*
X358135Y228822D01*
X359067Y227890D01*
X360000Y227890D01*
X360932Y228822D01*
X360932Y230686D01*
X361864Y231618D01*
X362796Y231618D01*
X363728Y230686D01*
X363728Y228822D01*
X362796Y227890D01*
X363728Y233503D02*
X358135Y233503D01*
X358135Y236299D01*
X359067Y237231D01*
X360932Y237231D01*
X361864Y236299D01*
X361864Y233503D01*
X359067Y239116D02*
X358135Y240048D01*
X358135Y241912D01*
X359067Y242844D01*
X360000Y242844D01*
X360932Y241912D01*
X360932Y240980D01*
X360932Y241912D02*
X361864Y242844D01*
X362796Y242844D01*
X363728Y241912D01*
X363728Y240048D01*
X362796Y239116D01*
X363728Y244729D02*
X363728Y248457D01*
X363728Y244729D02*
X360000Y248457D01*
X359067Y248457D01*
X358135Y247525D01*
X358135Y245661D01*
X359067Y244729D01*
X358135Y255955D02*
X363728Y255955D01*
X358135Y255955D02*
X358135Y258751D01*
X359067Y259684D01*
X360932Y259684D01*
X361864Y258751D01*
X361864Y255955D01*
X361864Y257819D02*
X363728Y259684D01*
X358135Y264365D02*
X359067Y265297D01*
X358135Y264365D02*
X358135Y262500D01*
X359067Y261568D01*
X362796Y261568D01*
X363728Y262500D01*
X363728Y264365D01*
X362796Y265297D01*
X368211Y213843D02*
X367279Y212911D01*
X367279Y211047D01*
X368211Y210115D01*
X369144Y210115D01*
X370076Y211047D01*
X370076Y212911D01*
X371008Y213843D01*
X371940Y213843D01*
X372872Y212911D01*
X372872Y211047D01*
X371940Y210115D01*
X372872Y216660D02*
X372872Y218524D01*
X371940Y219456D01*
X370076Y219456D01*
X369144Y218524D01*
X369144Y216660D01*
X370076Y215728D01*
X371940Y215728D01*
X372872Y216660D01*
X371940Y221341D02*
X369144Y221341D01*
X371940Y221341D02*
X372872Y222273D01*
X372872Y225069D01*
X369144Y225069D01*
X369144Y226954D02*
X372872Y226954D01*
X369144Y226954D02*
X369144Y229750D01*
X370076Y230683D01*
X372872Y230683D01*
X372872Y236296D02*
X367279Y236296D01*
X372872Y236296D02*
X372872Y233499D01*
X371940Y232567D01*
X370076Y232567D01*
X369144Y233499D01*
X369144Y236296D01*
X372872Y245658D02*
X371008Y247522D01*
X372872Y245658D02*
X372872Y244725D01*
X371940Y243793D01*
X371008Y243793D01*
X369144Y245658D01*
X368211Y245658D01*
X367279Y244725D01*
X368211Y243793D01*
X369144Y243793D01*
X372872Y247522D01*
X372872Y255020D02*
X367279Y255020D01*
X372872Y255020D02*
X372872Y258748D01*
X369144Y260633D02*
X369144Y261565D01*
X372872Y261565D01*
X372872Y260633D02*
X372872Y262497D01*
X367279Y261565D02*
X366347Y261565D01*
X374736Y266239D02*
X374736Y267171D01*
X373804Y268103D01*
X369144Y268103D01*
X369144Y265307D01*
X370076Y264375D01*
X371940Y264375D01*
X372872Y265307D01*
X372872Y268103D01*
X372872Y269988D02*
X367279Y269988D01*
X369144Y270920D02*
X370076Y269988D01*
X369144Y270920D02*
X369144Y272784D01*
X370076Y273716D01*
X372872Y273716D01*
X371940Y276533D02*
X368211Y276533D01*
X371940Y276533D02*
X372872Y277465D01*
X369144Y277465D02*
X369144Y275601D01*
X377355Y212908D02*
X376423Y211976D01*
X376423Y210111D01*
X377355Y209179D01*
X381084Y209179D01*
X382016Y210111D01*
X382016Y211976D01*
X381084Y212908D01*
X382016Y215724D02*
X382016Y217589D01*
X381084Y218521D01*
X379220Y218521D01*
X378288Y217589D01*
X378288Y215724D01*
X379220Y214792D01*
X381084Y214792D01*
X382016Y215724D01*
X382016Y220405D02*
X378288Y220405D01*
X378288Y223202D01*
X379220Y224134D01*
X382016Y224134D01*
X381084Y226951D02*
X377355Y226951D01*
X381084Y226951D02*
X382016Y227883D01*
X378288Y227883D02*
X378288Y226019D01*
X378288Y229761D02*
X382016Y229761D01*
X380152Y229761D02*
X378288Y231625D01*
X378288Y232557D01*
X382016Y235370D02*
X382016Y237235D01*
X381084Y238167D01*
X379220Y238167D01*
X378288Y237235D01*
X378288Y235370D01*
X379220Y234438D01*
X381084Y234438D01*
X382016Y235370D01*
X376423Y240051D02*
X376423Y240983D01*
X382016Y240983D01*
X382016Y240051D02*
X382016Y241916D01*
X376423Y243793D02*
X376423Y244725D01*
X382016Y244725D01*
X382016Y243793D02*
X382016Y245658D01*
X382016Y248468D02*
X382016Y250332D01*
X382016Y248468D02*
X381084Y247535D01*
X379220Y247535D01*
X378288Y248468D01*
X378288Y250332D01*
X379220Y251264D01*
X380152Y251264D01*
X380152Y247535D01*
X382016Y253149D02*
X378288Y253149D01*
X380152Y253149D02*
X378288Y255013D01*
X378288Y255945D01*
X376423Y266236D02*
X377355Y267168D01*
X376423Y266236D02*
X376423Y264371D01*
X377355Y263439D01*
X378288Y263439D01*
X379220Y264371D01*
X379220Y266236D01*
X380152Y267168D01*
X381084Y267168D01*
X382016Y266236D01*
X382016Y264371D01*
X381084Y263439D01*
X382016Y269052D02*
X376423Y269052D01*
X378288Y270917D01*
X376423Y272781D01*
X382016Y272781D01*
X382016Y274665D02*
X376423Y274665D01*
X382016Y274665D02*
X382016Y277462D01*
X381084Y278394D01*
X377355Y278394D01*
X376423Y277462D01*
X376423Y274665D01*
X385567Y217128D02*
X386499Y216196D01*
X385567Y217128D02*
X385567Y218992D01*
X386499Y219924D01*
X387432Y219924D01*
X388364Y218992D01*
X388364Y218060D01*
X388364Y218992D02*
X389296Y219924D01*
X390228Y219924D01*
X391160Y218992D01*
X391160Y217128D01*
X390228Y216196D01*
X390228Y221809D02*
X386499Y221809D01*
X385567Y222741D01*
X385567Y224605D01*
X386499Y225537D01*
X390228Y225537D01*
X391160Y224605D01*
X391160Y222741D01*
X390228Y221809D01*
X386499Y225537D01*
X385567Y233035D02*
X391160Y233035D01*
X385567Y233035D02*
X385567Y235831D01*
X386499Y236763D01*
X388364Y236763D01*
X389296Y235831D01*
X389296Y233035D01*
X387432Y238648D02*
X387432Y239580D01*
X391160Y239580D01*
X391160Y238648D02*
X391160Y240512D01*
X385567Y239580D02*
X384635Y239580D01*
X387432Y242390D02*
X391160Y242390D01*
X387432Y242390D02*
X387432Y245186D01*
X388364Y246119D01*
X391160Y246119D01*
X389296Y253616D02*
X385567Y253616D01*
X389296Y253616D02*
X391160Y255481D01*
X389296Y257345D01*
X385567Y257345D01*
X387432Y259229D02*
X385567Y261094D01*
X391160Y261094D01*
X391160Y262958D02*
X391160Y259229D01*
X391160Y264842D02*
X390228Y264842D01*
X390228Y265775D01*
X391160Y265775D01*
X391160Y264842D01*
X391160Y267649D02*
X391160Y271377D01*
X391160Y267649D02*
X387432Y271377D01*
X386499Y271377D01*
X385567Y270445D01*
X385567Y268581D01*
X386499Y267649D01*
D12*
X254000Y533400D02*
X254000Y546100D01*
X304800Y546100D02*
X304800Y533400D01*
X355600Y533400D02*
X355600Y546100D01*
X203200Y546100D02*
X203200Y533400D01*
X406400Y533400D02*
X406400Y546100D01*
X673100Y330200D02*
X698500Y330200D01*
X698500Y177800D02*
X673100Y177800D01*
D10*
X337271Y10039D02*
X337271Y2667D01*
X337271Y6353D02*
X342185Y6353D01*
X342185Y10039D02*
X342185Y2667D01*
X344755Y10039D02*
X349670Y10039D01*
X344755Y10039D02*
X344755Y2667D01*
X349670Y2667D01*
X347212Y6353D02*
X344755Y6353D01*
X352239Y7582D02*
X352239Y2667D01*
X352239Y7582D02*
X354696Y10039D01*
X357154Y7582D01*
X357154Y2667D01*
X357154Y6353D02*
X352239Y6353D01*
X359723Y10039D02*
X359723Y2667D01*
X363409Y2667D01*
X364638Y3896D01*
X364638Y8811D01*
X363409Y10039D01*
X359723Y10039D01*
X367207Y10039D02*
X367207Y2667D01*
X372122Y2667D01*
X110902Y2667D02*
X108444Y2667D01*
X109673Y2667D02*
X109673Y10039D01*
X108444Y10039D02*
X110902Y10039D01*
X113434Y10039D02*
X113434Y2667D01*
X113434Y10039D02*
X117120Y10039D01*
X118348Y8811D01*
X118348Y6353D01*
X117120Y5124D01*
X113434Y5124D01*
X115891Y5124D02*
X118348Y2667D01*
X85502Y2667D02*
X83044Y2667D01*
X84273Y2667D02*
X84273Y10039D01*
X83044Y10039D02*
X85502Y10039D01*
X88034Y10039D02*
X88034Y2667D01*
X92948Y2667D01*
D12*
X673100Y431800D02*
X698500Y431800D01*
D10*
X619633Y390302D02*
X619633Y387844D01*
X619633Y389073D02*
X612261Y389073D01*
X612261Y387844D02*
X612261Y390302D01*
X612261Y392834D02*
X619633Y392834D01*
X619633Y397749D01*
X619633Y364902D02*
X619633Y362444D01*
X619633Y363673D02*
X612261Y363673D01*
X612261Y362444D02*
X612261Y364902D01*
X612261Y367434D02*
X619633Y367434D01*
X612261Y367434D02*
X612261Y371120D01*
X613489Y372349D01*
X615947Y372349D01*
X617176Y371120D01*
X617176Y367434D01*
X617176Y369891D02*
X619633Y372349D01*
D12*
X673100Y355600D02*
X698500Y355600D01*
X698500Y152400D02*
X673100Y152400D01*
X673100Y101600D02*
X698500Y101600D01*
D10*
X310397Y10039D02*
X310397Y2667D01*
X310397Y10039D02*
X314083Y10039D01*
X315312Y8811D01*
X315312Y7582D01*
X314083Y6353D01*
X315312Y5124D01*
X315312Y3896D01*
X314083Y2667D01*
X310397Y2667D01*
X310397Y6353D02*
X314083Y6353D01*
X317881Y7582D02*
X320338Y10039D01*
X320338Y2667D01*
X317881Y2667D02*
X322796Y2667D01*
X284997Y2667D02*
X284997Y10039D01*
X288683Y10039D01*
X289912Y8811D01*
X289912Y7582D01*
X288683Y6353D01*
X289912Y5124D01*
X289912Y3896D01*
X288683Y2667D01*
X284997Y2667D01*
X284997Y6353D02*
X288683Y6353D01*
X292481Y2667D02*
X297396Y2667D01*
X292481Y2667D02*
X297396Y7582D01*
X297396Y8811D01*
X296167Y10039D01*
X293710Y10039D01*
X292481Y8811D01*
D12*
X76200Y12700D02*
X76200Y0D01*
X101600Y0D02*
X101600Y12700D01*
X127000Y12700D02*
X127000Y0D01*
X177800Y0D02*
X177800Y12700D01*
X228600Y12700D02*
X228600Y0D01*
X279400Y0D02*
X279400Y12700D01*
X304800Y12700D02*
X304800Y0D01*
X330200Y0D02*
X330200Y12700D01*
X381000Y12700D02*
X381000Y0D01*
X406400Y0D02*
X406400Y12700D01*
D10*
X184871Y10039D02*
X184871Y2667D01*
X184871Y10039D02*
X188557Y10039D01*
X189785Y8811D01*
X189785Y6353D01*
X188557Y5124D01*
X184871Y5124D01*
X187328Y5124D02*
X189785Y2667D01*
X193583Y10039D02*
X196041Y10039D01*
X193583Y10039D02*
X192355Y8811D01*
X192355Y3896D01*
X193583Y2667D01*
X196041Y2667D01*
X197270Y3896D01*
X197270Y8811D01*
X196041Y10039D01*
X201068Y10039D02*
X203525Y10039D01*
X201068Y10039D02*
X199839Y8811D01*
X199839Y3896D01*
X201068Y2667D01*
X203525Y2667D01*
X204754Y3896D01*
X204754Y8811D01*
X203525Y10039D01*
X207323Y10039D02*
X207323Y2667D01*
X207323Y10039D02*
X212238Y10039D01*
X209780Y6353D02*
X207323Y6353D01*
X214807Y10039D02*
X214807Y2667D01*
X219722Y2667D01*
D12*
X482600Y533400D02*
X482600Y546100D01*
X508000Y546100D02*
X508000Y533400D01*
X533400Y533400D02*
X533400Y546100D01*
X558800Y546100D02*
X558800Y533400D01*
X584200Y533400D02*
X584200Y546100D01*
D11*
X5969Y88270D02*
X5037Y88270D01*
X3173Y88270D02*
X-556Y88270D01*
X5037Y90141D02*
X5969Y90141D01*
X3173Y90141D02*
X-556Y90141D01*
X2241Y97625D02*
X5969Y97625D01*
X2241Y97625D02*
X376Y99489D01*
X2241Y101353D01*
X5969Y101353D01*
X3173Y101353D02*
X3173Y97625D01*
X5969Y103238D02*
X376Y103238D01*
X5969Y103238D02*
X5969Y106967D01*
X5969Y108851D02*
X376Y108851D01*
X4105Y110715D02*
X5969Y108851D01*
X4105Y110715D02*
X5969Y112580D01*
X376Y112580D01*
X2241Y114464D02*
X5969Y114464D01*
X2241Y114464D02*
X376Y116328D01*
X2241Y118193D01*
X5969Y118193D01*
X3173Y118193D02*
X3173Y114464D01*
X1308Y120077D02*
X376Y120077D01*
X1308Y120077D02*
X3173Y121942D01*
X1308Y123806D01*
X376Y123806D01*
X3173Y121942D02*
X5969Y121942D01*
X376Y128487D02*
X1308Y129419D01*
X376Y128487D02*
X376Y126623D01*
X1308Y125690D01*
X2241Y125690D01*
X3173Y126623D01*
X3173Y128487D01*
X4105Y129419D01*
X5037Y129419D01*
X5969Y128487D01*
X5969Y126623D01*
X5037Y125690D01*
X5037Y136917D02*
X376Y136917D01*
X5037Y136917D02*
X5969Y137849D01*
X5969Y139713D01*
X5037Y140645D01*
X376Y140645D01*
X376Y145326D02*
X1308Y146258D01*
X376Y145326D02*
X376Y143462D01*
X1308Y142530D01*
X2241Y142530D01*
X3173Y143462D01*
X3173Y145326D01*
X4105Y146258D01*
X5037Y146258D01*
X5969Y145326D01*
X5969Y143462D01*
X5037Y142530D01*
X376Y148143D02*
X376Y151871D01*
X376Y148143D02*
X5969Y148143D01*
X5969Y151871D01*
X3173Y150007D02*
X3173Y148143D01*
X376Y162165D02*
X1308Y163097D01*
X376Y162165D02*
X376Y160301D01*
X1308Y159369D01*
X2241Y159369D01*
X3173Y160301D01*
X3173Y162165D01*
X4105Y163097D01*
X5037Y163097D01*
X5969Y162165D01*
X5969Y160301D01*
X5037Y159369D01*
X376Y164982D02*
X376Y168711D01*
X376Y164982D02*
X5969Y164982D01*
X5969Y168711D01*
X3173Y166846D02*
X3173Y164982D01*
X5969Y170595D02*
X376Y170595D01*
X376Y173392D01*
X1308Y174324D01*
X3173Y174324D01*
X4105Y173392D01*
X4105Y170595D01*
X4105Y172459D02*
X5969Y174324D01*
X5969Y176208D02*
X5969Y178073D01*
X5969Y177140D02*
X376Y177140D01*
X376Y176208D02*
X376Y178073D01*
X376Y179950D02*
X376Y183679D01*
X376Y179950D02*
X5969Y179950D01*
X5969Y183679D01*
X3173Y181815D02*
X3173Y179950D01*
X376Y188360D02*
X1308Y189292D01*
X376Y188360D02*
X376Y186496D01*
X1308Y185563D01*
X2241Y185563D01*
X3173Y186496D01*
X3173Y188360D01*
X4105Y189292D01*
X5037Y189292D01*
X5969Y188360D01*
X5969Y186496D01*
X5037Y185563D01*
X5969Y196790D02*
X376Y196790D01*
X376Y199586D01*
X1308Y200518D01*
X3173Y200518D01*
X4105Y199586D01*
X4105Y196790D01*
X4105Y198654D02*
X5969Y200518D01*
X376Y202403D02*
X376Y206131D01*
X376Y202403D02*
X5969Y202403D01*
X5969Y206131D01*
X3173Y204267D02*
X3173Y202403D01*
X376Y210812D02*
X1308Y211744D01*
X376Y210812D02*
X376Y208948D01*
X1308Y208016D01*
X2241Y208016D01*
X3173Y208948D01*
X3173Y210812D01*
X4105Y211744D01*
X5037Y211744D01*
X5969Y210812D01*
X5969Y208948D01*
X5037Y208016D01*
X5969Y213629D02*
X5969Y215493D01*
X5969Y214561D02*
X376Y214561D01*
X376Y213629D02*
X376Y215493D01*
X376Y220167D02*
X1308Y221099D01*
X376Y220167D02*
X376Y218303D01*
X1308Y217371D01*
X2241Y217371D01*
X3173Y218303D01*
X3173Y220167D01*
X4105Y221099D01*
X5037Y221099D01*
X5969Y220167D01*
X5969Y218303D01*
X5037Y217371D01*
X5969Y224848D02*
X376Y224848D01*
X376Y222984D02*
X376Y226713D01*
X376Y229529D02*
X376Y231394D01*
X376Y229529D02*
X1308Y228597D01*
X5037Y228597D01*
X5969Y229529D01*
X5969Y231394D01*
X5037Y232326D01*
X1308Y232326D01*
X376Y231394D01*
X376Y234210D02*
X5969Y234210D01*
X376Y234210D02*
X376Y237007D01*
X1308Y237939D01*
X3173Y237939D01*
X4105Y237007D01*
X4105Y234210D01*
X4105Y236074D02*
X5969Y237939D01*
X376Y242620D02*
X1308Y243552D01*
X376Y242620D02*
X376Y240755D01*
X1308Y239823D01*
X2241Y239823D01*
X3173Y240755D01*
X3173Y242620D01*
X4105Y243552D01*
X5037Y243552D01*
X5969Y242620D01*
X5969Y240755D01*
X5037Y239823D01*
X5969Y251050D02*
X376Y251050D01*
X376Y254778D01*
X3173Y252914D02*
X3173Y251050D01*
X376Y257595D02*
X376Y259459D01*
X376Y257595D02*
X1308Y256663D01*
X5037Y256663D01*
X5969Y257595D01*
X5969Y259459D01*
X5037Y260391D01*
X1308Y260391D01*
X376Y259459D01*
X376Y262276D02*
X5969Y262276D01*
X376Y262276D02*
X376Y265072D01*
X1308Y266004D01*
X3173Y266004D01*
X4105Y265072D01*
X4105Y262276D01*
X4105Y264140D02*
X5969Y266004D01*
X5969Y273502D02*
X376Y273502D01*
X5969Y273502D02*
X5969Y277230D01*
X376Y279115D02*
X376Y282843D01*
X376Y279115D02*
X5969Y279115D01*
X5969Y282843D01*
X3173Y280979D02*
X3173Y279115D01*
X5969Y284728D02*
X376Y284728D01*
X5969Y284728D02*
X5969Y287524D01*
X5037Y288457D01*
X1308Y288457D01*
X376Y287524D01*
X376Y284728D01*
X7833Y290341D02*
X5969Y292205D01*
X5037Y292205D01*
X5037Y291273D01*
X5969Y291273D01*
X5969Y292205D01*
X5969Y299696D02*
X376Y299696D01*
X376Y302493D01*
X1308Y303425D01*
X3173Y303425D01*
X4105Y302493D01*
X4105Y299696D01*
X5969Y305309D02*
X2241Y305309D01*
X376Y307174D01*
X2241Y309038D01*
X5969Y309038D01*
X3173Y309038D02*
X3173Y305309D01*
X1308Y310923D02*
X376Y310923D01*
X1308Y310923D02*
X3173Y312787D01*
X1308Y314651D01*
X376Y314651D01*
X3173Y312787D02*
X5969Y312787D01*
X5969Y322149D02*
X2241Y322149D01*
X376Y324013D01*
X2241Y325877D01*
X5969Y325877D01*
X3173Y325877D02*
X3173Y322149D01*
X5969Y329626D02*
X376Y329626D01*
X376Y327762D02*
X376Y331490D01*
X376Y335239D02*
X5969Y335239D01*
X376Y333375D02*
X376Y337103D01*
X376Y338988D02*
X376Y342716D01*
X376Y338988D02*
X5969Y338988D01*
X5969Y342716D01*
X3173Y340852D02*
X3173Y338988D01*
X5969Y344601D02*
X376Y344601D01*
X5969Y348330D01*
X376Y348330D01*
X376Y352078D02*
X5969Y352078D01*
X376Y350214D02*
X376Y353943D01*
X5969Y355827D02*
X5969Y357692D01*
X5969Y356759D02*
X376Y356759D01*
X376Y355827D02*
X376Y357692D01*
X376Y360501D02*
X376Y362366D01*
X376Y360501D02*
X1308Y359569D01*
X5037Y359569D01*
X5969Y360501D01*
X5969Y362366D01*
X5037Y363298D01*
X1308Y363298D01*
X376Y362366D01*
X376Y365182D02*
X5969Y365182D01*
X5969Y368911D02*
X376Y365182D01*
X376Y368911D02*
X5969Y368911D01*
X5969Y378273D02*
X376Y378273D01*
X376Y376409D02*
X376Y380137D01*
X376Y382954D02*
X376Y384818D01*
X376Y382954D02*
X1308Y382022D01*
X5037Y382022D01*
X5969Y382954D01*
X5969Y384818D01*
X5037Y385750D01*
X1308Y385750D01*
X376Y384818D01*
X376Y393248D02*
X5969Y393248D01*
X376Y393248D02*
X376Y396044D01*
X1308Y396976D01*
X3173Y396976D01*
X4105Y396044D01*
X4105Y393248D01*
X376Y399793D02*
X376Y401657D01*
X376Y399793D02*
X1308Y398861D01*
X5037Y398861D01*
X5969Y399793D01*
X5969Y401657D01*
X5037Y402589D01*
X1308Y402589D01*
X376Y401657D01*
X376Y404474D02*
X5969Y404474D01*
X5969Y408203D01*
X5969Y410087D02*
X2241Y410087D01*
X376Y411951D01*
X2241Y413816D01*
X5969Y413816D01*
X3173Y413816D02*
X3173Y410087D01*
X5969Y415700D02*
X376Y415700D01*
X376Y418497D01*
X1308Y419429D01*
X3173Y419429D01*
X4105Y418497D01*
X4105Y415700D01*
X4105Y417565D02*
X5969Y419429D01*
X5969Y421313D02*
X5969Y423178D01*
X5969Y422245D02*
X376Y422245D01*
X376Y421313D02*
X376Y423178D01*
X376Y426920D02*
X5969Y426920D01*
X376Y425055D02*
X376Y428784D01*
X376Y430669D02*
X1308Y430669D01*
X3173Y432533D01*
X1308Y434397D01*
X376Y434397D01*
X3173Y432533D02*
X5969Y432533D01*
X5969Y441895D02*
X5037Y441895D01*
X3173Y441895D02*
X-556Y441895D01*
X5037Y443766D02*
X5969Y443766D01*
X3173Y443766D02*
X-556Y443766D01*
D10*
X431540Y19715D02*
X432768Y20943D01*
X431540Y19715D02*
X431540Y17257D01*
X432768Y16029D01*
X437683Y16029D01*
X438912Y17257D01*
X438912Y19715D01*
X437683Y20943D01*
X438912Y24741D02*
X438912Y27199D01*
X437683Y28428D01*
X435226Y28428D01*
X433997Y27199D01*
X433997Y24741D01*
X435226Y23513D01*
X437683Y23513D01*
X438912Y24741D01*
X438912Y30997D02*
X433997Y30997D01*
X433997Y32226D01*
X435226Y33454D01*
X438912Y33454D01*
X435226Y33454D02*
X433997Y34683D01*
X435226Y35912D01*
X438912Y35912D01*
X438912Y38481D02*
X433997Y38481D01*
X433997Y39710D01*
X435226Y40938D01*
X438912Y40938D01*
X435226Y40938D02*
X433997Y42167D01*
X435226Y43396D01*
X438912Y43396D01*
X438912Y47194D02*
X438912Y49651D01*
X437683Y50880D01*
X435226Y50880D01*
X433997Y49651D01*
X433997Y47194D01*
X435226Y45965D01*
X437683Y45965D01*
X438912Y47194D01*
X438912Y53449D02*
X433997Y53449D01*
X433997Y57135D01*
X435226Y58364D01*
X438912Y58364D01*
X443732Y11039D02*
X451104Y11039D01*
X443732Y11039D02*
X443732Y14725D01*
X444960Y15954D01*
X447418Y15954D01*
X448647Y14725D01*
X448647Y11039D01*
X451104Y19752D02*
X451104Y22209D01*
X449875Y23438D01*
X447418Y23438D01*
X446189Y22209D01*
X446189Y19752D01*
X447418Y18523D01*
X449875Y18523D01*
X451104Y19752D01*
X451104Y26007D02*
X451104Y29694D01*
X449875Y30922D01*
X448647Y29694D01*
X448647Y27236D01*
X447418Y26007D01*
X446189Y27236D01*
X446189Y30922D01*
X446189Y33492D02*
X446189Y34720D01*
X451104Y34720D01*
X451104Y33492D02*
X451104Y35949D01*
X443732Y34720D02*
X442503Y34720D01*
X444960Y39710D02*
X449875Y39710D01*
X451104Y40938D01*
X446189Y40938D02*
X446189Y38481D01*
X446189Y43470D02*
X446189Y44699D01*
X451104Y44699D01*
X451104Y43470D02*
X451104Y45928D01*
X443732Y44699D02*
X442503Y44699D01*
X446189Y48460D02*
X451104Y50917D01*
X446189Y53375D01*
X451104Y57173D02*
X451104Y59630D01*
X451104Y57173D02*
X449875Y55944D01*
X447418Y55944D01*
X446189Y57173D01*
X446189Y59630D01*
X447418Y60859D01*
X448647Y60859D01*
X448647Y55944D01*
X449875Y63428D02*
X451104Y63428D01*
X447418Y63428D02*
X442503Y63428D01*
X617919Y466217D02*
X617919Y473589D01*
X620376Y471132D01*
X622833Y473589D01*
X622833Y466217D01*
X626631Y471132D02*
X629089Y471132D01*
X630318Y469903D01*
X630318Y466217D01*
X626631Y466217D01*
X625403Y467446D01*
X626631Y468674D01*
X630318Y468674D01*
X632887Y471132D02*
X637802Y466217D01*
X632887Y466217D02*
X637802Y471132D01*
X640371Y467446D02*
X640371Y466217D01*
X640371Y467446D02*
X641600Y467446D01*
X641600Y466217D01*
X640371Y466217D01*
X651597Y472361D02*
X652826Y473589D01*
X655283Y473589D01*
X656512Y472361D01*
X656512Y471132D01*
X655283Y469903D01*
X654055Y469903D01*
X655283Y469903D02*
X656512Y468674D01*
X656512Y467446D01*
X655283Y466217D01*
X652826Y466217D01*
X651597Y467446D01*
X659081Y467446D02*
X659081Y466217D01*
X659081Y467446D02*
X660310Y467446D01*
X660310Y466217D01*
X659081Y466217D01*
X662823Y472361D02*
X664052Y473589D01*
X666510Y473589D01*
X667738Y472361D01*
X667738Y471132D01*
X666510Y469903D01*
X665281Y469903D01*
X666510Y469903D02*
X667738Y468674D01*
X667738Y467446D01*
X666510Y466217D01*
X664052Y466217D01*
X662823Y467446D01*
X670308Y468674D02*
X670308Y473589D01*
X670308Y468674D02*
X672765Y466217D01*
X675222Y468674D01*
X675222Y473589D01*
X677792Y467446D02*
X677792Y466217D01*
X677792Y469903D02*
X677792Y474818D01*
D12*
X612775Y469900D02*
X593725Y469900D01*
X555625Y533400D02*
X536575Y533400D01*
X536575Y457200D02*
X555625Y457200D01*
X555625Y508000D02*
X536575Y508000D01*
X593725Y469900D02*
X603250Y463550D01*
X593725Y469900D02*
X603250Y476250D01*
X555625Y482600D02*
X536575Y482600D01*
D10*
X637661Y302913D02*
X645033Y302913D01*
X637661Y302913D02*
X637661Y306599D01*
X638889Y307828D01*
X641347Y307828D01*
X642576Y306599D01*
X642576Y302913D01*
X642576Y305370D02*
X645033Y307828D01*
X637661Y310397D02*
X637661Y315312D01*
X637661Y310397D02*
X645033Y310397D01*
X645033Y315312D01*
X641347Y312854D02*
X641347Y310397D01*
X642576Y317881D02*
X637661Y317881D01*
X642576Y317881D02*
X645033Y320338D01*
X642576Y322796D01*
X637661Y322796D01*
X638889Y325365D02*
X643804Y330280D01*
X643804Y325365D02*
X638889Y330280D01*
X641347Y330280D02*
X641347Y325365D01*
X643804Y327823D02*
X638889Y327823D01*
X475441Y10039D02*
X476670Y8811D01*
X475441Y10039D02*
X472983Y10039D01*
X471755Y8811D01*
X471755Y3896D01*
X472983Y2667D01*
X475441Y2667D01*
X476670Y3896D01*
X476670Y6353D01*
X474212Y6353D01*
X479239Y2667D02*
X479239Y10039D01*
X484154Y2667D01*
X484154Y10039D01*
X486723Y10039D02*
X486723Y2667D01*
X490409Y2667D01*
X491638Y3896D01*
X491638Y8811D01*
X490409Y10039D01*
X486723Y10039D01*
X497155Y8811D02*
X498383Y10039D01*
X500841Y10039D01*
X502070Y8811D01*
X502070Y7582D01*
X500841Y6353D01*
X499612Y6353D01*
X500841Y6353D02*
X502070Y5124D01*
X502070Y3896D01*
X500841Y2667D01*
X498383Y2667D01*
X497155Y3896D01*
X504639Y5124D02*
X504639Y10039D01*
X504639Y5124D02*
X507096Y2667D01*
X509554Y5124D01*
X509554Y10039D01*
X512123Y8811D02*
X513352Y10039D01*
X515809Y10039D01*
X517038Y8811D01*
X517038Y7582D01*
X515809Y6353D01*
X514580Y6353D01*
X515809Y6353D02*
X517038Y5124D01*
X517038Y3896D01*
X515809Y2667D01*
X513352Y2667D01*
X512123Y3896D01*
X526241Y10039D02*
X527470Y8811D01*
X526241Y10039D02*
X523783Y10039D01*
X522555Y8811D01*
X522555Y7582D01*
X523783Y6353D01*
X526241Y6353D01*
X527470Y5124D01*
X527470Y3896D01*
X526241Y2667D01*
X523783Y2667D01*
X522555Y3896D01*
X533725Y10039D02*
X534954Y8811D01*
X533725Y10039D02*
X531268Y10039D01*
X530039Y8811D01*
X530039Y3896D01*
X531268Y2667D01*
X533725Y2667D01*
X534954Y3896D01*
X537523Y2667D02*
X537523Y10039D01*
X537523Y2667D02*
X542438Y2667D01*
X551641Y10039D02*
X552870Y8811D01*
X551641Y10039D02*
X549183Y10039D01*
X547955Y8811D01*
X547955Y7582D01*
X549183Y6353D01*
X551641Y6353D01*
X552870Y5124D01*
X552870Y3896D01*
X551641Y2667D01*
X549183Y2667D01*
X547955Y3896D01*
X555439Y2667D02*
X555439Y10039D01*
X555439Y2667D02*
X559125Y2667D01*
X560354Y3896D01*
X560354Y8811D01*
X559125Y10039D01*
X555439Y10039D01*
X562923Y7582D02*
X562923Y2667D01*
X562923Y7582D02*
X565380Y10039D01*
X567838Y7582D01*
X567838Y2667D01*
X567838Y6353D02*
X562923Y6353D01*
X573355Y2667D02*
X573355Y10039D01*
X577041Y10039D01*
X578270Y8811D01*
X578270Y6353D01*
X577041Y5124D01*
X573355Y5124D01*
X575812Y5124D02*
X578270Y2667D01*
X580839Y10039D02*
X585754Y10039D01*
X580839Y10039D02*
X580839Y2667D01*
X585754Y2667D01*
X583296Y6353D02*
X580839Y6353D01*
X592009Y10039D02*
X593238Y8811D01*
X592009Y10039D02*
X589552Y10039D01*
X588323Y8811D01*
X588323Y7582D01*
X589552Y6353D01*
X592009Y6353D01*
X593238Y5124D01*
X593238Y3896D01*
X592009Y2667D01*
X589552Y2667D01*
X588323Y3896D01*
X602497Y2667D02*
X602497Y10039D01*
X602497Y2667D02*
X606183Y2667D01*
X607412Y3896D01*
X607412Y8811D01*
X606183Y10039D01*
X602497Y10039D01*
X613667Y10039D02*
X614896Y8811D01*
X613667Y10039D02*
X611210Y10039D01*
X609981Y8811D01*
X609981Y3896D01*
X611210Y2667D01*
X613667Y2667D01*
X614896Y3896D01*
D12*
X469900Y0D02*
X469900Y12700D01*
X647700Y12700D02*
X647700Y0D01*
D10*
X415411Y18297D02*
X415411Y23212D01*
X415411Y18297D02*
X419097Y18297D01*
X417868Y20754D01*
X417868Y21983D01*
X419097Y23212D01*
X421554Y23212D01*
X422783Y21983D01*
X422783Y19526D01*
X421554Y18297D01*
X420326Y25781D02*
X415411Y25781D01*
X420326Y25781D02*
X422783Y28238D01*
X420326Y30696D01*
X415411Y30696D01*
X415411Y41183D02*
X415411Y43641D01*
X415411Y41183D02*
X416639Y39955D01*
X421554Y39955D01*
X422783Y41183D01*
X422783Y43641D01*
X421554Y44870D01*
X416639Y44870D01*
X415411Y43641D01*
X415411Y47439D02*
X421554Y47439D01*
X422783Y48668D01*
X422783Y51125D01*
X421554Y52354D01*
X415411Y52354D01*
X415411Y57381D02*
X422783Y57381D01*
X415411Y54923D02*
X415411Y59838D01*
D12*
X409575Y12700D02*
X428625Y12700D01*
X428625Y38100D02*
X409575Y38100D01*
X409575Y63500D02*
X428625Y63500D01*
D10*
X501123Y48139D02*
X502352Y46911D01*
X501123Y48139D02*
X498665Y48139D01*
X497437Y46911D01*
X497437Y45682D01*
X498665Y44453D01*
X501123Y44453D01*
X502352Y43224D01*
X502352Y41996D01*
X501123Y40767D01*
X498665Y40767D01*
X497437Y41996D01*
X504921Y40767D02*
X504921Y48139D01*
X508607Y48139D01*
X509836Y46911D01*
X509836Y44453D01*
X508607Y43224D01*
X504921Y43224D01*
X512405Y40767D02*
X514862Y40767D01*
X513634Y40767D02*
X513634Y48139D01*
X514862Y48139D02*
X512405Y48139D01*
X524879Y48139D02*
X524879Y40767D01*
X529793Y40767D01*
X536049Y48139D02*
X537278Y46911D01*
X536049Y48139D02*
X533591Y48139D01*
X532363Y46911D01*
X532363Y41996D01*
X533591Y40767D01*
X536049Y40767D01*
X537278Y41996D01*
X539847Y40767D02*
X539847Y48139D01*
X539847Y40767D02*
X543533Y40767D01*
X544762Y41996D01*
X544762Y46911D01*
X543533Y48139D01*
X539847Y48139D01*
X559730Y48139D02*
X559730Y40767D01*
X556044Y40767D01*
X554815Y41996D01*
X554815Y44453D01*
X556044Y45682D01*
X559730Y45682D01*
X563528Y45682D02*
X565986Y45682D01*
X567214Y44453D01*
X567214Y40767D01*
X563528Y40767D01*
X562299Y41996D01*
X563528Y43224D01*
X567214Y43224D01*
X569784Y40767D02*
X573470Y40767D01*
X574698Y41996D01*
X573470Y43224D01*
X571012Y43224D01*
X569784Y44453D01*
X571012Y45682D01*
X574698Y45682D01*
X577268Y48139D02*
X577268Y40767D01*
X577268Y44453D02*
X578496Y45682D01*
X580954Y45682D01*
X582183Y44453D01*
X582183Y40767D01*
X584752Y40767D02*
X584752Y48139D01*
X584752Y40767D02*
X588438Y40767D01*
X589667Y41996D01*
X589667Y44453D01*
X588438Y45682D01*
X584752Y45682D01*
X593465Y40767D02*
X595922Y40767D01*
X597151Y41996D01*
X597151Y44453D01*
X595922Y45682D01*
X593465Y45682D01*
X592236Y44453D01*
X592236Y41996D01*
X593465Y40767D01*
X600949Y45682D02*
X603406Y45682D01*
X604635Y44453D01*
X604635Y40767D01*
X600949Y40767D01*
X599720Y41996D01*
X600949Y43224D01*
X604635Y43224D01*
X607204Y40767D02*
X607204Y45682D01*
X607204Y43224D02*
X609662Y45682D01*
X610890Y45682D01*
X618356Y48139D02*
X618356Y40767D01*
X614670Y40767D01*
X613441Y41996D01*
X613441Y44453D01*
X614670Y45682D01*
X618356Y45682D01*
X631583Y10039D02*
X632812Y8811D01*
X631583Y10039D02*
X629126Y10039D01*
X627897Y8811D01*
X627897Y3896D01*
X629126Y2667D01*
X631583Y2667D01*
X632812Y3896D01*
X639067Y10039D02*
X640296Y8811D01*
X639067Y10039D02*
X636610Y10039D01*
X635381Y8811D01*
X635381Y7582D01*
X636610Y6353D01*
X639067Y6353D01*
X640296Y5124D01*
X640296Y3896D01*
X639067Y2667D01*
X636610Y2667D01*
X635381Y3896D01*
X637661Y259541D02*
X638889Y260770D01*
X637661Y259541D02*
X637661Y257083D01*
X638889Y255855D01*
X640118Y255855D01*
X641347Y257083D01*
X641347Y259541D01*
X642576Y260770D01*
X643804Y260770D01*
X645033Y259541D01*
X645033Y257083D01*
X643804Y255855D01*
X645033Y263339D02*
X637661Y263339D01*
X645033Y263339D02*
X645033Y268254D01*
X638889Y270823D02*
X643804Y275738D01*
X643804Y270823D02*
X638889Y275738D01*
X641347Y275738D02*
X641347Y270823D01*
X643804Y273281D02*
X638889Y273281D01*
X612261Y415683D02*
X613489Y416912D01*
X612261Y415683D02*
X612261Y413226D01*
X613489Y411997D01*
X614718Y411997D01*
X615947Y413226D01*
X615947Y415683D01*
X617176Y416912D01*
X618404Y416912D01*
X619633Y415683D01*
X619633Y413226D01*
X618404Y411997D01*
X619633Y419481D02*
X612261Y419481D01*
X619633Y419481D02*
X619633Y424396D01*
X641347Y488197D02*
X641347Y493112D01*
X643804Y490654D02*
X638889Y490654D01*
X637661Y495681D02*
X642576Y495681D01*
X645033Y498138D01*
X642576Y500596D01*
X637661Y500596D01*
X637661Y513597D02*
X637661Y518512D01*
X637661Y513597D02*
X641347Y513597D01*
X640118Y516054D01*
X640118Y517283D01*
X641347Y518512D01*
X643804Y518512D01*
X645033Y517283D01*
X645033Y514826D01*
X643804Y513597D01*
X642576Y521081D02*
X637661Y521081D01*
X642576Y521081D02*
X645033Y523538D01*
X642576Y525996D01*
X637661Y525996D01*
X17995Y466011D02*
X16767Y467239D01*
X14309Y467239D01*
X13080Y466011D01*
X13080Y461096D01*
X14309Y459867D01*
X16767Y459867D01*
X17995Y461096D01*
X17995Y463553D01*
X15538Y463553D01*
X20565Y459867D02*
X20565Y467239D01*
X24251Y467239D01*
X25479Y466011D01*
X25479Y463553D01*
X24251Y462324D01*
X20565Y462324D01*
X28049Y459867D02*
X30506Y459867D01*
X29277Y459867D02*
X29277Y467239D01*
X28049Y467239D02*
X30506Y467239D01*
X34267Y467239D02*
X36724Y467239D01*
X34267Y467239D02*
X33038Y466011D01*
X33038Y461096D01*
X34267Y459867D01*
X36724Y459867D01*
X37953Y461096D01*
X37953Y466011D01*
X36724Y467239D01*
X40522Y466011D02*
X40522Y461096D01*
X40522Y466011D02*
X41751Y467239D01*
X44209Y467239D01*
X45437Y466011D01*
X45437Y461096D01*
X44209Y459867D01*
X41751Y459867D01*
X40522Y461096D01*
X45437Y466011D01*
D12*
X482600Y444500D02*
X495300Y444500D01*
X495300Y457200D01*
X368300Y444500D02*
X355600Y444500D01*
X368300Y444500D02*
X368300Y457200D01*
D10*
X511102Y536067D02*
X513560Y536067D01*
X512331Y536067D02*
X512331Y543439D01*
X511102Y543439D02*
X513560Y543439D01*
X516092Y543439D02*
X516092Y536067D01*
X521006Y536067D02*
X516092Y543439D01*
X521006Y543439D02*
X521006Y536067D01*
X523576Y542211D02*
X524804Y543439D01*
X527262Y543439D01*
X528491Y542211D01*
X528491Y540982D01*
X527262Y539753D01*
X526033Y539753D01*
X527262Y539753D02*
X528491Y538524D01*
X528491Y537296D01*
X527262Y536067D01*
X524804Y536067D01*
X523576Y537296D01*
D12*
X266700Y444500D02*
X254000Y444500D01*
X266700Y444500D02*
X266700Y457200D01*
X419100Y457200D02*
X419100Y444500D01*
X431800Y444500D01*
D10*
X184570Y542211D02*
X183341Y543439D01*
X180883Y543439D01*
X179655Y542211D01*
X179655Y537296D01*
X180883Y536067D01*
X183341Y536067D01*
X184570Y537296D01*
X187139Y536067D02*
X187139Y543439D01*
X187139Y539753D02*
X192054Y539753D01*
X192054Y543439D02*
X192054Y536067D01*
X194623Y543439D02*
X199538Y543439D01*
X199538Y542211D01*
X194623Y537296D01*
X194623Y536067D01*
D12*
X177800Y533400D02*
X177800Y546100D01*
X457200Y546100D02*
X457200Y533400D01*
D13*
X111760Y254000D02*
X111760Y152400D01*
X45720Y152400D02*
X21590Y152400D01*
X21590Y254000D01*
X45720Y254000D02*
X111760Y254000D01*
X45720Y254000D02*
X45720Y237490D01*
X45720Y219710D02*
X45720Y186690D01*
X45720Y168910D02*
X45720Y152400D01*
X45720Y254000D02*
X21590Y254000D01*
X45720Y152400D02*
X111760Y152400D01*
X111760Y254000D02*
X114300Y254000D01*
X114300Y152400D01*
X111760Y152400D01*
X93218Y228600D02*
X93220Y228742D01*
X93226Y228885D01*
X93236Y229027D01*
X93250Y229169D01*
X93268Y229310D01*
X93290Y229451D01*
X93316Y229591D01*
X93345Y229730D01*
X93379Y229869D01*
X93417Y230006D01*
X93458Y230143D01*
X93503Y230278D01*
X93552Y230412D01*
X93605Y230544D01*
X93661Y230675D01*
X93721Y230804D01*
X93785Y230932D01*
X93852Y231057D01*
X93923Y231181D01*
X93997Y231303D01*
X94074Y231422D01*
X94155Y231540D01*
X94239Y231655D01*
X94326Y231767D01*
X94417Y231877D01*
X94510Y231985D01*
X94607Y232090D01*
X94706Y232192D01*
X94808Y232291D01*
X94913Y232388D01*
X95021Y232481D01*
X95131Y232572D01*
X95243Y232659D01*
X95358Y232743D01*
X95476Y232824D01*
X95595Y232901D01*
X95717Y232975D01*
X95841Y233046D01*
X95966Y233113D01*
X96094Y233177D01*
X96223Y233237D01*
X96354Y233293D01*
X96486Y233346D01*
X96620Y233395D01*
X96755Y233440D01*
X96892Y233481D01*
X97029Y233519D01*
X97168Y233553D01*
X97307Y233582D01*
X97447Y233608D01*
X97588Y233630D01*
X97729Y233648D01*
X97871Y233662D01*
X98013Y233672D01*
X98156Y233678D01*
X98298Y233680D01*
X98440Y233678D01*
X98583Y233672D01*
X98725Y233662D01*
X98867Y233648D01*
X99008Y233630D01*
X99149Y233608D01*
X99289Y233582D01*
X99428Y233553D01*
X99567Y233519D01*
X99704Y233481D01*
X99841Y233440D01*
X99976Y233395D01*
X100110Y233346D01*
X100242Y233293D01*
X100373Y233237D01*
X100502Y233177D01*
X100630Y233113D01*
X100755Y233046D01*
X100879Y232975D01*
X101001Y232901D01*
X101120Y232824D01*
X101238Y232743D01*
X101353Y232659D01*
X101465Y232572D01*
X101575Y232481D01*
X101683Y232388D01*
X101788Y232291D01*
X101890Y232192D01*
X101989Y232090D01*
X102086Y231985D01*
X102179Y231877D01*
X102270Y231767D01*
X102357Y231655D01*
X102441Y231540D01*
X102522Y231422D01*
X102599Y231303D01*
X102673Y231181D01*
X102744Y231057D01*
X102811Y230932D01*
X102875Y230804D01*
X102935Y230675D01*
X102991Y230544D01*
X103044Y230412D01*
X103093Y230278D01*
X103138Y230143D01*
X103179Y230006D01*
X103217Y229869D01*
X103251Y229730D01*
X103280Y229591D01*
X103306Y229451D01*
X103328Y229310D01*
X103346Y229169D01*
X103360Y229027D01*
X103370Y228885D01*
X103376Y228742D01*
X103378Y228600D01*
X103376Y228458D01*
X103370Y228315D01*
X103360Y228173D01*
X103346Y228031D01*
X103328Y227890D01*
X103306Y227749D01*
X103280Y227609D01*
X103251Y227470D01*
X103217Y227331D01*
X103179Y227194D01*
X103138Y227057D01*
X103093Y226922D01*
X103044Y226788D01*
X102991Y226656D01*
X102935Y226525D01*
X102875Y226396D01*
X102811Y226268D01*
X102744Y226143D01*
X102673Y226019D01*
X102599Y225897D01*
X102522Y225778D01*
X102441Y225660D01*
X102357Y225545D01*
X102270Y225433D01*
X102179Y225323D01*
X102086Y225215D01*
X101989Y225110D01*
X101890Y225008D01*
X101788Y224909D01*
X101683Y224812D01*
X101575Y224719D01*
X101465Y224628D01*
X101353Y224541D01*
X101238Y224457D01*
X101120Y224376D01*
X101001Y224299D01*
X100879Y224225D01*
X100755Y224154D01*
X100630Y224087D01*
X100502Y224023D01*
X100373Y223963D01*
X100242Y223907D01*
X100110Y223854D01*
X99976Y223805D01*
X99841Y223760D01*
X99704Y223719D01*
X99567Y223681D01*
X99428Y223647D01*
X99289Y223618D01*
X99149Y223592D01*
X99008Y223570D01*
X98867Y223552D01*
X98725Y223538D01*
X98583Y223528D01*
X98440Y223522D01*
X98298Y223520D01*
X98156Y223522D01*
X98013Y223528D01*
X97871Y223538D01*
X97729Y223552D01*
X97588Y223570D01*
X97447Y223592D01*
X97307Y223618D01*
X97168Y223647D01*
X97029Y223681D01*
X96892Y223719D01*
X96755Y223760D01*
X96620Y223805D01*
X96486Y223854D01*
X96354Y223907D01*
X96223Y223963D01*
X96094Y224023D01*
X95966Y224087D01*
X95841Y224154D01*
X95717Y224225D01*
X95595Y224299D01*
X95476Y224376D01*
X95358Y224457D01*
X95243Y224541D01*
X95131Y224628D01*
X95021Y224719D01*
X94913Y224812D01*
X94808Y224909D01*
X94706Y225008D01*
X94607Y225110D01*
X94510Y225215D01*
X94417Y225323D01*
X94326Y225433D01*
X94239Y225545D01*
X94155Y225660D01*
X94074Y225778D01*
X93997Y225897D01*
X93923Y226019D01*
X93852Y226143D01*
X93785Y226268D01*
X93721Y226396D01*
X93661Y226525D01*
X93605Y226656D01*
X93552Y226788D01*
X93503Y226922D01*
X93458Y227057D01*
X93417Y227194D01*
X93379Y227331D01*
X93345Y227470D01*
X93316Y227609D01*
X93290Y227749D01*
X93268Y227890D01*
X93250Y228031D01*
X93236Y228173D01*
X93226Y228315D01*
X93220Y228458D01*
X93218Y228600D01*
X93218Y177800D02*
X93220Y177942D01*
X93226Y178085D01*
X93236Y178227D01*
X93250Y178369D01*
X93268Y178510D01*
X93290Y178651D01*
X93316Y178791D01*
X93345Y178930D01*
X93379Y179069D01*
X93417Y179206D01*
X93458Y179343D01*
X93503Y179478D01*
X93552Y179612D01*
X93605Y179744D01*
X93661Y179875D01*
X93721Y180004D01*
X93785Y180132D01*
X93852Y180257D01*
X93923Y180381D01*
X93997Y180503D01*
X94074Y180622D01*
X94155Y180740D01*
X94239Y180855D01*
X94326Y180967D01*
X94417Y181077D01*
X94510Y181185D01*
X94607Y181290D01*
X94706Y181392D01*
X94808Y181491D01*
X94913Y181588D01*
X95021Y181681D01*
X95131Y181772D01*
X95243Y181859D01*
X95358Y181943D01*
X95476Y182024D01*
X95595Y182101D01*
X95717Y182175D01*
X95841Y182246D01*
X95966Y182313D01*
X96094Y182377D01*
X96223Y182437D01*
X96354Y182493D01*
X96486Y182546D01*
X96620Y182595D01*
X96755Y182640D01*
X96892Y182681D01*
X97029Y182719D01*
X97168Y182753D01*
X97307Y182782D01*
X97447Y182808D01*
X97588Y182830D01*
X97729Y182848D01*
X97871Y182862D01*
X98013Y182872D01*
X98156Y182878D01*
X98298Y182880D01*
X98440Y182878D01*
X98583Y182872D01*
X98725Y182862D01*
X98867Y182848D01*
X99008Y182830D01*
X99149Y182808D01*
X99289Y182782D01*
X99428Y182753D01*
X99567Y182719D01*
X99704Y182681D01*
X99841Y182640D01*
X99976Y182595D01*
X100110Y182546D01*
X100242Y182493D01*
X100373Y182437D01*
X100502Y182377D01*
X100630Y182313D01*
X100755Y182246D01*
X100879Y182175D01*
X101001Y182101D01*
X101120Y182024D01*
X101238Y181943D01*
X101353Y181859D01*
X101465Y181772D01*
X101575Y181681D01*
X101683Y181588D01*
X101788Y181491D01*
X101890Y181392D01*
X101989Y181290D01*
X102086Y181185D01*
X102179Y181077D01*
X102270Y180967D01*
X102357Y180855D01*
X102441Y180740D01*
X102522Y180622D01*
X102599Y180503D01*
X102673Y180381D01*
X102744Y180257D01*
X102811Y180132D01*
X102875Y180004D01*
X102935Y179875D01*
X102991Y179744D01*
X103044Y179612D01*
X103093Y179478D01*
X103138Y179343D01*
X103179Y179206D01*
X103217Y179069D01*
X103251Y178930D01*
X103280Y178791D01*
X103306Y178651D01*
X103328Y178510D01*
X103346Y178369D01*
X103360Y178227D01*
X103370Y178085D01*
X103376Y177942D01*
X103378Y177800D01*
X103376Y177658D01*
X103370Y177515D01*
X103360Y177373D01*
X103346Y177231D01*
X103328Y177090D01*
X103306Y176949D01*
X103280Y176809D01*
X103251Y176670D01*
X103217Y176531D01*
X103179Y176394D01*
X103138Y176257D01*
X103093Y176122D01*
X103044Y175988D01*
X102991Y175856D01*
X102935Y175725D01*
X102875Y175596D01*
X102811Y175468D01*
X102744Y175343D01*
X102673Y175219D01*
X102599Y175097D01*
X102522Y174978D01*
X102441Y174860D01*
X102357Y174745D01*
X102270Y174633D01*
X102179Y174523D01*
X102086Y174415D01*
X101989Y174310D01*
X101890Y174208D01*
X101788Y174109D01*
X101683Y174012D01*
X101575Y173919D01*
X101465Y173828D01*
X101353Y173741D01*
X101238Y173657D01*
X101120Y173576D01*
X101001Y173499D01*
X100879Y173425D01*
X100755Y173354D01*
X100630Y173287D01*
X100502Y173223D01*
X100373Y173163D01*
X100242Y173107D01*
X100110Y173054D01*
X99976Y173005D01*
X99841Y172960D01*
X99704Y172919D01*
X99567Y172881D01*
X99428Y172847D01*
X99289Y172818D01*
X99149Y172792D01*
X99008Y172770D01*
X98867Y172752D01*
X98725Y172738D01*
X98583Y172728D01*
X98440Y172722D01*
X98298Y172720D01*
X98156Y172722D01*
X98013Y172728D01*
X97871Y172738D01*
X97729Y172752D01*
X97588Y172770D01*
X97447Y172792D01*
X97307Y172818D01*
X97168Y172847D01*
X97029Y172881D01*
X96892Y172919D01*
X96755Y172960D01*
X96620Y173005D01*
X96486Y173054D01*
X96354Y173107D01*
X96223Y173163D01*
X96094Y173223D01*
X95966Y173287D01*
X95841Y173354D01*
X95717Y173425D01*
X95595Y173499D01*
X95476Y173576D01*
X95358Y173657D01*
X95243Y173741D01*
X95131Y173828D01*
X95021Y173919D01*
X94913Y174012D01*
X94808Y174109D01*
X94706Y174208D01*
X94607Y174310D01*
X94510Y174415D01*
X94417Y174523D01*
X94326Y174633D01*
X94239Y174745D01*
X94155Y174860D01*
X94074Y174978D01*
X93997Y175097D01*
X93923Y175219D01*
X93852Y175343D01*
X93785Y175468D01*
X93721Y175596D01*
X93661Y175725D01*
X93605Y175856D01*
X93552Y175988D01*
X93503Y176122D01*
X93458Y176257D01*
X93417Y176394D01*
X93379Y176531D01*
X93345Y176670D01*
X93316Y176809D01*
X93290Y176949D01*
X93268Y177090D01*
X93250Y177231D01*
X93236Y177373D01*
X93226Y177515D01*
X93220Y177658D01*
X93218Y177800D01*
D14*
X88255Y267335D02*
X99695Y274962D01*
X99695Y267335D02*
X88255Y274962D01*
X92069Y279029D02*
X88255Y282842D01*
X99695Y282842D01*
X99695Y279029D02*
X99695Y286655D01*
D13*
X108585Y361950D02*
X12065Y361950D01*
D15*
X19685Y344170D02*
X29845Y354330D01*
D13*
X12065Y311150D02*
X108585Y311150D01*
X12065Y311150D02*
X12065Y361950D01*
X108585Y361950D02*
X108585Y311150D01*
D11*
X18415Y349250D02*
X18417Y349409D01*
X18423Y349568D01*
X18433Y349726D01*
X18447Y349885D01*
X18465Y350043D01*
X18486Y350200D01*
X18512Y350357D01*
X18542Y350513D01*
X18575Y350669D01*
X18613Y350823D01*
X18654Y350977D01*
X18699Y351129D01*
X18748Y351280D01*
X18801Y351430D01*
X18857Y351579D01*
X18918Y351726D01*
X18981Y351871D01*
X19049Y352015D01*
X19120Y352158D01*
X19194Y352298D01*
X19272Y352436D01*
X19354Y352573D01*
X19439Y352707D01*
X19527Y352840D01*
X19618Y352970D01*
X19713Y353097D01*
X19811Y353222D01*
X19912Y353345D01*
X20016Y353465D01*
X20123Y353583D01*
X20233Y353698D01*
X20346Y353810D01*
X20461Y353919D01*
X20579Y354025D01*
X20700Y354129D01*
X20824Y354229D01*
X20949Y354326D01*
X21078Y354420D01*
X21208Y354510D01*
X21341Y354598D01*
X21476Y354682D01*
X21613Y354762D01*
X21752Y354840D01*
X21893Y354913D01*
X22035Y354983D01*
X22180Y355050D01*
X22326Y355113D01*
X22473Y355172D01*
X22622Y355228D01*
X22773Y355279D01*
X22924Y355327D01*
X23077Y355371D01*
X23231Y355412D01*
X23385Y355448D01*
X23541Y355481D01*
X23697Y355510D01*
X23854Y355534D01*
X24012Y355555D01*
X24170Y355572D01*
X24328Y355585D01*
X24487Y355594D01*
X24646Y355599D01*
X24805Y355600D01*
X24964Y355597D01*
X25122Y355590D01*
X25281Y355579D01*
X25439Y355564D01*
X25597Y355545D01*
X25754Y355522D01*
X25911Y355496D01*
X26067Y355465D01*
X26222Y355431D01*
X26376Y355392D01*
X26530Y355350D01*
X26682Y355304D01*
X26833Y355254D01*
X26982Y355200D01*
X27131Y355143D01*
X27277Y355082D01*
X27423Y355017D01*
X27566Y354949D01*
X27708Y354877D01*
X27848Y354801D01*
X27986Y354723D01*
X28122Y354640D01*
X28256Y354555D01*
X28387Y354466D01*
X28517Y354373D01*
X28644Y354278D01*
X28768Y354179D01*
X28891Y354077D01*
X29010Y353973D01*
X29127Y353865D01*
X29241Y353754D01*
X29352Y353641D01*
X29461Y353525D01*
X29566Y353406D01*
X29669Y353284D01*
X29768Y353160D01*
X29865Y353034D01*
X29958Y352905D01*
X30048Y352774D01*
X30134Y352640D01*
X30217Y352505D01*
X30297Y352367D01*
X30373Y352228D01*
X30446Y352087D01*
X30515Y351944D01*
X30581Y351799D01*
X30643Y351652D01*
X30701Y351505D01*
X30756Y351355D01*
X30807Y351205D01*
X30854Y351053D01*
X30897Y350900D01*
X30936Y350746D01*
X30972Y350591D01*
X31003Y350435D01*
X31031Y350279D01*
X31055Y350122D01*
X31075Y349964D01*
X31091Y349806D01*
X31103Y349647D01*
X31111Y349488D01*
X31115Y349329D01*
X31115Y349171D01*
X31111Y349012D01*
X31103Y348853D01*
X31091Y348694D01*
X31075Y348536D01*
X31055Y348378D01*
X31031Y348221D01*
X31003Y348065D01*
X30972Y347909D01*
X30936Y347754D01*
X30897Y347600D01*
X30854Y347447D01*
X30807Y347295D01*
X30756Y347145D01*
X30701Y346995D01*
X30643Y346848D01*
X30581Y346701D01*
X30515Y346556D01*
X30446Y346413D01*
X30373Y346272D01*
X30297Y346133D01*
X30217Y345995D01*
X30134Y345860D01*
X30048Y345726D01*
X29958Y345595D01*
X29865Y345466D01*
X29768Y345340D01*
X29669Y345216D01*
X29566Y345094D01*
X29461Y344975D01*
X29352Y344859D01*
X29241Y344746D01*
X29127Y344635D01*
X29010Y344527D01*
X28891Y344423D01*
X28768Y344321D01*
X28644Y344222D01*
X28517Y344127D01*
X28387Y344034D01*
X28256Y343945D01*
X28122Y343860D01*
X27986Y343777D01*
X27848Y343699D01*
X27708Y343623D01*
X27566Y343551D01*
X27423Y343483D01*
X27277Y343418D01*
X27131Y343357D01*
X26982Y343300D01*
X26833Y343246D01*
X26682Y343196D01*
X26530Y343150D01*
X26376Y343108D01*
X26222Y343069D01*
X26067Y343035D01*
X25911Y343004D01*
X25754Y342978D01*
X25597Y342955D01*
X25439Y342936D01*
X25281Y342921D01*
X25122Y342910D01*
X24964Y342903D01*
X24805Y342900D01*
X24646Y342901D01*
X24487Y342906D01*
X24328Y342915D01*
X24170Y342928D01*
X24012Y342945D01*
X23854Y342966D01*
X23697Y342990D01*
X23541Y343019D01*
X23385Y343052D01*
X23231Y343088D01*
X23077Y343129D01*
X22924Y343173D01*
X22773Y343221D01*
X22622Y343272D01*
X22473Y343328D01*
X22326Y343387D01*
X22180Y343450D01*
X22035Y343517D01*
X21893Y343587D01*
X21752Y343660D01*
X21613Y343738D01*
X21476Y343818D01*
X21341Y343902D01*
X21208Y343990D01*
X21078Y344080D01*
X20949Y344174D01*
X20824Y344271D01*
X20700Y344371D01*
X20579Y344475D01*
X20461Y344581D01*
X20346Y344690D01*
X20233Y344802D01*
X20123Y344917D01*
X20016Y345035D01*
X19912Y345155D01*
X19811Y345278D01*
X19713Y345403D01*
X19618Y345530D01*
X19527Y345660D01*
X19439Y345793D01*
X19354Y345927D01*
X19272Y346064D01*
X19194Y346202D01*
X19120Y346342D01*
X19049Y346485D01*
X18981Y346629D01*
X18918Y346774D01*
X18857Y346921D01*
X18801Y347070D01*
X18748Y347220D01*
X18699Y347371D01*
X18654Y347523D01*
X18613Y347677D01*
X18575Y347831D01*
X18542Y347987D01*
X18512Y348143D01*
X18486Y348300D01*
X18465Y348457D01*
X18447Y348615D01*
X18433Y348774D01*
X18423Y348932D01*
X18417Y349091D01*
X18415Y349250D01*
D14*
X93716Y327668D02*
X95623Y329575D01*
X99436Y329575D01*
X101343Y327668D01*
X101343Y325762D01*
X99436Y323855D01*
X97529Y323855D01*
X99436Y323855D02*
X101343Y321948D01*
X101343Y320042D01*
X99436Y318135D01*
X95623Y318135D01*
X93716Y320042D01*
X17519Y329575D02*
X13706Y325762D01*
X17519Y329575D02*
X17519Y318135D01*
X13706Y318135D02*
X21333Y318135D01*
D16*
X83694Y308110D02*
X83694Y298958D01*
X83694Y308110D02*
X88270Y308110D01*
X89796Y306585D01*
X89796Y303534D01*
X88270Y302009D01*
X83694Y302009D01*
X86745Y302009D02*
X89796Y298958D01*
X93050Y305059D02*
X96100Y308110D01*
X96100Y298958D01*
X93050Y298958D02*
X99151Y298958D01*
X102405Y306585D02*
X103930Y308110D01*
X106981Y308110D01*
X108506Y306585D01*
X108506Y305059D01*
X106981Y303534D01*
X108506Y302009D01*
X108506Y300483D01*
X106981Y298958D01*
X103930Y298958D01*
X102405Y300483D01*
X102405Y302009D01*
X103930Y303534D01*
X102405Y305059D01*
X102405Y306585D01*
X103930Y303534D02*
X106981Y303534D01*
X300855Y297308D02*
X310007Y297308D01*
X300855Y297308D02*
X300855Y301884D01*
X302381Y303409D01*
X305431Y303409D01*
X306956Y301884D01*
X306956Y297308D01*
X306956Y300358D02*
X310007Y303409D01*
X303906Y306663D02*
X300855Y309714D01*
X310007Y309714D01*
X310007Y312764D02*
X310007Y306663D01*
X303906Y316018D02*
X300855Y319069D01*
X310007Y319069D01*
X310007Y322119D02*
X310007Y316018D01*
X284607Y297308D02*
X275455Y297308D01*
X275455Y301884D01*
X276981Y303409D01*
X280031Y303409D01*
X281556Y301884D01*
X281556Y297308D01*
X281556Y300358D02*
X284607Y303409D01*
X278506Y306663D02*
X275455Y309714D01*
X284607Y309714D01*
X284607Y312764D02*
X284607Y306663D01*
X284607Y316018D02*
X284607Y322119D01*
X284607Y316018D02*
X278506Y322119D01*
X276981Y322119D01*
X275455Y320594D01*
X275455Y317543D01*
X276981Y316018D01*
X153525Y494275D02*
X153302Y495468D01*
X153050Y496656D01*
X152769Y497837D01*
X152459Y499011D01*
X152120Y500177D01*
X151753Y501334D01*
X151358Y502482D01*
X150934Y503620D01*
X150483Y504747D01*
X150004Y505862D01*
X149498Y506966D01*
X148965Y508057D01*
X148406Y509134D01*
X147820Y510198D01*
X147209Y511246D01*
X146571Y512280D01*
X145909Y513297D01*
X145222Y514298D01*
X144510Y515282D01*
X143775Y516248D01*
X143016Y517195D01*
X142234Y518124D01*
X141430Y519033D01*
X140603Y519922D01*
X139755Y520791D01*
X138886Y521639D01*
X137996Y522465D01*
X137087Y523269D01*
X136157Y524050D01*
X135209Y524809D01*
X134243Y525543D01*
X133259Y526254D01*
X132258Y526941D01*
X131240Y527603D01*
X130206Y528240D01*
X129157Y528851D01*
X128094Y529436D01*
X127016Y529995D01*
X125925Y530527D01*
X124821Y531033D01*
X123705Y531511D01*
X122578Y531962D01*
X121440Y532384D01*
X120292Y532779D01*
X119134Y533146D01*
X117968Y533484D01*
X116794Y533793D01*
X115613Y534073D01*
X114425Y534325D01*
X113232Y534547D01*
X112033Y534740D01*
X110830Y534903D01*
X109623Y535037D01*
X108414Y535141D01*
X107202Y535215D01*
X105989Y535260D01*
X104775Y535275D01*
X103561Y535260D01*
X102348Y535215D01*
X101136Y535141D01*
X99927Y535037D01*
X98720Y534903D01*
X97517Y534740D01*
X96318Y534547D01*
X95125Y534325D01*
X93937Y534073D01*
X92756Y533793D01*
X91582Y533484D01*
X90416Y533146D01*
X89258Y532779D01*
X88110Y532384D01*
X86972Y531962D01*
X85845Y531511D01*
X84729Y531033D01*
X83625Y530527D01*
X82534Y529995D01*
X81456Y529436D01*
X80393Y528851D01*
X79344Y528240D01*
X78310Y527603D01*
X77292Y526941D01*
X76291Y526254D01*
X75307Y525543D01*
X74341Y524809D01*
X73393Y524050D01*
X72463Y523269D01*
X71554Y522465D01*
X70664Y521639D01*
X69795Y520791D01*
X68947Y519922D01*
X68120Y519033D01*
X67316Y518124D01*
X66534Y517195D01*
X65775Y516248D01*
X65040Y515282D01*
X64328Y514298D01*
X63641Y513297D01*
X62979Y512280D01*
X62341Y511246D01*
X61730Y510198D01*
X61144Y509134D01*
X60585Y508057D01*
X60052Y506966D01*
X59546Y505862D01*
X59067Y504747D01*
X58616Y503620D01*
X58192Y502482D01*
X57797Y501334D01*
X57430Y500177D01*
X57091Y499011D01*
X56781Y497837D01*
X56500Y496656D01*
X56248Y495468D01*
X56025Y494275D01*
X53775Y494525D02*
X53775Y536775D01*
X147775Y536775D01*
X155775Y528775D01*
X155775Y442775D02*
X147775Y434775D01*
X53775Y434775D01*
X53775Y477275D01*
X56025Y477275D02*
X56248Y476082D01*
X56500Y474894D01*
X56781Y473713D01*
X57091Y472539D01*
X57430Y471373D01*
X57797Y470216D01*
X58192Y469068D01*
X58616Y467930D01*
X59067Y466803D01*
X59546Y465688D01*
X60052Y464584D01*
X60585Y463493D01*
X61144Y462416D01*
X61730Y461352D01*
X62341Y460304D01*
X62979Y459270D01*
X63641Y458253D01*
X64328Y457252D01*
X65040Y456268D01*
X65775Y455302D01*
X66534Y454355D01*
X67316Y453426D01*
X68120Y452517D01*
X68947Y451628D01*
X69795Y450759D01*
X70664Y449911D01*
X71554Y449085D01*
X72463Y448281D01*
X73393Y447500D01*
X74341Y446741D01*
X75307Y446007D01*
X76291Y445296D01*
X77292Y444609D01*
X78310Y443947D01*
X79344Y443310D01*
X80393Y442699D01*
X81456Y442114D01*
X82534Y441555D01*
X83625Y441023D01*
X84729Y440517D01*
X85845Y440039D01*
X86972Y439588D01*
X88110Y439166D01*
X89258Y438771D01*
X90416Y438404D01*
X91582Y438066D01*
X92756Y437757D01*
X93937Y437477D01*
X95125Y437225D01*
X96318Y437003D01*
X97517Y436810D01*
X98720Y436647D01*
X99927Y436513D01*
X101136Y436409D01*
X102348Y436335D01*
X103561Y436290D01*
X104775Y436275D01*
X105989Y436290D01*
X107202Y436335D01*
X108414Y436409D01*
X109623Y436513D01*
X110830Y436647D01*
X112033Y436810D01*
X113232Y437003D01*
X114425Y437225D01*
X115613Y437477D01*
X116794Y437757D01*
X117968Y438066D01*
X119134Y438404D01*
X120292Y438771D01*
X121440Y439166D01*
X122578Y439588D01*
X123705Y440039D01*
X124821Y440517D01*
X125925Y441023D01*
X127016Y441555D01*
X128094Y442114D01*
X129157Y442699D01*
X130206Y443310D01*
X131240Y443947D01*
X132258Y444609D01*
X133259Y445296D01*
X134243Y446007D01*
X135209Y446741D01*
X136157Y447500D01*
X137087Y448281D01*
X137996Y449085D01*
X138886Y449911D01*
X139755Y450759D01*
X140603Y451628D01*
X141430Y452517D01*
X142234Y453426D01*
X143016Y454355D01*
X143775Y455302D01*
X144510Y456268D01*
X145222Y457252D01*
X145909Y458253D01*
X146571Y459270D01*
X147209Y460304D01*
X147820Y461352D01*
X148406Y462416D01*
X148965Y463493D01*
X149498Y464584D01*
X150004Y465688D01*
X150483Y466803D01*
X150934Y467930D01*
X151358Y469068D01*
X151753Y470216D01*
X152120Y471373D01*
X152459Y472539D01*
X152769Y473713D01*
X153050Y474894D01*
X153302Y476082D01*
X153525Y477275D01*
D14*
X90792Y427046D02*
X88885Y428952D01*
X85072Y428952D01*
X83165Y427046D01*
X83165Y419419D01*
X85072Y417513D01*
X88885Y417513D01*
X90792Y419419D01*
X94859Y425139D02*
X98672Y428952D01*
X98672Y417513D01*
X94859Y417513D02*
X102486Y417513D01*
D13*
X228600Y514350D02*
X228600Y527050D01*
X228600Y514350D02*
X222250Y508000D01*
X209550Y508000D01*
X203200Y514350D01*
X222250Y508000D02*
X228600Y501650D01*
X228600Y488950D01*
X222250Y482600D01*
X209550Y482600D01*
X203200Y488950D01*
X203200Y501650D01*
X209550Y508000D01*
X209550Y533400D02*
X222250Y533400D01*
X228600Y527050D01*
X209550Y533400D02*
X203200Y527050D01*
X203200Y514350D01*
X222250Y482600D02*
X228600Y476250D01*
X228600Y463550D01*
X222250Y457200D01*
X209550Y457200D01*
X203200Y463550D01*
X203200Y476250D01*
X209550Y482600D01*
D16*
X179832Y306388D02*
X170680Y306388D01*
X170680Y310963D01*
X172206Y312489D01*
X175256Y312489D01*
X176781Y310963D01*
X176781Y306388D01*
X176781Y309438D02*
X179832Y312489D01*
X173731Y315743D02*
X170680Y318793D01*
X179832Y318793D01*
X179832Y315743D02*
X179832Y321844D01*
D13*
X279400Y514350D02*
X279400Y527050D01*
X279400Y514350D02*
X273050Y508000D01*
X260350Y508000D01*
X254000Y514350D01*
X273050Y508000D02*
X279400Y501650D01*
X279400Y488950D01*
X273050Y482600D01*
X260350Y482600D01*
X254000Y488950D01*
X254000Y501650D01*
X260350Y508000D01*
X260350Y533400D02*
X273050Y533400D01*
X279400Y527050D01*
X260350Y533400D02*
X254000Y527050D01*
X254000Y514350D01*
X273050Y482600D02*
X279400Y476250D01*
X279400Y463550D01*
X273050Y457200D01*
X260350Y457200D01*
X254000Y463550D01*
X254000Y476250D01*
X260350Y482600D01*
D16*
X205232Y306388D02*
X196080Y306388D01*
X196080Y310963D01*
X197606Y312489D01*
X200656Y312489D01*
X202181Y310963D01*
X202181Y306388D01*
X202181Y309438D02*
X205232Y312489D01*
X205232Y315743D02*
X205232Y321844D01*
X205232Y315743D02*
X199131Y321844D01*
X197606Y321844D01*
X196080Y320319D01*
X196080Y317268D01*
X197606Y315743D01*
D13*
X330200Y514350D02*
X330200Y527050D01*
X330200Y514350D02*
X323850Y508000D01*
X311150Y508000D01*
X304800Y514350D01*
X323850Y508000D02*
X330200Y501650D01*
X330200Y488950D01*
X323850Y482600D01*
X311150Y482600D01*
X304800Y488950D01*
X304800Y501650D01*
X311150Y508000D01*
X311150Y533400D02*
X323850Y533400D01*
X330200Y527050D01*
X311150Y533400D02*
X304800Y527050D01*
X304800Y514350D01*
X323850Y482600D02*
X330200Y476250D01*
X330200Y463550D01*
X323850Y457200D01*
X311150Y457200D01*
X304800Y463550D01*
X304800Y476250D01*
X311150Y482600D01*
D16*
X230632Y306388D02*
X221480Y306388D01*
X221480Y310963D01*
X223006Y312489D01*
X226056Y312489D01*
X227581Y310963D01*
X227581Y306388D01*
X227581Y309438D02*
X230632Y312489D01*
X223006Y315743D02*
X221480Y317268D01*
X221480Y320319D01*
X223006Y321844D01*
X224531Y321844D01*
X226056Y320319D01*
X226056Y318793D01*
X226056Y320319D02*
X227581Y321844D01*
X229107Y321844D01*
X230632Y320319D01*
X230632Y317268D01*
X229107Y315743D01*
D13*
X381000Y514350D02*
X381000Y527050D01*
X381000Y514350D02*
X374650Y508000D01*
X361950Y508000D01*
X355600Y514350D01*
X374650Y508000D02*
X381000Y501650D01*
X381000Y488950D01*
X374650Y482600D01*
X361950Y482600D01*
X355600Y488950D01*
X355600Y501650D01*
X361950Y508000D01*
X361950Y533400D02*
X374650Y533400D01*
X381000Y527050D01*
X361950Y533400D02*
X355600Y527050D01*
X355600Y514350D01*
X374650Y482600D02*
X381000Y476250D01*
X381000Y463550D01*
X374650Y457200D01*
X361950Y457200D01*
X355600Y463550D01*
X355600Y476250D01*
X361950Y482600D01*
D16*
X256032Y306388D02*
X246880Y306388D01*
X246880Y310963D01*
X248406Y312489D01*
X251456Y312489D01*
X252981Y310963D01*
X252981Y306388D01*
X252981Y309438D02*
X256032Y312489D01*
X256032Y320319D02*
X246880Y320319D01*
X251456Y315743D01*
X251456Y321844D01*
X323080Y306388D02*
X332232Y306388D01*
X323080Y306388D02*
X323080Y310963D01*
X324606Y312489D01*
X327656Y312489D01*
X329181Y310963D01*
X329181Y306388D01*
X329181Y309438D02*
X332232Y312489D01*
X323080Y315743D02*
X323080Y321844D01*
X323080Y315743D02*
X327656Y315743D01*
X326131Y318793D01*
X326131Y320319D01*
X327656Y321844D01*
X330707Y321844D01*
X332232Y320319D01*
X332232Y317268D01*
X330707Y315743D01*
X348480Y306388D02*
X357632Y306388D01*
X348480Y306388D02*
X348480Y310963D01*
X350006Y312489D01*
X353056Y312489D01*
X354581Y310963D01*
X354581Y306388D01*
X354581Y309438D02*
X357632Y312489D01*
X350006Y318793D02*
X348480Y321844D01*
X350006Y318793D02*
X353056Y315743D01*
X356107Y315743D01*
X357632Y317268D01*
X357632Y320319D01*
X356107Y321844D01*
X354581Y321844D01*
X353056Y320319D01*
X353056Y315743D01*
X373880Y306388D02*
X383032Y306388D01*
X373880Y306388D02*
X373880Y310963D01*
X375406Y312489D01*
X378456Y312489D01*
X379981Y310963D01*
X379981Y306388D01*
X379981Y309438D02*
X383032Y312489D01*
X373880Y315743D02*
X373880Y321844D01*
X375406Y321844D01*
X381507Y315743D01*
X383032Y315743D01*
D13*
X508000Y514350D02*
X508000Y527050D01*
X508000Y514350D02*
X501650Y508000D01*
X488950Y508000D01*
X482600Y514350D01*
X501650Y508000D02*
X508000Y501650D01*
X508000Y488950D01*
X501650Y482600D01*
X488950Y482600D01*
X482600Y488950D01*
X482600Y501650D01*
X488950Y508000D01*
X488950Y533400D02*
X501650Y533400D01*
X508000Y527050D01*
X488950Y533400D02*
X482600Y527050D01*
X482600Y514350D01*
X501650Y482600D02*
X508000Y476250D01*
X508000Y463550D01*
X501650Y457200D01*
X488950Y457200D01*
X482600Y463550D01*
X482600Y476250D01*
X488950Y482600D01*
D16*
X438912Y307997D02*
X429760Y307997D01*
X429760Y312573D01*
X431286Y314098D01*
X434336Y314098D01*
X435861Y312573D01*
X435861Y307997D01*
X435861Y311048D02*
X438912Y314098D01*
X431286Y317352D02*
X429760Y318878D01*
X429760Y321928D01*
X431286Y323454D01*
X432811Y323454D01*
X434336Y321928D01*
X435861Y323454D01*
X437387Y323454D01*
X438912Y321928D01*
X438912Y318878D01*
X437387Y317352D01*
X435861Y317352D01*
X434336Y318878D01*
X432811Y317352D01*
X431286Y317352D01*
X434336Y318878D02*
X434336Y321928D01*
D13*
X584200Y514350D02*
X584200Y527050D01*
X584200Y514350D02*
X577850Y508000D01*
X565150Y508000D01*
X558800Y514350D01*
X577850Y508000D02*
X584200Y501650D01*
X584200Y488950D01*
X577850Y482600D01*
X565150Y482600D01*
X558800Y488950D01*
X558800Y501650D01*
X565150Y508000D01*
X565150Y533400D02*
X577850Y533400D01*
X584200Y527050D01*
X565150Y533400D02*
X558800Y527050D01*
X558800Y514350D01*
X577850Y482600D02*
X584200Y476250D01*
X584200Y463550D01*
X577850Y457200D01*
X565150Y457200D01*
X558800Y463550D01*
X558800Y476250D01*
X565150Y482600D01*
D16*
X489712Y298388D02*
X480560Y298388D01*
X480560Y302964D01*
X482086Y304489D01*
X485136Y304489D01*
X486661Y302964D01*
X486661Y298388D01*
X486661Y301439D02*
X489712Y304489D01*
X483611Y307743D02*
X480560Y310794D01*
X489712Y310794D01*
X489712Y313844D02*
X489712Y307743D01*
X488187Y317098D02*
X482086Y317098D01*
X480560Y318624D01*
X480560Y321674D01*
X482086Y323200D01*
X488187Y323200D01*
X489712Y321674D01*
X489712Y318624D01*
X488187Y317098D01*
X482086Y323200D01*
D13*
X673100Y146050D02*
X673100Y133350D01*
X666750Y127000D01*
X654050Y127000D01*
X647700Y133350D01*
X654050Y152400D02*
X666750Y152400D01*
X673100Y146050D01*
X654050Y152400D02*
X647700Y146050D01*
X647700Y133350D01*
X666750Y127000D02*
X673100Y120650D01*
X673100Y107950D01*
X666750Y101600D01*
X654050Y101600D01*
X647700Y107950D01*
X647700Y120650D01*
X654050Y127000D01*
X330200Y31750D02*
X330200Y19050D01*
X330200Y31750D02*
X336550Y38100D01*
X349250Y38100D01*
X355600Y31750D01*
X349250Y12700D02*
X336550Y12700D01*
X330200Y19050D01*
X349250Y12700D02*
X355600Y19050D01*
X355600Y31750D01*
X336550Y38100D02*
X330200Y44450D01*
X330200Y57150D01*
X336550Y63500D01*
X349250Y63500D01*
X355600Y57150D01*
X355600Y44450D01*
X349250Y38100D01*
X127000Y31750D02*
X127000Y19050D01*
X127000Y31750D02*
X133350Y38100D01*
X146050Y38100D01*
X152400Y31750D01*
X146050Y12700D02*
X133350Y12700D01*
X127000Y19050D01*
X146050Y12700D02*
X152400Y19050D01*
X152400Y31750D01*
X133350Y38100D02*
X127000Y44450D01*
X127000Y57150D01*
X133350Y63500D01*
X146050Y63500D01*
X152400Y57150D01*
X152400Y44450D01*
X146050Y38100D01*
X76200Y31750D02*
X76200Y19050D01*
X76200Y31750D02*
X82550Y38100D01*
X95250Y38100D01*
X101600Y31750D01*
X95250Y12700D02*
X82550Y12700D01*
X76200Y19050D01*
X95250Y12700D02*
X101600Y19050D01*
X101600Y31750D01*
X82550Y38100D02*
X76200Y44450D01*
X76200Y57150D01*
X82550Y63500D01*
X95250Y63500D01*
X101600Y57150D01*
X101600Y44450D01*
X95250Y38100D01*
X101600Y31750D02*
X101600Y19050D01*
X101600Y31750D02*
X107950Y38100D01*
X120650Y38100D01*
X127000Y31750D01*
X120650Y12700D02*
X107950Y12700D01*
X101600Y19050D01*
X120650Y12700D02*
X127000Y19050D01*
X127000Y31750D01*
X107950Y38100D02*
X101600Y44450D01*
X101600Y57150D01*
X107950Y63500D01*
X120650Y63500D01*
X127000Y57150D01*
X127000Y44450D01*
X120650Y38100D01*
X177800Y31750D02*
X177800Y19050D01*
X177800Y31750D02*
X184150Y38100D01*
X196850Y38100D01*
X203200Y31750D01*
X196850Y12700D02*
X184150Y12700D01*
X177800Y19050D01*
X196850Y12700D02*
X203200Y19050D01*
X203200Y31750D01*
X184150Y38100D02*
X177800Y44450D01*
X177800Y57150D01*
X184150Y63500D01*
X196850Y63500D01*
X203200Y57150D01*
X203200Y44450D01*
X196850Y38100D01*
X228600Y31750D02*
X228600Y19050D01*
X228600Y31750D02*
X234950Y38100D01*
X247650Y38100D01*
X254000Y31750D01*
X247650Y12700D02*
X234950Y12700D01*
X228600Y19050D01*
X247650Y12700D02*
X254000Y19050D01*
X254000Y31750D01*
X234950Y38100D02*
X228600Y44450D01*
X228600Y57150D01*
X234950Y63500D01*
X247650Y63500D01*
X254000Y57150D01*
X254000Y44450D01*
X247650Y38100D01*
D16*
X581025Y299593D02*
X581025Y308745D01*
X585601Y308745D01*
X587126Y307220D01*
X587126Y304169D01*
X585601Y302644D01*
X581025Y302644D01*
X584076Y302644D02*
X587126Y299593D01*
X590380Y299593D02*
X596481Y299593D01*
X590380Y299593D02*
X596481Y305694D01*
X596481Y307220D01*
X594956Y308745D01*
X591905Y308745D01*
X590380Y307220D01*
X599735Y308745D02*
X605837Y308745D01*
X605837Y307220D01*
X599735Y301118D01*
X599735Y299593D01*
X581025Y324993D02*
X581025Y334145D01*
X585601Y334145D01*
X587126Y332620D01*
X587126Y329569D01*
X585601Y328044D01*
X581025Y328044D01*
X584076Y328044D02*
X587126Y324993D01*
X590380Y324993D02*
X596481Y324993D01*
X590380Y324993D02*
X596481Y331094D01*
X596481Y332620D01*
X594956Y334145D01*
X591905Y334145D01*
X590380Y332620D01*
X599735Y332620D02*
X601261Y334145D01*
X604311Y334145D01*
X605837Y332620D01*
X605837Y331094D01*
X604311Y329569D01*
X605837Y328044D01*
X605837Y326518D01*
X604311Y324993D01*
X601261Y324993D01*
X599735Y326518D01*
X599735Y328044D01*
X601261Y329569D01*
X599735Y331094D01*
X599735Y332620D01*
X601261Y329569D02*
X604311Y329569D01*
D13*
X666750Y355600D02*
X673100Y361950D01*
X673100Y374650D02*
X666750Y381000D01*
X673100Y387350D01*
X673100Y400050D02*
X666750Y406400D01*
X666750Y355600D02*
X628650Y355600D01*
X622300Y361950D01*
X622300Y374650D01*
X628650Y381000D01*
X622300Y387350D01*
X622300Y400050D01*
X628650Y406400D01*
X628650Y381000D02*
X666750Y381000D01*
X666750Y406400D02*
X628650Y406400D01*
X673100Y400050D02*
X673100Y387350D01*
X673100Y374650D02*
X673100Y361950D01*
X666750Y406400D02*
X673100Y412750D01*
X673100Y425450D02*
X666750Y431800D01*
X628650Y406400D02*
X622300Y412750D01*
X622300Y425450D01*
X628650Y431800D01*
X666750Y431800D01*
X673100Y425450D02*
X673100Y412750D01*
D17*
X555244Y393700D02*
X38100Y393700D01*
X555244Y393700D02*
X555244Y114300D01*
X38100Y114300D01*
X38100Y209550D01*
X38100Y298450D01*
X38100Y393700D01*
X82550Y298450D02*
X82550Y209550D01*
X82550Y298450D02*
X38100Y298450D01*
X38100Y209550D02*
X82550Y209550D01*
D13*
X63413Y226696D02*
X47736Y226696D01*
X63413Y226696D02*
X66548Y229832D01*
X66548Y236102D01*
X63413Y239238D01*
X47736Y239238D01*
X47736Y254813D02*
X50871Y257948D01*
X47736Y254813D02*
X47736Y248542D01*
X50871Y245407D01*
X54007Y245407D01*
X57142Y248542D01*
X57142Y254813D01*
X60277Y257948D01*
X63413Y257948D01*
X66548Y254813D01*
X66548Y248542D01*
X63413Y245407D01*
X66548Y264117D02*
X47736Y264117D01*
X47736Y273523D01*
X50871Y276659D01*
X54007Y276659D01*
X57142Y273523D01*
X60277Y276659D01*
X63413Y276659D01*
X66548Y273523D01*
X66548Y264117D01*
X57142Y264117D02*
X57142Y273523D01*
D10*
X44831Y284524D02*
X44831Y292362D01*
X44831Y284524D02*
X46399Y282956D01*
X49534Y282956D01*
X51102Y284524D01*
X51102Y292362D01*
X54186Y289227D02*
X57322Y292362D01*
X57322Y282956D01*
X60457Y282956D02*
X54186Y282956D01*
D13*
X304800Y514350D02*
X304800Y527050D01*
X304800Y514350D02*
X298450Y508000D01*
X285750Y508000D01*
X279400Y514350D01*
X298450Y508000D02*
X304800Y501650D01*
X304800Y488950D01*
X298450Y482600D01*
X285750Y482600D01*
X279400Y488950D01*
X279400Y501650D01*
X285750Y508000D01*
X285750Y533400D02*
X298450Y533400D01*
X304800Y527050D01*
X285750Y533400D02*
X279400Y527050D01*
X279400Y514350D01*
X298450Y482600D02*
X304800Y476250D01*
X304800Y463550D01*
X298450Y457200D01*
X285750Y457200D01*
X279400Y463550D01*
X279400Y476250D01*
X285750Y482600D01*
X279400Y31750D02*
X279400Y19050D01*
X279400Y31750D02*
X285750Y38100D01*
X298450Y38100D01*
X304800Y31750D01*
X298450Y12700D02*
X285750Y12700D01*
X279400Y19050D01*
X298450Y12700D02*
X304800Y19050D01*
X304800Y31750D01*
X285750Y38100D02*
X279400Y44450D01*
X279400Y57150D01*
X285750Y63500D01*
X298450Y63500D01*
X304800Y57150D01*
X304800Y44450D01*
X298450Y38100D01*
X304800Y31750D02*
X304800Y19050D01*
X304800Y31750D02*
X311150Y38100D01*
X323850Y38100D01*
X330200Y31750D01*
X323850Y12700D02*
X311150Y12700D01*
X304800Y19050D01*
X323850Y12700D02*
X330200Y19050D01*
X330200Y31750D01*
X311150Y38100D02*
X304800Y44450D01*
X304800Y57150D01*
X311150Y63500D01*
X323850Y63500D01*
X330200Y57150D01*
X330200Y44450D01*
X323850Y38100D01*
X381000Y31750D02*
X381000Y19050D01*
X381000Y31750D02*
X387350Y38100D01*
X400050Y38100D01*
X406400Y31750D01*
X400050Y12700D02*
X387350Y12700D01*
X381000Y19050D01*
X400050Y12700D02*
X406400Y19050D01*
X406400Y31750D01*
X387350Y38100D02*
X381000Y44450D01*
X381000Y57150D01*
X387350Y63500D01*
X400050Y63500D01*
X406400Y57150D01*
X406400Y44450D01*
X400050Y38100D01*
X355600Y31750D02*
X355600Y19050D01*
X355600Y31750D02*
X361950Y38100D01*
X374650Y38100D01*
X381000Y31750D01*
X374650Y12700D02*
X361950Y12700D01*
X355600Y19050D01*
X374650Y12700D02*
X381000Y19050D01*
X381000Y31750D01*
X361950Y38100D02*
X355600Y44450D01*
X355600Y57150D01*
X361950Y63500D01*
X374650Y63500D01*
X381000Y57150D01*
X381000Y44450D01*
X374650Y38100D01*
X152400Y31750D02*
X152400Y19050D01*
X152400Y31750D02*
X158750Y38100D01*
X171450Y38100D01*
X177800Y31750D01*
X171450Y12700D02*
X158750Y12700D01*
X152400Y19050D01*
X171450Y12700D02*
X177800Y19050D01*
X177800Y31750D01*
X158750Y38100D02*
X152400Y44450D01*
X152400Y57150D01*
X158750Y63500D01*
X171450Y63500D01*
X177800Y57150D01*
X177800Y44450D01*
X171450Y38100D01*
X254000Y31750D02*
X254000Y19050D01*
X254000Y31750D02*
X260350Y38100D01*
X273050Y38100D01*
X279400Y31750D01*
X273050Y12700D02*
X260350Y12700D01*
X254000Y19050D01*
X273050Y12700D02*
X279400Y19050D01*
X279400Y31750D01*
X260350Y38100D02*
X254000Y44450D01*
X254000Y57150D01*
X260350Y63500D01*
X273050Y63500D01*
X279400Y57150D01*
X279400Y44450D01*
X273050Y38100D01*
X203200Y31750D02*
X203200Y19050D01*
X203200Y31750D02*
X209550Y38100D01*
X222250Y38100D01*
X228600Y31750D01*
X222250Y12700D02*
X209550Y12700D01*
X203200Y19050D01*
X222250Y12700D02*
X228600Y19050D01*
X228600Y31750D01*
X209550Y38100D02*
X203200Y44450D01*
X203200Y57150D01*
X209550Y63500D01*
X222250Y63500D01*
X228600Y57150D01*
X228600Y44450D01*
X222250Y38100D01*
X181610Y232283D02*
X275590Y232283D01*
X279400Y196977D02*
X279398Y196855D01*
X279392Y196733D01*
X279382Y196611D01*
X279369Y196490D01*
X279351Y196369D01*
X279330Y196249D01*
X279304Y196129D01*
X279275Y196011D01*
X279243Y195893D01*
X279206Y195776D01*
X279166Y195661D01*
X279122Y195547D01*
X279074Y195435D01*
X279023Y195324D01*
X278968Y195215D01*
X278910Y195107D01*
X278848Y195002D01*
X278783Y194899D01*
X278715Y194797D01*
X278643Y194698D01*
X278569Y194602D01*
X278491Y194507D01*
X278410Y194416D01*
X278327Y194326D01*
X278241Y194240D01*
X278151Y194157D01*
X278060Y194076D01*
X277965Y193998D01*
X277869Y193924D01*
X277770Y193852D01*
X277668Y193784D01*
X277565Y193719D01*
X277460Y193657D01*
X277352Y193599D01*
X277243Y193544D01*
X277132Y193493D01*
X277020Y193445D01*
X276906Y193401D01*
X276791Y193361D01*
X276674Y193324D01*
X276556Y193292D01*
X276438Y193263D01*
X276318Y193237D01*
X276198Y193216D01*
X276077Y193198D01*
X275956Y193185D01*
X275834Y193175D01*
X275712Y193169D01*
X275590Y193167D01*
X181610Y232283D02*
X181488Y232281D01*
X181366Y232275D01*
X181244Y232265D01*
X181123Y232252D01*
X181002Y232234D01*
X180882Y232213D01*
X180762Y232187D01*
X180644Y232158D01*
X180526Y232126D01*
X180409Y232089D01*
X180294Y232049D01*
X180180Y232005D01*
X180068Y231957D01*
X179957Y231906D01*
X179848Y231851D01*
X179740Y231793D01*
X179635Y231731D01*
X179532Y231666D01*
X179430Y231598D01*
X179331Y231526D01*
X179235Y231452D01*
X179140Y231374D01*
X179049Y231293D01*
X178959Y231210D01*
X178873Y231124D01*
X178790Y231034D01*
X178709Y230943D01*
X178631Y230848D01*
X178557Y230752D01*
X178485Y230653D01*
X178417Y230551D01*
X178352Y230448D01*
X178290Y230343D01*
X178232Y230235D01*
X178177Y230126D01*
X178126Y230015D01*
X178078Y229903D01*
X178034Y229789D01*
X177994Y229674D01*
X177957Y229557D01*
X177925Y229439D01*
X177896Y229321D01*
X177870Y229201D01*
X177849Y229081D01*
X177831Y228960D01*
X177818Y228839D01*
X177808Y228717D01*
X177802Y228595D01*
X177800Y228473D01*
X275590Y232283D02*
X275712Y232281D01*
X275834Y232275D01*
X275956Y232265D01*
X276077Y232252D01*
X276198Y232234D01*
X276318Y232213D01*
X276438Y232187D01*
X276556Y232158D01*
X276674Y232126D01*
X276791Y232089D01*
X276906Y232049D01*
X277020Y232005D01*
X277132Y231957D01*
X277243Y231906D01*
X277352Y231851D01*
X277460Y231793D01*
X277565Y231731D01*
X277668Y231666D01*
X277770Y231598D01*
X277869Y231526D01*
X277965Y231452D01*
X278060Y231374D01*
X278151Y231293D01*
X278241Y231210D01*
X278327Y231124D01*
X278410Y231034D01*
X278491Y230943D01*
X278569Y230848D01*
X278643Y230752D01*
X278715Y230653D01*
X278783Y230551D01*
X278848Y230448D01*
X278910Y230343D01*
X278968Y230235D01*
X279023Y230126D01*
X279074Y230015D01*
X279122Y229903D01*
X279166Y229789D01*
X279206Y229674D01*
X279243Y229557D01*
X279275Y229439D01*
X279304Y229321D01*
X279330Y229201D01*
X279351Y229081D01*
X279369Y228960D01*
X279382Y228839D01*
X279392Y228717D01*
X279398Y228595D01*
X279400Y228473D01*
X181610Y193167D02*
X181488Y193169D01*
X181366Y193175D01*
X181244Y193185D01*
X181123Y193198D01*
X181002Y193216D01*
X180882Y193237D01*
X180762Y193263D01*
X180644Y193292D01*
X180526Y193324D01*
X180409Y193361D01*
X180294Y193401D01*
X180180Y193445D01*
X180068Y193493D01*
X179957Y193544D01*
X179848Y193599D01*
X179740Y193657D01*
X179635Y193719D01*
X179532Y193784D01*
X179430Y193852D01*
X179331Y193924D01*
X179235Y193998D01*
X179140Y194076D01*
X179049Y194157D01*
X178959Y194240D01*
X178873Y194326D01*
X178790Y194416D01*
X178709Y194507D01*
X178631Y194602D01*
X178557Y194698D01*
X178485Y194797D01*
X178417Y194899D01*
X178352Y195002D01*
X178290Y195107D01*
X178232Y195215D01*
X178177Y195324D01*
X178126Y195435D01*
X178078Y195547D01*
X178034Y195661D01*
X177994Y195776D01*
X177957Y195893D01*
X177925Y196011D01*
X177896Y196129D01*
X177870Y196249D01*
X177849Y196369D01*
X177831Y196490D01*
X177818Y196611D01*
X177808Y196733D01*
X177802Y196855D01*
X177800Y196977D01*
X181610Y193167D02*
X275590Y193167D01*
X279400Y196977D02*
X279400Y228473D01*
X177800Y228473D02*
X177800Y196977D01*
X177800Y207645D02*
X177941Y207647D01*
X178082Y207653D01*
X178223Y207663D01*
X178364Y207676D01*
X178504Y207694D01*
X178643Y207716D01*
X178782Y207741D01*
X178921Y207770D01*
X179058Y207803D01*
X179194Y207840D01*
X179329Y207881D01*
X179464Y207925D01*
X179596Y207973D01*
X179728Y208025D01*
X179858Y208080D01*
X179986Y208139D01*
X180113Y208202D01*
X180237Y208268D01*
X180360Y208337D01*
X180481Y208410D01*
X180600Y208486D01*
X180717Y208566D01*
X180831Y208649D01*
X180944Y208734D01*
X181053Y208823D01*
X181161Y208915D01*
X181265Y209010D01*
X181367Y209108D01*
X181466Y209209D01*
X181563Y209312D01*
X181656Y209418D01*
X181746Y209526D01*
X181834Y209637D01*
X181918Y209750D01*
X181999Y209866D01*
X182077Y209984D01*
X182152Y210104D01*
X182223Y210226D01*
X182291Y210350D01*
X182355Y210476D01*
X182416Y210603D01*
X182473Y210732D01*
X182526Y210863D01*
X182576Y210995D01*
X182623Y211128D01*
X182665Y211263D01*
X182704Y211399D01*
X182739Y211536D01*
X182770Y211673D01*
X182797Y211812D01*
X182821Y211951D01*
X182840Y212091D01*
X182856Y212231D01*
X182868Y212372D01*
X182876Y212513D01*
X182880Y212654D01*
X182880Y212796D01*
X182876Y212937D01*
X182868Y213078D01*
X182856Y213219D01*
X182840Y213359D01*
X182821Y213499D01*
X182797Y213638D01*
X182770Y213777D01*
X182739Y213914D01*
X182704Y214051D01*
X182665Y214187D01*
X182623Y214322D01*
X182576Y214455D01*
X182526Y214587D01*
X182473Y214718D01*
X182416Y214847D01*
X182355Y214974D01*
X182291Y215100D01*
X182223Y215224D01*
X182152Y215346D01*
X182077Y215466D01*
X181999Y215584D01*
X181918Y215700D01*
X181834Y215813D01*
X181746Y215924D01*
X181656Y216032D01*
X181563Y216138D01*
X181466Y216241D01*
X181367Y216342D01*
X181265Y216440D01*
X181161Y216535D01*
X181053Y216627D01*
X180944Y216716D01*
X180831Y216801D01*
X180717Y216884D01*
X180600Y216964D01*
X180481Y217040D01*
X180360Y217113D01*
X180237Y217182D01*
X180113Y217248D01*
X179986Y217311D01*
X179858Y217370D01*
X179728Y217425D01*
X179596Y217477D01*
X179464Y217525D01*
X179329Y217569D01*
X179194Y217610D01*
X179058Y217647D01*
X178921Y217680D01*
X178782Y217709D01*
X178643Y217734D01*
X178504Y217756D01*
X178364Y217774D01*
X178223Y217787D01*
X178082Y217797D01*
X177941Y217803D01*
X177800Y217805D01*
D11*
X177800Y196723D02*
X279400Y196723D01*
D14*
X215678Y256413D02*
X211865Y256413D01*
X213772Y256413D02*
X213772Y267853D01*
X215678Y267853D02*
X211865Y267853D01*
X225381Y267853D02*
X227288Y265946D01*
X225381Y267853D02*
X221568Y267853D01*
X219661Y265946D01*
X219661Y258320D01*
X221568Y256413D01*
X225381Y256413D01*
X227288Y258320D01*
X231355Y265946D02*
X233262Y267853D01*
X237075Y267853D01*
X238981Y265946D01*
X238981Y264040D01*
X237075Y262133D01*
X235168Y262133D01*
X237075Y262133D02*
X238981Y260226D01*
X238981Y258320D01*
X237075Y256413D01*
X233262Y256413D01*
X231355Y258320D01*
X609600Y346075D02*
X609600Y161925D01*
X609600Y346075D02*
X393700Y346075D01*
X393700Y161925D01*
X609600Y161925D01*
X412115Y229518D02*
X412115Y233331D01*
X412115Y231425D02*
X400675Y231425D01*
X400675Y233331D02*
X400675Y229518D01*
X400675Y243034D02*
X402582Y244940D01*
X400675Y243034D02*
X400675Y239221D01*
X402582Y237314D01*
X410208Y237314D01*
X412115Y239221D01*
X412115Y243034D01*
X410208Y244940D01*
X412115Y254728D02*
X400675Y254728D01*
X406395Y249008D01*
X406395Y256634D01*
D13*
X461010Y232283D02*
X554990Y232283D01*
X558800Y196977D02*
X558798Y196855D01*
X558792Y196733D01*
X558782Y196611D01*
X558769Y196490D01*
X558751Y196369D01*
X558730Y196249D01*
X558704Y196129D01*
X558675Y196011D01*
X558643Y195893D01*
X558606Y195776D01*
X558566Y195661D01*
X558522Y195547D01*
X558474Y195435D01*
X558423Y195324D01*
X558368Y195215D01*
X558310Y195107D01*
X558248Y195002D01*
X558183Y194899D01*
X558115Y194797D01*
X558043Y194698D01*
X557969Y194602D01*
X557891Y194507D01*
X557810Y194416D01*
X557727Y194326D01*
X557641Y194240D01*
X557551Y194157D01*
X557460Y194076D01*
X557365Y193998D01*
X557269Y193924D01*
X557170Y193852D01*
X557068Y193784D01*
X556965Y193719D01*
X556860Y193657D01*
X556752Y193599D01*
X556643Y193544D01*
X556532Y193493D01*
X556420Y193445D01*
X556306Y193401D01*
X556191Y193361D01*
X556074Y193324D01*
X555956Y193292D01*
X555838Y193263D01*
X555718Y193237D01*
X555598Y193216D01*
X555477Y193198D01*
X555356Y193185D01*
X555234Y193175D01*
X555112Y193169D01*
X554990Y193167D01*
X461010Y232283D02*
X460888Y232281D01*
X460766Y232275D01*
X460644Y232265D01*
X460523Y232252D01*
X460402Y232234D01*
X460282Y232213D01*
X460162Y232187D01*
X460044Y232158D01*
X459926Y232126D01*
X459809Y232089D01*
X459694Y232049D01*
X459580Y232005D01*
X459468Y231957D01*
X459357Y231906D01*
X459248Y231851D01*
X459140Y231793D01*
X459035Y231731D01*
X458932Y231666D01*
X458830Y231598D01*
X458731Y231526D01*
X458635Y231452D01*
X458540Y231374D01*
X458449Y231293D01*
X458359Y231210D01*
X458273Y231124D01*
X458190Y231034D01*
X458109Y230943D01*
X458031Y230848D01*
X457957Y230752D01*
X457885Y230653D01*
X457817Y230551D01*
X457752Y230448D01*
X457690Y230343D01*
X457632Y230235D01*
X457577Y230126D01*
X457526Y230015D01*
X457478Y229903D01*
X457434Y229789D01*
X457394Y229674D01*
X457357Y229557D01*
X457325Y229439D01*
X457296Y229321D01*
X457270Y229201D01*
X457249Y229081D01*
X457231Y228960D01*
X457218Y228839D01*
X457208Y228717D01*
X457202Y228595D01*
X457200Y228473D01*
X554990Y232283D02*
X555112Y232281D01*
X555234Y232275D01*
X555356Y232265D01*
X555477Y232252D01*
X555598Y232234D01*
X555718Y232213D01*
X555838Y232187D01*
X555956Y232158D01*
X556074Y232126D01*
X556191Y232089D01*
X556306Y232049D01*
X556420Y232005D01*
X556532Y231957D01*
X556643Y231906D01*
X556752Y231851D01*
X556860Y231793D01*
X556965Y231731D01*
X557068Y231666D01*
X557170Y231598D01*
X557269Y231526D01*
X557365Y231452D01*
X557460Y231374D01*
X557551Y231293D01*
X557641Y231210D01*
X557727Y231124D01*
X557810Y231034D01*
X557891Y230943D01*
X557969Y230848D01*
X558043Y230752D01*
X558115Y230653D01*
X558183Y230551D01*
X558248Y230448D01*
X558310Y230343D01*
X558368Y230235D01*
X558423Y230126D01*
X558474Y230015D01*
X558522Y229903D01*
X558566Y229789D01*
X558606Y229674D01*
X558643Y229557D01*
X558675Y229439D01*
X558704Y229321D01*
X558730Y229201D01*
X558751Y229081D01*
X558769Y228960D01*
X558782Y228839D01*
X558792Y228717D01*
X558798Y228595D01*
X558800Y228473D01*
X461010Y193167D02*
X460888Y193169D01*
X460766Y193175D01*
X460644Y193185D01*
X460523Y193198D01*
X460402Y193216D01*
X460282Y193237D01*
X460162Y193263D01*
X460044Y193292D01*
X459926Y193324D01*
X459809Y193361D01*
X459694Y193401D01*
X459580Y193445D01*
X459468Y193493D01*
X459357Y193544D01*
X459248Y193599D01*
X459140Y193657D01*
X459035Y193719D01*
X458932Y193784D01*
X458830Y193852D01*
X458731Y193924D01*
X458635Y193998D01*
X458540Y194076D01*
X458449Y194157D01*
X458359Y194240D01*
X458273Y194326D01*
X458190Y194416D01*
X458109Y194507D01*
X458031Y194602D01*
X457957Y194698D01*
X457885Y194797D01*
X457817Y194899D01*
X457752Y195002D01*
X457690Y195107D01*
X457632Y195215D01*
X457577Y195324D01*
X457526Y195435D01*
X457478Y195547D01*
X457434Y195661D01*
X457394Y195776D01*
X457357Y195893D01*
X457325Y196011D01*
X457296Y196129D01*
X457270Y196249D01*
X457249Y196369D01*
X457231Y196490D01*
X457218Y196611D01*
X457208Y196733D01*
X457202Y196855D01*
X457200Y196977D01*
X461010Y193167D02*
X554990Y193167D01*
X558800Y196977D02*
X558800Y228473D01*
X457200Y228473D02*
X457200Y196977D01*
X457200Y207645D02*
X457341Y207647D01*
X457482Y207653D01*
X457623Y207663D01*
X457764Y207676D01*
X457904Y207694D01*
X458043Y207716D01*
X458182Y207741D01*
X458321Y207770D01*
X458458Y207803D01*
X458594Y207840D01*
X458729Y207881D01*
X458864Y207925D01*
X458996Y207973D01*
X459128Y208025D01*
X459258Y208080D01*
X459386Y208139D01*
X459513Y208202D01*
X459637Y208268D01*
X459760Y208337D01*
X459881Y208410D01*
X460000Y208486D01*
X460117Y208566D01*
X460231Y208649D01*
X460344Y208734D01*
X460453Y208823D01*
X460561Y208915D01*
X460665Y209010D01*
X460767Y209108D01*
X460866Y209209D01*
X460963Y209312D01*
X461056Y209418D01*
X461146Y209526D01*
X461234Y209637D01*
X461318Y209750D01*
X461399Y209866D01*
X461477Y209984D01*
X461552Y210104D01*
X461623Y210226D01*
X461691Y210350D01*
X461755Y210476D01*
X461816Y210603D01*
X461873Y210732D01*
X461926Y210863D01*
X461976Y210995D01*
X462023Y211128D01*
X462065Y211263D01*
X462104Y211399D01*
X462139Y211536D01*
X462170Y211673D01*
X462197Y211812D01*
X462221Y211951D01*
X462240Y212091D01*
X462256Y212231D01*
X462268Y212372D01*
X462276Y212513D01*
X462280Y212654D01*
X462280Y212796D01*
X462276Y212937D01*
X462268Y213078D01*
X462256Y213219D01*
X462240Y213359D01*
X462221Y213499D01*
X462197Y213638D01*
X462170Y213777D01*
X462139Y213914D01*
X462104Y214051D01*
X462065Y214187D01*
X462023Y214322D01*
X461976Y214455D01*
X461926Y214587D01*
X461873Y214718D01*
X461816Y214847D01*
X461755Y214974D01*
X461691Y215100D01*
X461623Y215224D01*
X461552Y215346D01*
X461477Y215466D01*
X461399Y215584D01*
X461318Y215700D01*
X461234Y215813D01*
X461146Y215924D01*
X461056Y216032D01*
X460963Y216138D01*
X460866Y216241D01*
X460767Y216342D01*
X460665Y216440D01*
X460561Y216535D01*
X460453Y216627D01*
X460344Y216716D01*
X460231Y216801D01*
X460117Y216884D01*
X460000Y216964D01*
X459881Y217040D01*
X459760Y217113D01*
X459637Y217182D01*
X459513Y217248D01*
X459386Y217311D01*
X459258Y217370D01*
X459128Y217425D01*
X458996Y217477D01*
X458864Y217525D01*
X458729Y217569D01*
X458594Y217610D01*
X458458Y217647D01*
X458321Y217680D01*
X458182Y217709D01*
X458043Y217734D01*
X457904Y217756D01*
X457764Y217774D01*
X457623Y217787D01*
X457482Y217797D01*
X457341Y217803D01*
X457200Y217805D01*
D11*
X457200Y196723D02*
X558800Y196723D01*
D14*
X482886Y257175D02*
X479073Y257175D01*
X480980Y257175D02*
X480980Y268615D01*
X482886Y268615D02*
X479073Y268615D01*
X492589Y268615D02*
X494495Y266708D01*
X492589Y268615D02*
X488776Y268615D01*
X486869Y266708D01*
X486869Y259082D01*
X488776Y257175D01*
X492589Y257175D01*
X494495Y259082D01*
X498563Y257175D02*
X506189Y257175D01*
X498563Y257175D02*
X506189Y264802D01*
X506189Y266708D01*
X504283Y268615D01*
X500470Y268615D01*
X498563Y266708D01*
D12*
X610975Y145275D02*
X615475Y145275D01*
X610975Y145275D02*
X610975Y191275D01*
X615475Y191275D01*
X635475Y191275D02*
X639975Y191275D01*
X639975Y145275D01*
X635475Y145275D01*
X635475Y178275D02*
X615475Y178275D01*
D16*
X615930Y199898D02*
X615930Y211592D01*
X615930Y199898D02*
X621777Y199898D01*
X623726Y201847D01*
X623726Y209643D01*
X621777Y211592D01*
X615930Y211592D01*
X627624Y199898D02*
X635420Y199898D01*
X627624Y199898D02*
X635420Y207694D01*
X635420Y209643D01*
X633471Y211592D01*
X629573Y211592D01*
X627624Y209643D01*
D12*
X40500Y387825D02*
X40500Y392325D01*
X86500Y392325D01*
X86500Y387825D01*
X86500Y367825D02*
X86500Y363325D01*
X40500Y363325D01*
X40500Y367825D01*
X73500Y367825D02*
X73500Y387825D01*
D16*
X99886Y385899D02*
X99886Y374206D01*
X105732Y374206D01*
X107681Y376154D01*
X107681Y383950D01*
X105732Y385899D01*
X99886Y385899D01*
X111579Y382001D02*
X115477Y385899D01*
X115477Y374206D01*
X111579Y374206D02*
X119375Y374206D01*
X529067Y367802D02*
X531016Y365853D01*
X529067Y367802D02*
X525169Y367802D01*
X523220Y365853D01*
X523220Y358057D01*
X525169Y356108D01*
X529067Y356108D01*
X531016Y358057D01*
X540761Y356108D02*
X540761Y367802D01*
X534914Y361955D01*
X542710Y361955D01*
D14*
X346450Y320950D02*
X123450Y320950D01*
X346450Y320950D02*
X346450Y148950D01*
X123450Y148950D01*
X123450Y320950D01*
X149225Y228552D02*
X149225Y223891D01*
X149225Y226221D02*
X135243Y226221D01*
X135243Y223891D02*
X135243Y228552D01*
X135243Y233246D02*
X149225Y233246D01*
X149225Y242568D02*
X135243Y233246D01*
X135243Y242568D02*
X149225Y242568D01*
X320663Y221527D02*
X320663Y216866D01*
X322993Y214536D01*
X332315Y214536D01*
X334645Y216866D01*
X334645Y221527D01*
X332315Y223857D01*
X322993Y223857D01*
X320663Y221527D01*
X320663Y228569D02*
X332315Y228569D01*
X334645Y230899D01*
X334645Y235560D01*
X332315Y237890D01*
X320663Y237890D01*
X320663Y247262D02*
X334645Y247262D01*
X320663Y242601D02*
X320663Y251923D01*
D17*
X165100Y187960D02*
X165100Y175260D01*
X171450Y288290D02*
X158750Y288290D01*
X158750Y181610D02*
X171450Y181610D01*
X304800Y175260D02*
X304800Y187960D01*
X311150Y288290D02*
X298450Y288290D01*
X298450Y181610D02*
X311150Y181610D01*
D16*
X310281Y217917D02*
X300536Y217917D01*
X310281Y217917D02*
X312230Y219866D01*
X312230Y223764D01*
X310281Y225713D01*
X300536Y225713D01*
X310281Y229611D02*
X312230Y231560D01*
X312230Y235458D01*
X310281Y237407D01*
X308332Y237407D01*
X306383Y235458D01*
X306383Y231560D01*
X304434Y229611D01*
X302485Y229611D01*
X300536Y231560D01*
X300536Y235458D01*
X302485Y237407D01*
X298587Y233509D02*
X314178Y233509D01*
X304434Y241305D02*
X300536Y245203D01*
X312230Y245203D01*
X312230Y241305D02*
X312230Y249101D01*
D13*
X596900Y31750D02*
X603250Y38100D01*
X615950Y38100D01*
X622300Y31750D01*
X622300Y19050D01*
X615950Y12700D01*
X603250Y12700D01*
X596900Y19050D01*
X565150Y38100D02*
X552450Y38100D01*
X565150Y38100D02*
X571500Y31750D01*
X571500Y19050D01*
X565150Y12700D01*
X571500Y31750D02*
X577850Y38100D01*
X590550Y38100D01*
X596900Y31750D01*
X596900Y19050D01*
X590550Y12700D01*
X577850Y12700D01*
X571500Y19050D01*
X527050Y38100D02*
X520700Y31750D01*
X527050Y38100D02*
X539750Y38100D01*
X546100Y31750D01*
X546100Y19050D01*
X539750Y12700D01*
X527050Y12700D01*
X520700Y19050D01*
X546100Y31750D02*
X552450Y38100D01*
X546100Y19050D02*
X552450Y12700D01*
X565150Y12700D01*
X488950Y38100D02*
X476250Y38100D01*
X488950Y38100D02*
X495300Y31750D01*
X495300Y19050D01*
X488950Y12700D01*
X495300Y31750D02*
X501650Y38100D01*
X514350Y38100D01*
X520700Y31750D01*
X520700Y19050D01*
X514350Y12700D01*
X501650Y12700D01*
X495300Y19050D01*
X469900Y19050D02*
X469900Y31750D01*
X476250Y38100D01*
X469900Y19050D02*
X476250Y12700D01*
X488950Y12700D01*
X628650Y38100D02*
X641350Y38100D01*
X647700Y31750D01*
X647700Y19050D01*
X641350Y12700D01*
X622300Y31750D02*
X628650Y38100D01*
X622300Y19050D02*
X628650Y12700D01*
X641350Y12700D01*
X673100Y234950D02*
X673100Y247650D01*
X673100Y234950D02*
X666750Y228600D01*
X654050Y228600D01*
X647700Y234950D01*
X666750Y228600D02*
X673100Y222250D01*
X673100Y209550D01*
X666750Y203200D01*
X654050Y203200D01*
X647700Y209550D01*
X647700Y222250D01*
X654050Y228600D01*
X673100Y273050D02*
X666750Y279400D01*
X673100Y273050D02*
X673100Y260350D01*
X666750Y254000D01*
X654050Y254000D01*
X647700Y260350D01*
X647700Y273050D01*
X654050Y279400D01*
X666750Y254000D02*
X673100Y247650D01*
X654050Y254000D02*
X647700Y247650D01*
X647700Y234950D01*
X673100Y311150D02*
X673100Y323850D01*
X673100Y311150D02*
X666750Y304800D01*
X654050Y304800D01*
X647700Y311150D01*
X666750Y304800D02*
X673100Y298450D01*
X673100Y285750D01*
X666750Y279400D01*
X654050Y279400D01*
X647700Y285750D01*
X647700Y298450D01*
X654050Y304800D01*
X654050Y330200D02*
X666750Y330200D01*
X673100Y323850D01*
X654050Y330200D02*
X647700Y323850D01*
X647700Y311150D01*
X673100Y196850D02*
X673100Y184150D01*
X666750Y177800D01*
X654050Y177800D01*
X647700Y184150D01*
X666750Y203200D02*
X673100Y196850D01*
X654050Y203200D02*
X647700Y196850D01*
X647700Y184150D01*
D12*
X40500Y147850D02*
X40500Y143350D01*
X40500Y147850D02*
X86500Y147850D01*
X86500Y143350D01*
X86500Y123350D02*
X86500Y118850D01*
X40500Y118850D01*
X40500Y123350D01*
X73500Y123350D02*
X73500Y143350D01*
D16*
X41148Y111262D02*
X41148Y99568D01*
X46995Y99568D01*
X48944Y101517D01*
X48944Y109313D01*
X46995Y111262D01*
X41148Y111262D01*
X52842Y109313D02*
X54791Y111262D01*
X58689Y111262D01*
X60638Y109313D01*
X60638Y107364D01*
X58689Y105415D01*
X56740Y105415D01*
X58689Y105415D02*
X60638Y103466D01*
X60638Y101517D01*
X58689Y99568D01*
X54791Y99568D01*
X52842Y101517D01*
D13*
X635000Y514350D02*
X635000Y527050D01*
X635000Y514350D02*
X628650Y508000D01*
X615950Y508000D01*
X609600Y514350D01*
X615950Y533400D02*
X628650Y533400D01*
X635000Y527050D01*
X615950Y533400D02*
X609600Y527050D01*
X609600Y514350D01*
X628650Y508000D02*
X635000Y501650D01*
X635000Y488950D01*
X628650Y482600D01*
X615950Y482600D01*
X609600Y488950D01*
X609600Y501650D01*
X615950Y508000D01*
X482600Y514350D02*
X482600Y527050D01*
X482600Y514350D02*
X476250Y508000D01*
X463550Y508000D01*
X457200Y514350D01*
X476250Y508000D02*
X482600Y501650D01*
X482600Y488950D01*
X476250Y482600D01*
X463550Y482600D01*
X457200Y488950D01*
X457200Y501650D01*
X463550Y508000D01*
X463550Y533400D02*
X476250Y533400D01*
X482600Y527050D01*
X463550Y533400D02*
X457200Y527050D01*
X457200Y514350D01*
X476250Y482600D02*
X482600Y476250D01*
X482600Y463550D01*
X476250Y457200D01*
X463550Y457200D01*
X457200Y463550D01*
X457200Y476250D01*
X463550Y482600D01*
X476250Y457200D02*
X482600Y450850D01*
X482600Y438150D01*
X476250Y431800D01*
X463550Y431800D01*
X457200Y438150D01*
X457200Y450850D01*
X463550Y457200D01*
X355600Y514350D02*
X355600Y527050D01*
X355600Y514350D02*
X349250Y508000D01*
X336550Y508000D01*
X330200Y514350D01*
X349250Y508000D02*
X355600Y501650D01*
X355600Y488950D01*
X349250Y482600D01*
X336550Y482600D01*
X330200Y488950D01*
X330200Y501650D01*
X336550Y508000D01*
X336550Y533400D02*
X349250Y533400D01*
X355600Y527050D01*
X336550Y533400D02*
X330200Y527050D01*
X330200Y514350D01*
X349250Y482600D02*
X355600Y476250D01*
X355600Y463550D01*
X349250Y457200D01*
X336550Y457200D01*
X330200Y463550D01*
X330200Y476250D01*
X336550Y482600D01*
X349250Y457200D02*
X355600Y450850D01*
X355600Y438150D01*
X349250Y431800D01*
X336550Y431800D01*
X330200Y438150D01*
X330200Y450850D01*
X336550Y457200D01*
X406400Y514350D02*
X406400Y527050D01*
X406400Y514350D02*
X400050Y508000D01*
X387350Y508000D01*
X381000Y514350D01*
X400050Y508000D02*
X406400Y501650D01*
X406400Y488950D01*
X400050Y482600D01*
X387350Y482600D01*
X381000Y488950D01*
X381000Y501650D01*
X387350Y508000D01*
X387350Y533400D02*
X400050Y533400D01*
X406400Y527050D01*
X387350Y533400D02*
X381000Y527050D01*
X381000Y514350D01*
X400050Y482600D02*
X406400Y476250D01*
X406400Y463550D01*
X400050Y457200D01*
X387350Y457200D01*
X381000Y463550D01*
X381000Y476250D01*
X387350Y482600D01*
X260350Y107950D02*
X254000Y101600D01*
X260350Y107950D02*
X273050Y107950D01*
X279400Y101600D01*
X279400Y88900D01*
X273050Y82550D01*
X260350Y82550D01*
X254000Y88900D01*
X222250Y107950D02*
X209550Y107950D01*
X222250Y107950D02*
X228600Y101600D01*
X228600Y88900D01*
X222250Y82550D01*
X228600Y101600D02*
X234950Y107950D01*
X247650Y107950D01*
X254000Y101600D01*
X254000Y88900D01*
X247650Y82550D01*
X234950Y82550D01*
X228600Y88900D01*
X184150Y107950D02*
X177800Y101600D01*
X184150Y107950D02*
X196850Y107950D01*
X203200Y101600D01*
X203200Y88900D01*
X196850Y82550D01*
X184150Y82550D01*
X177800Y88900D01*
X203200Y101600D02*
X209550Y107950D01*
X203200Y88900D02*
X209550Y82550D01*
X222250Y82550D01*
X146050Y107950D02*
X133350Y107950D01*
X146050Y107950D02*
X152400Y101600D01*
X152400Y88900D01*
X146050Y82550D01*
X152400Y101600D02*
X158750Y107950D01*
X171450Y107950D01*
X177800Y101600D01*
X177800Y88900D01*
X171450Y82550D01*
X158750Y82550D01*
X152400Y88900D01*
X127000Y88900D02*
X127000Y101600D01*
X133350Y107950D01*
X127000Y88900D02*
X133350Y82550D01*
X146050Y82550D01*
X285750Y107950D02*
X298450Y107950D01*
X304800Y101600D01*
X304800Y88900D01*
X298450Y82550D01*
X279400Y101600D02*
X285750Y107950D01*
X279400Y88900D02*
X285750Y82550D01*
X298450Y82550D01*
X311150Y107950D02*
X323850Y107950D01*
X330200Y101600D01*
X330200Y88900D01*
X323850Y82550D01*
X304800Y101600D02*
X311150Y107950D01*
X304800Y88900D02*
X311150Y82550D01*
X323850Y82550D01*
X336550Y107950D02*
X349250Y107950D01*
X355600Y101600D01*
X355600Y88900D01*
X349250Y82550D01*
X330200Y101600D02*
X336550Y107950D01*
X330200Y88900D02*
X336550Y82550D01*
X349250Y82550D01*
X361950Y107950D02*
X374650Y107950D01*
X381000Y101600D01*
X381000Y88900D01*
X374650Y82550D01*
X355600Y101600D02*
X361950Y107950D01*
X355600Y88900D02*
X361950Y82550D01*
X374650Y82550D01*
X387350Y107950D02*
X400050Y107950D01*
X406400Y101600D01*
X406400Y88900D01*
X400050Y82550D01*
X381000Y101600D02*
X387350Y107950D01*
X381000Y88900D02*
X387350Y82550D01*
X400050Y82550D01*
X412750Y107950D02*
X425450Y107950D01*
X431800Y101600D01*
X431800Y88900D01*
X425450Y82550D01*
X406400Y101600D02*
X412750Y107950D01*
X406400Y88900D02*
X412750Y82550D01*
X425450Y82550D01*
X438150Y107950D02*
X450850Y107950D01*
X457200Y101600D01*
X457200Y88900D01*
X450850Y82550D01*
X431800Y101600D02*
X438150Y107950D01*
X431800Y88900D02*
X438150Y82550D01*
X450850Y82550D01*
X463550Y107950D02*
X476250Y107950D01*
X482600Y101600D01*
X482600Y88900D01*
X476250Y82550D01*
X457200Y101600D02*
X463550Y107950D01*
X457200Y88900D02*
X463550Y82550D01*
X476250Y82550D01*
X488950Y107950D02*
X501650Y107950D01*
X508000Y101600D01*
X508000Y88900D01*
X501650Y82550D01*
X482600Y101600D02*
X488950Y107950D01*
X482600Y88900D02*
X488950Y82550D01*
X501650Y82550D01*
X254000Y419100D02*
X260350Y425450D01*
X273050Y425450D01*
X279400Y419100D01*
X279400Y406400D01*
X273050Y400050D01*
X260350Y400050D01*
X254000Y406400D01*
X222250Y425450D02*
X209550Y425450D01*
X222250Y425450D02*
X228600Y419100D01*
X228600Y406400D01*
X222250Y400050D01*
X228600Y419100D02*
X234950Y425450D01*
X247650Y425450D01*
X254000Y419100D01*
X254000Y406400D01*
X247650Y400050D01*
X234950Y400050D01*
X228600Y406400D01*
X184150Y425450D02*
X177800Y419100D01*
X184150Y425450D02*
X196850Y425450D01*
X203200Y419100D01*
X203200Y406400D01*
X196850Y400050D01*
X184150Y400050D01*
X177800Y406400D01*
X203200Y419100D02*
X209550Y425450D01*
X203200Y406400D02*
X209550Y400050D01*
X222250Y400050D01*
X146050Y425450D02*
X133350Y425450D01*
X146050Y425450D02*
X152400Y419100D01*
X152400Y406400D01*
X146050Y400050D01*
X152400Y419100D02*
X158750Y425450D01*
X171450Y425450D01*
X177800Y419100D01*
X177800Y406400D01*
X171450Y400050D01*
X158750Y400050D01*
X152400Y406400D01*
X127000Y406400D02*
X127000Y419100D01*
X133350Y425450D01*
X127000Y406400D02*
X133350Y400050D01*
X146050Y400050D01*
X285750Y425450D02*
X298450Y425450D01*
X304800Y419100D01*
X304800Y406400D01*
X298450Y400050D01*
X279400Y419100D02*
X285750Y425450D01*
X279400Y406400D02*
X285750Y400050D01*
X298450Y400050D01*
X311150Y425450D02*
X323850Y425450D01*
X330200Y419100D01*
X330200Y406400D01*
X323850Y400050D01*
X304800Y419100D02*
X311150Y425450D01*
X304800Y406400D02*
X311150Y400050D01*
X323850Y400050D01*
X336550Y425450D02*
X349250Y425450D01*
X355600Y419100D01*
X355600Y406400D01*
X349250Y400050D01*
X330200Y419100D02*
X336550Y425450D01*
X330200Y406400D02*
X336550Y400050D01*
X349250Y400050D01*
X361950Y425450D02*
X374650Y425450D01*
X381000Y419100D01*
X381000Y406400D01*
X374650Y400050D01*
X355600Y419100D02*
X361950Y425450D01*
X355600Y406400D02*
X361950Y400050D01*
X374650Y400050D01*
X387350Y425450D02*
X400050Y425450D01*
X406400Y419100D01*
X406400Y406400D01*
X400050Y400050D01*
X381000Y419100D02*
X387350Y425450D01*
X381000Y406400D02*
X387350Y400050D01*
X400050Y400050D01*
X412750Y425450D02*
X425450Y425450D01*
X431800Y419100D01*
X431800Y406400D01*
X425450Y400050D01*
X406400Y419100D02*
X412750Y425450D01*
X406400Y406400D02*
X412750Y400050D01*
X425450Y400050D01*
X438150Y425450D02*
X450850Y425450D01*
X457200Y419100D01*
X457200Y406400D01*
X450850Y400050D01*
X431800Y419100D02*
X438150Y425450D01*
X431800Y406400D02*
X438150Y400050D01*
X450850Y400050D01*
X463550Y425450D02*
X476250Y425450D01*
X482600Y419100D01*
X482600Y406400D01*
X476250Y400050D01*
X457200Y419100D02*
X463550Y425450D01*
X457200Y406400D02*
X463550Y400050D01*
X476250Y400050D01*
X488950Y425450D02*
X501650Y425450D01*
X508000Y419100D01*
X508000Y406400D01*
X501650Y400050D01*
X482600Y419100D02*
X488950Y425450D01*
X482600Y406400D02*
X488950Y400050D01*
X501650Y400050D01*
X533400Y514350D02*
X533400Y527050D01*
X533400Y514350D02*
X527050Y508000D01*
X514350Y508000D01*
X508000Y514350D01*
X527050Y508000D02*
X533400Y501650D01*
X533400Y488950D01*
X527050Y482600D01*
X514350Y482600D01*
X508000Y488950D01*
X508000Y501650D01*
X514350Y508000D01*
X514350Y533400D02*
X527050Y533400D01*
X533400Y527050D01*
X514350Y533400D02*
X508000Y527050D01*
X508000Y514350D01*
X527050Y482600D02*
X533400Y476250D01*
X533400Y463550D01*
X527050Y457200D01*
X514350Y457200D01*
X508000Y463550D01*
X508000Y476250D01*
X514350Y482600D01*
D10*
X464848Y307831D02*
X455442Y307831D01*
X455442Y312534D01*
X457010Y314102D01*
X460145Y314102D01*
X461713Y312534D01*
X461713Y307831D01*
X461713Y310967D02*
X464848Y314102D01*
X463280Y317186D02*
X464848Y318754D01*
X464848Y321889D01*
X463280Y323457D01*
X457010Y323457D01*
X455442Y321889D01*
X455442Y318754D01*
X457010Y317186D01*
X458577Y317186D01*
X460145Y318754D01*
X460145Y323457D01*
D13*
X457200Y514350D02*
X457200Y527050D01*
X457200Y514350D02*
X450850Y508000D01*
X438150Y508000D01*
X431800Y514350D01*
X450850Y508000D02*
X457200Y501650D01*
X457200Y488950D01*
X450850Y482600D01*
X438150Y482600D01*
X431800Y488950D01*
X431800Y501650D01*
X438150Y508000D01*
X438150Y533400D02*
X450850Y533400D01*
X457200Y527050D01*
X438150Y533400D02*
X431800Y527050D01*
X431800Y514350D01*
X450850Y482600D02*
X457200Y476250D01*
X457200Y463550D01*
X450850Y457200D01*
X438150Y457200D01*
X431800Y463550D01*
X431800Y476250D01*
X438150Y482600D01*
X450850Y457200D02*
X457200Y450850D01*
X457200Y438150D01*
X450850Y431800D01*
X438150Y431800D01*
X431800Y438150D01*
X431800Y450850D01*
X438150Y457200D01*
X431800Y514350D02*
X431800Y527050D01*
X431800Y514350D02*
X425450Y508000D01*
X412750Y508000D01*
X406400Y514350D01*
X425450Y508000D02*
X431800Y501650D01*
X431800Y488950D01*
X425450Y482600D01*
X412750Y482600D01*
X406400Y488950D01*
X406400Y501650D01*
X412750Y508000D01*
X412750Y533400D02*
X425450Y533400D01*
X431800Y527050D01*
X412750Y533400D02*
X406400Y527050D01*
X406400Y514350D01*
X425450Y482600D02*
X431800Y476250D01*
X431800Y463550D01*
X425450Y457200D01*
X412750Y457200D01*
X406400Y463550D01*
X406400Y476250D01*
X412750Y482600D01*
X254000Y514350D02*
X254000Y527050D01*
X254000Y514350D02*
X247650Y508000D01*
X234950Y508000D01*
X228600Y514350D01*
X247650Y508000D02*
X254000Y501650D01*
X254000Y488950D01*
X247650Y482600D01*
X234950Y482600D01*
X228600Y488950D01*
X228600Y501650D01*
X234950Y508000D01*
X234950Y533400D02*
X247650Y533400D01*
X254000Y527050D01*
X234950Y533400D02*
X228600Y527050D01*
X228600Y514350D01*
X247650Y482600D02*
X254000Y476250D01*
X254000Y463550D01*
X247650Y457200D01*
X234950Y457200D01*
X228600Y463550D01*
X228600Y476250D01*
X234950Y482600D01*
X247650Y457200D02*
X254000Y450850D01*
X254000Y438150D01*
X247650Y431800D01*
X234950Y431800D01*
X228600Y438150D01*
X228600Y450850D01*
X234950Y457200D01*
X203200Y514350D02*
X203200Y527050D01*
X203200Y514350D02*
X196850Y508000D01*
X184150Y508000D01*
X177800Y514350D01*
X196850Y508000D02*
X203200Y501650D01*
X203200Y488950D01*
X196850Y482600D01*
X184150Y482600D01*
X177800Y488950D01*
X177800Y501650D01*
X184150Y508000D01*
X184150Y533400D02*
X196850Y533400D01*
X203200Y527050D01*
X184150Y533400D02*
X177800Y527050D01*
X177800Y514350D01*
X196850Y482600D02*
X203200Y476250D01*
X203200Y463550D01*
X196850Y457200D01*
X184150Y457200D01*
X177800Y463550D01*
X177800Y476250D01*
X184150Y482600D01*
D10*
X131065Y343797D02*
X131065Y334391D01*
X131065Y343797D02*
X135768Y343797D01*
X137336Y342229D01*
X137336Y339094D01*
X135768Y337526D01*
X131065Y337526D01*
X134201Y337526D02*
X137336Y334391D01*
X140421Y340662D02*
X143556Y343797D01*
X143556Y334391D01*
X140421Y334391D02*
X146691Y334391D01*
X149776Y342229D02*
X151343Y343797D01*
X154479Y343797D01*
X156047Y342229D01*
X156047Y340662D01*
X154479Y339094D01*
X152911Y339094D01*
X154479Y339094D02*
X156047Y337526D01*
X156047Y335959D01*
X154479Y334391D01*
X151343Y334391D01*
X149776Y335959D01*
M02*
