G04 EAGLE Gerber RS-274X export*
G75*
%MOMM*%
%FSLAX34Y34*%
%LPD*%
%INSilkscreen Bottom*%
%IPPOS*%
%AMOC8*
5,1,8,0,0,1.08239X$1,22.5*%
G01*
%ADD10C,0.203200*%
%ADD11C,0.076200*%
%ADD12C,0.127000*%
%ADD13C,0.152400*%

G36*
X377375Y297430D02*
X377375Y297430D01*
X377431Y297430D01*
X377459Y297445D01*
X377491Y297450D01*
X377550Y297490D01*
X377586Y297508D01*
X377595Y297520D01*
X377611Y297531D01*
X381919Y301839D01*
X381936Y301866D01*
X381960Y301887D01*
X381981Y301939D01*
X382010Y301986D01*
X382013Y302018D01*
X382025Y302048D01*
X382022Y302103D01*
X382027Y302159D01*
X382015Y302189D01*
X382013Y302221D01*
X381979Y302284D01*
X381965Y302321D01*
X381954Y302331D01*
X381945Y302348D01*
X376978Y308439D01*
X378167Y310749D01*
X378174Y310775D01*
X378191Y310807D01*
X378983Y313281D01*
X386802Y314075D01*
X386833Y314085D01*
X386865Y314086D01*
X386914Y314113D01*
X386966Y314131D01*
X386989Y314154D01*
X387017Y314169D01*
X387049Y314215D01*
X387088Y314254D01*
X387098Y314285D01*
X387117Y314311D01*
X387130Y314381D01*
X387143Y314419D01*
X387141Y314434D01*
X387144Y314453D01*
X387144Y320547D01*
X387137Y320578D01*
X387139Y320610D01*
X387117Y320661D01*
X387105Y320716D01*
X387084Y320740D01*
X387072Y320770D01*
X387030Y320806D01*
X386995Y320849D01*
X386965Y320862D01*
X386941Y320883D01*
X386872Y320904D01*
X386836Y320920D01*
X386821Y320920D01*
X386802Y320925D01*
X378983Y321719D01*
X378191Y324193D01*
X378178Y324216D01*
X378167Y324251D01*
X376978Y326561D01*
X381945Y332652D01*
X381959Y332680D01*
X381980Y332704D01*
X381996Y332757D01*
X382021Y332807D01*
X382021Y332839D01*
X382030Y332870D01*
X382020Y332925D01*
X382020Y332981D01*
X382005Y333009D01*
X382000Y333041D01*
X381960Y333100D01*
X381942Y333136D01*
X381930Y333145D01*
X381919Y333161D01*
X377611Y337469D01*
X377584Y337486D01*
X377563Y337510D01*
X377511Y337531D01*
X377464Y337560D01*
X377432Y337563D01*
X377402Y337575D01*
X377347Y337572D01*
X377291Y337577D01*
X377261Y337565D01*
X377229Y337563D01*
X377166Y337529D01*
X377129Y337515D01*
X377119Y337504D01*
X377102Y337495D01*
X371011Y332528D01*
X368701Y333717D01*
X368675Y333724D01*
X368643Y333741D01*
X366169Y334533D01*
X365375Y342352D01*
X365367Y342378D01*
X365366Y342390D01*
X365365Y342393D01*
X365364Y342415D01*
X365337Y342464D01*
X365319Y342516D01*
X365296Y342539D01*
X365281Y342567D01*
X365235Y342599D01*
X365196Y342638D01*
X365165Y342648D01*
X365139Y342667D01*
X365069Y342680D01*
X365031Y342693D01*
X365016Y342691D01*
X364997Y342694D01*
X358903Y342694D01*
X358872Y342687D01*
X358840Y342689D01*
X358789Y342667D01*
X358734Y342655D01*
X358710Y342634D01*
X358680Y342622D01*
X358644Y342580D01*
X358601Y342545D01*
X358588Y342515D01*
X358567Y342491D01*
X358546Y342422D01*
X358530Y342386D01*
X358530Y342371D01*
X358528Y342364D01*
X358527Y342362D01*
X358527Y342361D01*
X358525Y342352D01*
X357731Y334533D01*
X355257Y333741D01*
X355234Y333728D01*
X355199Y333717D01*
X352889Y332528D01*
X346798Y337495D01*
X346770Y337509D01*
X346746Y337530D01*
X346693Y337546D01*
X346643Y337571D01*
X346611Y337571D01*
X346580Y337580D01*
X346525Y337570D01*
X346469Y337570D01*
X346441Y337555D01*
X346409Y337550D01*
X346350Y337510D01*
X346315Y337492D01*
X346305Y337480D01*
X346289Y337469D01*
X341981Y333161D01*
X341964Y333134D01*
X341940Y333113D01*
X341919Y333061D01*
X341890Y333014D01*
X341887Y332982D01*
X341875Y332952D01*
X341879Y332897D01*
X341873Y332841D01*
X341885Y332811D01*
X341887Y332779D01*
X341921Y332716D01*
X341935Y332679D01*
X341946Y332669D01*
X341955Y332652D01*
X346922Y326561D01*
X345733Y324251D01*
X345726Y324225D01*
X345709Y324193D01*
X344917Y321719D01*
X337098Y320925D01*
X337067Y320915D01*
X337035Y320914D01*
X336986Y320887D01*
X336934Y320869D01*
X336911Y320846D01*
X336883Y320831D01*
X336851Y320785D01*
X336812Y320746D01*
X336802Y320715D01*
X336783Y320689D01*
X336770Y320619D01*
X336757Y320581D01*
X336759Y320566D01*
X336756Y320547D01*
X336756Y314453D01*
X336763Y314422D01*
X336761Y314390D01*
X336783Y314339D01*
X336795Y314284D01*
X336816Y314260D01*
X336828Y314230D01*
X336870Y314194D01*
X336905Y314151D01*
X336935Y314138D01*
X336959Y314117D01*
X337028Y314096D01*
X337064Y314080D01*
X337079Y314080D01*
X337098Y314075D01*
X344917Y313281D01*
X345709Y310807D01*
X345722Y310784D01*
X345733Y310749D01*
X346922Y308439D01*
X341955Y302348D01*
X341941Y302320D01*
X341920Y302296D01*
X341904Y302243D01*
X341879Y302193D01*
X341879Y302161D01*
X341870Y302130D01*
X341880Y302075D01*
X341880Y302019D01*
X341895Y301991D01*
X341900Y301959D01*
X341940Y301900D01*
X341958Y301865D01*
X341970Y301855D01*
X341981Y301839D01*
X346289Y297531D01*
X346316Y297514D01*
X346337Y297490D01*
X346389Y297469D01*
X346436Y297440D01*
X346468Y297437D01*
X346498Y297425D01*
X346553Y297429D01*
X346609Y297423D01*
X346639Y297435D01*
X346671Y297437D01*
X346734Y297471D01*
X346771Y297485D01*
X346781Y297496D01*
X346798Y297505D01*
X352889Y302472D01*
X355198Y301282D01*
X355262Y301266D01*
X355325Y301243D01*
X355346Y301245D01*
X355366Y301240D01*
X355431Y301254D01*
X355497Y301261D01*
X355515Y301272D01*
X355535Y301277D01*
X355587Y301318D01*
X355643Y301354D01*
X355656Y301373D01*
X355671Y301385D01*
X355687Y301420D01*
X355723Y301474D01*
X359311Y310136D01*
X359316Y310168D01*
X359330Y310196D01*
X359330Y310252D01*
X359339Y310307D01*
X359330Y310338D01*
X359330Y310369D01*
X359305Y310420D01*
X359289Y310473D01*
X359267Y310496D01*
X359253Y310525D01*
X359197Y310571D01*
X359170Y310599D01*
X359156Y310604D01*
X359141Y310617D01*
X357764Y311361D01*
X356598Y312345D01*
X355658Y313547D01*
X354984Y314915D01*
X354603Y316393D01*
X354531Y317917D01*
X354773Y319423D01*
X355317Y320849D01*
X356141Y322133D01*
X357210Y323222D01*
X358478Y324070D01*
X359893Y324640D01*
X361395Y324910D01*
X362920Y324867D01*
X364404Y324514D01*
X365785Y323864D01*
X367004Y322947D01*
X368010Y321800D01*
X368761Y320471D01*
X369224Y319018D01*
X369381Y317499D01*
X369238Y316050D01*
X368815Y314656D01*
X368129Y313372D01*
X367205Y312246D01*
X366079Y311322D01*
X364761Y310617D01*
X364736Y310596D01*
X364707Y310582D01*
X364672Y310539D01*
X364631Y310503D01*
X364618Y310473D01*
X364598Y310448D01*
X364586Y310394D01*
X364565Y310343D01*
X364567Y310310D01*
X364560Y310278D01*
X364574Y310209D01*
X364577Y310170D01*
X364585Y310156D01*
X364589Y310136D01*
X368177Y301474D01*
X368216Y301420D01*
X368248Y301363D01*
X368265Y301351D01*
X368278Y301334D01*
X368336Y301303D01*
X368391Y301265D01*
X368412Y301262D01*
X368431Y301252D01*
X368497Y301251D01*
X368563Y301241D01*
X368586Y301248D01*
X368604Y301247D01*
X368639Y301264D01*
X368702Y301282D01*
X371011Y302472D01*
X377102Y297505D01*
X377130Y297491D01*
X377154Y297470D01*
X377207Y297454D01*
X377257Y297429D01*
X377289Y297429D01*
X377320Y297420D01*
X377375Y297430D01*
G37*
D10*
X628650Y184150D02*
X622300Y196850D01*
X622300Y171450D01*
X615950Y184150D02*
X622300Y196850D01*
X603250Y184150D02*
X596900Y196850D01*
X596900Y171450D01*
X590550Y184150D02*
X596900Y196850D01*
D11*
X618617Y125528D02*
X625989Y125528D01*
X625989Y123071D02*
X625989Y127986D01*
X623532Y130555D02*
X618617Y130555D01*
X623532Y130555D02*
X625989Y133012D01*
X623532Y135470D01*
X618617Y135470D01*
X622303Y135470D02*
X622303Y130555D01*
X618617Y138039D02*
X625989Y138039D01*
X623532Y140497D01*
X625989Y142954D01*
X618617Y142954D01*
X618617Y145523D02*
X618617Y147981D01*
X618617Y146752D02*
X625989Y146752D01*
X625989Y145523D02*
X625989Y147981D01*
X625989Y150513D02*
X624761Y150513D01*
X622303Y152970D01*
X624761Y155428D01*
X625989Y155428D01*
X622303Y152970D02*
X618617Y152970D01*
X618617Y157997D02*
X623532Y157997D01*
X625989Y160454D01*
X623532Y162912D01*
X618617Y162912D01*
X622303Y162912D02*
X622303Y157997D01*
X606685Y123033D02*
X599313Y123033D01*
X606685Y120576D02*
X606685Y125491D01*
X606685Y128060D02*
X599313Y128060D01*
X602999Y128060D02*
X604228Y129289D01*
X604228Y131746D01*
X602999Y132975D01*
X599313Y132975D01*
X599313Y136773D02*
X599313Y139231D01*
X599313Y136773D02*
X600542Y135544D01*
X602999Y135544D01*
X604228Y136773D01*
X604228Y139231D01*
X602999Y140459D01*
X601770Y140459D01*
X601770Y135544D01*
X599313Y143029D02*
X606685Y143029D01*
X599313Y143029D02*
X599313Y146715D01*
X600542Y147943D01*
X605457Y147943D01*
X606685Y146715D01*
X606685Y143029D01*
X599313Y150513D02*
X599313Y152970D01*
X599313Y151741D02*
X606685Y151741D01*
X606685Y150513D02*
X606685Y152970D01*
X606685Y155502D02*
X605457Y155502D01*
X602999Y157960D01*
X605457Y160417D01*
X606685Y160417D01*
X602999Y157960D02*
X599313Y157960D01*
X593265Y125491D02*
X594493Y124262D01*
X594493Y121805D01*
X593265Y120576D01*
X588350Y120576D01*
X587121Y121805D01*
X587121Y124262D01*
X588350Y125491D01*
X590807Y125491D01*
X590807Y123033D01*
X592036Y128060D02*
X588350Y128060D01*
X587121Y129289D01*
X587121Y132975D01*
X592036Y132975D01*
X592036Y135544D02*
X588350Y135544D01*
X587121Y136773D01*
X587121Y140459D01*
X585892Y140459D02*
X592036Y140459D01*
X585892Y140459D02*
X584664Y139231D01*
X584664Y138002D01*
X588350Y143029D02*
X587121Y144257D01*
X587121Y146715D01*
X588350Y147943D01*
X593265Y147943D01*
X594493Y146715D01*
X594493Y144257D01*
X593265Y143029D01*
X592036Y143029D01*
X590807Y144257D01*
X590807Y147943D01*
X588350Y150513D02*
X587121Y151741D01*
X587121Y154199D01*
X588350Y155428D01*
X593265Y155428D01*
X594493Y154199D01*
X594493Y151741D01*
X593265Y150513D01*
X592036Y150513D01*
X590807Y151741D01*
X590807Y155428D01*
X588350Y157997D02*
X587121Y159226D01*
X587121Y161683D01*
X588350Y162912D01*
X593265Y162912D01*
X594493Y161683D01*
X594493Y159226D01*
X593265Y157997D01*
X592036Y157997D01*
X590807Y159226D01*
X590807Y162912D01*
D10*
X638175Y200025D02*
X638175Y213163D01*
X638175Y223163D02*
X638175Y236300D01*
X638175Y246300D02*
X638175Y259438D01*
X638175Y269438D02*
X638175Y282575D01*
X581025Y213163D02*
X581025Y200025D01*
X581025Y223163D02*
X581025Y236300D01*
X581025Y246300D02*
X581025Y259438D01*
X581025Y269438D02*
X581025Y282575D01*
X625792Y200025D02*
X638175Y200025D01*
X615792Y200025D02*
X603408Y200025D01*
X593408Y200025D02*
X581025Y200025D01*
X625792Y282575D02*
X638175Y282575D01*
X615792Y282575D02*
X603408Y282575D01*
X593408Y282575D02*
X581025Y282575D01*
D12*
X591907Y244450D02*
X601906Y234451D01*
X591907Y234451D02*
X601906Y244450D01*
X596906Y244450D02*
X596906Y234451D01*
X591907Y239450D02*
X601906Y239450D01*
D11*
X564460Y191775D02*
X555054Y191775D01*
X564460Y188640D02*
X564460Y194911D01*
X561324Y197995D02*
X555054Y197995D01*
X558189Y197995D02*
X561324Y201130D01*
X561324Y202698D01*
X561324Y207359D02*
X561324Y210494D01*
X559757Y212062D01*
X555054Y212062D01*
X555054Y207359D01*
X556621Y205791D01*
X558189Y207359D01*
X558189Y212062D01*
X561324Y215146D02*
X561324Y216714D01*
X555054Y216714D01*
X555054Y215146D02*
X555054Y218282D01*
X564460Y216714D02*
X566027Y216714D01*
X564460Y221383D02*
X564460Y222951D01*
X555054Y222951D01*
X555054Y224518D02*
X555054Y221383D01*
X555054Y229188D02*
X555054Y232323D01*
X555054Y229188D02*
X556621Y227620D01*
X559757Y227620D01*
X561324Y229188D01*
X561324Y232323D01*
X559757Y233891D01*
X558189Y233891D01*
X558189Y227620D01*
X555054Y236975D02*
X561324Y236975D01*
X558189Y236975D02*
X561324Y240110D01*
X561324Y241678D01*
X561324Y254126D02*
X555054Y254126D01*
X561324Y254126D02*
X561324Y255694D01*
X559757Y257262D01*
X555054Y257262D01*
X559757Y257262D02*
X561324Y258829D01*
X559757Y260397D01*
X555054Y260397D01*
X555054Y265049D02*
X555054Y268184D01*
X556621Y269752D01*
X559757Y269752D01*
X561324Y268184D01*
X561324Y265049D01*
X559757Y263481D01*
X556621Y263481D01*
X555054Y265049D01*
X555054Y279107D02*
X564460Y279107D01*
X555054Y279107D02*
X555054Y274404D01*
X556621Y272837D01*
X559757Y272837D01*
X561324Y274404D01*
X561324Y279107D01*
X555054Y283759D02*
X555054Y286895D01*
X555054Y283759D02*
X556621Y282192D01*
X559757Y282192D01*
X561324Y283759D01*
X561324Y286895D01*
X559757Y288462D01*
X558189Y288462D01*
X558189Y282192D01*
X546084Y200334D02*
X541381Y200334D01*
X539814Y201902D01*
X539814Y206605D01*
X546084Y206605D01*
X539814Y209689D02*
X539814Y214392D01*
X541381Y215960D01*
X542949Y214392D01*
X542949Y211257D01*
X544517Y209689D01*
X546084Y211257D01*
X546084Y215960D01*
X539814Y220612D02*
X539814Y223747D01*
X539814Y220612D02*
X541381Y219044D01*
X544517Y219044D01*
X546084Y220612D01*
X546084Y223747D01*
X544517Y225315D01*
X542949Y225315D01*
X542949Y219044D01*
X539814Y237755D02*
X549220Y237755D01*
X549220Y242458D01*
X547652Y244025D01*
X544517Y244025D01*
X542949Y242458D01*
X542949Y237755D01*
X542949Y240890D02*
X539814Y244025D01*
X539814Y258033D02*
X547652Y258033D01*
X549220Y259600D01*
X544517Y259600D02*
X544517Y256465D01*
X539814Y264269D02*
X539814Y267405D01*
X541381Y268973D01*
X544517Y268973D01*
X546084Y267405D01*
X546084Y264269D01*
X544517Y262702D01*
X541381Y262702D01*
X539814Y264269D01*
X539814Y272057D02*
X546084Y272057D01*
X542949Y272057D02*
X546084Y275192D01*
X546084Y276760D01*
X533980Y196436D02*
X524574Y196436D01*
X533980Y196436D02*
X533980Y201139D01*
X532412Y202707D01*
X529277Y202707D01*
X527709Y201139D01*
X527709Y196436D01*
X527709Y199571D02*
X524574Y202707D01*
X533980Y205791D02*
X533980Y212062D01*
X533980Y205791D02*
X524574Y205791D01*
X524574Y212062D01*
X529277Y208926D02*
X529277Y205791D01*
X527709Y215146D02*
X533980Y215146D01*
X527709Y215146D02*
X524574Y218282D01*
X527709Y221417D01*
X533980Y221417D01*
X524574Y236992D02*
X527709Y240127D01*
X524574Y236992D02*
X524574Y235424D01*
X526141Y233857D01*
X527709Y233857D01*
X530844Y236992D01*
X532412Y236992D01*
X533980Y235424D01*
X532412Y233857D01*
X530844Y233857D01*
X524574Y240127D01*
X533980Y257270D02*
X532412Y258838D01*
X533980Y257270D02*
X533980Y254135D01*
X532412Y252567D01*
X530844Y252567D01*
X529277Y254135D01*
X529277Y257270D01*
X527709Y258838D01*
X526141Y258838D01*
X524574Y257270D01*
X524574Y254135D01*
X526141Y252567D01*
X524574Y261922D02*
X533980Y261922D01*
X524574Y261922D02*
X524574Y268193D01*
X524574Y280633D02*
X526141Y280633D01*
X529277Y280633D02*
X535547Y280633D01*
X528035Y354838D02*
X528035Y362210D01*
X526807Y359753D02*
X528035Y358524D01*
X526807Y359753D02*
X524349Y359753D01*
X523121Y358524D01*
X523121Y354838D01*
X519323Y356067D02*
X519323Y360982D01*
X519323Y356067D02*
X518094Y354838D01*
X518094Y359753D02*
X520551Y359753D01*
X514333Y360982D02*
X514333Y356067D01*
X513104Y354838D01*
X513104Y359753D02*
X515562Y359753D01*
X510572Y359753D02*
X510572Y352381D01*
X510572Y359753D02*
X506886Y359753D01*
X505658Y358524D01*
X505658Y356067D01*
X506886Y354838D01*
X510572Y354838D01*
X503088Y354838D02*
X499402Y354838D01*
X498173Y356067D01*
X499402Y357295D01*
X501860Y357295D01*
X503088Y358524D01*
X501860Y359753D01*
X498173Y359753D01*
X495604Y359753D02*
X494375Y359753D01*
X494375Y358524D01*
X495604Y358524D01*
X495604Y359753D01*
X495604Y356067D02*
X494375Y356067D01*
X494375Y354838D01*
X495604Y354838D01*
X495604Y356067D01*
X491862Y354838D02*
X486947Y362210D01*
X479463Y362210D02*
X484378Y354838D01*
X474436Y352381D02*
X473208Y352381D01*
X471979Y353609D01*
X471979Y359753D01*
X475665Y359753D01*
X476894Y358524D01*
X476894Y356067D01*
X475665Y354838D01*
X471979Y354838D01*
X469410Y359753D02*
X468181Y359753D01*
X468181Y354838D01*
X469410Y354838D02*
X466952Y354838D01*
X468181Y362210D02*
X468181Y363439D01*
X463191Y360982D02*
X463191Y356067D01*
X461963Y354838D01*
X461963Y359753D02*
X464420Y359753D01*
X459431Y362210D02*
X459431Y354838D01*
X459431Y358524D02*
X458202Y359753D01*
X455745Y359753D01*
X454516Y358524D01*
X454516Y354838D01*
X451947Y356067D02*
X451947Y359753D01*
X451947Y356067D02*
X450718Y354838D01*
X447032Y354838D01*
X447032Y359753D01*
X444462Y362210D02*
X444462Y354838D01*
X440776Y354838D01*
X439548Y356067D01*
X439548Y358524D01*
X440776Y359753D01*
X444462Y359753D01*
X436978Y356067D02*
X436978Y354838D01*
X436978Y356067D02*
X435750Y356067D01*
X435750Y354838D01*
X436978Y354838D01*
X432007Y359753D02*
X428321Y359753D01*
X432007Y359753D02*
X433236Y358524D01*
X433236Y356067D01*
X432007Y354838D01*
X428321Y354838D01*
X424523Y354838D02*
X422066Y354838D01*
X420837Y356067D01*
X420837Y358524D01*
X422066Y359753D01*
X424523Y359753D01*
X425752Y358524D01*
X425752Y356067D01*
X424523Y354838D01*
X418268Y354838D02*
X418268Y359753D01*
X417039Y359753D01*
X415810Y358524D01*
X415810Y354838D01*
X415810Y358524D02*
X414582Y359753D01*
X413353Y358524D01*
X413353Y354838D01*
X410784Y354838D02*
X405869Y362210D01*
X400842Y362210D02*
X400842Y354838D01*
X403300Y362210D02*
X398385Y362210D01*
X395815Y362210D02*
X395815Y354838D01*
X395815Y358524D02*
X394587Y359753D01*
X392129Y359753D01*
X390901Y358524D01*
X390901Y354838D01*
X387103Y354838D02*
X384645Y354838D01*
X387103Y354838D02*
X388331Y356067D01*
X388331Y358524D01*
X387103Y359753D01*
X384645Y359753D01*
X383416Y358524D01*
X383416Y357295D01*
X388331Y357295D01*
X380847Y354838D02*
X380847Y362210D01*
X380847Y354838D02*
X377161Y354838D01*
X375932Y356067D01*
X375932Y360982D01*
X377161Y362210D01*
X380847Y362210D01*
X373363Y354838D02*
X370905Y354838D01*
X372134Y354838D02*
X372134Y362210D01*
X373363Y362210D02*
X370905Y362210D01*
X368373Y362210D02*
X368373Y360982D01*
X365916Y358524D01*
X363459Y360982D01*
X363459Y362210D01*
X365916Y358524D02*
X365916Y354838D01*
X357203Y362210D02*
X355974Y360982D01*
X357203Y362210D02*
X359661Y362210D01*
X360889Y360982D01*
X360889Y356067D01*
X359661Y354838D01*
X357203Y354838D01*
X355974Y356067D01*
X355974Y358524D01*
X358432Y358524D01*
X353405Y359753D02*
X353405Y356067D01*
X352176Y354838D01*
X348490Y354838D01*
X348490Y359753D01*
X345921Y359753D02*
X345921Y356067D01*
X344692Y354838D01*
X341006Y354838D01*
X341006Y353609D02*
X341006Y359753D01*
X341006Y353609D02*
X342235Y352381D01*
X343464Y352381D01*
X338437Y356067D02*
X337208Y354838D01*
X334751Y354838D01*
X333522Y356067D01*
X333522Y360982D01*
X334751Y362210D01*
X337208Y362210D01*
X338437Y360982D01*
X338437Y359753D01*
X337208Y358524D01*
X333522Y358524D01*
X330953Y356067D02*
X329724Y354838D01*
X327267Y354838D01*
X326038Y356067D01*
X326038Y360982D01*
X327267Y362210D01*
X329724Y362210D01*
X330953Y360982D01*
X330953Y359753D01*
X329724Y358524D01*
X326038Y358524D01*
X323469Y356067D02*
X322240Y354838D01*
X319782Y354838D01*
X318554Y356067D01*
X318554Y360982D01*
X319782Y362210D01*
X322240Y362210D01*
X323469Y360982D01*
X323469Y359753D01*
X322240Y358524D01*
X318554Y358524D01*
X315984Y354838D02*
X311070Y362210D01*
X308500Y362210D02*
X308500Y354838D01*
X308500Y362210D02*
X304814Y362210D01*
X303585Y360982D01*
X303585Y358524D01*
X304814Y357295D01*
X308500Y357295D01*
X306043Y357295D02*
X303585Y354838D01*
X299787Y359753D02*
X296101Y359753D01*
X299787Y359753D02*
X301016Y358524D01*
X301016Y356067D01*
X299787Y354838D01*
X296101Y354838D01*
X293532Y353609D02*
X288617Y353609D01*
X286048Y362210D02*
X281133Y362210D01*
X286048Y362210D02*
X286048Y354838D01*
X281133Y354838D01*
X283590Y358524D02*
X286048Y358524D01*
X278564Y359753D02*
X278564Y354838D01*
X278564Y359753D02*
X274877Y359753D01*
X273649Y358524D01*
X273649Y354838D01*
X268622Y352381D02*
X267393Y352381D01*
X266165Y353609D01*
X266165Y359753D01*
X269851Y359753D01*
X271079Y358524D01*
X271079Y356067D01*
X269851Y354838D01*
X266165Y354838D01*
X263595Y359753D02*
X262367Y359753D01*
X262367Y354838D01*
X263595Y354838D02*
X261138Y354838D01*
X262367Y362210D02*
X262367Y363439D01*
X258606Y359753D02*
X258606Y354838D01*
X258606Y359753D02*
X254920Y359753D01*
X253691Y358524D01*
X253691Y354838D01*
X249893Y354838D02*
X247436Y354838D01*
X249893Y354838D02*
X251122Y356067D01*
X251122Y358524D01*
X249893Y359753D01*
X247436Y359753D01*
X246207Y358524D01*
X246207Y357295D01*
X251122Y357295D01*
X243638Y353609D02*
X238723Y353609D01*
X231239Y360982D02*
X232467Y362210D01*
X234925Y362210D01*
X236153Y360982D01*
X236153Y359753D01*
X234925Y358524D01*
X232467Y358524D01*
X231239Y357295D01*
X231239Y356067D01*
X232467Y354838D01*
X234925Y354838D01*
X236153Y356067D01*
X227441Y354838D02*
X224983Y354838D01*
X223754Y356067D01*
X223754Y358524D01*
X224983Y359753D01*
X227441Y359753D01*
X228669Y358524D01*
X228669Y356067D01*
X227441Y354838D01*
X221185Y356067D02*
X221185Y359753D01*
X221185Y356067D02*
X219956Y354838D01*
X216270Y354838D01*
X216270Y359753D01*
X213701Y359753D02*
X213701Y354838D01*
X213701Y359753D02*
X210015Y359753D01*
X208786Y358524D01*
X208786Y354838D01*
X201302Y354838D02*
X201302Y362210D01*
X201302Y354838D02*
X204988Y354838D01*
X206217Y356067D01*
X206217Y358524D01*
X204988Y359753D01*
X201302Y359753D01*
X198733Y353609D02*
X193818Y353609D01*
X191248Y362210D02*
X186334Y362210D01*
X191248Y362210D02*
X191248Y354838D01*
X186334Y354838D01*
X188791Y358524D02*
X191248Y358524D01*
X180078Y362210D02*
X178849Y360982D01*
X180078Y362210D02*
X182536Y362210D01*
X183764Y360982D01*
X183764Y359753D01*
X182536Y358524D01*
X180078Y358524D01*
X178849Y357295D01*
X178849Y356067D01*
X180078Y354838D01*
X182536Y354838D01*
X183764Y356067D01*
X176280Y354838D02*
X176280Y362210D01*
X172594Y362210D01*
X171365Y360982D01*
X171365Y358524D01*
X172594Y357295D01*
X176280Y357295D01*
X168796Y360982D02*
X167567Y362210D01*
X165110Y362210D01*
X163881Y360982D01*
X163881Y359753D01*
X165110Y358524D01*
X166339Y358524D01*
X165110Y358524D02*
X163881Y357295D01*
X163881Y356067D01*
X165110Y354838D01*
X167567Y354838D01*
X168796Y356067D01*
X161312Y354838D02*
X156397Y354838D01*
X161312Y354838D02*
X156397Y359753D01*
X156397Y360982D01*
X157626Y362210D01*
X160083Y362210D01*
X161312Y360982D01*
X748284Y453668D02*
X755656Y453668D01*
X755656Y457354D01*
X754428Y458582D01*
X751970Y458582D01*
X750741Y457354D01*
X750741Y453668D01*
X750741Y456125D02*
X748284Y458582D01*
X748284Y462380D02*
X748284Y464838D01*
X748284Y462380D02*
X749513Y461152D01*
X751970Y461152D01*
X753199Y462380D01*
X753199Y464838D01*
X751970Y466067D01*
X750741Y466067D01*
X750741Y461152D01*
X748284Y468636D02*
X753199Y468636D01*
X753199Y469865D01*
X751970Y471093D01*
X748284Y471093D01*
X751970Y471093D02*
X753199Y472322D01*
X751970Y473551D01*
X748284Y473551D01*
X748284Y477349D02*
X748284Y479806D01*
X749513Y481035D01*
X751970Y481035D01*
X753199Y479806D01*
X753199Y477349D01*
X751970Y476120D01*
X749513Y476120D01*
X748284Y477349D01*
X753199Y483604D02*
X748284Y486062D01*
X753199Y488519D01*
X748284Y492317D02*
X748284Y494774D01*
X748284Y492317D02*
X749513Y491088D01*
X751970Y491088D01*
X753199Y492317D01*
X753199Y494774D01*
X751970Y496003D01*
X750741Y496003D01*
X750741Y491088D01*
X745827Y506057D02*
X745827Y507285D01*
X747055Y508514D01*
X753199Y508514D01*
X755656Y508514D02*
X756885Y508514D01*
X753199Y511046D02*
X749513Y511046D01*
X748284Y512275D01*
X748284Y515961D01*
X753199Y515961D01*
X753199Y518530D02*
X748284Y518530D01*
X753199Y518530D02*
X753199Y519759D01*
X751970Y520988D01*
X748284Y520988D01*
X751970Y520988D02*
X753199Y522216D01*
X751970Y523445D01*
X748284Y523445D01*
X745827Y526014D02*
X753199Y526014D01*
X753199Y529701D01*
X751970Y530929D01*
X749513Y530929D01*
X748284Y529701D01*
X748284Y526014D01*
X748284Y534727D02*
X748284Y537185D01*
X748284Y534727D02*
X749513Y533499D01*
X751970Y533499D01*
X753199Y534727D01*
X753199Y537185D01*
X751970Y538413D01*
X750741Y538413D01*
X750741Y533499D01*
X748284Y540983D02*
X753199Y540983D01*
X753199Y543440D02*
X750741Y540983D01*
X753199Y543440D02*
X753199Y544669D01*
X741007Y450530D02*
X741007Y449302D01*
X741007Y450530D02*
X736092Y450530D01*
X736092Y449302D02*
X736092Y451759D01*
X743464Y450530D02*
X744693Y450530D01*
X742236Y455520D02*
X736092Y455520D01*
X742236Y455520D02*
X743464Y456749D01*
X739778Y456749D02*
X739778Y454291D01*
X743464Y466765D02*
X743464Y471680D01*
X743464Y466765D02*
X736092Y466765D01*
X736092Y471680D01*
X739778Y469222D02*
X739778Y466765D01*
X743464Y477935D02*
X742236Y479164D01*
X743464Y477935D02*
X743464Y475478D01*
X742236Y474249D01*
X741007Y474249D01*
X739778Y475478D01*
X739778Y477935D01*
X738549Y479164D01*
X737321Y479164D01*
X736092Y477935D01*
X736092Y475478D01*
X737321Y474249D01*
X743464Y485419D02*
X742236Y486648D01*
X743464Y485419D02*
X743464Y482962D01*
X742236Y481733D01*
X737321Y481733D01*
X736092Y482962D01*
X736092Y485419D01*
X737321Y486648D01*
X737321Y496701D02*
X741007Y496701D01*
X737321Y496701D02*
X736092Y497930D01*
X737321Y499159D01*
X736092Y500388D01*
X737321Y501616D01*
X741007Y501616D01*
X741007Y504186D02*
X741007Y505414D01*
X736092Y505414D01*
X736092Y504186D02*
X736092Y506643D01*
X743464Y505414D02*
X744693Y505414D01*
X742236Y510404D02*
X737321Y510404D01*
X736092Y511632D01*
X741007Y511632D02*
X741007Y509175D01*
X743464Y514164D02*
X736092Y514164D01*
X739778Y514164D02*
X741007Y515393D01*
X741007Y517851D01*
X739778Y519079D01*
X736092Y519079D01*
X736092Y529133D02*
X743464Y529133D01*
X743464Y532819D01*
X742236Y534048D01*
X741007Y534048D01*
X739778Y532819D01*
X738549Y534048D01*
X737321Y534048D01*
X736092Y532819D01*
X736092Y529133D01*
X739778Y529133D02*
X739778Y532819D01*
X743464Y536617D02*
X743464Y541532D01*
X743464Y536617D02*
X736092Y536617D01*
X736092Y541532D01*
X739778Y539074D02*
X739778Y536617D01*
X743464Y547787D02*
X742236Y549016D01*
X743464Y547787D02*
X743464Y545330D01*
X742236Y544101D01*
X737321Y544101D01*
X736092Y545330D01*
X736092Y547787D01*
X737321Y549016D01*
X728815Y456767D02*
X728815Y455539D01*
X728815Y456767D02*
X723900Y456767D01*
X723900Y455539D02*
X723900Y457996D01*
X731272Y456767D02*
X732501Y456767D01*
X723900Y460528D02*
X723900Y464214D01*
X725129Y465443D01*
X726357Y464214D01*
X726357Y461757D01*
X727586Y460528D01*
X728815Y461757D01*
X728815Y465443D01*
X728815Y476725D02*
X728815Y480411D01*
X728815Y476725D02*
X727586Y475496D01*
X725129Y475496D01*
X723900Y476725D01*
X723900Y480411D01*
X723900Y484209D02*
X723900Y486667D01*
X725129Y487895D01*
X727586Y487895D01*
X728815Y486667D01*
X728815Y484209D01*
X727586Y482980D01*
X725129Y482980D01*
X723900Y484209D01*
X723900Y490465D02*
X728815Y490465D01*
X728815Y494151D01*
X727586Y495379D01*
X723900Y495379D01*
X723900Y497949D02*
X728815Y497949D01*
X728815Y501635D01*
X727586Y502864D01*
X723900Y502864D01*
X723900Y506662D02*
X723900Y509119D01*
X723900Y506662D02*
X725129Y505433D01*
X727586Y505433D01*
X728815Y506662D01*
X728815Y509119D01*
X727586Y510348D01*
X726357Y510348D01*
X726357Y505433D01*
X728815Y514146D02*
X728815Y517832D01*
X728815Y514146D02*
X727586Y512917D01*
X725129Y512917D01*
X723900Y514146D01*
X723900Y517832D01*
X725129Y521630D02*
X730044Y521630D01*
X725129Y521630D02*
X723900Y522859D01*
X728815Y522859D02*
X728815Y520401D01*
X723900Y526619D02*
X723900Y529077D01*
X723900Y526619D02*
X725129Y525391D01*
X727586Y525391D01*
X728815Y526619D01*
X728815Y529077D01*
X727586Y530306D01*
X726357Y530306D01*
X726357Y525391D01*
X723900Y537790D02*
X731272Y537790D01*
X723900Y537790D02*
X723900Y534104D01*
X725129Y532875D01*
X727586Y532875D01*
X728815Y534104D01*
X728815Y537790D01*
X725129Y540359D02*
X723900Y540359D01*
X727586Y540359D02*
X732501Y540359D01*
X725129Y542854D02*
X723900Y542854D01*
X727586Y542854D02*
X732501Y542854D01*
X321657Y343414D02*
X321657Y336042D01*
X319200Y340957D02*
X321657Y343414D01*
X319200Y340957D02*
X316742Y343414D01*
X316742Y336042D01*
X312944Y336042D02*
X310487Y336042D01*
X309258Y337271D01*
X309258Y339728D01*
X310487Y340957D01*
X312944Y340957D01*
X314173Y339728D01*
X314173Y337271D01*
X312944Y336042D01*
X301774Y336042D02*
X301774Y343414D01*
X301774Y336042D02*
X305460Y336042D01*
X306689Y337271D01*
X306689Y339728D01*
X305460Y340957D01*
X301774Y340957D01*
X299205Y340957D02*
X297976Y340957D01*
X297976Y336042D01*
X299205Y336042D02*
X296747Y336042D01*
X297976Y343414D02*
X297976Y344643D01*
X292987Y342186D02*
X292987Y336042D01*
X292987Y342186D02*
X291758Y343414D01*
X291758Y339728D02*
X294215Y339728D01*
X289226Y340957D02*
X287997Y340957D01*
X287997Y336042D01*
X289226Y336042D02*
X286768Y336042D01*
X287997Y343414D02*
X287997Y344643D01*
X283008Y336042D02*
X280550Y336042D01*
X283008Y336042D02*
X284236Y337271D01*
X284236Y339728D01*
X283008Y340957D01*
X280550Y340957D01*
X279322Y339728D01*
X279322Y338499D01*
X284236Y338499D01*
X271837Y336042D02*
X271837Y343414D01*
X271837Y336042D02*
X275524Y336042D01*
X276752Y337271D01*
X276752Y339728D01*
X275524Y340957D01*
X271837Y340957D01*
X261784Y343414D02*
X261784Y336042D01*
X258098Y336042D01*
X256869Y337271D01*
X256869Y339728D01*
X258098Y340957D01*
X261784Y340957D01*
X254300Y340957D02*
X254300Y337271D01*
X253071Y336042D01*
X249385Y336042D01*
X249385Y334813D02*
X249385Y340957D01*
X249385Y334813D02*
X250614Y333585D01*
X251842Y333585D01*
X239332Y336042D02*
X239332Y343414D01*
X235645Y343414D01*
X234417Y342186D01*
X234417Y339728D01*
X235645Y338499D01*
X239332Y338499D01*
X231847Y336042D02*
X231847Y343414D01*
X231847Y339728D02*
X226933Y339728D01*
X226933Y343414D02*
X226933Y336042D01*
X224363Y336042D02*
X224363Y343414D01*
X224363Y336042D02*
X219448Y336042D01*
X209395Y337271D02*
X209395Y342186D01*
X208166Y343414D01*
X205709Y343414D01*
X204480Y342186D01*
X204480Y337271D01*
X205709Y336042D01*
X208166Y336042D01*
X209395Y337271D01*
X204480Y342186D01*
X201911Y336042D02*
X196996Y336042D01*
X201911Y336042D02*
X196996Y340957D01*
X196996Y342186D01*
X198225Y343414D01*
X200682Y343414D01*
X201911Y342186D01*
X194427Y339728D02*
X189512Y339728D01*
X186942Y336042D02*
X182028Y336042D01*
X186942Y336042D02*
X182028Y340957D01*
X182028Y342186D01*
X183256Y343414D01*
X185714Y343414D01*
X186942Y342186D01*
X179458Y342186D02*
X179458Y337271D01*
X179458Y342186D02*
X178230Y343414D01*
X175772Y343414D01*
X174543Y342186D01*
X174543Y337271D01*
X175772Y336042D01*
X178230Y336042D01*
X179458Y337271D01*
X174543Y342186D01*
X171974Y336042D02*
X167059Y336042D01*
X171974Y336042D02*
X167059Y340957D01*
X167059Y342186D01*
X168288Y343414D01*
X170745Y343414D01*
X171974Y342186D01*
X164490Y343414D02*
X159575Y343414D01*
X164490Y343414D02*
X164490Y339728D01*
X162033Y340957D01*
X160804Y340957D01*
X159575Y339728D01*
X159575Y337271D01*
X160804Y336042D01*
X163261Y336042D01*
X164490Y337271D01*
D13*
X588010Y276860D02*
X631190Y276860D01*
X633730Y259080D02*
X633728Y258980D01*
X633722Y258881D01*
X633712Y258781D01*
X633699Y258683D01*
X633681Y258584D01*
X633660Y258487D01*
X633635Y258391D01*
X633606Y258295D01*
X633573Y258201D01*
X633537Y258108D01*
X633497Y258017D01*
X633453Y257927D01*
X633406Y257839D01*
X633356Y257753D01*
X633302Y257669D01*
X633245Y257587D01*
X633185Y257508D01*
X633121Y257430D01*
X633055Y257356D01*
X632986Y257284D01*
X632914Y257215D01*
X632840Y257149D01*
X632762Y257085D01*
X632683Y257025D01*
X632601Y256968D01*
X632517Y256914D01*
X632431Y256864D01*
X632343Y256817D01*
X632253Y256773D01*
X632162Y256733D01*
X632069Y256697D01*
X631975Y256664D01*
X631879Y256635D01*
X631783Y256610D01*
X631686Y256589D01*
X631587Y256571D01*
X631489Y256558D01*
X631389Y256548D01*
X631290Y256542D01*
X631190Y256540D01*
X588010Y256540D02*
X587910Y256542D01*
X587811Y256548D01*
X587711Y256558D01*
X587613Y256571D01*
X587514Y256589D01*
X587417Y256610D01*
X587321Y256635D01*
X587225Y256664D01*
X587131Y256697D01*
X587038Y256733D01*
X586947Y256773D01*
X586857Y256817D01*
X586769Y256864D01*
X586683Y256914D01*
X586599Y256968D01*
X586517Y257025D01*
X586438Y257085D01*
X586360Y257149D01*
X586286Y257215D01*
X586214Y257284D01*
X586145Y257356D01*
X586079Y257430D01*
X586015Y257508D01*
X585955Y257587D01*
X585898Y257669D01*
X585844Y257753D01*
X585794Y257839D01*
X585747Y257927D01*
X585703Y258017D01*
X585663Y258108D01*
X585627Y258201D01*
X585594Y258295D01*
X585565Y258391D01*
X585540Y258487D01*
X585519Y258584D01*
X585501Y258683D01*
X585488Y258781D01*
X585478Y258881D01*
X585472Y258980D01*
X585470Y259080D01*
X585470Y274320D02*
X585472Y274420D01*
X585478Y274519D01*
X585488Y274619D01*
X585501Y274717D01*
X585519Y274816D01*
X585540Y274913D01*
X585565Y275009D01*
X585594Y275105D01*
X585627Y275199D01*
X585663Y275292D01*
X585703Y275383D01*
X585747Y275473D01*
X585794Y275561D01*
X585844Y275647D01*
X585898Y275731D01*
X585955Y275813D01*
X586015Y275892D01*
X586079Y275970D01*
X586145Y276044D01*
X586214Y276116D01*
X586286Y276185D01*
X586360Y276251D01*
X586438Y276315D01*
X586517Y276375D01*
X586599Y276432D01*
X586683Y276486D01*
X586769Y276536D01*
X586857Y276583D01*
X586947Y276627D01*
X587038Y276667D01*
X587131Y276703D01*
X587225Y276736D01*
X587321Y276765D01*
X587417Y276790D01*
X587514Y276811D01*
X587613Y276829D01*
X587711Y276842D01*
X587811Y276852D01*
X587910Y276858D01*
X588010Y276860D01*
X631190Y276860D02*
X631290Y276858D01*
X631389Y276852D01*
X631489Y276842D01*
X631587Y276829D01*
X631686Y276811D01*
X631783Y276790D01*
X631879Y276765D01*
X631975Y276736D01*
X632069Y276703D01*
X632162Y276667D01*
X632253Y276627D01*
X632343Y276583D01*
X632431Y276536D01*
X632517Y276486D01*
X632601Y276432D01*
X632683Y276375D01*
X632762Y276315D01*
X632840Y276251D01*
X632914Y276185D01*
X632986Y276116D01*
X633055Y276044D01*
X633121Y275970D01*
X633185Y275892D01*
X633245Y275813D01*
X633302Y275731D01*
X633356Y275647D01*
X633406Y275561D01*
X633453Y275473D01*
X633497Y275383D01*
X633537Y275292D01*
X633573Y275199D01*
X633606Y275105D01*
X633635Y275009D01*
X633660Y274913D01*
X633681Y274816D01*
X633699Y274717D01*
X633712Y274619D01*
X633722Y274519D01*
X633728Y274420D01*
X633730Y274320D01*
X633730Y259080D01*
X585470Y259080D02*
X585470Y274320D01*
X588010Y256540D02*
X631190Y256540D01*
X631190Y226060D02*
X588010Y226060D01*
X631190Y205740D02*
X631290Y205742D01*
X631389Y205748D01*
X631489Y205758D01*
X631587Y205771D01*
X631686Y205789D01*
X631783Y205810D01*
X631879Y205835D01*
X631975Y205864D01*
X632069Y205897D01*
X632162Y205933D01*
X632253Y205973D01*
X632343Y206017D01*
X632431Y206064D01*
X632517Y206114D01*
X632601Y206168D01*
X632683Y206225D01*
X632762Y206285D01*
X632840Y206349D01*
X632914Y206415D01*
X632986Y206484D01*
X633055Y206556D01*
X633121Y206630D01*
X633185Y206708D01*
X633245Y206787D01*
X633302Y206869D01*
X633356Y206953D01*
X633406Y207039D01*
X633453Y207127D01*
X633497Y207217D01*
X633537Y207308D01*
X633573Y207401D01*
X633606Y207495D01*
X633635Y207591D01*
X633660Y207687D01*
X633681Y207784D01*
X633699Y207883D01*
X633712Y207981D01*
X633722Y208081D01*
X633728Y208180D01*
X633730Y208280D01*
X588010Y205740D02*
X587910Y205742D01*
X587811Y205748D01*
X587711Y205758D01*
X587613Y205771D01*
X587514Y205789D01*
X587417Y205810D01*
X587321Y205835D01*
X587225Y205864D01*
X587131Y205897D01*
X587038Y205933D01*
X586947Y205973D01*
X586857Y206017D01*
X586769Y206064D01*
X586683Y206114D01*
X586599Y206168D01*
X586517Y206225D01*
X586438Y206285D01*
X586360Y206349D01*
X586286Y206415D01*
X586214Y206484D01*
X586145Y206556D01*
X586079Y206630D01*
X586015Y206708D01*
X585955Y206787D01*
X585898Y206869D01*
X585844Y206953D01*
X585794Y207039D01*
X585747Y207127D01*
X585703Y207217D01*
X585663Y207308D01*
X585627Y207401D01*
X585594Y207495D01*
X585565Y207591D01*
X585540Y207687D01*
X585519Y207784D01*
X585501Y207883D01*
X585488Y207981D01*
X585478Y208081D01*
X585472Y208180D01*
X585470Y208280D01*
X585470Y223520D02*
X585472Y223620D01*
X585478Y223719D01*
X585488Y223819D01*
X585501Y223917D01*
X585519Y224016D01*
X585540Y224113D01*
X585565Y224209D01*
X585594Y224305D01*
X585627Y224399D01*
X585663Y224492D01*
X585703Y224583D01*
X585747Y224673D01*
X585794Y224761D01*
X585844Y224847D01*
X585898Y224931D01*
X585955Y225013D01*
X586015Y225092D01*
X586079Y225170D01*
X586145Y225244D01*
X586214Y225316D01*
X586286Y225385D01*
X586360Y225451D01*
X586438Y225515D01*
X586517Y225575D01*
X586599Y225632D01*
X586683Y225686D01*
X586769Y225736D01*
X586857Y225783D01*
X586947Y225827D01*
X587038Y225867D01*
X587131Y225903D01*
X587225Y225936D01*
X587321Y225965D01*
X587417Y225990D01*
X587514Y226011D01*
X587613Y226029D01*
X587711Y226042D01*
X587811Y226052D01*
X587910Y226058D01*
X588010Y226060D01*
X631190Y226060D02*
X631290Y226058D01*
X631389Y226052D01*
X631489Y226042D01*
X631587Y226029D01*
X631686Y226011D01*
X631783Y225990D01*
X631879Y225965D01*
X631975Y225936D01*
X632069Y225903D01*
X632162Y225867D01*
X632253Y225827D01*
X632343Y225783D01*
X632431Y225736D01*
X632517Y225686D01*
X632601Y225632D01*
X632683Y225575D01*
X632762Y225515D01*
X632840Y225451D01*
X632914Y225385D01*
X632986Y225316D01*
X633055Y225244D01*
X633121Y225170D01*
X633185Y225092D01*
X633245Y225013D01*
X633302Y224931D01*
X633356Y224847D01*
X633406Y224761D01*
X633453Y224673D01*
X633497Y224583D01*
X633537Y224492D01*
X633573Y224399D01*
X633606Y224305D01*
X633635Y224209D01*
X633660Y224113D01*
X633681Y224016D01*
X633699Y223917D01*
X633712Y223819D01*
X633722Y223719D01*
X633728Y223620D01*
X633730Y223520D01*
X633730Y208280D01*
X585470Y208280D02*
X585470Y223520D01*
X588010Y205740D02*
X631190Y205740D01*
M02*
