G04 EAGLE Gerber RS-274X export*
G75*
%MOMM*%
%FSLAX34Y34*%
%LPD*%
%INSoldermask Bottom*%
%IPPOS*%
%AMOC8*
5,1,8,0,0,1.08239X$1,22.5*%
G01*
%ADD10C,3.149600*%
%ADD11C,1.943100*%
%ADD12C,1.371600*%
%ADD13C,1.676400*%
%ADD14P,1.814519X8X112.500000*%
%ADD15R,1.676400X1.676400*%
%ADD16C,2.152400*%
%ADD17R,2.152400X2.152400*%
%ADD18R,1.320800X1.752600*%
%ADD19C,1.502400*%
%ADD20C,0.858000*%


D10*
X19050Y527050D03*
X19050Y19050D03*
X679450Y19050D03*
X679450Y527050D03*
D11*
X72454Y228600D02*
X54547Y228600D01*
X54547Y177800D02*
X72454Y177800D01*
D12*
X34925Y330454D02*
X34925Y342646D01*
X85725Y342646D02*
X85725Y330454D01*
X60325Y330454D02*
X60325Y342646D01*
D13*
X215900Y520700D03*
X215900Y495300D03*
X215900Y469900D03*
X266700Y520700D03*
X266700Y495300D03*
X266700Y469900D03*
X317500Y520700D03*
X317500Y495300D03*
X317500Y469900D03*
X368300Y520700D03*
X368300Y495300D03*
X368300Y469900D03*
X495300Y520700D03*
X495300Y495300D03*
X495300Y469900D03*
X571500Y520700D03*
X571500Y495300D03*
X571500Y469900D03*
X660400Y139700D03*
X660400Y114300D03*
X342900Y25400D03*
X342900Y50800D03*
X139700Y25400D03*
X139700Y50800D03*
X88900Y25400D03*
X88900Y50800D03*
X114300Y25400D03*
X114300Y50800D03*
X190500Y25400D03*
X190500Y50800D03*
X241300Y25400D03*
X241300Y50800D03*
D14*
X660400Y368300D03*
X635000Y368300D03*
X660400Y393700D03*
X635000Y393700D03*
X660400Y419100D03*
X635000Y419100D03*
D13*
X139700Y127000D03*
X190500Y127000D03*
X215900Y127000D03*
X241300Y127000D03*
X266700Y127000D03*
X292100Y127000D03*
X317500Y127000D03*
X342900Y127000D03*
X368300Y127000D03*
X393700Y127000D03*
X419100Y127000D03*
X444500Y127000D03*
X469900Y127000D03*
X495300Y127000D03*
X139700Y381000D03*
X165100Y381000D03*
X190400Y381000D03*
X215900Y381000D03*
X241300Y381000D03*
X266700Y381000D03*
X292100Y381000D03*
X317500Y381000D03*
X342900Y381000D03*
X368300Y381000D03*
X393700Y381000D03*
X419100Y381000D03*
X444500Y381000D03*
X469900Y381000D03*
X495300Y381000D03*
X165100Y127000D03*
X292100Y520700D03*
X292100Y495300D03*
X292100Y469900D03*
X292100Y25400D03*
X292100Y50800D03*
X317500Y25400D03*
X317500Y50800D03*
X393700Y25400D03*
X393700Y50800D03*
X368300Y25400D03*
X368300Y50800D03*
X165100Y25400D03*
X165100Y50800D03*
X266700Y25400D03*
X266700Y50800D03*
X215900Y25400D03*
X215900Y50800D03*
D15*
X406400Y174625D03*
D13*
X406400Y200025D03*
X406400Y282575D03*
X406400Y307975D03*
X406400Y333375D03*
D16*
X142240Y304350D03*
D17*
X142240Y165550D03*
D16*
X327660Y304350D03*
X142240Y278950D03*
X327660Y278950D03*
D17*
X142240Y190950D03*
X327660Y165550D03*
X327660Y190950D03*
D13*
X482600Y25400D03*
X508000Y25400D03*
X533400Y25400D03*
X558800Y25400D03*
X584200Y25400D03*
X609600Y25400D03*
X635000Y25400D03*
D18*
X594360Y266700D03*
X609600Y266700D03*
X624840Y266700D03*
X594360Y215900D03*
X609600Y215900D03*
X624840Y215900D03*
D13*
X660400Y317500D03*
X660400Y292100D03*
X660400Y266700D03*
X660400Y241300D03*
X660400Y215900D03*
X660400Y190500D03*
X622300Y520700D03*
X622300Y495300D03*
X469900Y520700D03*
X469900Y495300D03*
X469900Y469900D03*
X469900Y444500D03*
X342900Y520700D03*
X342900Y495300D03*
X342900Y469900D03*
X342900Y444500D03*
X393700Y520700D03*
X393700Y495300D03*
X393700Y469900D03*
X139700Y95250D03*
X165100Y95250D03*
X190500Y95250D03*
X215900Y95250D03*
X241300Y95250D03*
X266700Y95250D03*
X292100Y95250D03*
X317500Y95250D03*
X342900Y95250D03*
X368300Y95250D03*
X393700Y95250D03*
X419100Y95250D03*
X444500Y95250D03*
X469900Y95250D03*
X495300Y95250D03*
X139700Y412750D03*
X165100Y412750D03*
X190500Y412750D03*
X215900Y412750D03*
X241300Y412750D03*
X266700Y412750D03*
X292100Y412750D03*
X317500Y412750D03*
X342900Y412750D03*
X368300Y412750D03*
X393700Y412750D03*
X419100Y412750D03*
X444500Y412750D03*
X469900Y412750D03*
X495300Y412750D03*
X520700Y520700D03*
X520700Y495300D03*
X520700Y469900D03*
X444500Y520700D03*
X444500Y495300D03*
X444500Y469900D03*
X444500Y444500D03*
X419100Y520700D03*
X419100Y495300D03*
X419100Y469900D03*
X241300Y520700D03*
X241300Y495300D03*
X241300Y469900D03*
X241300Y444500D03*
X190500Y520700D03*
X190500Y495300D03*
X190500Y469900D03*
D19*
X165100Y244475D03*
X149225Y244475D03*
D20*
X615950Y244602D03*
X282575Y180975D03*
X549275Y161925D03*
X539750Y161925D03*
X292100Y180975D03*
X282575Y171450D03*
X539750Y152400D03*
X539750Y415925D03*
D19*
X95250Y485775D03*
X95250Y501650D03*
X95250Y517525D03*
X66675Y520700D03*
X66675Y504825D03*
D20*
X120650Y349250D03*
X426720Y431800D03*
X520725Y330200D03*
X508109Y304692D03*
X568727Y284861D03*
X571500Y266700D03*
X450850Y206375D03*
X374650Y180975D03*
D19*
X96266Y165100D03*
M02*
