G04 EAGLE Gerber RS-274X export*
G75*
%MOMM*%
%FSLAX34Y34*%
%LPD*%
%INSolderpaste Top*%
%IPPOS*%
%AMOC8*
5,1,8,0,0,1.08239X$1,22.5*%
G01*
%ADD10R,1.500000X1.300000*%
%ADD11R,3.600000X1.300000*%
%ADD12R,1.300000X1.500000*%
%ADD13R,0.660400X2.032000*%
%ADD14R,1.470000X1.270000*%
%ADD15R,1.270000X1.470000*%
%ADD16R,1.600000X1.800000*%


D10*
X304800Y338163D03*
X304800Y357163D03*
X279400Y338163D03*
X279400Y357163D03*
D11*
X65275Y485775D03*
X144025Y485775D03*
D10*
X177800Y338163D03*
X177800Y357163D03*
X203200Y338163D03*
X203200Y357163D03*
X228600Y338163D03*
X228600Y357163D03*
X254000Y338163D03*
X254000Y357163D03*
X330200Y338163D03*
X330200Y357163D03*
X355600Y338163D03*
X355600Y357163D03*
X381000Y338163D03*
X381000Y357163D03*
X431800Y338163D03*
X431800Y357163D03*
X482600Y357163D03*
X482600Y338163D03*
D12*
X546125Y304800D03*
X565125Y304800D03*
X584225Y276225D03*
X603225Y276225D03*
X546125Y330200D03*
X565125Y330200D03*
D13*
X184150Y181991D03*
X184150Y243459D03*
X196850Y181991D03*
X209550Y181991D03*
X196850Y243459D03*
X209550Y243459D03*
X222250Y181991D03*
X222250Y243459D03*
X234950Y181991D03*
X234950Y243459D03*
X247650Y181991D03*
X260350Y181991D03*
X247650Y243459D03*
X260350Y243459D03*
X273050Y181991D03*
X273050Y243459D03*
X463550Y181991D03*
X463550Y243459D03*
X476250Y181991D03*
X488950Y181991D03*
X476250Y243459D03*
X488950Y243459D03*
X501650Y181991D03*
X501650Y243459D03*
X514350Y181991D03*
X514350Y243459D03*
X527050Y181991D03*
X539750Y181991D03*
X527050Y243459D03*
X539750Y243459D03*
X552450Y181991D03*
X552450Y243459D03*
D14*
X625475Y146775D03*
X625475Y189775D03*
D15*
X42000Y377825D03*
X85000Y377825D03*
D16*
X547400Y381000D03*
X519400Y381000D03*
D15*
X42000Y133350D03*
X85000Y133350D03*
D10*
X457609Y338251D03*
X457609Y357251D03*
D12*
X136550Y356870D03*
X155550Y356870D03*
M02*
