G04 EAGLE Gerber RS-274X export*
G75*
%MOMM*%
%FSLAX34Y34*%
%LPD*%
%INSoldermask Top*%
%IPPOS*%
%AMOC8*
5,1,8,0,0,1.08239X$1,22.5*%
G01*
%ADD10C,3.149600*%
%ADD11C,1.943100*%
%ADD12C,1.371600*%
%ADD13R,1.652400X1.452400*%
%ADD14R,3.752400X1.452400*%
%ADD15C,1.676400*%
%ADD16R,1.452400X1.652400*%
%ADD17P,1.814519X8X112.500000*%
%ADD18R,0.812800X2.184400*%
%ADD19R,1.676400X1.676400*%
%ADD20R,1.622400X1.422400*%
%ADD21R,1.422400X1.622400*%
%ADD22R,1.752400X1.952400*%
%ADD23C,2.152400*%
%ADD24R,2.152400X2.152400*%
%ADD25C,1.502400*%
%ADD26C,0.858000*%


D10*
X19050Y527050D03*
X19050Y19050D03*
X679450Y19050D03*
X679450Y527050D03*
D11*
X72454Y228600D02*
X54547Y228600D01*
X54547Y177800D02*
X72454Y177800D01*
D12*
X34925Y330454D02*
X34925Y342646D01*
X85725Y342646D02*
X85725Y330454D01*
X60325Y330454D02*
X60325Y342646D01*
D13*
X304800Y338163D03*
X304800Y357163D03*
X279400Y338163D03*
X279400Y357163D03*
D14*
X65275Y485775D03*
X144025Y485775D03*
D15*
X215900Y520700D03*
X215900Y495300D03*
X215900Y469900D03*
D13*
X177800Y338163D03*
X177800Y357163D03*
D15*
X266700Y520700D03*
X266700Y495300D03*
X266700Y469900D03*
D13*
X203200Y338163D03*
X203200Y357163D03*
D15*
X317500Y520700D03*
X317500Y495300D03*
X317500Y469900D03*
D13*
X228600Y338163D03*
X228600Y357163D03*
D15*
X368300Y520700D03*
X368300Y495300D03*
X368300Y469900D03*
D13*
X254000Y338163D03*
X254000Y357163D03*
X330200Y338163D03*
X330200Y357163D03*
X355600Y338163D03*
X355600Y357163D03*
X381000Y338163D03*
X381000Y357163D03*
D15*
X495300Y520700D03*
X495300Y495300D03*
X495300Y469900D03*
D13*
X431800Y338163D03*
X431800Y357163D03*
D15*
X571500Y520700D03*
X571500Y495300D03*
X571500Y469900D03*
D13*
X482600Y357163D03*
X482600Y338163D03*
D15*
X660400Y139700D03*
X660400Y114300D03*
X342900Y25400D03*
X342900Y50800D03*
X139700Y25400D03*
X139700Y50800D03*
X88900Y25400D03*
X88900Y50800D03*
X114300Y25400D03*
X114300Y50800D03*
X190500Y25400D03*
X190500Y50800D03*
X241300Y25400D03*
X241300Y50800D03*
D16*
X546125Y304800D03*
X565125Y304800D03*
X584225Y276225D03*
X603225Y276225D03*
X546125Y330200D03*
X565125Y330200D03*
D17*
X660400Y368300D03*
X635000Y368300D03*
X660400Y393700D03*
X635000Y393700D03*
X660400Y419100D03*
X635000Y419100D03*
D15*
X139700Y127000D03*
X190500Y127000D03*
X215900Y127000D03*
X241300Y127000D03*
X266700Y127000D03*
X292100Y127000D03*
X317500Y127000D03*
X342900Y127000D03*
X368300Y127000D03*
X393700Y127000D03*
X419100Y127000D03*
X444500Y127000D03*
X469900Y127000D03*
X495300Y127000D03*
X139700Y381000D03*
X165100Y381000D03*
X190400Y381000D03*
X215900Y381000D03*
X241300Y381000D03*
X266700Y381000D03*
X292100Y381000D03*
X317500Y381000D03*
X342900Y381000D03*
X368300Y381000D03*
X393700Y381000D03*
X419100Y381000D03*
X444500Y381000D03*
X469900Y381000D03*
X495300Y381000D03*
X165100Y127000D03*
X292100Y520700D03*
X292100Y495300D03*
X292100Y469900D03*
X292100Y25400D03*
X292100Y50800D03*
X317500Y25400D03*
X317500Y50800D03*
X393700Y25400D03*
X393700Y50800D03*
X368300Y25400D03*
X368300Y50800D03*
X165100Y25400D03*
X165100Y50800D03*
X266700Y25400D03*
X266700Y50800D03*
X215900Y25400D03*
X215900Y50800D03*
D18*
X184150Y181991D03*
X184150Y243459D03*
X196850Y181991D03*
X209550Y181991D03*
X196850Y243459D03*
X209550Y243459D03*
X222250Y181991D03*
X222250Y243459D03*
X234950Y181991D03*
X234950Y243459D03*
X247650Y181991D03*
X260350Y181991D03*
X247650Y243459D03*
X260350Y243459D03*
X273050Y181991D03*
X273050Y243459D03*
D19*
X406400Y174625D03*
D15*
X406400Y200025D03*
X406400Y282575D03*
X406400Y307975D03*
X406400Y333375D03*
D18*
X463550Y181991D03*
X463550Y243459D03*
X476250Y181991D03*
X488950Y181991D03*
X476250Y243459D03*
X488950Y243459D03*
X501650Y181991D03*
X501650Y243459D03*
X514350Y181991D03*
X514350Y243459D03*
X527050Y181991D03*
X539750Y181991D03*
X527050Y243459D03*
X539750Y243459D03*
X552450Y181991D03*
X552450Y243459D03*
D20*
X625475Y146775D03*
X625475Y189775D03*
D21*
X42000Y377825D03*
X85000Y377825D03*
D22*
X547400Y381000D03*
X519400Y381000D03*
D23*
X142240Y304350D03*
D24*
X142240Y165550D03*
D23*
X327660Y304350D03*
X142240Y278950D03*
X327660Y278950D03*
D24*
X142240Y190950D03*
X327660Y165550D03*
X327660Y190950D03*
D15*
X482600Y25400D03*
X508000Y25400D03*
X533400Y25400D03*
X558800Y25400D03*
X584200Y25400D03*
X609600Y25400D03*
X635000Y25400D03*
X660400Y317500D03*
X660400Y292100D03*
X660400Y266700D03*
X660400Y241300D03*
X660400Y215900D03*
X660400Y190500D03*
D21*
X42000Y133350D03*
X85000Y133350D03*
D15*
X622300Y520700D03*
X622300Y495300D03*
X469900Y520700D03*
X469900Y495300D03*
X469900Y469900D03*
X469900Y444500D03*
X342900Y520700D03*
X342900Y495300D03*
X342900Y469900D03*
X342900Y444500D03*
X393700Y520700D03*
X393700Y495300D03*
X393700Y469900D03*
X139700Y95250D03*
X165100Y95250D03*
X190500Y95250D03*
X215900Y95250D03*
X241300Y95250D03*
X266700Y95250D03*
X292100Y95250D03*
X317500Y95250D03*
X342900Y95250D03*
X368300Y95250D03*
X393700Y95250D03*
X419100Y95250D03*
X444500Y95250D03*
X469900Y95250D03*
X495300Y95250D03*
X139700Y412750D03*
X165100Y412750D03*
X190500Y412750D03*
X215900Y412750D03*
X241300Y412750D03*
X266700Y412750D03*
X292100Y412750D03*
X317500Y412750D03*
X342900Y412750D03*
X368300Y412750D03*
X393700Y412750D03*
X419100Y412750D03*
X444500Y412750D03*
X469900Y412750D03*
X495300Y412750D03*
X520700Y520700D03*
X520700Y495300D03*
X520700Y469900D03*
D13*
X457609Y338251D03*
X457609Y357251D03*
D15*
X444500Y520700D03*
X444500Y495300D03*
X444500Y469900D03*
X444500Y444500D03*
X419100Y520700D03*
X419100Y495300D03*
X419100Y469900D03*
X241300Y520700D03*
X241300Y495300D03*
X241300Y469900D03*
X241300Y444500D03*
X190500Y520700D03*
X190500Y495300D03*
X190500Y469900D03*
D16*
X136550Y356870D03*
X155550Y356870D03*
D25*
X165100Y244475D03*
X149225Y244475D03*
D26*
X615950Y244602D03*
X282575Y180975D03*
X549275Y161925D03*
X539750Y161925D03*
X292100Y180975D03*
X282575Y171450D03*
X539750Y152400D03*
X539750Y415925D03*
D25*
X95250Y485775D03*
X95250Y501650D03*
X95250Y517525D03*
X66675Y520700D03*
X66675Y504825D03*
D26*
X120650Y349250D03*
X426720Y431800D03*
X520725Y330200D03*
X508109Y304692D03*
X568727Y284861D03*
X571500Y266700D03*
X450850Y206375D03*
X374650Y180975D03*
D25*
X96266Y165100D03*
M02*
